<?xml version="1.0" encoding="UTF-8" standalone="no"?>
<!DOCTYPE svg PUBLIC "-//W3C//DTD SVG 1.1//EN" "http://www.w3.org/Graphics/SVG/1.1/DTD/svg11.dtd">
<svg width="100%" height="100%" viewBox="0 0 308 291" version="1.1" xmlns="http://www.w3.org/2000/svg" xmlns:xlink="http://www.w3.org/1999/xlink" xml:space="preserve" xmlns:serif="http://www.serif.com/" style="fill-rule:evenodd;clip-rule:evenodd;stroke-linecap:round;stroke-linejoin:round;">
    <g transform="matrix(1,0,0,1,-19.176,366.443)">
        <path d="M287.634,-151.511L324.59,-93.573C326.875,-89.991 327.027,-85.432 324.984,-81.706C322.941,-77.98 319.016,-75.656 314.767,-75.656L30.828,-75.656C26.579,-75.656 22.654,-77.98 20.611,-81.706C18.567,-85.431 18.717,-89.99 21,-93.573L57.956,-151.511L287.634,-151.511Z" style="fill:rgb(1,29,106);"/>
    </g>
    <g transform="matrix(1,0,0,1,-66.358,456.223)">
        <path d="M326.294,-254.651L113.664,-254.651L162.564,-331.308L277.4,-331.308L326.294,-254.651Z" style="fill:rgb(1,29,106);"/>
    </g>
    <g transform="matrix(1,0,0,1,-123.625,525.177)">
        <path d="M277.246,-448.52L290.564,-469.4L326.142,-413.622L228.349,-413.622L263.927,-469.4L277.246,-448.52Z" style="fill:rgb(1,29,106);"/>
    </g>
    <g transform="matrix(1,0,0,1,-133.2,580.808)">
        <path d="M300.139,-525.03L286.821,-545.91L273.5,-525.03L249.351,-562.89C247.066,-566.473 246.915,-571.032 248.958,-574.758C251.001,-578.484 254.926,-580.808 259.175,-580.808L314.463,-580.808C318.712,-580.808 322.637,-578.484 324.68,-574.758C326.723,-571.032 326.572,-566.472 324.286,-562.89L300.139,-525.03Z" style="fill:rgb(1,29,106);"/>
    </g>
    <g transform="matrix(1,0,0,1,-159.109,546.003)">
        <path d="M326.049,-490.225L312.731,-469.345L299.412,-490.225L312.731,-511.105L326.049,-490.225Z" style="fill:rgb(214,222,231);"/>
    </g>
    <g transform="matrix(1,0,0,1,125.897,4.97016)">
        <g>
            <g transform="matrix(1,0,0,1,0,10)">
                <g>
                    <path d="M0.742,0L0.742,-7.158L2.168,-7.158L3.862,-2.09C4.019,-1.618 4.132,-1.265 4.204,-1.03C4.285,-1.291 4.412,-1.673 4.585,-2.178L6.299,-7.158L7.573,-7.158L7.573,0L6.66,0L6.66,-5.991L4.58,0L3.726,0L1.655,-6.094L1.655,0L0.742,0Z" style="fill:white;fill-rule:nonzero;"/>
                    <path d="M8.662,-2.593C8.662,-3.553 8.929,-4.264 9.463,-4.727C9.909,-5.111 10.452,-5.303 11.094,-5.303C11.807,-5.303 12.389,-5.069 12.842,-4.602C13.294,-4.135 13.521,-3.49 13.521,-2.666C13.521,-1.999 13.42,-1.474 13.22,-1.091C13.02,-0.709 12.729,-0.412 12.346,-0.2C11.964,0.011 11.546,0.117 11.094,0.117C10.368,0.117 9.781,-0.116 9.333,-0.581C8.886,-1.047 8.662,-1.717 8.662,-2.593ZM9.565,-2.593C9.565,-1.929 9.71,-1.431 10,-1.101C10.29,-0.771 10.654,-0.605 11.094,-0.605C11.53,-0.605 11.893,-0.771 12.183,-1.104C12.472,-1.436 12.617,-1.942 12.617,-2.622C12.617,-3.263 12.472,-3.749 12.18,-4.08C11.889,-4.41 11.527,-4.575 11.094,-4.575C10.654,-4.575 10.29,-4.411 10,-4.082C9.71,-3.753 9.565,-3.257 9.565,-2.593Z" style="fill:white;fill-rule:nonzero;"/>
                    <path d="M17.915,0L17.915,-0.654C17.586,-0.14 17.103,0.117 16.465,0.117C16.051,0.117 15.671,0.003 15.325,-0.225C14.978,-0.452 14.709,-0.771 14.519,-1.179C14.329,-1.588 14.233,-2.057 14.233,-2.588C14.233,-3.105 14.32,-3.575 14.492,-3.997C14.665,-4.418 14.924,-4.741 15.269,-4.966C15.614,-5.19 15.999,-5.303 16.426,-5.303C16.738,-5.303 17.017,-5.237 17.261,-5.105C17.505,-4.973 17.703,-4.801 17.856,-4.59L17.856,-7.158L18.73,-7.158L18.73,0L17.915,0ZM15.137,-2.588C15.137,-1.924 15.277,-1.427 15.557,-1.099C15.837,-0.77 16.167,-0.605 16.548,-0.605C16.932,-0.605 17.258,-0.763 17.527,-1.077C17.795,-1.391 17.93,-1.87 17.93,-2.515C17.93,-3.224 17.793,-3.745 17.52,-4.077C17.246,-4.409 16.909,-4.575 16.509,-4.575C16.118,-4.575 15.792,-4.416 15.53,-4.097C15.268,-3.778 15.137,-3.275 15.137,-2.588Z" style="fill:white;fill-rule:nonzero;"/>
                    <path d="M23.662,-1.67L24.57,-1.558C24.427,-1.027 24.162,-0.615 23.774,-0.322C23.387,-0.029 22.892,0.117 22.29,0.117C21.532,0.117 20.93,-0.116 20.486,-0.583C20.042,-1.051 19.819,-1.706 19.819,-2.549C19.819,-3.421 20.044,-4.098 20.493,-4.58C20.942,-5.062 21.525,-5.303 22.241,-5.303C22.935,-5.303 23.501,-5.067 23.94,-4.595C24.38,-4.123 24.6,-3.459 24.6,-2.603C24.6,-2.55 24.598,-2.472 24.595,-2.368L20.728,-2.368C20.76,-1.799 20.921,-1.362 21.211,-1.06C21.501,-0.757 21.862,-0.605 22.295,-0.605C22.617,-0.605 22.892,-0.69 23.12,-0.859C23.348,-1.029 23.529,-1.299 23.662,-1.67ZM20.776,-3.091L23.672,-3.091C23.633,-3.527 23.522,-3.854 23.34,-4.072C23.06,-4.411 22.697,-4.58 22.251,-4.58C21.847,-4.58 21.508,-4.445 21.233,-4.175C20.958,-3.905 20.806,-3.543 20.776,-3.091Z" style="fill:white;fill-rule:nonzero;"/>
                    <rect x="25.654" y="-7.158" width="0.879" height="7.158" style="fill:white;fill-rule:nonzero;"/>
                    <path d="M27.568,-2.593C27.568,-3.553 27.835,-4.264 28.369,-4.727C28.815,-5.111 29.359,-5.303 30,-5.303C30.713,-5.303 31.296,-5.069 31.748,-4.602C32.201,-4.135 32.427,-3.49 32.427,-2.666C32.427,-1.999 32.327,-1.474 32.126,-1.091C31.926,-0.709 31.635,-0.412 31.252,-0.2C30.87,0.011 30.452,0.117 30,0.117C29.274,0.117 28.687,-0.116 28.24,-0.581C27.792,-1.047 27.568,-1.717 27.568,-2.593ZM28.472,-2.593C28.472,-1.929 28.617,-1.431 28.906,-1.101C29.196,-0.771 29.561,-0.605 30,-0.605C30.436,-0.605 30.799,-0.771 31.089,-1.104C31.379,-1.436 31.523,-1.942 31.523,-2.622C31.523,-3.263 31.378,-3.749 31.086,-4.08C30.795,-4.41 30.433,-4.575 30,-4.575C29.561,-4.575 29.196,-4.411 28.906,-4.082C28.617,-3.753 28.472,-3.257 28.472,-2.593Z" style="fill:white;fill-rule:nonzero;"/>
                    <path d="M33.105,-1.548L33.975,-1.685C34.023,-1.336 34.159,-1.069 34.382,-0.884C34.605,-0.698 34.917,-0.605 35.317,-0.605C35.721,-0.605 36.021,-0.688 36.216,-0.852C36.411,-1.016 36.509,-1.209 36.509,-1.431C36.509,-1.629 36.423,-1.785 36.25,-1.899C36.13,-1.978 35.83,-2.077 35.352,-2.197C34.707,-2.36 34.26,-2.501 34.011,-2.62C33.762,-2.738 33.573,-2.903 33.445,-3.113C33.316,-3.323 33.252,-3.555 33.252,-3.809C33.252,-4.04 33.305,-4.254 33.411,-4.451C33.516,-4.648 33.66,-4.811 33.843,-4.941C33.979,-5.042 34.166,-5.128 34.402,-5.198C34.638,-5.268 34.891,-5.303 35.161,-5.303C35.568,-5.303 35.925,-5.244 36.233,-5.127C36.541,-5.01 36.768,-4.851 36.914,-4.651C37.061,-4.451 37.161,-4.183 37.217,-3.848L36.357,-3.73C36.318,-3.997 36.205,-4.206 36.018,-4.355C35.831,-4.505 35.566,-4.58 35.225,-4.58C34.821,-4.58 34.533,-4.513 34.36,-4.38C34.188,-4.246 34.102,-4.09 34.102,-3.911C34.102,-3.797 34.137,-3.695 34.209,-3.604C34.281,-3.509 34.393,-3.431 34.546,-3.369C34.634,-3.337 34.893,-3.262 35.322,-3.145C35.944,-2.979 36.378,-2.843 36.624,-2.737C36.869,-2.631 37.062,-2.477 37.202,-2.275C37.342,-2.074 37.412,-1.823 37.412,-1.523C37.412,-1.23 37.327,-0.955 37.156,-0.696C36.985,-0.437 36.738,-0.237 36.416,-0.095C36.094,0.046 35.729,0.117 35.322,0.117C34.648,0.117 34.135,-0.023 33.782,-0.303C33.429,-0.583 33.203,-0.998 33.105,-1.548Z" style="fill:white;fill-rule:nonzero;"/>
                </g>
            </g>
            <g transform="matrix(1,0,0,1,42.1399,10.1747)">
                <g>
                    <path d="M4.023,0L4.023,-0.654C3.695,-0.14 3.211,0.117 2.573,0.117C2.16,0.117 1.78,0.003 1.433,-0.225C1.086,-0.452 0.818,-0.771 0.627,-1.179C0.437,-1.588 0.342,-2.057 0.342,-2.588C0.342,-3.105 0.428,-3.575 0.601,-3.997C0.773,-4.418 1.032,-4.741 1.377,-4.966C1.722,-5.19 2.108,-5.303 2.534,-5.303C2.847,-5.303 3.125,-5.237 3.369,-5.105C3.613,-4.973 3.812,-4.801 3.965,-4.59L3.965,-7.158L4.839,-7.158L4.839,0L4.023,0ZM1.245,-2.588C1.245,-1.924 1.385,-1.427 1.665,-1.099C1.945,-0.77 2.275,-0.605 2.656,-0.605C3.04,-0.605 3.367,-0.763 3.635,-1.077C3.904,-1.391 4.038,-1.87 4.038,-2.515C4.038,-3.224 3.901,-3.745 3.628,-4.077C3.354,-4.409 3.018,-4.575 2.617,-4.575C2.227,-4.575 1.9,-4.416 1.638,-4.097C1.376,-3.778 1.245,-3.275 1.245,-2.588Z" style="fill:white;fill-rule:nonzero;"/>
                    <path d="M9.771,-1.67L10.679,-1.558C10.535,-1.027 10.27,-0.615 9.883,-0.322C9.495,-0.029 9.001,0.117 8.398,0.117C7.64,0.117 7.039,-0.116 6.594,-0.583C6.15,-1.051 5.928,-1.706 5.928,-2.549C5.928,-3.421 6.152,-4.098 6.602,-4.58C7.051,-5.062 7.633,-5.303 8.35,-5.303C9.043,-5.303 9.609,-5.067 10.049,-4.595C10.488,-4.123 10.708,-3.459 10.708,-2.603C10.708,-2.55 10.706,-2.472 10.703,-2.368L6.836,-2.368C6.868,-1.799 7.03,-1.362 7.319,-1.06C7.609,-0.757 7.97,-0.605 8.403,-0.605C8.726,-0.605 9.001,-0.69 9.229,-0.859C9.456,-1.029 9.637,-1.299 9.771,-1.67ZM6.885,-3.091L9.78,-3.091C9.741,-3.527 9.631,-3.854 9.448,-4.072C9.168,-4.411 8.805,-4.58 8.359,-4.58C7.956,-4.58 7.616,-4.445 7.341,-4.175C7.066,-3.905 6.914,-3.543 6.885,-3.091Z" style="fill:white;fill-rule:nonzero;"/>
                </g>
            </g>
        </g>
    </g>
    <g transform="matrix(1,0,0,1,135.403,25.9302)">
        <g>
            <g>
                <path d="M0.659,0L0.659,-5.186L1.45,-5.186L1.45,-4.448C1.831,-5.018 2.381,-5.303 3.101,-5.303C3.413,-5.303 3.7,-5.247 3.962,-5.134C4.224,-5.022 4.421,-4.875 4.551,-4.692C4.681,-4.51 4.772,-4.294 4.824,-4.043C4.857,-3.88 4.873,-3.595 4.873,-3.188L4.873,0L3.994,0L3.994,-3.154C3.994,-3.512 3.96,-3.78 3.892,-3.958C3.823,-4.135 3.702,-4.277 3.528,-4.382C3.354,-4.488 3.149,-4.541 2.915,-4.541C2.541,-4.541 2.218,-4.422 1.946,-4.185C1.674,-3.947 1.538,-3.496 1.538,-2.832L1.538,0L0.659,0Z" style="fill:white;fill-rule:nonzero;"/>
                <path d="M9.771,-1.67L10.679,-1.558C10.535,-1.027 10.27,-0.615 9.883,-0.322C9.495,-0.029 9.001,0.117 8.398,0.117C7.64,0.117 7.039,-0.116 6.594,-0.583C6.15,-1.051 5.928,-1.706 5.928,-2.549C5.928,-3.421 6.152,-4.098 6.602,-4.58C7.051,-5.062 7.633,-5.303 8.35,-5.303C9.043,-5.303 9.609,-5.067 10.049,-4.595C10.488,-4.123 10.708,-3.459 10.708,-2.603C10.708,-2.55 10.706,-2.472 10.703,-2.368L6.836,-2.368C6.868,-1.799 7.03,-1.362 7.319,-1.06C7.609,-0.757 7.97,-0.605 8.403,-0.605C8.726,-0.605 9.001,-0.69 9.229,-0.859C9.456,-1.029 9.637,-1.299 9.771,-1.67ZM6.885,-3.091L9.78,-3.091C9.741,-3.527 9.631,-3.854 9.448,-4.072C9.168,-4.411 8.805,-4.58 8.359,-4.58C7.956,-4.58 7.616,-4.445 7.341,-4.175C7.066,-3.905 6.914,-3.543 6.885,-3.091Z" style="fill:white;fill-rule:nonzero;"/>
                <path d="M11.621,0.43L12.476,0.557C12.511,0.82 12.611,1.012 12.773,1.133C12.992,1.296 13.289,1.377 13.667,1.377C14.074,1.377 14.388,1.296 14.609,1.133C14.831,0.97 14.98,0.742 15.059,0.449C15.104,0.27 15.125,-0.106 15.122,-0.679C14.738,-0.226 14.259,0 13.687,0C12.974,0 12.422,-0.257 12.031,-0.771C11.641,-1.286 11.445,-1.903 11.445,-2.622C11.445,-3.117 11.535,-3.573 11.714,-3.992C11.893,-4.41 12.153,-4.733 12.493,-4.961C12.833,-5.189 13.232,-5.303 13.691,-5.303C14.303,-5.303 14.808,-5.055 15.205,-4.561L15.205,-5.186L16.016,-5.186L16.016,-0.703C16.016,0.104 15.933,0.676 15.769,1.013C15.605,1.35 15.344,1.616 14.988,1.812C14.631,2.007 14.193,2.104 13.672,2.104C13.053,2.104 12.554,1.965 12.173,1.687C11.792,1.409 11.608,0.99 11.621,0.43ZM12.349,-2.686C12.349,-2.005 12.484,-1.509 12.754,-1.196C13.024,-0.884 13.363,-0.728 13.77,-0.728C14.173,-0.728 14.512,-0.883 14.785,-1.194C15.059,-1.505 15.195,-1.992 15.195,-2.656C15.195,-3.291 15.055,-3.77 14.773,-4.092C14.491,-4.414 14.152,-4.575 13.755,-4.575C13.364,-4.575 13.032,-4.417 12.759,-4.099C12.485,-3.782 12.349,-3.311 12.349,-2.686Z" style="fill:white;fill-rule:nonzero;"/>
                <path d="M17.017,-2.593C17.017,-3.553 17.284,-4.264 17.817,-4.727C18.263,-5.111 18.807,-5.303 19.448,-5.303C20.161,-5.303 20.744,-5.069 21.196,-4.602C21.649,-4.135 21.875,-3.49 21.875,-2.666C21.875,-1.999 21.775,-1.474 21.575,-1.091C21.375,-0.709 21.083,-0.412 20.701,-0.2C20.318,0.011 19.901,0.117 19.448,0.117C18.722,0.117 18.136,-0.116 17.688,-0.581C17.24,-1.047 17.017,-1.717 17.017,-2.593ZM17.92,-2.593C17.92,-1.929 18.065,-1.431 18.354,-1.101C18.644,-0.771 19.009,-0.605 19.448,-0.605C19.884,-0.605 20.247,-0.771 20.537,-1.104C20.827,-1.436 20.972,-1.942 20.972,-2.622C20.972,-3.263 20.826,-3.749 20.535,-4.08C20.243,-4.41 19.881,-4.575 19.448,-4.575C19.009,-4.575 18.644,-4.411 18.354,-4.082C18.065,-3.753 17.92,-3.257 17.92,-2.593Z" style="fill:white;fill-rule:nonzero;"/>
                <path d="M26.289,-1.899L27.153,-1.787C27.059,-1.191 26.817,-0.725 26.428,-0.388C26.039,-0.051 25.562,0.117 24.995,0.117C24.285,0.117 23.715,-0.115 23.284,-0.579C22.852,-1.042 22.637,-1.707 22.637,-2.573C22.637,-3.133 22.729,-3.623 22.915,-4.043C23.101,-4.463 23.383,-4.778 23.762,-4.988C24.141,-5.198 24.554,-5.303 25,-5.303C25.563,-5.303 26.024,-5.16 26.382,-4.875C26.74,-4.591 26.969,-4.186 27.07,-3.662L26.216,-3.53C26.134,-3.879 25.99,-4.141 25.784,-4.316C25.577,-4.492 25.327,-4.58 25.034,-4.58C24.591,-4.58 24.232,-4.421 23.955,-4.104C23.678,-3.787 23.54,-3.285 23.54,-2.598C23.54,-1.901 23.674,-1.395 23.94,-1.079C24.207,-0.763 24.556,-0.605 24.985,-0.605C25.33,-0.605 25.618,-0.711 25.85,-0.923C26.081,-1.134 26.227,-1.46 26.289,-1.899Z" style="fill:white;fill-rule:nonzero;"/>
                <path d="M27.91,-6.147L27.91,-7.158L28.789,-7.158L28.789,-6.147L27.91,-6.147ZM27.91,0L27.91,-5.186L28.789,-5.186L28.789,0L27.91,0Z" style="fill:white;fill-rule:nonzero;"/>
                <path d="M29.8,-2.593C29.8,-3.553 30.067,-4.264 30.601,-4.727C31.047,-5.111 31.59,-5.303 32.231,-5.303C32.944,-5.303 33.527,-5.069 33.979,-4.602C34.432,-4.135 34.658,-3.49 34.658,-2.666C34.658,-1.999 34.558,-1.474 34.358,-1.091C34.158,-0.709 33.866,-0.412 33.484,-0.2C33.101,0.011 32.684,0.117 32.231,0.117C31.506,0.117 30.919,-0.116 30.471,-0.581C30.024,-1.047 29.8,-1.717 29.8,-2.593ZM30.703,-2.593C30.703,-1.929 30.848,-1.431 31.138,-1.101C31.427,-0.771 31.792,-0.605 32.231,-0.605C32.668,-0.605 33.031,-0.771 33.32,-1.104C33.61,-1.436 33.755,-1.942 33.755,-2.622C33.755,-3.263 33.609,-3.749 33.318,-4.08C33.027,-4.41 32.664,-4.575 32.231,-4.575C31.792,-4.575 31.427,-4.411 31.138,-4.082C30.848,-3.753 30.703,-3.257 30.703,-2.593Z" style="fill:white;fill-rule:nonzero;"/>
            </g>
        </g>
    </g>
    <g transform="matrix(1,0,0,1,140.143,88.513)">
        <g>
            <g>
                <g>
                    <path d="M0.742,0L0.742,-7.158L2.168,-7.158L3.862,-2.09C4.019,-1.618 4.132,-1.265 4.204,-1.03C4.285,-1.291 4.412,-1.673 4.585,-2.178L6.299,-7.158L7.573,-7.158L7.573,0L6.66,0L6.66,-5.991L4.58,0L3.726,0L1.655,-6.094L1.655,0L0.742,0Z" style="fill:white;fill-rule:nonzero;"/>
                    <path d="M12.373,-0.64C12.048,-0.363 11.734,-0.168 11.433,-0.054C11.132,0.06 10.809,0.117 10.464,0.117C9.894,0.117 9.456,-0.022 9.15,-0.3C8.844,-0.579 8.691,-0.934 8.691,-1.367C8.691,-1.621 8.749,-1.853 8.865,-2.063C8.98,-2.273 9.132,-2.441 9.319,-2.568C9.506,-2.695 9.717,-2.791 9.951,-2.856C10.124,-2.902 10.384,-2.946 10.732,-2.988C11.442,-3.073 11.965,-3.174 12.3,-3.291C12.303,-3.411 12.305,-3.488 12.305,-3.521C12.305,-3.879 12.222,-4.131 12.056,-4.277C11.831,-4.476 11.497,-4.575 11.055,-4.575C10.641,-4.575 10.336,-4.503 10.139,-4.358C9.942,-4.213 9.797,-3.957 9.702,-3.589L8.843,-3.706C8.921,-4.074 9.049,-4.371 9.229,-4.597C9.408,-4.823 9.666,-4.998 10.005,-5.12C10.343,-5.242 10.736,-5.303 11.182,-5.303C11.624,-5.303 11.984,-5.251 12.261,-5.146C12.537,-5.042 12.741,-4.911 12.871,-4.753C13.001,-4.596 13.092,-4.396 13.145,-4.155C13.174,-4.006 13.188,-3.735 13.188,-3.345L13.188,-2.173C13.188,-1.356 13.207,-0.839 13.245,-0.623C13.282,-0.406 13.356,-0.199 13.467,0L12.549,0C12.458,-0.182 12.399,-0.396 12.373,-0.64ZM12.3,-2.603C11.981,-2.472 11.502,-2.362 10.864,-2.271C10.503,-2.218 10.247,-2.16 10.098,-2.095C9.948,-2.03 9.832,-1.934 9.751,-1.809C9.67,-1.684 9.629,-1.545 9.629,-1.392C9.629,-1.157 9.718,-0.962 9.895,-0.806C10.072,-0.649 10.332,-0.571 10.674,-0.571C11.012,-0.571 11.313,-0.645 11.577,-0.793C11.841,-0.942 12.035,-1.144 12.158,-1.401C12.253,-1.6 12.3,-1.893 12.3,-2.28L12.3,-2.603Z" style="fill:white;fill-rule:nonzero;"/>
                    <path d="M17.935,-1.899L18.799,-1.787C18.704,-1.191 18.463,-0.725 18.074,-0.388C17.685,-0.051 17.207,0.117 16.641,0.117C15.931,0.117 15.361,-0.115 14.929,-0.579C14.498,-1.042 14.282,-1.707 14.282,-2.573C14.282,-3.133 14.375,-3.623 14.561,-4.043C14.746,-4.463 15.028,-4.778 15.408,-4.988C15.787,-5.198 16.2,-5.303 16.646,-5.303C17.209,-5.303 17.669,-5.16 18.027,-4.875C18.385,-4.591 18.615,-4.186 18.716,-3.662L17.861,-3.53C17.78,-3.879 17.636,-4.141 17.429,-4.316C17.222,-4.492 16.973,-4.58 16.68,-4.58C16.237,-4.58 15.877,-4.421 15.601,-4.104C15.324,-3.787 15.186,-3.285 15.186,-2.598C15.186,-1.901 15.319,-1.395 15.586,-1.079C15.853,-0.763 16.201,-0.605 16.631,-0.605C16.976,-0.605 17.264,-0.711 17.495,-0.923C17.726,-1.134 17.873,-1.46 17.935,-1.899Z" style="fill:white;fill-rule:nonzero;"/>
                    <path d="M19.541,0L19.541,-5.186L20.332,-5.186L20.332,-4.399C20.534,-4.767 20.72,-5.01 20.891,-5.127C21.062,-5.244 21.25,-5.303 21.455,-5.303C21.751,-5.303 22.052,-5.208 22.358,-5.02L22.056,-4.204C21.841,-4.331 21.626,-4.395 21.411,-4.395C21.219,-4.395 21.047,-4.337 20.894,-4.221C20.741,-4.106 20.632,-3.945 20.566,-3.74C20.469,-3.428 20.42,-3.086 20.42,-2.715L20.42,0L19.541,0Z" style="fill:white;fill-rule:nonzero;"/>
                    <path d="M22.554,-2.593C22.554,-3.553 22.821,-4.264 23.354,-4.727C23.8,-5.111 24.344,-5.303 24.985,-5.303C25.698,-5.303 26.281,-5.069 26.733,-4.602C27.186,-4.135 27.412,-3.49 27.412,-2.666C27.412,-1.999 27.312,-1.474 27.112,-1.091C26.912,-0.709 26.62,-0.412 26.238,-0.2C25.855,0.011 25.438,0.117 24.985,0.117C24.259,0.117 23.673,-0.116 23.225,-0.581C22.778,-1.047 22.554,-1.717 22.554,-2.593ZM23.457,-2.593C23.457,-1.929 23.602,-1.431 23.892,-1.101C24.181,-0.771 24.546,-0.605 24.985,-0.605C25.422,-0.605 25.785,-0.771 26.074,-1.104C26.364,-1.436 26.509,-1.942 26.509,-2.622C26.509,-3.263 26.363,-3.749 26.072,-4.08C25.78,-4.41 25.418,-4.575 24.985,-4.575C24.546,-4.575 24.181,-4.411 23.892,-4.082C23.602,-3.753 23.457,-3.257 23.457,-2.593Z" style="fill:white;fill-rule:nonzero;"/>
                </g>
            </g>
        </g>
    </g>
    <g transform="matrix(1,0,0,1,133.211,89.798)">
        <g>
            <g transform="matrix(1,0,0,1,0,11)">
                <text x="0px" y="0px" style="font-family:'ArialMT', 'Arial', sans-serif;font-size:11px;fill:white;">pr</text>
            </g>
            <g transform="matrix(1,0,0,1,10.618,11)">
                <g>
                    <path d="M0.365,-2.852C0.365,-3.908 0.659,-4.691 1.246,-5.199C1.737,-5.622 2.335,-5.833 3.04,-5.833C3.824,-5.833 4.465,-5.576 4.963,-5.062C5.461,-4.548 5.709,-3.839 5.709,-2.933C5.709,-2.199 5.599,-1.621 5.379,-1.2C5.159,-0.78 4.838,-0.453 4.418,-0.22C3.997,0.013 3.538,0.129 3.04,0.129C2.242,0.129 1.596,-0.127 1.104,-0.639C0.611,-1.151 0.365,-1.889 0.365,-2.852ZM1.359,-2.852C1.359,-2.122 1.518,-1.575 1.837,-1.211C2.156,-0.848 2.557,-0.666 3.04,-0.666C3.52,-0.666 3.919,-0.849 4.238,-1.214C4.556,-1.579 4.716,-2.136 4.716,-2.884C4.716,-3.59 4.556,-4.124 4.235,-4.488C3.915,-4.851 3.516,-5.033 3.04,-5.033C2.557,-5.033 2.156,-4.852 1.837,-4.49C1.518,-4.129 1.359,-3.583 1.359,-2.852Z" style="fill:white;fill-rule:nonzero;"/>
                    <path d="M10.565,-2.089L11.516,-1.966C11.412,-1.311 11.146,-0.798 10.718,-0.427C10.29,-0.056 9.765,0.129 9.142,0.129C8.361,0.129 7.733,-0.126 7.259,-0.636C6.785,-1.147 6.547,-1.878 6.547,-2.831C6.547,-3.446 6.649,-3.985 6.854,-4.447C7.058,-4.909 7.368,-5.256 7.785,-5.487C8.203,-5.718 8.656,-5.833 9.147,-5.833C9.766,-5.833 10.273,-5.676 10.667,-5.363C11.061,-5.05 11.313,-4.605 11.424,-4.028L10.484,-3.883C10.395,-4.266 10.236,-4.555 10.009,-4.748C9.782,-4.941 9.507,-5.038 9.185,-5.038C8.698,-5.038 8.302,-4.864 7.998,-4.514C7.693,-4.165 7.541,-3.613 7.541,-2.857C7.541,-2.091 7.688,-1.534 7.981,-1.187C8.275,-0.84 8.658,-0.666 9.131,-0.666C9.51,-0.666 9.827,-0.782 10.082,-1.015C10.336,-1.248 10.497,-1.606 10.565,-2.089Z" style="fill:white;fill-rule:nonzero;"/>
                    <path d="M16.248,-1.837L17.247,-1.713C17.089,-1.13 16.797,-0.677 16.371,-0.354C15.945,-0.032 15.401,0.129 14.738,0.129C13.904,0.129 13.242,-0.128 12.754,-0.642C12.265,-1.156 12.021,-1.876 12.021,-2.804C12.021,-3.763 12.268,-4.508 12.762,-5.038C13.256,-5.568 13.897,-5.833 14.685,-5.833C15.447,-5.833 16.07,-5.573 16.554,-5.054C17.037,-4.535 17.279,-3.805 17.279,-2.863C17.279,-2.806 17.277,-2.72 17.273,-2.605L13.02,-2.605C13.055,-1.978 13.233,-1.499 13.551,-1.166C13.87,-0.833 14.267,-0.666 14.744,-0.666C15.098,-0.666 15.401,-0.759 15.651,-0.945C15.902,-1.132 16.101,-1.429 16.248,-1.837ZM13.073,-3.4L16.258,-3.4C16.215,-3.88 16.094,-4.24 15.893,-4.479C15.585,-4.852 15.186,-5.038 14.695,-5.038C14.251,-5.038 13.878,-4.889 13.575,-4.592C13.273,-4.295 13.105,-3.898 13.073,-3.4Z" style="fill:white;fill-rule:nonzero;"/>
                    <path d="M18.074,-1.703L19.03,-1.853C19.083,-1.47 19.233,-1.176 19.478,-0.972C19.724,-0.768 20.066,-0.666 20.507,-0.666C20.951,-0.666 21.28,-0.756 21.495,-0.937C21.71,-1.118 21.817,-1.33 21.817,-1.574C21.817,-1.792 21.722,-1.964 21.533,-2.089C21.4,-2.175 21.071,-2.285 20.544,-2.417C19.835,-2.596 19.344,-2.751 19.07,-2.882C18.796,-3.012 18.588,-3.193 18.447,-3.424C18.306,-3.655 18.235,-3.91 18.235,-4.189C18.235,-4.444 18.293,-4.679 18.409,-4.896C18.526,-5.112 18.684,-5.292 18.885,-5.436C19.035,-5.547 19.24,-5.641 19.5,-5.718C19.759,-5.795 20.038,-5.833 20.335,-5.833C20.783,-5.833 21.176,-5.769 21.514,-5.64C21.852,-5.511 22.102,-5.336 22.263,-5.116C22.424,-4.896 22.535,-4.601 22.596,-4.232L21.651,-4.104C21.608,-4.397 21.483,-4.626 21.278,-4.791C21.072,-4.956 20.781,-5.038 20.405,-5.038C19.961,-5.038 19.644,-4.965 19.454,-4.818C19.264,-4.671 19.169,-4.499 19.169,-4.302C19.169,-4.177 19.209,-4.064 19.288,-3.964C19.366,-3.86 19.49,-3.774 19.658,-3.706C19.755,-3.67 20.04,-3.588 20.512,-3.459C21.196,-3.276 21.673,-3.127 21.944,-3.01C22.214,-2.894 22.426,-2.725 22.58,-2.503C22.734,-2.281 22.811,-2.005 22.811,-1.676C22.811,-1.354 22.717,-1.05 22.529,-0.765C22.341,-0.481 22.07,-0.26 21.715,-0.105C21.361,0.051 20.96,0.129 20.512,0.129C19.771,0.129 19.206,-0.025 18.818,-0.333C18.429,-0.641 18.181,-1.097 18.074,-1.703Z" style="fill:white;fill-rule:nonzero;"/>
                    <path d="M23.601,-2.852C23.601,-3.908 23.894,-4.691 24.481,-5.199C24.972,-5.622 25.57,-5.833 26.275,-5.833C27.06,-5.833 27.701,-5.576 28.198,-5.062C28.696,-4.548 28.945,-3.839 28.945,-2.933C28.945,-2.199 28.835,-1.621 28.615,-1.2C28.394,-0.78 28.074,-0.453 27.653,-0.22C27.232,0.013 26.773,0.129 26.275,0.129C25.477,0.129 24.831,-0.127 24.339,-0.639C23.847,-1.151 23.601,-1.889 23.601,-2.852ZM24.594,-2.852C24.594,-2.122 24.754,-1.575 25.072,-1.211C25.391,-0.848 25.792,-0.666 26.275,-0.666C26.755,-0.666 27.154,-0.849 27.473,-1.214C27.792,-1.579 27.951,-2.136 27.951,-2.884C27.951,-3.59 27.791,-4.124 27.47,-4.488C27.15,-4.851 26.752,-5.033 26.275,-5.033C25.792,-5.033 25.391,-4.852 25.072,-4.49C24.754,-4.129 24.594,-3.583 24.594,-2.852Z" style="fill:white;fill-rule:nonzero;"/>
                    <path d="M29.691,-1.703L30.647,-1.853C30.701,-1.47 30.851,-1.176 31.096,-0.972C31.341,-0.768 31.684,-0.666 32.125,-0.666C32.569,-0.666 32.898,-0.756 33.113,-0.937C33.328,-1.118 33.435,-1.33 33.435,-1.574C33.435,-1.792 33.34,-1.964 33.15,-2.089C33.018,-2.175 32.688,-2.285 32.162,-2.417C31.453,-2.596 30.962,-2.751 30.688,-2.882C30.414,-3.012 30.206,-3.193 30.065,-3.424C29.923,-3.655 29.853,-3.91 29.853,-4.189C29.853,-4.444 29.911,-4.679 30.027,-4.896C30.143,-5.112 30.302,-5.292 30.502,-5.436C30.653,-5.547 30.858,-5.641 31.117,-5.718C31.377,-5.795 31.655,-5.833 31.953,-5.833C32.4,-5.833 32.793,-5.769 33.132,-5.64C33.47,-5.511 33.72,-5.336 33.881,-5.116C34.042,-4.896 34.153,-4.601 34.214,-4.232L33.269,-4.104C33.226,-4.397 33.101,-4.626 32.895,-4.791C32.689,-4.956 32.398,-5.038 32.022,-5.038C31.578,-5.038 31.262,-4.965 31.072,-4.818C30.882,-4.671 30.787,-4.499 30.787,-4.302C30.787,-4.177 30.826,-4.064 30.905,-3.964C30.984,-3.86 31.108,-3.774 31.276,-3.706C31.373,-3.67 31.657,-3.588 32.13,-3.459C32.814,-3.276 33.291,-3.127 33.561,-3.01C33.832,-2.894 34.044,-2.725 34.198,-2.503C34.352,-2.281 34.429,-2.005 34.429,-1.676C34.429,-1.354 34.335,-1.05 34.147,-0.765C33.959,-0.481 33.688,-0.26 33.333,-0.105C32.979,0.051 32.577,0.129 32.13,0.129C31.389,0.129 30.824,-0.025 30.435,-0.333C30.047,-0.641 29.799,-1.097 29.691,-1.703Z" style="fill:white;fill-rule:nonzero;"/>
                </g>
            </g>
        </g>
    </g>
    <g transform="matrix(1,0,0,1,117.751,157.106)">
        <g>
            <g>
                <g>
                    <path d="M0.494,-2.53L1.477,-2.616C1.524,-2.222 1.632,-1.899 1.802,-1.646C1.972,-1.394 2.236,-1.19 2.594,-1.034C2.952,-0.878 3.355,-0.8 3.803,-0.8C4.2,-0.8 4.551,-0.859 4.855,-0.978C5.16,-1.096 5.386,-1.258 5.535,-1.464C5.684,-1.67 5.758,-1.894 5.758,-2.138C5.758,-2.385 5.686,-2.601 5.543,-2.785C5.4,-2.969 5.163,-3.124 4.834,-3.25C4.623,-3.332 4.155,-3.46 3.432,-3.634C2.709,-3.807 2.202,-3.971 1.912,-4.125C1.536,-4.322 1.256,-4.566 1.072,-4.858C0.887,-5.15 0.795,-5.477 0.795,-5.838C0.795,-6.236 0.908,-6.607 1.133,-6.953C1.359,-7.298 1.688,-7.561 2.122,-7.74C2.555,-7.919 3.036,-8.008 3.566,-8.008C4.15,-8.008 4.665,-7.914 5.111,-7.726C5.556,-7.538 5.899,-7.262 6.139,-6.896C6.379,-6.531 6.508,-6.118 6.526,-5.656L5.527,-5.581C5.473,-6.078 5.291,-6.454 4.982,-6.708C4.672,-6.963 4.215,-7.09 3.609,-7.09C2.979,-7.09 2.52,-6.974 2.232,-6.743C1.943,-6.512 1.799,-6.234 1.799,-5.908C1.799,-5.625 1.901,-5.393 2.105,-5.21C2.306,-5.027 2.83,-4.84 3.677,-4.649C4.523,-4.457 5.104,-4.29 5.419,-4.146C5.878,-3.935 6.216,-3.668 6.435,-3.344C6.653,-3.019 6.762,-2.646 6.762,-2.224C6.762,-1.805 6.642,-1.41 6.402,-1.039C6.162,-0.669 5.818,-0.38 5.368,-0.175C4.919,0.031 4.413,0.134 3.851,0.134C3.139,0.134 2.541,0.03 2.06,-0.177C1.578,-0.385 1.2,-0.697 0.927,-1.115C0.653,-1.532 0.508,-2.003 0.494,-2.53Z" style="fill:white;fill-rule:nonzero;"/>
                    <path d="M11.8,0L11.8,-0.838C11.356,-0.193 10.753,0.129 9.99,0.129C9.654,0.129 9.339,0.064 9.048,-0.064C8.756,-0.193 8.539,-0.355 8.398,-0.551C8.256,-0.746 8.157,-0.985 8.1,-1.268C8.06,-1.457 8.041,-1.758 8.041,-2.17L8.041,-5.704L9.007,-5.704L9.007,-2.541C9.007,-2.036 9.027,-1.695 9.066,-1.52C9.127,-1.266 9.256,-1.066 9.453,-0.921C9.65,-0.776 9.894,-0.704 10.184,-0.704C10.474,-0.704 10.746,-0.778 11,-0.927C11.254,-1.075 11.434,-1.277 11.54,-1.533C11.645,-1.789 11.698,-2.161 11.698,-2.648L11.698,-5.704L12.665,-5.704L12.665,0L11.8,0Z" style="fill:white;fill-rule:nonzero;"/>
                    <path d="M15.071,0L14.174,0L14.174,-7.874L15.141,-7.874L15.141,-5.065C15.549,-5.577 16.07,-5.833 16.704,-5.833C17.055,-5.833 17.387,-5.762 17.7,-5.621C18.014,-5.479 18.272,-5.281 18.474,-5.025C18.676,-4.769 18.835,-4.46 18.949,-4.098C19.064,-3.736 19.121,-3.35 19.121,-2.938C19.121,-1.96 18.879,-1.205 18.396,-0.671C17.913,-0.138 17.333,0.129 16.656,0.129C15.983,0.129 15.454,-0.152 15.071,-0.714L15.071,0ZM15.061,-2.895C15.061,-2.211 15.154,-1.717 15.34,-1.413C15.644,-0.915 16.056,-0.666 16.575,-0.666C16.998,-0.666 17.363,-0.85 17.671,-1.217C17.979,-1.584 18.133,-2.131 18.133,-2.857C18.133,-3.602 17.985,-4.152 17.69,-4.506C17.394,-4.861 17.037,-5.038 16.618,-5.038C16.196,-5.038 15.83,-4.855 15.522,-4.488C15.215,-4.121 15.061,-3.59 15.061,-2.895Z" style="fill:white;fill-rule:nonzero;"/>
                    <path d="M20.297,2.186L20.297,-5.704L21.178,-5.704L21.178,-4.963C21.386,-5.253 21.62,-5.47 21.882,-5.615C22.143,-5.76 22.46,-5.833 22.833,-5.833C23.319,-5.833 23.749,-5.708 24.122,-5.457C24.494,-5.206 24.775,-4.853 24.965,-4.396C25.155,-3.94 25.25,-3.439 25.25,-2.895C25.25,-2.311 25.145,-1.786 24.935,-1.319C24.726,-0.851 24.421,-0.493 24.022,-0.244C23.623,0.004 23.203,0.129 22.763,0.129C22.44,0.129 22.151,0.061 21.895,-0.075C21.639,-0.211 21.429,-0.383 21.264,-0.591L21.264,2.186L20.297,2.186ZM21.173,-2.82C21.173,-2.086 21.321,-1.543 21.619,-1.192C21.916,-0.841 22.276,-0.666 22.698,-0.666C23.128,-0.666 23.496,-0.848 23.802,-1.211C24.108,-1.575 24.261,-2.138 24.261,-2.9C24.261,-3.627 24.112,-4.172 23.813,-4.533C23.514,-4.895 23.157,-5.076 22.741,-5.076C22.329,-5.076 21.965,-4.883 21.648,-4.498C21.331,-4.113 21.173,-3.554 21.173,-2.82Z" style="fill:white;fill-rule:nonzero;"/>
                    <path d="M26.404,0L26.404,-5.704L27.274,-5.704L27.274,-4.839C27.496,-5.244 27.701,-5.511 27.889,-5.64C28.077,-5.769 28.284,-5.833 28.51,-5.833C28.836,-5.833 29.167,-5.729 29.503,-5.521L29.17,-4.625C28.934,-4.764 28.698,-4.834 28.461,-4.834C28.25,-4.834 28.06,-4.77 27.892,-4.643C27.724,-4.516 27.604,-4.34 27.532,-4.114C27.425,-3.771 27.371,-3.395 27.371,-2.986L27.371,0L26.404,0Z" style="fill:white;fill-rule:nonzero;"/>
                    <path d="M29.718,-2.852C29.718,-3.908 30.012,-4.691 30.599,-5.199C31.09,-5.622 31.688,-5.833 32.393,-5.833C33.177,-5.833 33.818,-5.576 34.316,-5.062C34.814,-4.548 35.063,-3.839 35.063,-2.933C35.063,-2.199 34.952,-1.621 34.732,-1.2C34.512,-0.78 34.191,-0.453 33.771,-0.22C33.35,0.013 32.891,0.129 32.393,0.129C31.595,0.129 30.949,-0.127 30.457,-0.639C29.964,-1.151 29.718,-1.889 29.718,-2.852ZM30.712,-2.852C30.712,-2.122 30.871,-1.575 31.19,-1.211C31.509,-0.848 31.91,-0.666 32.393,-0.666C32.873,-0.666 33.272,-0.849 33.591,-1.214C33.91,-1.579 34.069,-2.136 34.069,-2.884C34.069,-3.59 33.909,-4.124 33.588,-4.488C33.268,-4.851 32.869,-5.033 32.393,-5.033C31.91,-5.033 31.509,-4.852 31.19,-4.49C30.871,-4.129 30.712,-3.583 30.712,-2.852Z" style="fill:white;fill-rule:nonzero;"/>
                    <path d="M39.918,-2.089L40.869,-1.966C40.765,-1.311 40.499,-0.798 40.071,-0.427C39.643,-0.056 39.118,0.129 38.495,0.129C37.714,0.129 37.087,-0.126 36.612,-0.636C36.138,-1.147 35.9,-1.878 35.9,-2.831C35.9,-3.446 36.002,-3.985 36.207,-4.447C36.411,-4.909 36.721,-5.256 37.138,-5.487C37.556,-5.718 38.009,-5.833 38.5,-5.833C39.119,-5.833 39.626,-5.676 40.02,-5.363C40.414,-5.05 40.666,-4.605 40.777,-4.028L39.837,-3.883C39.748,-4.266 39.589,-4.555 39.362,-4.748C39.135,-4.941 38.86,-5.038 38.538,-5.038C38.051,-5.038 37.655,-4.864 37.351,-4.514C37.046,-4.165 36.894,-3.613 36.894,-2.857C36.894,-2.091 37.041,-1.534 37.334,-1.187C37.628,-0.84 38.011,-0.666 38.484,-0.666C38.863,-0.666 39.18,-0.782 39.435,-1.015C39.689,-1.248 39.85,-1.606 39.918,-2.089Z" style="fill:white;fill-rule:nonzero;"/>
                    <path d="M45.601,-1.837L46.6,-1.713C46.442,-1.13 46.15,-0.677 45.724,-0.354C45.298,-0.032 44.754,0.129 44.091,0.129C43.257,0.129 42.595,-0.128 42.107,-0.642C41.618,-1.156 41.374,-1.876 41.374,-2.804C41.374,-3.763 41.621,-4.508 42.115,-5.038C42.609,-5.568 43.25,-5.833 44.038,-5.833C44.8,-5.833 45.423,-5.573 45.907,-5.054C46.39,-4.535 46.632,-3.805 46.632,-2.863C46.632,-2.806 46.63,-2.72 46.626,-2.605L42.373,-2.605C42.408,-1.978 42.586,-1.499 42.904,-1.166C43.223,-0.833 43.62,-0.666 44.097,-0.666C44.451,-0.666 44.754,-0.759 45.004,-0.945C45.255,-1.132 45.454,-1.429 45.601,-1.837ZM42.426,-3.4L45.611,-3.4C45.568,-3.88 45.447,-4.24 45.246,-4.479C44.938,-4.852 44.539,-5.038 44.048,-5.038C43.604,-5.038 43.231,-4.889 42.928,-4.592C42.626,-4.295 42.458,-3.898 42.426,-3.4Z" style="fill:white;fill-rule:nonzero;"/>
                    <path d="M47.427,-1.703L48.383,-1.853C48.437,-1.47 48.586,-1.176 48.831,-0.972C49.077,-0.768 49.419,-0.666 49.86,-0.666C50.304,-0.666 50.633,-0.756 50.848,-0.937C51.063,-1.118 51.17,-1.33 51.17,-1.574C51.17,-1.792 51.076,-1.964 50.886,-2.089C50.753,-2.175 50.424,-2.285 49.897,-2.417C49.188,-2.596 48.697,-2.751 48.423,-2.882C48.149,-3.012 47.941,-3.193 47.8,-3.424C47.659,-3.655 47.588,-3.91 47.588,-4.189C47.588,-4.444 47.646,-4.679 47.762,-4.896C47.879,-5.112 48.037,-5.292 48.238,-5.436C48.388,-5.547 48.593,-5.641 48.853,-5.718C49.112,-5.795 49.391,-5.833 49.688,-5.833C50.136,-5.833 50.529,-5.769 50.867,-5.64C51.205,-5.511 51.455,-5.336 51.616,-5.116C51.777,-4.896 51.888,-4.601 51.949,-4.232L51.004,-4.104C50.961,-4.397 50.837,-4.626 50.631,-4.791C50.425,-4.956 50.134,-5.038 49.758,-5.038C49.314,-5.038 48.997,-4.965 48.807,-4.818C48.617,-4.671 48.522,-4.499 48.522,-4.302C48.522,-4.177 48.562,-4.064 48.641,-3.964C48.719,-3.86 48.843,-3.774 49.011,-3.706C49.108,-3.67 49.393,-3.588 49.865,-3.459C50.549,-3.276 51.026,-3.127 51.297,-3.01C51.567,-2.894 51.779,-2.725 51.933,-2.503C52.087,-2.281 52.164,-2.005 52.164,-1.676C52.164,-1.354 52.07,-1.05 51.882,-0.765C51.694,-0.481 51.423,-0.26 51.068,-0.105C50.714,0.051 50.313,0.129 49.865,0.129C49.124,0.129 48.559,-0.025 48.171,-0.333C47.782,-0.641 47.534,-1.097 47.427,-1.703Z" style="fill:white;fill-rule:nonzero;"/>
                    <path d="M52.954,-2.852C52.954,-3.908 53.247,-4.691 53.834,-5.199C54.325,-5.622 54.923,-5.833 55.628,-5.833C56.413,-5.833 57.054,-5.576 57.551,-5.062C58.049,-4.548 58.298,-3.839 58.298,-2.933C58.298,-2.199 58.188,-1.621 57.968,-1.2C57.747,-0.78 57.427,-0.453 57.006,-0.22C56.585,0.013 56.126,0.129 55.628,0.129C54.83,0.129 54.184,-0.127 53.692,-0.639C53.2,-1.151 52.954,-1.889 52.954,-2.852ZM53.947,-2.852C53.947,-2.122 54.107,-1.575 54.425,-1.211C54.744,-0.848 55.145,-0.666 55.628,-0.666C56.108,-0.666 56.507,-0.849 56.826,-1.214C57.145,-1.579 57.304,-2.136 57.304,-2.884C57.304,-3.59 57.144,-4.124 56.823,-4.488C56.503,-4.851 56.105,-5.033 55.628,-5.033C55.145,-5.033 54.744,-4.852 54.425,-4.49C54.107,-4.129 53.947,-3.583 53.947,-2.852Z" style="fill:white;fill-rule:nonzero;"/>
                    <path d="M59.044,-1.703L60,-1.853C60.054,-1.47 60.204,-1.176 60.449,-0.972C60.694,-0.768 61.037,-0.666 61.478,-0.666C61.922,-0.666 62.251,-0.756 62.466,-0.937C62.681,-1.118 62.788,-1.33 62.788,-1.574C62.788,-1.792 62.693,-1.964 62.503,-2.089C62.371,-2.175 62.042,-2.285 61.515,-2.417C60.806,-2.596 60.315,-2.751 60.041,-2.882C59.767,-3.012 59.559,-3.193 59.418,-3.424C59.276,-3.655 59.206,-3.91 59.206,-4.189C59.206,-4.444 59.264,-4.679 59.38,-4.896C59.497,-5.112 59.655,-5.292 59.855,-5.436C60.006,-5.547 60.211,-5.641 60.47,-5.718C60.73,-5.795 61.008,-5.833 61.306,-5.833C61.753,-5.833 62.146,-5.769 62.485,-5.64C62.823,-5.511 63.073,-5.336 63.234,-5.116C63.395,-4.896 63.506,-4.601 63.567,-4.232L62.622,-4.104C62.579,-4.397 62.454,-4.626 62.248,-4.791C62.042,-4.956 61.751,-5.038 61.375,-5.038C60.931,-5.038 60.615,-4.965 60.425,-4.818C60.235,-4.671 60.14,-4.499 60.14,-4.302C60.14,-4.177 60.18,-4.064 60.258,-3.964C60.337,-3.86 60.461,-3.774 60.629,-3.706C60.726,-3.67 61.01,-3.588 61.483,-3.459C62.167,-3.276 62.644,-3.127 62.914,-3.01C63.185,-2.894 63.397,-2.725 63.551,-2.503C63.705,-2.281 63.782,-2.005 63.782,-1.676C63.782,-1.354 63.688,-1.05 63.5,-0.765C63.312,-0.481 63.041,-0.26 62.686,-0.105C62.332,0.051 61.931,0.129 61.483,0.129C60.742,0.129 60.177,-0.025 59.788,-0.333C59.4,-0.641 59.152,-1.097 59.044,-1.703Z" style="fill:white;fill-rule:nonzero;"/>
                    <path d="M67.944,2.197L67.837,1.289C68.048,1.346 68.233,1.375 68.39,1.375C68.605,1.375 68.777,1.339 68.906,1.268C69.035,1.196 69.14,1.096 69.223,0.967C69.284,0.87 69.382,0.63 69.518,0.247C69.536,0.193 69.565,0.115 69.604,0.011L67.439,-5.704L68.481,-5.704L69.668,-2.401C69.822,-1.982 69.96,-1.542 70.082,-1.08C70.193,-1.524 70.326,-1.957 70.479,-2.379L71.699,-5.704L72.666,-5.704L70.496,0.097C70.263,0.723 70.082,1.155 69.953,1.391C69.781,1.71 69.584,1.943 69.362,2.092C69.14,2.241 68.875,2.315 68.567,2.315C68.381,2.315 68.174,2.276 67.944,2.197Z" style="fill:white;fill-rule:nonzero;"/>
                </g>
            </g>
        </g>
    </g>
    <g transform="matrix(1,0,0,1,107.481,163.42)">
        <g>
            <g transform="matrix(1,0,0,1,0,11)">
                <g>
                    <path d="M4.828,0L4.828,-0.785C4.434,-0.168 3.854,0.141 3.088,0.141C2.592,0.141 2.136,0.004 1.72,-0.27C1.304,-0.543 0.981,-0.925 0.753,-1.415C0.524,-1.905 0.41,-2.469 0.41,-3.105C0.41,-3.727 0.514,-4.29 0.721,-4.796C0.928,-5.302 1.238,-5.689 1.652,-5.959C2.066,-6.229 2.529,-6.363 3.041,-6.363C3.416,-6.363 3.75,-6.284 4.043,-6.126C4.336,-5.968 4.574,-5.762 4.758,-5.508L4.758,-8.59L5.807,-8.59L5.807,0L4.828,0ZM1.494,-3.105C1.494,-2.309 1.662,-1.713 1.998,-1.318C2.334,-0.924 2.73,-0.727 3.188,-0.727C3.648,-0.727 4.04,-0.915 4.362,-1.292C4.685,-1.669 4.846,-2.244 4.846,-3.018C4.846,-3.869 4.682,-4.494 4.354,-4.893C4.025,-5.291 3.621,-5.49 3.141,-5.49C2.672,-5.49 2.28,-5.299 1.966,-4.916C1.651,-4.533 1.494,-3.93 1.494,-3.105Z" style="fill:white;fill-rule:nonzero;"/>
                    <path d="M11.725,-2.004L12.814,-1.869C12.643,-1.232 12.324,-0.738 11.859,-0.387C11.395,-0.035 10.801,0.141 10.078,0.141C9.168,0.141 8.446,-0.14 7.913,-0.7C7.38,-1.261 7.113,-2.047 7.113,-3.059C7.113,-4.105 7.383,-4.918 7.922,-5.496C8.461,-6.074 9.16,-6.363 10.02,-6.363C10.852,-6.363 11.531,-6.08 12.059,-5.514C12.586,-4.947 12.85,-4.15 12.85,-3.123C12.85,-3.061 12.848,-2.967 12.844,-2.842L8.203,-2.842C8.242,-2.158 8.436,-1.635 8.783,-1.271C9.131,-0.908 9.564,-0.727 10.084,-0.727C10.471,-0.727 10.801,-0.828 11.074,-1.031C11.348,-1.234 11.564,-1.559 11.725,-2.004ZM8.262,-3.709L11.736,-3.709C11.689,-4.232 11.557,-4.625 11.338,-4.887C11.002,-5.293 10.566,-5.496 10.031,-5.496C9.547,-5.496 9.14,-5.334 8.81,-5.01C8.479,-4.686 8.297,-4.252 8.262,-3.709Z" style="fill:white;fill-rule:nonzero;"/>
                    <path d="M18.199,-2.279L19.236,-2.145C19.123,-1.43 18.833,-0.87 18.366,-0.466C17.899,-0.062 17.326,0.141 16.646,0.141C15.795,0.141 15.11,-0.138 14.593,-0.694C14.075,-1.251 13.816,-2.049 13.816,-3.088C13.816,-3.76 13.928,-4.348 14.15,-4.852C14.373,-5.355 14.712,-5.733 15.167,-5.985C15.622,-6.237 16.117,-6.363 16.652,-6.363C17.328,-6.363 17.881,-6.192 18.311,-5.851C18.74,-5.509 19.016,-5.023 19.137,-4.395L18.111,-4.236C18.014,-4.654 17.841,-4.969 17.593,-5.18C17.345,-5.391 17.045,-5.496 16.693,-5.496C16.162,-5.496 15.73,-5.306 15.398,-4.925C15.066,-4.544 14.9,-3.941 14.9,-3.117C14.9,-2.281 15.061,-1.674 15.381,-1.295C15.701,-0.916 16.119,-0.727 16.635,-0.727C17.049,-0.727 17.395,-0.854 17.672,-1.107C17.949,-1.361 18.125,-1.752 18.199,-2.279Z" style="fill:white;fill-rule:nonzero;"/>
                    <path d="M20.145,-7.377L20.145,-8.59L21.199,-8.59L21.199,-7.377L20.145,-7.377ZM20.145,0L20.145,-6.223L21.199,-6.223L21.199,0L20.145,0Z" style="fill:white;fill-rule:nonzero;"/>
                    <path d="M22.383,-1.857L23.426,-2.021C23.484,-1.604 23.647,-1.283 23.915,-1.061C24.183,-0.838 24.557,-0.727 25.037,-0.727C25.521,-0.727 25.881,-0.825 26.115,-1.022C26.35,-1.22 26.467,-1.451 26.467,-1.717C26.467,-1.955 26.363,-2.143 26.156,-2.279C26.012,-2.373 25.652,-2.492 25.078,-2.637C24.305,-2.832 23.769,-3.001 23.47,-3.144C23.171,-3.286 22.944,-3.483 22.79,-3.735C22.636,-3.987 22.559,-4.266 22.559,-4.57C22.559,-4.848 22.622,-5.104 22.749,-5.341C22.876,-5.577 23.049,-5.773 23.268,-5.93C23.432,-6.051 23.655,-6.153 23.938,-6.237C24.222,-6.321 24.525,-6.363 24.85,-6.363C25.338,-6.363 25.767,-6.293 26.136,-6.152C26.505,-6.012 26.777,-5.821 26.953,-5.581C27.129,-5.341 27.25,-5.02 27.316,-4.617L26.285,-4.477C26.238,-4.797 26.103,-5.047 25.878,-5.227C25.653,-5.406 25.336,-5.496 24.926,-5.496C24.441,-5.496 24.096,-5.416 23.889,-5.256C23.682,-5.096 23.578,-4.908 23.578,-4.693C23.578,-4.557 23.621,-4.434 23.707,-4.324C23.793,-4.211 23.928,-4.117 24.111,-4.043C24.217,-4.004 24.527,-3.914 25.043,-3.773C25.789,-3.574 26.31,-3.411 26.604,-3.284C26.899,-3.157 27.131,-2.973 27.299,-2.73C27.467,-2.488 27.551,-2.188 27.551,-1.828C27.551,-1.477 27.448,-1.146 27.243,-0.835C27.038,-0.524 26.742,-0.284 26.355,-0.114C25.969,0.056 25.531,0.141 25.043,0.141C24.234,0.141 23.618,-0.027 23.194,-0.363C22.771,-0.699 22.5,-1.197 22.383,-1.857Z" style="fill:white;fill-rule:nonzero;"/>
                    <path d="M28.811,-7.377L28.811,-8.59L29.865,-8.59L29.865,-7.377L28.811,-7.377ZM28.811,0L28.811,-6.223L29.865,-6.223L29.865,0L28.811,0Z" style="fill:white;fill-rule:nonzero;"/>
                    <path d="M31.078,-3.111C31.078,-4.264 31.398,-5.117 32.039,-5.672C32.574,-6.133 33.227,-6.363 33.996,-6.363C34.852,-6.363 35.551,-6.083 36.094,-5.522C36.637,-4.962 36.908,-4.188 36.908,-3.199C36.908,-2.398 36.788,-1.769 36.548,-1.31C36.308,-0.851 35.958,-0.494 35.499,-0.24C35.04,0.014 34.539,0.141 33.996,0.141C33.125,0.141 32.421,-0.139 31.884,-0.697C31.347,-1.256 31.078,-2.061 31.078,-3.111ZM32.162,-3.111C32.162,-2.314 32.336,-1.718 32.684,-1.321C33.031,-0.925 33.469,-0.727 33.996,-0.727C34.52,-0.727 34.955,-0.926 35.303,-1.324C35.65,-1.723 35.824,-2.33 35.824,-3.146C35.824,-3.916 35.649,-4.499 35.3,-4.896C34.95,-5.292 34.516,-5.49 33.996,-5.49C33.469,-5.49 33.031,-5.293 32.684,-4.898C32.336,-4.504 32.162,-3.908 32.162,-3.111Z" style="fill:white;fill-rule:nonzero;"/>
                    <path d="M38.145,0L38.145,-6.223L39.094,-6.223L39.094,-5.338C39.551,-6.021 40.211,-6.363 41.074,-6.363C41.449,-6.363 41.794,-6.296 42.108,-6.161C42.423,-6.026 42.658,-5.85 42.814,-5.631C42.971,-5.412 43.08,-5.152 43.143,-4.852C43.182,-4.656 43.201,-4.314 43.201,-3.826L43.201,0L42.146,0L42.146,-3.785C42.146,-4.215 42.105,-4.536 42.023,-4.749C41.941,-4.962 41.796,-5.132 41.587,-5.259C41.378,-5.386 41.133,-5.449 40.852,-5.449C40.402,-5.449 40.015,-5.307 39.688,-5.021C39.362,-4.736 39.199,-4.195 39.199,-3.398L39.199,0L38.145,0Z" style="fill:white;fill-rule:nonzero;"/>
                    <path d="M49.078,-2.004L50.168,-1.869C49.996,-1.232 49.678,-0.738 49.213,-0.387C48.748,-0.035 48.154,0.141 47.432,0.141C46.521,0.141 45.8,-0.14 45.267,-0.7C44.733,-1.261 44.467,-2.047 44.467,-3.059C44.467,-4.105 44.736,-4.918 45.275,-5.496C45.814,-6.074 46.514,-6.363 47.373,-6.363C48.205,-6.363 48.885,-6.08 49.412,-5.514C49.939,-4.947 50.203,-4.15 50.203,-3.123C50.203,-3.061 50.201,-2.967 50.197,-2.842L45.557,-2.842C45.596,-2.158 45.789,-1.635 46.137,-1.271C46.484,-0.908 46.918,-0.727 47.438,-0.727C47.824,-0.727 48.154,-0.828 48.428,-1.031C48.701,-1.234 48.918,-1.559 49.078,-2.004ZM45.615,-3.709L49.09,-3.709C49.043,-4.232 48.91,-4.625 48.691,-4.887C48.355,-5.293 47.92,-5.496 47.385,-5.496C46.9,-5.496 46.493,-5.334 46.163,-5.01C45.833,-4.686 45.65,-4.252 45.615,-3.709Z" style="fill:white;fill-rule:nonzero;"/>
                    <path d="M51.07,-1.857L52.113,-2.021C52.172,-1.604 52.335,-1.283 52.603,-1.061C52.87,-0.838 53.244,-0.727 53.725,-0.727C54.209,-0.727 54.568,-0.825 54.803,-1.022C55.037,-1.22 55.154,-1.451 55.154,-1.717C55.154,-1.955 55.051,-2.143 54.844,-2.279C54.699,-2.373 54.34,-2.492 53.766,-2.637C52.992,-2.832 52.456,-3.001 52.157,-3.144C51.858,-3.286 51.632,-3.483 51.478,-3.735C51.323,-3.987 51.246,-4.266 51.246,-4.57C51.246,-4.848 51.31,-5.104 51.437,-5.341C51.563,-5.577 51.736,-5.773 51.955,-5.93C52.119,-6.051 52.343,-6.153 52.626,-6.237C52.909,-6.321 53.213,-6.363 53.537,-6.363C54.025,-6.363 54.454,-6.293 54.823,-6.152C55.192,-6.012 55.465,-5.821 55.641,-5.581C55.816,-5.341 55.938,-5.02 56.004,-4.617L54.973,-4.477C54.926,-4.797 54.79,-5.047 54.565,-5.227C54.341,-5.406 54.023,-5.496 53.613,-5.496C53.129,-5.496 52.783,-5.416 52.576,-5.256C52.369,-5.096 52.266,-4.908 52.266,-4.693C52.266,-4.557 52.309,-4.434 52.395,-4.324C52.48,-4.211 52.615,-4.117 52.799,-4.043C52.904,-4.004 53.215,-3.914 53.73,-3.773C54.477,-3.574 54.997,-3.411 55.292,-3.284C55.587,-3.157 55.818,-2.973 55.986,-2.73C56.154,-2.488 56.238,-2.188 56.238,-1.828C56.238,-1.477 56.136,-1.146 55.931,-0.835C55.726,-0.524 55.43,-0.284 55.043,-0.114C54.656,0.056 54.219,0.141 53.73,0.141C52.922,0.141 52.306,-0.027 51.882,-0.363C51.458,-0.699 51.188,-1.197 51.07,-1.857Z" style="fill:white;fill-rule:nonzero;"/>
                </g>
            </g>
            <g transform="matrix(1,0,0,1,61.6208,11)">
                <g>
                    <path d="M4.447,-2.089L5.398,-1.966C5.294,-1.311 5.028,-0.798 4.6,-0.427C4.172,-0.056 3.647,0.129 3.024,0.129C2.243,0.129 1.616,-0.126 1.141,-0.636C0.667,-1.147 0.43,-1.878 0.43,-2.831C0.43,-3.446 0.532,-3.985 0.736,-4.447C0.94,-4.909 1.251,-5.256 1.668,-5.487C2.085,-5.718 2.539,-5.833 3.029,-5.833C3.649,-5.833 4.155,-5.676 4.549,-5.363C4.943,-5.05 5.196,-4.605 5.307,-4.028L4.367,-3.883C4.277,-4.266 4.119,-4.555 3.891,-4.748C3.664,-4.941 3.389,-5.038 3.067,-5.038C2.58,-5.038 2.184,-4.864 1.88,-4.514C1.576,-4.165 1.423,-3.613 1.423,-2.857C1.423,-2.091 1.57,-1.534 1.864,-1.187C2.157,-0.84 2.541,-0.666 3.013,-0.666C3.393,-0.666 3.71,-0.782 3.964,-1.015C4.218,-1.248 4.379,-1.606 4.447,-2.089Z" style="fill:white;fill-rule:nonzero;"/>
                    <rect x="6.204" y="-7.874" width="0.967" height="7.874" style="fill:white;fill-rule:nonzero;"/>
                    <path d="M12.391,-0.704C12.033,-0.399 11.688,-0.184 11.357,-0.059C11.026,0.066 10.671,0.129 10.291,0.129C9.664,0.129 9.183,-0.024 8.846,-0.33C8.51,-0.636 8.341,-1.028 8.341,-1.504C8.341,-1.783 8.405,-2.038 8.532,-2.269C8.659,-2.5 8.826,-2.686 9.031,-2.825C9.237,-2.965 9.469,-3.07 9.727,-3.142C9.917,-3.192 10.203,-3.241 10.586,-3.287C11.367,-3.38 11.942,-3.491 12.311,-3.62C12.314,-3.753 12.316,-3.837 12.316,-3.873C12.316,-4.266 12.225,-4.544 12.042,-4.705C11.795,-4.924 11.428,-5.033 10.941,-5.033C10.486,-5.033 10.15,-4.953 9.934,-4.794C9.717,-4.634 9.557,-4.352 9.453,-3.948L8.508,-4.077C8.594,-4.481 8.735,-4.808 8.932,-5.057C9.129,-5.306 9.414,-5.497 9.786,-5.632C10.159,-5.766 10.59,-5.833 11.081,-5.833C11.568,-5.833 11.963,-5.776 12.268,-5.661C12.572,-5.547 12.796,-5.402 12.939,-5.229C13.082,-5.055 13.182,-4.836 13.24,-4.571C13.272,-4.406 13.288,-4.109 13.288,-3.679L13.288,-2.39C13.288,-1.491 13.309,-0.923 13.35,-0.685C13.391,-0.447 13.472,-0.218 13.594,0L12.584,0C12.484,-0.201 12.42,-0.435 12.391,-0.704ZM12.311,-2.863C11.96,-2.72 11.433,-2.598 10.731,-2.498C10.334,-2.44 10.053,-2.376 9.888,-2.304C9.723,-2.233 9.596,-2.128 9.507,-1.99C9.417,-1.852 9.373,-1.699 9.373,-1.531C9.373,-1.273 9.47,-1.058 9.665,-0.886C9.86,-0.714 10.146,-0.628 10.522,-0.628C10.894,-0.628 11.226,-0.71 11.516,-0.873C11.806,-1.036 12.019,-1.259 12.155,-1.542C12.259,-1.76 12.311,-2.082 12.311,-2.508L12.311,-2.863Z" style="fill:white;fill-rule:nonzero;"/>
                    <path d="M16.371,0L14.201,-5.704L15.222,-5.704L16.446,-2.288C16.579,-1.919 16.701,-1.536 16.812,-1.139C16.897,-1.439 17.017,-1.801 17.171,-2.224L18.439,-5.704L19.433,-5.704L17.273,0L16.371,0Z" style="fill:white;fill-rule:nonzero;"/>
                    <path d="M24.191,-1.837L25.19,-1.713C25.033,-1.13 24.741,-0.677 24.315,-0.354C23.889,-0.032 23.345,0.129 22.682,0.129C21.848,0.129 21.186,-0.128 20.698,-0.642C20.209,-1.156 19.964,-1.876 19.964,-2.804C19.964,-3.763 20.211,-4.508 20.706,-5.038C21.2,-5.568 21.841,-5.833 22.628,-5.833C23.391,-5.833 24.014,-5.573 24.498,-5.054C24.981,-4.535 25.223,-3.805 25.223,-2.863C25.223,-2.806 25.221,-2.72 25.217,-2.605L20.963,-2.605C20.999,-1.978 21.176,-1.499 21.495,-1.166C21.814,-0.833 22.211,-0.666 22.688,-0.666C23.042,-0.666 23.345,-0.759 23.595,-0.945C23.846,-1.132 24.045,-1.429 24.191,-1.837ZM21.017,-3.4L24.202,-3.4C24.159,-3.88 24.037,-4.24 23.837,-4.479C23.529,-4.852 23.13,-5.038 22.639,-5.038C22.195,-5.038 21.822,-4.889 21.519,-4.592C21.217,-4.295 21.049,-3.898 21.017,-3.4Z" style="fill:white;fill-rule:nonzero;"/>
                </g>
            </g>
        </g>
    </g>
    <g transform="matrix(1,0,0,1,112.475,233.789)">
        <g>
            <g transform="matrix(1,0,0,1,0,12)">
                <g>
                    <path d="M0.891,0L0.891,-8.59L2.602,-8.59L4.635,-2.508C4.822,-1.941 4.959,-1.518 5.045,-1.236C5.143,-1.549 5.295,-2.008 5.502,-2.613L7.559,-8.59L9.088,-8.59L9.088,0L7.992,0L7.992,-7.189L5.496,0L4.471,0L1.986,-7.313L1.986,0L0.891,0Z" style="fill:white;fill-rule:nonzero;"/>
                    <path d="M10.793,-7.377L10.793,-8.59L11.848,-8.59L11.848,-7.377L10.793,-7.377ZM10.793,0L10.793,-6.223L11.848,-6.223L11.848,0L10.793,0Z" style="fill:white;fill-rule:nonzero;"/>
                    <path d="M17.514,-2.279L18.551,-2.145C18.438,-1.43 18.147,-0.87 17.681,-0.466C17.214,-0.062 16.641,0.141 15.961,0.141C15.109,0.141 14.425,-0.138 13.907,-0.694C13.39,-1.251 13.131,-2.049 13.131,-3.088C13.131,-3.76 13.242,-4.348 13.465,-4.852C13.688,-5.355 14.026,-5.733 14.481,-5.985C14.937,-6.237 15.432,-6.363 15.967,-6.363C16.643,-6.363 17.195,-6.192 17.625,-5.851C18.055,-5.509 18.33,-5.023 18.451,-4.395L17.426,-4.236C17.328,-4.654 17.155,-4.969 16.907,-5.18C16.659,-5.391 16.359,-5.496 16.008,-5.496C15.477,-5.496 15.045,-5.306 14.713,-4.925C14.381,-4.544 14.215,-3.941 14.215,-3.117C14.215,-2.281 14.375,-1.674 14.695,-1.295C15.016,-0.916 15.434,-0.727 15.949,-0.727C16.363,-0.727 16.709,-0.854 16.986,-1.107C17.264,-1.361 17.439,-1.752 17.514,-2.279Z" style="fill:white;fill-rule:nonzero;"/>
                    <path d="M19.441,0L19.441,-6.223L20.391,-6.223L20.391,-5.279C20.633,-5.721 20.856,-6.012 21.062,-6.152C21.267,-6.293 21.492,-6.363 21.738,-6.363C22.094,-6.363 22.455,-6.25 22.822,-6.023L22.459,-5.045C22.201,-5.197 21.943,-5.273 21.686,-5.273C21.455,-5.273 21.248,-5.204 21.064,-5.065C20.881,-4.927 20.75,-4.734 20.672,-4.488C20.555,-4.113 20.496,-3.703 20.496,-3.258L20.496,0L19.441,0Z" style="fill:white;fill-rule:nonzero;"/>
                    <path d="M23.057,-3.111C23.057,-4.264 23.377,-5.117 24.018,-5.672C24.553,-6.133 25.205,-6.363 25.975,-6.363C26.83,-6.363 27.529,-6.083 28.072,-5.522C28.615,-4.962 28.887,-4.188 28.887,-3.199C28.887,-2.398 28.767,-1.769 28.526,-1.31C28.286,-0.851 27.937,-0.494 27.478,-0.24C27.019,0.014 26.518,0.141 25.975,0.141C25.104,0.141 24.399,-0.139 23.862,-0.697C23.325,-1.256 23.057,-2.061 23.057,-3.111ZM24.141,-3.111C24.141,-2.314 24.314,-1.718 24.662,-1.321C25.01,-0.925 25.447,-0.727 25.975,-0.727C26.498,-0.727 26.934,-0.926 27.281,-1.324C27.629,-1.723 27.803,-2.33 27.803,-3.146C27.803,-3.916 27.628,-4.499 27.278,-4.896C26.929,-5.292 26.494,-5.49 25.975,-5.49C25.447,-5.49 25.01,-5.293 24.662,-4.898C24.314,-4.504 24.141,-3.908 24.141,-3.111Z" style="fill:white;fill-rule:nonzero;"/>
                </g>
            </g>
            <g transform="matrix(1,0,0,1,36.4592,12)">
                <g>
                    <path d="M0.791,2.385L0.791,-6.223L1.752,-6.223L1.752,-5.414C1.979,-5.73 2.234,-5.968 2.52,-6.126C2.805,-6.284 3.15,-6.363 3.557,-6.363C4.088,-6.363 4.557,-6.227 4.963,-5.953C5.369,-5.68 5.676,-5.294 5.883,-4.796C6.09,-4.298 6.193,-3.752 6.193,-3.158C6.193,-2.521 6.079,-1.948 5.851,-1.438C5.622,-0.929 5.29,-0.538 4.854,-0.267C4.419,0.005 3.961,0.141 3.48,0.141C3.129,0.141 2.813,0.066 2.534,-0.082C2.255,-0.23 2.025,-0.418 1.846,-0.645L1.846,2.385L0.791,2.385ZM1.746,-3.076C1.746,-2.275 1.908,-1.684 2.232,-1.301C2.557,-0.918 2.949,-0.727 3.41,-0.727C3.879,-0.727 4.28,-0.925 4.614,-1.321C4.948,-1.718 5.115,-2.332 5.115,-3.164C5.115,-3.957 4.952,-4.551 4.626,-4.945C4.3,-5.34 3.91,-5.537 3.457,-5.537C3.008,-5.537 2.61,-5.327 2.265,-4.907C1.919,-4.487 1.746,-3.877 1.746,-3.076Z" style="fill:white;fill-rule:nonzero;"/>
                    <path d="M7.453,0L7.453,-6.223L8.402,-6.223L8.402,-5.279C8.645,-5.721 8.868,-6.012 9.073,-6.152C9.278,-6.293 9.504,-6.363 9.75,-6.363C10.105,-6.363 10.467,-6.25 10.834,-6.023L10.471,-5.045C10.213,-5.197 9.955,-5.273 9.697,-5.273C9.467,-5.273 9.26,-5.204 9.076,-5.065C8.893,-4.927 8.762,-4.734 8.684,-4.488C8.566,-4.113 8.508,-3.703 8.508,-3.258L8.508,0L7.453,0Z" style="fill:white;fill-rule:nonzero;"/>
                    <path d="M11.068,-3.111C11.068,-4.264 11.389,-5.117 12.029,-5.672C12.564,-6.133 13.217,-6.363 13.986,-6.363C14.842,-6.363 15.541,-6.083 16.084,-5.522C16.627,-4.962 16.898,-4.188 16.898,-3.199C16.898,-2.398 16.778,-1.769 16.538,-1.31C16.298,-0.851 15.948,-0.494 15.489,-0.24C15.03,0.014 14.529,0.141 13.986,0.141C13.115,0.141 12.411,-0.139 11.874,-0.697C11.337,-1.256 11.068,-2.061 11.068,-3.111ZM12.152,-3.111C12.152,-2.314 12.326,-1.718 12.674,-1.321C13.021,-0.925 13.459,-0.727 13.986,-0.727C14.51,-0.727 14.945,-0.926 15.293,-1.324C15.641,-1.723 15.814,-2.33 15.814,-3.146C15.814,-3.916 15.64,-4.499 15.29,-4.896C14.94,-5.292 14.506,-5.49 13.986,-5.49C13.459,-5.49 13.021,-5.293 12.674,-4.898C12.326,-4.504 12.152,-3.908 12.152,-3.111Z" style="fill:white;fill-rule:nonzero;"/>
                    <path d="M22.195,-2.279L23.232,-2.145C23.119,-1.43 22.829,-0.87 22.362,-0.466C21.896,-0.062 21.322,0.141 20.643,0.141C19.791,0.141 19.106,-0.138 18.589,-0.694C18.071,-1.251 17.813,-2.049 17.813,-3.088C17.813,-3.76 17.924,-4.348 18.146,-4.852C18.369,-5.355 18.708,-5.733 19.163,-5.985C19.618,-6.237 20.113,-6.363 20.648,-6.363C21.324,-6.363 21.877,-6.192 22.307,-5.851C22.736,-5.509 23.012,-5.023 23.133,-4.395L22.107,-4.236C22.01,-4.654 21.837,-4.969 21.589,-5.18C21.341,-5.391 21.041,-5.496 20.689,-5.496C20.158,-5.496 19.727,-5.306 19.395,-4.925C19.063,-4.544 18.896,-3.941 18.896,-3.117C18.896,-2.281 19.057,-1.674 19.377,-1.295C19.697,-0.916 20.115,-0.727 20.631,-0.727C21.045,-0.727 21.391,-0.854 21.668,-1.107C21.945,-1.361 22.121,-1.752 22.195,-2.279Z" style="fill:white;fill-rule:nonzero;"/>
                    <path d="M28.395,-2.004L29.484,-1.869C29.313,-1.232 28.994,-0.738 28.529,-0.387C28.064,-0.035 27.471,0.141 26.748,0.141C25.838,0.141 25.116,-0.14 24.583,-0.7C24.05,-1.261 23.783,-2.047 23.783,-3.059C23.783,-4.105 24.053,-4.918 24.592,-5.496C25.131,-6.074 25.83,-6.363 26.689,-6.363C27.521,-6.363 28.201,-6.08 28.729,-5.514C29.256,-4.947 29.52,-4.15 29.52,-3.123C29.52,-3.061 29.518,-2.967 29.514,-2.842L24.873,-2.842C24.912,-2.158 25.105,-1.635 25.453,-1.271C25.801,-0.908 26.234,-0.727 26.754,-0.727C27.141,-0.727 27.471,-0.828 27.744,-1.031C28.018,-1.234 28.234,-1.559 28.395,-2.004ZM24.932,-3.709L28.406,-3.709C28.359,-4.232 28.227,-4.625 28.008,-4.887C27.672,-5.293 27.236,-5.496 26.701,-5.496C26.217,-5.496 25.81,-5.334 25.479,-5.01C25.149,-4.686 24.967,-4.252 24.932,-3.709Z" style="fill:white;fill-rule:nonzero;"/>
                    <path d="M30.387,-1.857L31.43,-2.021C31.488,-1.604 31.651,-1.283 31.919,-1.061C32.187,-0.838 32.561,-0.727 33.041,-0.727C33.525,-0.727 33.885,-0.825 34.119,-1.022C34.354,-1.22 34.471,-1.451 34.471,-1.717C34.471,-1.955 34.367,-2.143 34.16,-2.279C34.016,-2.373 33.656,-2.492 33.082,-2.637C32.309,-2.832 31.772,-3.001 31.474,-3.144C31.175,-3.286 30.948,-3.483 30.794,-3.735C30.64,-3.987 30.563,-4.266 30.563,-4.57C30.563,-4.848 30.626,-5.104 30.753,-5.341C30.88,-5.577 31.053,-5.773 31.271,-5.93C31.436,-6.051 31.659,-6.153 31.942,-6.237C32.226,-6.321 32.529,-6.363 32.854,-6.363C33.342,-6.363 33.771,-6.293 34.14,-6.152C34.509,-6.012 34.781,-5.821 34.957,-5.581C35.133,-5.341 35.254,-5.02 35.32,-4.617L34.289,-4.477C34.242,-4.797 34.106,-5.047 33.882,-5.227C33.657,-5.406 33.34,-5.496 32.93,-5.496C32.445,-5.496 32.1,-5.416 31.893,-5.256C31.686,-5.096 31.582,-4.908 31.582,-4.693C31.582,-4.557 31.625,-4.434 31.711,-4.324C31.797,-4.211 31.932,-4.117 32.115,-4.043C32.221,-4.004 32.531,-3.914 33.047,-3.773C33.793,-3.574 34.313,-3.411 34.608,-3.284C34.903,-3.157 35.135,-2.973 35.303,-2.73C35.471,-2.488 35.555,-2.188 35.555,-1.828C35.555,-1.477 35.452,-1.146 35.247,-0.835C35.042,-0.524 34.746,-0.284 34.359,-0.114C33.973,0.056 33.535,0.141 33.047,0.141C32.238,0.141 31.622,-0.027 31.198,-0.363C30.774,-0.699 30.504,-1.197 30.387,-1.857Z" style="fill:white;fill-rule:nonzero;"/>
                    <path d="M36.416,-3.111C36.416,-4.264 36.736,-5.117 37.377,-5.672C37.912,-6.133 38.564,-6.363 39.334,-6.363C40.189,-6.363 40.889,-6.083 41.432,-5.522C41.975,-4.962 42.246,-4.188 42.246,-3.199C42.246,-2.398 42.126,-1.769 41.886,-1.31C41.646,-0.851 41.296,-0.494 40.837,-0.24C40.378,0.014 39.877,0.141 39.334,0.141C38.463,0.141 37.759,-0.139 37.222,-0.697C36.685,-1.256 36.416,-2.061 36.416,-3.111ZM37.5,-3.111C37.5,-2.314 37.674,-1.718 38.021,-1.321C38.369,-0.925 38.807,-0.727 39.334,-0.727C39.857,-0.727 40.293,-0.926 40.641,-1.324C40.988,-1.723 41.162,-2.33 41.162,-3.146C41.162,-3.916 40.987,-4.499 40.638,-4.896C40.288,-5.292 39.854,-5.49 39.334,-5.49C38.807,-5.49 38.369,-5.293 38.021,-4.898C37.674,-4.504 37.5,-3.908 37.5,-3.111Z" style="fill:white;fill-rule:nonzero;"/>
                    <path d="M43.061,-1.857L44.104,-2.021C44.162,-1.604 44.325,-1.283 44.593,-1.061C44.86,-0.838 45.234,-0.727 45.715,-0.727C46.199,-0.727 46.559,-0.825 46.793,-1.022C47.027,-1.22 47.145,-1.451 47.145,-1.717C47.145,-1.955 47.041,-2.143 46.834,-2.279C46.689,-2.373 46.33,-2.492 45.756,-2.637C44.982,-2.832 44.446,-3.001 44.147,-3.144C43.849,-3.286 43.622,-3.483 43.468,-3.735C43.313,-3.987 43.236,-4.266 43.236,-4.57C43.236,-4.848 43.3,-5.104 43.427,-5.341C43.554,-5.577 43.727,-5.773 43.945,-5.93C44.109,-6.051 44.333,-6.153 44.616,-6.237C44.899,-6.321 45.203,-6.363 45.527,-6.363C46.016,-6.363 46.444,-6.293 46.813,-6.152C47.183,-6.012 47.455,-5.821 47.631,-5.581C47.807,-5.341 47.928,-5.02 47.994,-4.617L46.963,-4.477C46.916,-4.797 46.78,-5.047 46.556,-5.227C46.331,-5.406 46.014,-5.496 45.604,-5.496C45.119,-5.496 44.773,-5.416 44.566,-5.256C44.359,-5.096 44.256,-4.908 44.256,-4.693C44.256,-4.557 44.299,-4.434 44.385,-4.324C44.471,-4.211 44.605,-4.117 44.789,-4.043C44.895,-4.004 45.205,-3.914 45.721,-3.773C46.467,-3.574 46.987,-3.411 47.282,-3.284C47.577,-3.157 47.809,-2.973 47.977,-2.73C48.145,-2.488 48.229,-2.188 48.229,-1.828C48.229,-1.477 48.126,-1.146 47.921,-0.835C47.716,-0.524 47.42,-0.284 47.033,-0.114C46.646,0.056 46.209,0.141 45.721,0.141C44.912,0.141 44.296,-0.027 43.872,-0.363C43.448,-0.699 43.178,-1.197 43.061,-1.857Z" style="fill:white;fill-rule:nonzero;"/>
                </g>
            </g>
        </g>
    </g>
    <g transform="matrix(1,0,0,1,134.949,263.103)">
        <g>
            <g>
                <path d="M0.744,2.396L0.627,1.406C0.857,1.469 1.059,1.5 1.23,1.5C1.465,1.5 1.652,1.461 1.793,1.383C1.934,1.305 2.049,1.195 2.139,1.055C2.205,0.949 2.313,0.687 2.461,0.27C2.48,0.211 2.512,0.125 2.555,0.012L0.193,-6.223L1.33,-6.223L2.625,-2.619C2.793,-2.162 2.943,-1.682 3.076,-1.178C3.197,-1.662 3.342,-2.135 3.51,-2.596L4.84,-6.223L5.895,-6.223L3.527,0.105C3.273,0.789 3.076,1.26 2.936,1.518C2.748,1.865 2.533,2.12 2.291,2.282C2.049,2.444 1.76,2.525 1.424,2.525C1.221,2.525 0.994,2.482 0.744,2.396Z" style="fill:white;fill-rule:nonzero;"/>
                <path d="M10.406,0L10.406,-5.408L9.469,-5.408L9.469,-6.223L10.406,-6.223L10.406,-6.826C10.406,-7.443 10.539,-7.916 10.805,-8.244C11.07,-8.572 11.49,-8.736 12.064,-8.736C12.451,-8.736 12.809,-8.691 13.137,-8.602L12.973,-7.711C12.766,-7.746 12.576,-7.764 12.404,-7.764C12.041,-7.764 11.793,-7.691 11.66,-7.547C11.527,-7.402 11.461,-7.096 11.461,-6.627L11.461,-6.223L12.668,-6.223L12.668,-5.408L11.461,-5.408L11.461,0L10.406,0ZM13.453,0L13.453,-8.59L14.508,-8.59L14.508,0L13.453,0Z" style="fill:white;fill-rule:nonzero;"/>
                <path d="M20.203,0L20.203,-0.914C19.719,-0.211 19.061,0.141 18.229,0.141C17.861,0.141 17.519,0.07 17.2,-0.07C16.882,-0.211 16.646,-0.388 16.491,-0.601C16.337,-0.813 16.229,-1.074 16.166,-1.383C16.123,-1.59 16.102,-1.918 16.102,-2.367L16.102,-6.223L17.156,-6.223L17.156,-2.771C17.156,-2.221 17.178,-1.85 17.221,-1.658C17.287,-1.381 17.428,-1.163 17.643,-1.005C17.857,-0.847 18.123,-0.768 18.439,-0.768C18.756,-0.768 19.053,-0.849 19.33,-1.011C19.607,-1.173 19.804,-1.394 19.919,-1.673C20.034,-1.952 20.092,-2.357 20.092,-2.889L20.092,-6.223L21.146,-6.223L21.146,0L20.203,0Z" style="fill:white;fill-rule:nonzero;"/>
                <path d="M22.793,-7.365L22.793,-8.59L23.848,-8.59L23.848,-7.365L22.793,-7.365ZM21.457,2.414L21.656,1.518C21.867,1.572 22.033,1.6 22.154,1.6C22.369,1.6 22.529,1.528 22.635,1.386C22.74,1.243 22.793,0.887 22.793,0.316L22.793,-6.223L23.848,-6.223L23.848,0.34C23.848,1.105 23.748,1.639 23.549,1.939C23.295,2.33 22.873,2.525 22.283,2.525C21.998,2.525 21.723,2.488 21.457,2.414Z" style="fill:white;fill-rule:nonzero;"/>
                <path d="M25.072,-3.111C25.072,-4.264 25.393,-5.117 26.033,-5.672C26.568,-6.133 27.221,-6.363 27.99,-6.363C28.846,-6.363 29.545,-6.083 30.088,-5.522C30.631,-4.962 30.902,-4.188 30.902,-3.199C30.902,-2.398 30.782,-1.769 30.542,-1.31C30.302,-0.851 29.952,-0.494 29.493,-0.24C29.034,0.014 28.533,0.141 27.99,0.141C27.119,0.141 26.415,-0.139 25.878,-0.697C25.341,-1.256 25.072,-2.061 25.072,-3.111ZM26.156,-3.111C26.156,-2.314 26.33,-1.718 26.678,-1.321C27.025,-0.925 27.463,-0.727 27.99,-0.727C28.514,-0.727 28.949,-0.926 29.297,-1.324C29.645,-1.723 29.818,-2.33 29.818,-3.146C29.818,-3.916 29.644,-4.499 29.294,-4.896C28.944,-5.292 28.51,-5.49 27.99,-5.49C27.463,-5.49 27.025,-5.293 26.678,-4.898C26.33,-4.504 26.156,-3.908 26.156,-3.111Z" style="fill:white;fill-rule:nonzero;"/>
                <path d="M31.717,-1.857L32.76,-2.021C32.818,-1.604 32.981,-1.283 33.249,-1.061C33.517,-0.838 33.891,-0.727 34.371,-0.727C34.855,-0.727 35.215,-0.825 35.449,-1.022C35.684,-1.22 35.801,-1.451 35.801,-1.717C35.801,-1.955 35.697,-2.143 35.49,-2.279C35.346,-2.373 34.986,-2.492 34.412,-2.637C33.639,-2.832 33.103,-3.001 32.804,-3.144C32.505,-3.286 32.278,-3.483 32.124,-3.735C31.97,-3.987 31.893,-4.266 31.893,-4.57C31.893,-4.848 31.956,-5.104 32.083,-5.341C32.21,-5.577 32.383,-5.773 32.602,-5.93C32.766,-6.051 32.989,-6.153 33.272,-6.237C33.556,-6.321 33.859,-6.363 34.184,-6.363C34.672,-6.363 35.101,-6.293 35.47,-6.152C35.839,-6.012 36.111,-5.821 36.287,-5.581C36.463,-5.341 36.584,-5.02 36.65,-4.617L35.619,-4.477C35.572,-4.797 35.437,-5.047 35.212,-5.227C34.987,-5.406 34.67,-5.496 34.26,-5.496C33.775,-5.496 33.43,-5.416 33.223,-5.256C33.016,-5.096 32.912,-4.908 32.912,-4.693C32.912,-4.557 32.955,-4.434 33.041,-4.324C33.127,-4.211 33.262,-4.117 33.445,-4.043C33.551,-4.004 33.861,-3.914 34.377,-3.773C35.123,-3.574 35.644,-3.411 35.938,-3.284C36.233,-3.157 36.465,-2.973 36.633,-2.73C36.801,-2.488 36.885,-2.188 36.885,-1.828C36.885,-1.477 36.782,-1.146 36.577,-0.835C36.372,-0.524 36.076,-0.284 35.689,-0.114C35.303,0.056 34.865,0.141 34.377,0.141C33.568,0.141 32.952,-0.027 32.528,-0.363C32.104,-0.699 31.834,-1.197 31.717,-1.857Z" style="fill:white;fill-rule:nonzero;"/>
            </g>
        </g>
    </g>
    <g transform="matrix(1,0,0,1,-158.257,307.847)">
        <path d="M297.7,-34.166L326.627,-34.166" style="fill:none;fill-rule:nonzero;stroke:white;stroke-width:2.06px;stroke-dasharray:0,6.17,0,0;"/>
    </g>
    <g transform="matrix(1,0,0,1,-158.257,393.458)">
        <path d="M297.7,-205.614L326.627,-205.614" style="fill:none;fill-rule:nonzero;stroke:white;stroke-width:2.06px;stroke-dasharray:0,6.17,0,0;"/>
    </g>
</svg>
