<svg xmlns="http://www.w3.org/2000/svg" width="307.242" height="290.787" viewBox="0 0 307.242 290.787"><path d="M287.634-151.511,324.59-93.573a11.65,11.65,0,0,1,.394,11.867,11.651,11.651,0,0,1-10.217,6.05H30.828a11.652,11.652,0,0,1-10.217-6.05A11.652,11.652,0,0,1,21-93.573l36.956-57.938Z" transform="translate(-19.176 366.443)" fill="#011d6a" fill-rule="evenodd"/><path d="M326.294-254.651H113.664l48.9-76.657H277.4Z" transform="translate(-66.358 456.223)" fill="#011d6a" fill-rule="evenodd"/><path d="M277.246-448.52l13.318-20.88,35.578,55.778H228.349L263.927-469.4Z" transform="translate(-123.625 525.177)" fill="#011d6a" fill-rule="evenodd"/><path d="M300.139-525.03l-13.318-20.88L273.5-525.03l-24.149-37.86a11.652,11.652,0,0,1-.393-11.868,11.652,11.652,0,0,1,10.217-6.05h55.288a11.651,11.651,0,0,1,10.217,6.05,11.651,11.651,0,0,1-.394,11.868Z" transform="translate(-133.2 580.808)" fill="#011d6a" fill-rule="evenodd"/><path d="M326.049-490.225l-13.318,20.88-13.319-20.88,13.319-20.88Z" transform="translate(-159.109 546.003)" fill="#d6dee7" fill-rule="evenodd"/><g transform="translate(124.065 3.431)"><g transform="translate(0 0)"><text transform="translate(0 10)" fill="#fff" font-size="10" font-family="Oxygen-Regular, Oxygen"><tspan x="0" y="0">Modelos</tspan></text><text transform="translate(46.159 10)" fill="#fff" font-size="10" font-family="Oxygen-Regular, Oxygen"><tspan x="0" y="0">de</tspan></text></g></g><g transform="translate(133.571 14.391)"><text transform="translate(0 10)" fill="#fff" font-size="10" font-family="Oxygen-Regular, Oxygen"><tspan x="0" y="0">negocio</tspan></text></g><g transform="translate(140.143 78.513)"><g transform="translate(0 0)"><text transform="translate(0 10)" fill="#fff" font-size="10" font-family="Oxygen-Regular, Oxygen"><tspan x="0" y="0">Macro</tspan></text></g></g><g transform="translate(133.211 89.798)"><g transform="translate(0 0)"><text transform="translate(0 11)" fill="#fff" font-size="11" font-family="Oxygen-Regular, Oxygen"><tspan x="0" y="0">pr</tspan></text><text transform="translate(10.618 11)" fill="#fff" font-size="11" font-family="Oxygen-Regular, Oxygen"><tspan x="0" y="0">ocesos</tspan></text></g></g><g transform="translate(117.751 146.106)"><g transform="translate(0 0)"><text transform="translate(0 11)" fill="#fff" font-size="11" font-family="Oxygen-Regular, Oxygen"><tspan x="0" y="0">Subprocesos y</tspan></text></g></g><g transform="translate(107.481 163.42)"><g transform="translate(0 0)"><text transform="translate(0 11)" fill="#fff" font-size="12" font-family="Oxygen-Regular, Oxygen"><tspan x="0" y="0">decisiones</tspan></text><text transform="translate(63.16 11)" fill="#fff" font-size="11" font-family="Oxygen-Regular, Oxygen"><tspan x="0" y="0">clave</tspan></text></g></g><g transform="translate(112.475 233.789)"><g transform="translate(0 0)"><text transform="translate(0 12)" fill="#fff" font-size="12" font-family="Oxygen-Regular, Oxygen"><tspan x="0" y="0">Micro</tspan></text><text transform="translate(35.818 12)" fill="#fff" font-size="12" font-family="Oxygen-Regular, Oxygen"><tspan x="0" y="0">pr</tspan></text><text transform="translate(47.854 12)" fill="#fff" font-size="12" font-family="Oxygen-Regular, Oxygen"><tspan x="0" y="0">ocesos</tspan></text></g></g><g transform="translate(137.949 251.103)"><text transform="translate(-3 12)" fill="#fff" font-size="12" font-family="Oxygen-Regular, Oxygen"><tspan x="0" y="0">y flujos</tspan></text></g><path d="M297.7-34.166h28.927" transform="translate(-158.257 307.847)" fill="none" stroke="#fff" stroke-linecap="round" stroke-linejoin="round" stroke-width="2.058" stroke-dasharray="0 6.173 0 0"/><path d="M297.7-205.614h28.927" transform="translate(-158.257 393.458)" fill="none" stroke="#fff" stroke-linecap="round" stroke-linejoin="round" stroke-width="2.058" stroke-dasharray="0 6.173 0 0"/></svg>