<svg xmlns="http://www.w3.org/2000/svg" width="325.734" height="325.734" viewBox="0 0 325.734 325.734">
  <g id="Grupo_22" data-name="Grupo 22" transform="translate(0 511.476)">
    <path id="Trazado_4" data-name="Trazado 4" d="M80.2-340.615a83.122,83.122,0,0,0,74.671,74.671v80.2H29.575A29.575,29.575,0,0,1,8.662-194.4,29.575,29.575,0,0,1,0-215.317v-125.3Zm165.332,0h80.2v125.3a29.573,29.573,0,0,1-8.662,20.913,29.574,29.574,0,0,1-20.912,8.662h-125.3v-80.2A83.122,83.122,0,0,0,245.533-340.615Zm-90.66-90.66A83.121,83.121,0,0,0,80.2-356.6H0V-481.9a29.574,29.574,0,0,1,8.662-20.912,29.573,29.573,0,0,1,20.913-8.662h125.3Zm15.989,0v-80.2h125.3a29.572,29.572,0,0,1,20.912,8.662,29.572,29.572,0,0,1,8.662,20.912v125.3h-80.2A83.121,83.121,0,0,0,170.861-431.275Z" fill="#011d6a" fill-rule="evenodd"/>
    <g id="Grupo_3" data-name="Grupo 3" transform="translate(118.035 -378.141)">
      <g id="Grupo" transform="translate(0 0)">
        <text id="Caso" transform="translate(0 25)" fill="#011d6a" font-size="24" font-family="Oxygen-Bold, Oxygen" font-weight="700"><tspan x="0" y="0">Caso</tspan></text>
        <text id="de" transform="translate(60.521 25)" fill="#011d6a" font-size="24" font-family="Oxygen-Bold, Oxygen" font-weight="700"><tspan x="0" y="0">de</tspan></text>
      </g>
    </g>
    <g id="Grupo_4" data-name="Grupo 4" transform="translate(117.082 -352.712)">
      <text id="negocio" transform="translate(0 26)" fill="#011d6a" font-size="25" font-family="Oxygen-Bold, Oxygen" font-weight="700"><tspan x="0" y="0">negocio</tspan></text>
    </g>
    <g id="Grupo_5" data-name="Grupo 5" transform="translate(20.175 -495.448)">
      <g id="Grupo-2" data-name="Grupo" transform="translate(0 0)">
        <text id="Enmarcado" transform="translate(0 12)" fill="#fff" font-size="12" font-family="Oxygen-Bold, Oxygen" font-weight="700"><tspan x="0" y="0">Enmarcado</tspan></text>
        <text id="del" transform="translate(66.981 12)" fill="#fff" font-size="12" font-family="Oxygen-Bold, Oxygen" font-weight="700"><tspan x="0" y="0">del</tspan></text>
      </g>
    </g>
    <g id="Grupo_6" data-name="Grupo 6" transform="translate(20.175 -477.163)">
      <g id="Grupo-3" data-name="Grupo" transform="translate(0 0)">
        <text id="problema" transform="translate(0 12)" fill="#fff" font-size="12" font-family="Oxygen-Bold, Oxygen" font-weight="700"><tspan x="0" y="0">problema</tspan></text>
        <text id="y_o" data-name="y/o" transform="translate(58.727 12)" fill="#fff" font-size="12" font-family="Oxygen-Bold, Oxygen" font-weight="700"><tspan x="0" y="0">y/o</tspan></text>
      </g>
    </g>
    <g id="Grupo_7" data-name="Grupo 7" transform="translate(20.175 -458.877)">
      <text id="oportunidad" transform="translate(0 12)" fill="#fff" font-size="12" font-family="Oxygen-Bold, Oxygen" font-weight="700"><tspan x="0" y="0">oportunidad</tspan></text>
    </g>
    <g id="Grupo_8" data-name="Grupo 8" transform="translate(20.175 -437.406)">
      <text id="_Causas" data-name="(Causas" transform="translate(0 10)" fill="#fff" font-size="10" font-family="Oxygen-Regular, Oxygen"><tspan x="0" y="0">(Causas</tspan></text>
    </g>
    <g id="Grupo_9" data-name="Grupo 9" transform="translate(20.175 -419.121)">
      <text id="consecuencias_." data-name="consecuencias)." transform="translate(0 10)" fill="#fff" font-size="10" font-family="Oxygen-Regular, Oxygen"><tspan x="0" y="0">consecuencias).</tspan></text>
    </g>
    <g id="Grupo_10" data-name="Grupo 10" transform="translate(217.098 -493.417)">
      <g id="Grupo-4" data-name="Grupo" transform="translate(0 0)">
        <text id="Definición" transform="translate(0 12)" fill="#fff" font-size="12" font-family="Oxygen-Bold, Oxygen" font-weight="700"><tspan x="0" y="0">Definición</tspan></text>
        <text id="de-2" data-name="de" transform="translate(61.02 13)" fill="#fff" font-size="13" font-family="Oxygen-Bold, Oxygen" font-weight="700"><tspan x="0" y="0">de</tspan></text>
        <text id="la" transform="translate(78.382 12)" fill="#fff" font-size="12" font-family="Oxygen-Bold, Oxygen" font-weight="700"><tspan x="0" y="0">la</tspan></text>
      </g>
    </g>
    <g id="Grupo_11" data-name="Grupo 11" transform="translate(199.326 -475.131)">
      <text id="solución" transform="translate(0 12)" fill="#fff" font-size="12" font-family="Oxygen-Bold, Oxygen" font-weight="700"><tspan x="0" y="0">solución</tspan></text>
    </g>
    <g id="Grupo_12" data-name="Grupo 12" transform="translate(250.612 -471.947)">
      <text id="_Racional_" data-name="(Racional)" transform="translate(0 10)" fill="#fff" font-size="10" font-family="Oxygen-Regular, Oxygen"><tspan x="0" y="0">(Racional)</tspan></text>
    </g>
    <g id="Grupo_13" data-name="Grupo 13" transform="translate(299.494 -475.131)">
      <text id="y" transform="translate(0 13)" fill="#fff" font-size="13" font-family="Oxygen-Bold, Oxygen" font-weight="700"><tspan x="0" y="0">y</tspan></text>
    </g>
    <g id="Grupo_14" data-name="Grupo 14" transform="translate(216.487 -456.845)">
      <g id="Grupo-5" data-name="Grupo" transform="translate(0 0)">
        <text id="las" transform="translate(0 12)" fill="#fff" font-size="12" font-family="Oxygen-Bold, Oxygen" font-weight="700"><tspan x="0" y="0">las</tspan></text>
        <text id="alternativas." transform="translate(19.146 12)" fill="#fff" font-size="12" font-family="Oxygen-Bold, Oxygen" font-weight="700"><tspan x="0" y="0">alternativas.</tspan></text>
      </g>
    </g>
    <g id="Grupo_15" data-name="Grupo 15" transform="translate(20.175 -258.48)">
      <text id="Aterrizaje" transform="translate(0 12)" fill="#fff" font-size="12" font-family="Oxygen-Bold, Oxygen" font-weight="700"><tspan x="0" y="0">Aterrizaje</tspan></text>
    </g>
    <g id="Grupo_16" data-name="Grupo 16" transform="translate(20.175 -237.01)">
      <g id="Grupo-6" data-name="Grupo" transform="translate(0 0)">
        <text id="_Definiciones" data-name="(Definiciones" transform="translate(0 10)" fill="#fff" font-size="10" font-family="Oxygen-Regular, Oxygen"><tspan x="0" y="0">(Definiciones</tspan></text>
        <text id="generales" transform="translate(61.886 10)" fill="#fff" font-size="10" font-family="Oxygen-Regular, Oxygen"><tspan x="0" y="0">generales</tspan></text>
      </g>
    </g>
    <g id="Grupo_17" data-name="Grupo 17" transform="translate(20.175 -218.724)">
      <g id="Grupo-7" data-name="Grupo" transform="translate(0 0)">
        <text id="de-3" data-name="de" transform="translate(0 10)" fill="#fff" font-size="10" font-family="Oxygen-Regular, Oxygen"><tspan x="0" y="0">de</tspan></text>
        <text id="la-2" data-name="la" transform="translate(14.08 10)" fill="#fff" font-size="10" font-family="Oxygen-Regular, Oxygen"><tspan x="0" y="0">la</tspan></text>
        <text id="implementación_." data-name="implementación)." transform="translate(24.916 10)" fill="#fff" font-size="10" font-family="Oxygen-Regular, Oxygen"><tspan x="0" y="0">implementación).</tspan></text>
      </g>
    </g>
    <g id="Grupo_18" data-name="Grupo 18" transform="translate(243.858 -276.766)">
      <text id="Evaluación" transform="translate(0 12)" fill="#fff" font-size="12" font-family="Oxygen-Bold, Oxygen" font-weight="700"><tspan x="0" y="0">Evaluación</tspan></text>
    </g>
    <g id="Grupo_19" data-name="Grupo 19" transform="translate(241.782 -258.48)">
      <g id="Grupo-8" data-name="Grupo" transform="translate(0 0)">
        <text id="de-4" data-name="de" transform="translate(0 13)" fill="#fff" font-size="13" font-family="Oxygen-Bold, Oxygen" font-weight="700"><tspan x="0" y="0">de</tspan></text>
        <text id="impacto" transform="translate(17.362 12)" fill="#fff" font-size="12" font-family="Oxygen-Bold, Oxygen" font-weight="700"><tspan x="0" y="0">impacto</tspan></text>
      </g>
    </g>
    <g id="Grupo_20" data-name="Grupo 20" transform="translate(250.996 -237.01)">
      <text id="_Financieros" data-name="(Financieros" transform="translate(0 10)" fill="#fff" font-size="10" font-family="Oxygen-Regular, Oxygen"><tspan x="0" y="0">(Financieros</tspan></text>
    </g>
    <g id="Grupo_21" data-name="Grupo 21" transform="translate(237.24 -218.724)">
      <g id="Grupo-9" data-name="Grupo" transform="translate(0 0)">
        <text id="y-2" data-name="y" transform="translate(0 10)" fill="#fff" font-size="10" font-family="Oxygen-Regular, Oxygen"><tspan x="0" y="0">y</tspan></text>
        <text id="estratégicos_." data-name="estratégicos)." transform="translate(7.627 10)" fill="#fff" font-size="10" font-family="Oxygen-Regular, Oxygen"><tspan x="0" y="0">estratégicos).</tspan></text>
      </g>
    </g>
    <path id="Trazado_5" data-name="Trazado 5" d="M378.9-385.372h63.479" transform="translate(-137.596 -45.795)" fill="none" stroke="#fff" stroke-linecap="round" stroke-linejoin="round" stroke-width="2.058" stroke-dasharray="0 6.173 0 0"/>
    <path id="Trazado_6" data-name="Trazado 6" d="M33.375-119.842H96.854" transform="translate(-12.12 -142.222)" fill="none" stroke="#fff" stroke-linecap="round" stroke-linejoin="round" stroke-width="2.058" stroke-dasharray="0 6.173 0 0"/>
    <path id="Trazado_7" data-name="Trazado 7" d="M33.375-331.536H96.854" transform="translate(-12.12 -65.345)" fill="none" stroke="#fff" stroke-linecap="round" stroke-linejoin="round" stroke-width="2.058" stroke-dasharray="0 6.173 0 0"/>
  </g>
</svg>
