<?xml version="1.0" encoding="UTF-8" standalone="no"?><!DOCTYPE svg PUBLIC "-//W3C//DTD SVG 1.1//EN" "http://www.w3.org/Graphics/SVG/1.1/DTD/svg11.dtd"><svg width="100%" height="100%" viewBox="0 0 147 147" version="1.1" xmlns="http://www.w3.org/2000/svg" xmlns:xlink="http://www.w3.org/1999/xlink" xml:space="preserve" xmlns:serif="http://www.serif.com/" style="fill-rule:evenodd;clip-rule:evenodd;stroke-linejoin:round;stroke-miterlimit:2;"><path id="Combined_Shape" d="M142,144.5c0,-1.371 1.129,-2.5 2.5,-2.5c1.371,0 2.5,1.129 2.5,2.5c0,1.371 -1.129,2.5 -2.5,2.5c-1.371,0 -2.5,-1.129 -2.5,-2.5Zm-24,0c0,-1.371 1.129,-2.5 2.5,-2.5c1.371,0 2.5,1.129 2.5,2.5c0,1.371 -1.129,2.5 -2.5,2.5c-1.371,0 -2.5,-1.129 -2.5,-2.5Zm-23,0c0,-1.371 1.129,-2.5 2.5,-2.5c1.371,0 2.5,1.129 2.5,2.5c0,1.371 -1.129,2.5 -2.5,2.5c-1.371,0 -2.5,-1.129 -2.5,-2.5Zm-24,0c0,-1.371 1.129,-2.5 2.5,-2.5c1.371,0 2.5,1.129 2.5,2.5c0,1.371 -1.129,2.5 -2.5,2.5c-1.371,0 -2.5,-1.129 -2.5,-2.5Zm-24,0c0,-1.371 1.129,-2.5 2.5,-2.5c1.371,0 2.5,1.129 2.5,2.5c0,1.371 -1.129,2.5 -2.5,2.5c-1.371,0 -2.5,-1.129 -2.5,-2.5Zm-23,0c0,-1.371 1.129,-2.5 2.5,-2.5c1.371,0 2.5,1.129 2.5,2.5c0,1.371 -1.129,2.5 -2.5,2.5c-1.371,0 -2.5,-1.129 -2.5,-2.5Zm-24,0c-0,-1.371 1.129,-2.5 2.5,-2.5c1.371,0 2.5,1.129 2.5,2.5c0,1.371 -1.129,2.5 -2.5,2.5c-1.371,0 -2.5,-1.129 -2.5,-2.5Zm142,-24c0,-1.371 1.129,-2.5 2.5,-2.5c1.371,0 2.5,1.129 2.5,2.5c0,1.371 -1.129,2.5 -2.5,2.5c-1.371,0 -2.5,-1.129 -2.5,-2.5Zm-24,0c0,-1.371 1.129,-2.5 2.5,-2.5c1.371,0 2.5,1.129 2.5,2.5c0,1.371 -1.129,2.5 -2.5,2.5c-1.371,0 -2.5,-1.129 -2.5,-2.5Zm-23,0c0,-1.371 1.129,-2.5 2.5,-2.5c1.371,0 2.5,1.129 2.5,2.5c0,1.371 -1.129,2.5 -2.5,2.5c-1.371,0 -2.5,-1.129 -2.5,-2.5Zm-24,0c0,-1.371 1.129,-2.5 2.5,-2.5c1.371,0 2.5,1.129 2.5,2.5c0,1.371 -1.129,2.5 -2.5,2.5c-1.371,0 -2.5,-1.129 -2.5,-2.5Zm-24,0c0,-1.371 1.129,-2.5 2.5,-2.5c1.371,0 2.5,1.129 2.5,2.5c0,1.371 -1.129,2.5 -2.5,2.5c-1.371,0 -2.5,-1.129 -2.5,-2.5Zm-23,0c0,-1.371 1.129,-2.5 2.5,-2.5c1.371,0 2.5,1.129 2.5,2.5c0,1.371 -1.129,2.5 -2.5,2.5c-1.371,0 -2.5,-1.129 -2.5,-2.5Zm-24,0c-0,-1.371 1.129,-2.5 2.5,-2.5c1.371,0 2.5,1.129 2.5,2.5c0,1.371 -1.129,2.5 -2.5,2.5c-1.371,0 -2.5,-1.129 -2.5,-2.5Zm142,-23c0,-1.371 1.129,-2.5 2.5,-2.5c1.371,0 2.5,1.129 2.5,2.5c0,1.371 -1.129,2.5 -2.5,2.5c-1.371,0 -2.5,-1.129 -2.5,-2.5Zm-24,0c0,-1.371 1.129,-2.5 2.5,-2.5c1.371,0 2.5,1.129 2.5,2.5c0,1.371 -1.129,2.5 -2.5,2.5c-1.371,0 -2.5,-1.129 -2.5,-2.5Zm-23,0c0,-1.371 1.129,-2.5 2.5,-2.5c1.371,0 2.5,1.129 2.5,2.5c0,1.371 -1.129,2.5 -2.5,2.5c-1.371,0 -2.5,-1.129 -2.5,-2.5Zm-24,0c0,-1.371 1.129,-2.5 2.5,-2.5c1.371,0 2.5,1.129 2.5,2.5c0,1.371 -1.129,2.5 -2.5,2.5c-1.371,0 -2.5,-1.129 -2.5,-2.5Zm-24,0c0,-1.371 1.129,-2.5 2.5,-2.5c1.371,0 2.5,1.129 2.5,2.5c0,1.371 -1.129,2.5 -2.5,2.5c-1.371,0 -2.5,-1.129 -2.5,-2.5Zm-23,0c0,-1.371 1.129,-2.5 2.5,-2.5c1.371,0 2.5,1.129 2.5,2.5c0,1.371 -1.129,2.5 -2.5,2.5c-1.371,0 -2.5,-1.129 -2.5,-2.5Zm-24,0c-0,-1.371 1.129,-2.5 2.5,-2.5c1.371,0 2.5,1.129 2.5,2.5c0,1.371 -1.129,2.5 -2.5,2.5c-1.371,0 -2.5,-1.129 -2.5,-2.5Zm142,-24c0,-1.371 1.129,-2.5 2.5,-2.5c1.371,0 2.5,1.129 2.5,2.5c0,1.371 -1.129,2.5 -2.5,2.5c-1.371,0 -2.5,-1.129 -2.5,-2.5Zm-24,0c0,-1.371 1.129,-2.5 2.5,-2.5c1.371,0 2.5,1.129 2.5,2.5c0,1.371 -1.129,2.5 -2.5,2.5c-1.371,0 -2.5,-1.129 -2.5,-2.5Zm-23,0c0,-1.371 1.129,-2.5 2.5,-2.5c1.371,0 2.5,1.129 2.5,2.5c0,1.371 -1.129,2.5 -2.5,2.5c-1.371,0 -2.5,-1.129 -2.5,-2.5Zm-24,0c0,-1.371 1.129,-2.5 2.5,-2.5c1.371,0 2.5,1.129 2.5,2.5c0,1.371 -1.129,2.5 -2.5,2.5c-1.371,0 -2.5,-1.129 -2.5,-2.5Zm-24,0c0,-1.371 1.129,-2.5 2.5,-2.5c1.371,0 2.5,1.129 2.5,2.5c0,1.371 -1.129,2.5 -2.5,2.5c-1.371,0 -2.5,-1.129 -2.5,-2.5Zm-23,0c0,-1.371 1.129,-2.5 2.5,-2.5c1.371,0 2.5,1.129 2.5,2.5c0,1.371 -1.129,2.5 -2.5,2.5c-1.371,0 -2.5,-1.129 -2.5,-2.5Zm-24,0c-0,-1.371 1.129,-2.5 2.5,-2.5c1.371,0 2.5,1.129 2.5,2.5c0,1.371 -1.129,2.5 -2.5,2.5c-1.371,0 -2.5,-1.129 -2.5,-2.5Zm142,-24c0,-1.371 1.129,-2.5 2.5,-2.5c1.371,0 2.5,1.129 2.5,2.5c0,1.371 -1.129,2.5 -2.5,2.5c-1.371,0 -2.5,-1.129 -2.5,-2.5Zm-24,0c0,-1.371 1.129,-2.5 2.5,-2.5c1.371,0 2.5,1.129 2.5,2.5c0,1.371 -1.129,2.5 -2.5,2.5c-1.371,0 -2.5,-1.129 -2.5,-2.5Zm-23,0c0,-1.371 1.129,-2.5 2.5,-2.5c1.371,0 2.5,1.129 2.5,2.5c0,1.371 -1.129,2.5 -2.5,2.5c-1.371,0 -2.5,-1.129 -2.5,-2.5Zm-24,0c0,-1.371 1.129,-2.5 2.5,-2.5c1.371,0 2.5,1.129 2.5,2.5c0,1.371 -1.129,2.5 -2.5,2.5c-1.371,0 -2.5,-1.129 -2.5,-2.5Zm-24,0c0,-1.371 1.129,-2.5 2.5,-2.5c1.371,0 2.5,1.129 2.5,2.5c0,1.371 -1.129,2.5 -2.5,2.5c-1.371,0 -2.5,-1.129 -2.5,-2.5Zm-23,0c0,-1.371 1.129,-2.5 2.5,-2.5c1.371,0 2.5,1.129 2.5,2.5c0,1.371 -1.129,2.5 -2.5,2.5c-1.371,0 -2.5,-1.129 -2.5,-2.5Zm-24,0c-0,-1.371 1.129,-2.5 2.5,-2.5c1.371,0 2.5,1.129 2.5,2.5c0,1.371 -1.129,2.5 -2.5,2.5c-1.371,0 -2.5,-1.129 -2.5,-2.5Zm142,-23c0,-1.371 1.129,-2.5 2.5,-2.5c1.371,0 2.5,1.129 2.5,2.5c0,1.371 -1.129,2.5 -2.5,2.5c-1.371,0 -2.5,-1.129 -2.5,-2.5Zm-24,0c0,-1.371 1.129,-2.5 2.5,-2.5c1.371,0 2.5,1.129 2.5,2.5c0,1.371 -1.129,2.5 -2.5,2.5c-1.371,0 -2.5,-1.129 -2.5,-2.5Zm-23,0c0,-1.371 1.129,-2.5 2.5,-2.5c1.371,0 2.5,1.129 2.5,2.5c0,1.371 -1.129,2.5 -2.5,2.5c-1.371,0 -2.5,-1.129 -2.5,-2.5Zm-24,0c0,-1.371 1.129,-2.5 2.5,-2.5c1.371,0 2.5,1.129 2.5,2.5c0,1.371 -1.129,2.5 -2.5,2.5c-1.371,0 -2.5,-1.129 -2.5,-2.5Zm-24,0c0,-1.371 1.129,-2.5 2.5,-2.5c1.371,0 2.5,1.129 2.5,2.5c0,1.371 -1.129,2.5 -2.5,2.5c-1.371,0 -2.5,-1.129 -2.5,-2.5Zm-23,0c0,-1.371 1.129,-2.5 2.5,-2.5c1.371,0 2.5,1.129 2.5,2.5c0,1.371 -1.129,2.5 -2.5,2.5c-1.371,0 -2.5,-1.129 -2.5,-2.5Zm-24,0c-0,-1.371 1.129,-2.5 2.5,-2.5c1.371,0 2.5,1.129 2.5,2.5c0,1.371 -1.129,2.5 -2.5,2.5c-1.371,0 -2.5,-1.129 -2.5,-2.5Zm142,-24c0,-1.371 1.129,-2.5 2.5,-2.5c1.371,-0 2.5,1.129 2.5,2.5c0,1.371 -1.129,2.5 -2.5,2.5c-1.371,0 -2.5,-1.129 -2.5,-2.5Zm-24,0c0,-1.371 1.129,-2.5 2.5,-2.5c1.371,-0 2.5,1.129 2.5,2.5c0,1.371 -1.129,2.5 -2.5,2.5c-1.371,0 -2.5,-1.129 -2.5,-2.5Zm-23,0c0,-1.371 1.129,-2.5 2.5,-2.5c1.371,-0 2.5,1.129 2.5,2.5c0,1.371 -1.129,2.5 -2.5,2.5c-1.371,0 -2.5,-1.129 -2.5,-2.5Zm-24,0c0,-1.371 1.129,-2.5 2.5,-2.5c1.371,-0 2.5,1.129 2.5,2.5c0,1.371 -1.129,2.5 -2.5,2.5c-1.371,0 -2.5,-1.129 -2.5,-2.5Zm-24,0c0,-1.371 1.129,-2.5 2.5,-2.5c1.371,-0 2.5,1.129 2.5,2.5c0,1.371 -1.129,2.5 -2.5,2.5c-1.371,0 -2.5,-1.129 -2.5,-2.5Zm-23,0c0,-1.371 1.129,-2.5 2.5,-2.5c1.371,-0 2.5,1.129 2.5,2.5c0,1.371 -1.129,2.5 -2.5,2.5c-1.371,0 -2.5,-1.129 -2.5,-2.5Zm-24,0c-0,-1.371 1.129,-2.5 2.5,-2.5c1.371,-0 2.5,1.129 2.5,2.5c0,1.371 -1.129,2.5 -2.5,2.5c-1.371,0 -2.5,-1.129 -2.5,-2.5Z" style="fill:#d7dee7;fill-rule:nonzero;"/></svg>