<svg xmlns="http://www.w3.org/2000/svg" width="147" height="147" viewBox="0 0 147 147">
  <path id="Combined_Shape" data-name="Combined Shape" d="M142,144.5a2.5,2.5,0,1,1,2.5,2.5A2.5,2.5,0,0,1,142,144.5Zm-24,0a2.5,2.5,0,1,1,2.5,2.5A2.5,2.5,0,0,1,118,144.5Zm-23,0a2.5,2.5,0,1,1,2.5,2.5A2.5,2.5,0,0,1,95,144.5Zm-24,0a2.5,2.5,0,1,1,2.5,2.5A2.5,2.5,0,0,1,71,144.5Zm-24,0a2.5,2.5,0,1,1,2.5,2.5A2.5,2.5,0,0,1,47,144.5Zm-23,0a2.5,2.5,0,1,1,2.5,2.5A2.5,2.5,0,0,1,24,144.5Zm-24,0A2.5,2.5,0,1,1,2.5,147,2.5,2.5,0,0,1,0,144.5Zm142-24a2.5,2.5,0,1,1,2.5,2.5A2.5,2.5,0,0,1,142,120.5Zm-24,0a2.5,2.5,0,1,1,2.5,2.5A2.5,2.5,0,0,1,118,120.5Zm-23,0a2.5,2.5,0,1,1,2.5,2.5A2.5,2.5,0,0,1,95,120.5Zm-24,0a2.5,2.5,0,1,1,2.5,2.5A2.5,2.5,0,0,1,71,120.5Zm-24,0a2.5,2.5,0,1,1,2.5,2.5A2.5,2.5,0,0,1,47,120.5Zm-23,0a2.5,2.5,0,1,1,2.5,2.5A2.5,2.5,0,0,1,24,120.5Zm-24,0A2.5,2.5,0,1,1,2.5,123,2.5,2.5,0,0,1,0,120.5Zm142-23a2.5,2.5,0,1,1,2.5,2.5A2.5,2.5,0,0,1,142,97.5Zm-24,0a2.5,2.5,0,1,1,2.5,2.5A2.5,2.5,0,0,1,118,97.5Zm-23,0a2.5,2.5,0,1,1,2.5,2.5A2.5,2.5,0,0,1,95,97.5Zm-24,0a2.5,2.5,0,1,1,2.5,2.5A2.5,2.5,0,0,1,71,97.5Zm-24,0a2.5,2.5,0,1,1,2.5,2.5A2.5,2.5,0,0,1,47,97.5Zm-23,0a2.5,2.5,0,1,1,2.5,2.5A2.5,2.5,0,0,1,24,97.5Zm-24,0A2.5,2.5,0,1,1,2.5,100,2.5,2.5,0,0,1,0,97.5Zm142-24a2.5,2.5,0,1,1,2.5,2.5A2.5,2.5,0,0,1,142,73.5Zm-24,0a2.5,2.5,0,1,1,2.5,2.5A2.5,2.5,0,0,1,118,73.5Zm-23,0A2.5,2.5,0,1,1,97.5,76,2.5,2.5,0,0,1,95,73.5Zm-24,0A2.5,2.5,0,1,1,73.5,76,2.5,2.5,0,0,1,71,73.5Zm-24,0A2.5,2.5,0,1,1,49.5,76,2.5,2.5,0,0,1,47,73.5Zm-23,0A2.5,2.5,0,1,1,26.5,76,2.5,2.5,0,0,1,24,73.5Zm-24,0A2.5,2.5,0,1,1,2.5,76,2.5,2.5,0,0,1,0,73.5Zm142-24a2.5,2.5,0,1,1,2.5,2.5A2.5,2.5,0,0,1,142,49.5Zm-24,0a2.5,2.5,0,1,1,2.5,2.5A2.5,2.5,0,0,1,118,49.5Zm-23,0A2.5,2.5,0,1,1,97.5,52,2.5,2.5,0,0,1,95,49.5Zm-24,0A2.5,2.5,0,1,1,73.5,52,2.5,2.5,0,0,1,71,49.5Zm-24,0A2.5,2.5,0,1,1,49.5,52,2.5,2.5,0,0,1,47,49.5Zm-23,0A2.5,2.5,0,1,1,26.5,52,2.5,2.5,0,0,1,24,49.5Zm-24,0A2.5,2.5,0,1,1,2.5,52,2.5,2.5,0,0,1,0,49.5Zm142-23a2.5,2.5,0,1,1,2.5,2.5A2.5,2.5,0,0,1,142,26.5Zm-24,0a2.5,2.5,0,1,1,2.5,2.5A2.5,2.5,0,0,1,118,26.5Zm-23,0A2.5,2.5,0,1,1,97.5,29,2.5,2.5,0,0,1,95,26.5Zm-24,0A2.5,2.5,0,1,1,73.5,29,2.5,2.5,0,0,1,71,26.5Zm-24,0A2.5,2.5,0,1,1,49.5,29,2.5,2.5,0,0,1,47,26.5Zm-23,0A2.5,2.5,0,1,1,26.5,29,2.5,2.5,0,0,1,24,26.5Zm-24,0A2.5,2.5,0,1,1,2.5,29,2.5,2.5,0,0,1,0,26.5Zm142-24A2.5,2.5,0,1,1,144.5,5,2.5,2.5,0,0,1,142,2.5Zm-24,0A2.5,2.5,0,1,1,120.5,5,2.5,2.5,0,0,1,118,2.5Zm-23,0A2.5,2.5,0,1,1,97.5,5,2.5,2.5,0,0,1,95,2.5Zm-24,0A2.5,2.5,0,1,1,73.5,5,2.5,2.5,0,0,1,71,2.5Zm-24,0A2.5,2.5,0,1,1,49.5,5,2.5,2.5,0,0,1,47,2.5Zm-23,0A2.5,2.5,0,1,1,26.5,5,2.5,2.5,0,0,1,24,2.5ZM0,2.5A2.5,2.5,0,1,1,2.5,5,2.5,2.5,0,0,1,0,2.5Z" fill="#d7dee7"/>
</svg>
