<?xml version="1.0" encoding="UTF-8" standalone="no"?><!DOCTYPE svg PUBLIC "-//W3C//DTD SVG 1.1//EN" "http://www.w3.org/Graphics/SVG/1.1/DTD/svg11.dtd"><svg width="100%" height="100%" viewBox="0 0 278 69" version="1.1" xmlns="http://www.w3.org/2000/svg" xmlns:xlink="http://www.w3.org/1999/xlink" xml:space="preserve" xmlns:serif="http://www.serif.com/" style="fill-rule:evenodd;clip-rule:evenodd;stroke-linecap:round;stroke-linejoin:round;stroke-miterlimit:1.5;"><rect id="Artboard1" x="0" y="0" width="277.23" height="68.137" style="fill:#ebebeb;"/><clipPath id="_clip1"><rect x="0" y="0" width="277.23" height="68.137"/></clipPath><g clip-path="url(#_clip1)"><path d="M29.726,9.567c-0,0 46.162,-0.806 83.761,-0.806c17.424,-0 44.844,-3.415 72.368,-4.807c44.638,-2.259 65.131,-1.275 65.131,-1.275" style="fill:none;stroke:#000;stroke-width:2px;stroke-dasharray:0,0.1,0,5.99;"/><path d="M25.454,13.804c-0,0 60.112,-1.678 102.488,-1.678c17.158,-0 44.353,-2.481 68.912,-3.537c40.826,-1.755 65.641,-1.934 65.641,-1.934" style="fill:none;stroke:#000;stroke-width:2px;stroke-dasharray:0,0.1,0,5.99;"/><path d="M21.007,17.779c-0,0 77.304,-2.179 122.987,-2.179c16.039,-0 37.628,-2.222 58.946,-2.965c36.779,-1.282 62.955,-0.872 62.955,-0.872" style="fill:none;stroke:#000;stroke-width:2px;stroke-dasharray:0,0.1,0,5.99;"/><path d="M17.868,21.319c0,-0 89.418,-0.335 135.101,-0.335c17.419,0 40.077,-2.532 63.015,-2.95c33.43,-0.609 59.066,-1.685 59.066,-1.685" style="fill:none;stroke:#000;stroke-width:2px;stroke-dasharray:0,0.1,0,5.99;"/><path d="M56.749,24.079c-0,-0 52.053,2.215 97.736,2.215c41.513,-0 115.072,-4.4 115.072,-4.4" style="fill:none;stroke:#000;stroke-width:2px;stroke-dasharray:0,0.1,0,5.99;"/><path d="M11.416,27.351c0,0 23.77,1.139 60.834,4.25c30.448,2.556 83.087,8.112 103.689,8.112c40.143,-0 89.956,-11.752 89.956,-11.752" style="fill:none;stroke:#000;stroke-width:2px;stroke-dasharray:0,0.1,0,5.99;"/><path d="M10.719,32.024c-0,-0 24.063,0.743 60.108,4.585c36.541,3.895 75.46,10.542 98.458,10.542c40.113,0 89.984,-11.901 89.984,-11.901" style="fill:none;stroke:#000;stroke-width:2px;stroke-dasharray:0,0.1,0,5.99;"/><path d="M7.318,36.871c0,-0 32.801,0.956 74.089,6.18c35.846,4.536 72.73,13.35 93.96,13.35c33.861,0 76.927,-13.776 76.927,-13.776" style="fill:none;stroke:#000;stroke-width:2px;stroke-dasharray:0,0.1,0,5.99;"/><path d="M0.954,41.892c-0,0 32.469,-1.382 66.259,3.753c38.351,5.829 79.874,18.263 104.16,18.263c35.324,-0 72.9,-16.61 72.9,-16.61" style="fill:none;stroke:#000;stroke-width:2px;stroke-dasharray:0,0.1,0,5.99;"/><path d="M16.779,24.256c0,-0 130.504,8.78 160.95,8.78c33.371,-0 60.52,-7.527 60.52,-7.527" style="fill:none;stroke:#000;stroke-width:2px;stroke-dasharray:0,0.1,0,5.99;"/></g></svg>