<?xml version="1.0" encoding="UTF-8" standalone="no"?>
<!DOCTYPE svg PUBLIC "-//W3C//DTD SVG 1.1//EN" "http://www.w3.org/Graphics/SVG/1.1/DTD/svg11.dtd">
<svg width="100%" height="100%" viewBox="0 0 416 216" version="1.1" xmlns="http://www.w3.org/2000/svg" xmlns:xlink="http://www.w3.org/1999/xlink" xml:space="preserve" xmlns:serif="http://www.serif.com/" style="fill-rule:evenodd;clip-rule:evenodd;stroke-linecap:round;stroke-linejoin:round;">
    <g>
        <g transform="matrix(1,0,0,1,-96.225,404.541)">
            <path d="M402.775,-345.295L402.775,-383.176C402.775,-394.896 393.13,-404.541 381.41,-404.541L226.887,-404.541C215.166,-404.541 205.521,-394.896 205.521,-383.175L205.521,-345.295L402.775,-345.295Z" style="fill:rgb(1,29,106);"/>
        </g>
        <g transform="matrix(1,0,0,1,0,335.918)">
            <path d="M197.254,-257.975L21.366,-257.975C9.645,-257.975 -0,-248.33 0,-236.609L0,-220.094C0,-208.373 9.645,-198.728 21.366,-198.728L197.254,-198.728L197.254,-257.975Z" style="fill:rgb(1,29,106);"/>
        </g>
        <g transform="matrix(1,0,0,1,-192.451,335.918)">
            <path d="M608.3,-236.609C608.3,-248.33 598.656,-257.974 586.935,-257.975L411.042,-257.975L411.042,-198.728L586.931,-198.728C586.932,-198.728 586.934,-198.728 586.935,-198.728C598.655,-198.728 608.3,-208.373 608.3,-220.093L608.3,-236.609Z" style="fill:rgb(1,29,106);"/>
        </g>
        <g transform="matrix(1,0,0,1,-96.225,267.295)">
            <path d="M402.775,-111.408L205.521,-111.408L205.521,-73.527C205.521,-61.806 215.166,-52.161 226.887,-52.161L381.41,-52.161C393.13,-52.161 402.775,-61.806 402.775,-73.526L402.775,-111.408Z" style="fill:rgb(1,29,106);"/>
        </g>
        <g transform="matrix(1,0,0,1,144.008,23.2766)">
            <g transform="matrix(1,0,0,1,0,12)">
                <g>
                    <path d="M0.926,0L0.926,-8.59L4.166,-8.59C4.736,-8.59 5.172,-8.563 5.473,-8.508C5.895,-8.438 6.248,-8.304 6.533,-8.106C6.818,-7.909 7.048,-7.633 7.222,-7.277C7.396,-6.922 7.482,-6.531 7.482,-6.105C7.482,-5.375 7.25,-4.757 6.785,-4.251C6.32,-3.745 5.48,-3.492 4.266,-3.492L2.063,-3.492L2.063,0L0.926,0ZM2.063,-4.506L4.283,-4.506C5.018,-4.506 5.539,-4.643 5.848,-4.916C6.156,-5.189 6.311,-5.574 6.311,-6.07C6.311,-6.43 6.22,-6.737 6.038,-6.993C5.856,-7.249 5.617,-7.418 5.32,-7.5C5.129,-7.551 4.775,-7.576 4.26,-7.576L2.063,-7.576L2.063,-4.506Z" style="fill:white;fill-rule:nonzero;"/>
                    <path d="M13.055,-2.004L14.145,-1.869C13.973,-1.232 13.654,-0.738 13.189,-0.387C12.725,-0.035 12.131,0.141 11.408,0.141C10.498,0.141 9.776,-0.14 9.243,-0.7C8.71,-1.261 8.443,-2.047 8.443,-3.059C8.443,-4.105 8.713,-4.918 9.252,-5.496C9.791,-6.074 10.49,-6.363 11.35,-6.363C12.182,-6.363 12.861,-6.08 13.389,-5.514C13.916,-4.947 14.18,-4.15 14.18,-3.123C14.18,-3.061 14.178,-2.967 14.174,-2.842L9.533,-2.842C9.572,-2.158 9.766,-1.635 10.113,-1.271C10.461,-0.908 10.895,-0.727 11.414,-0.727C11.801,-0.727 12.131,-0.828 12.404,-1.031C12.678,-1.234 12.895,-1.559 13.055,-2.004ZM9.592,-3.709L13.066,-3.709C13.02,-4.232 12.887,-4.625 12.668,-4.887C12.332,-5.293 11.896,-5.496 11.361,-5.496C10.877,-5.496 10.47,-5.334 10.14,-5.01C9.81,-4.686 9.627,-4.252 9.592,-3.709Z" style="fill:white;fill-rule:nonzero;"/>
                    <path d="M15.457,0L15.457,-6.223L16.406,-6.223L16.406,-5.279C16.648,-5.721 16.872,-6.012 17.077,-6.152C17.282,-6.293 17.508,-6.363 17.754,-6.363C18.109,-6.363 18.471,-6.25 18.838,-6.023L18.475,-5.045C18.217,-5.197 17.959,-5.273 17.701,-5.273C17.471,-5.273 17.264,-5.204 17.08,-5.065C16.896,-4.927 16.766,-4.734 16.688,-4.488C16.57,-4.113 16.512,-3.703 16.512,-3.258L16.512,0L15.457,0Z" style="fill:white;fill-rule:nonzero;"/>
                    <path d="M19.043,-1.857L20.086,-2.021C20.145,-1.604 20.308,-1.283 20.575,-1.061C20.843,-0.838 21.217,-0.727 21.697,-0.727C22.182,-0.727 22.541,-0.825 22.775,-1.022C23.01,-1.22 23.127,-1.451 23.127,-1.717C23.127,-1.955 23.023,-2.143 22.816,-2.279C22.672,-2.373 22.313,-2.492 21.738,-2.637C20.965,-2.832 20.429,-3.001 20.13,-3.144C19.831,-3.286 19.604,-3.483 19.45,-3.735C19.296,-3.987 19.219,-4.266 19.219,-4.57C19.219,-4.848 19.282,-5.104 19.409,-5.341C19.536,-5.577 19.709,-5.773 19.928,-5.93C20.092,-6.051 20.315,-6.153 20.599,-6.237C20.882,-6.321 21.186,-6.363 21.51,-6.363C21.998,-6.363 22.427,-6.293 22.796,-6.152C23.165,-6.012 23.438,-5.821 23.613,-5.581C23.789,-5.341 23.91,-5.02 23.977,-4.617L22.945,-4.477C22.898,-4.797 22.763,-5.047 22.538,-5.227C22.313,-5.406 21.996,-5.496 21.586,-5.496C21.102,-5.496 20.756,-5.416 20.549,-5.256C20.342,-5.096 20.238,-4.908 20.238,-4.693C20.238,-4.557 20.281,-4.434 20.367,-4.324C20.453,-4.211 20.588,-4.117 20.771,-4.043C20.877,-4.004 21.188,-3.914 21.703,-3.773C22.449,-3.574 22.97,-3.411 23.265,-3.284C23.56,-3.157 23.791,-2.973 23.959,-2.73C24.127,-2.488 24.211,-2.188 24.211,-1.828C24.211,-1.477 24.108,-1.146 23.903,-0.835C23.698,-0.524 23.402,-0.284 23.016,-0.114C22.629,0.056 22.191,0.141 21.703,0.141C20.895,0.141 20.278,-0.027 19.854,-0.363C19.431,-0.699 19.16,-1.197 19.043,-1.857Z" style="fill:white;fill-rule:nonzero;"/>
                    <path d="M25.465,2.385L25.465,-6.223L26.426,-6.223L26.426,-5.414C26.652,-5.73 26.908,-5.968 27.193,-6.126C27.479,-6.284 27.824,-6.363 28.23,-6.363C28.762,-6.363 29.23,-6.227 29.637,-5.953C30.043,-5.68 30.35,-5.294 30.557,-4.796C30.764,-4.298 30.867,-3.752 30.867,-3.158C30.867,-2.521 30.753,-1.948 30.524,-1.438C30.296,-0.929 29.964,-0.538 29.528,-0.267C29.093,0.005 28.635,0.141 28.154,0.141C27.803,0.141 27.487,0.066 27.208,-0.082C26.929,-0.23 26.699,-0.418 26.52,-0.645L26.52,2.385L25.465,2.385ZM26.42,-3.076C26.42,-2.275 26.582,-1.684 26.906,-1.301C27.23,-0.918 27.623,-0.727 28.084,-0.727C28.553,-0.727 28.954,-0.925 29.288,-1.321C29.622,-1.718 29.789,-2.332 29.789,-3.164C29.789,-3.957 29.626,-4.551 29.3,-4.945C28.974,-5.34 28.584,-5.537 28.131,-5.537C27.682,-5.537 27.284,-5.327 26.938,-4.907C26.593,-4.487 26.42,-3.877 26.42,-3.076Z" style="fill:white;fill-rule:nonzero;"/>
                    <path d="M36.398,-2.004L37.488,-1.869C37.316,-1.232 36.998,-0.738 36.533,-0.387C36.068,-0.035 35.475,0.141 34.752,0.141C33.842,0.141 33.12,-0.14 32.587,-0.7C32.054,-1.261 31.787,-2.047 31.787,-3.059C31.787,-4.105 32.057,-4.918 32.596,-5.496C33.135,-6.074 33.834,-6.363 34.693,-6.363C35.525,-6.363 36.205,-6.08 36.732,-5.514C37.26,-4.947 37.523,-4.15 37.523,-3.123C37.523,-3.061 37.521,-2.967 37.518,-2.842L32.877,-2.842C32.916,-2.158 33.109,-1.635 33.457,-1.271C33.805,-0.908 34.238,-0.727 34.758,-0.727C35.145,-0.727 35.475,-0.828 35.748,-1.031C36.021,-1.234 36.238,-1.559 36.398,-2.004ZM32.936,-3.709L36.41,-3.709C36.363,-4.232 36.23,-4.625 36.012,-4.887C35.676,-5.293 35.24,-5.496 34.705,-5.496C34.221,-5.496 33.813,-5.334 33.483,-5.01C33.153,-4.686 32.971,-4.252 32.936,-3.709Z" style="fill:white;fill-rule:nonzero;"/>
                    <path d="M42.873,-2.279L43.91,-2.145C43.797,-1.43 43.507,-0.87 43.04,-0.466C42.573,-0.062 42,0.141 41.32,0.141C40.469,0.141 39.784,-0.138 39.267,-0.694C38.749,-1.251 38.49,-2.049 38.49,-3.088C38.49,-3.76 38.602,-4.348 38.824,-4.852C39.047,-5.355 39.386,-5.733 39.841,-5.985C40.296,-6.237 40.791,-6.363 41.326,-6.363C42.002,-6.363 42.555,-6.192 42.984,-5.851C43.414,-5.509 43.689,-5.023 43.811,-4.395L42.785,-4.236C42.688,-4.654 42.515,-4.969 42.267,-5.18C42.019,-5.391 41.719,-5.496 41.367,-5.496C40.836,-5.496 40.404,-5.306 40.072,-4.925C39.74,-4.544 39.574,-3.941 39.574,-3.117C39.574,-2.281 39.734,-1.674 40.055,-1.295C40.375,-0.916 40.793,-0.727 41.309,-0.727C41.723,-0.727 42.068,-0.854 42.346,-1.107C42.623,-1.361 42.799,-1.752 42.873,-2.279Z" style="fill:white;fill-rule:nonzero;"/>
                    <path d="M47.115,-0.943L47.268,-0.012C46.971,0.051 46.705,0.082 46.471,0.082C46.088,0.082 45.791,0.021 45.58,-0.1C45.369,-0.221 45.221,-0.38 45.135,-0.577C45.049,-0.774 45.006,-1.189 45.006,-1.822L45.006,-5.402L44.232,-5.402L44.232,-6.223L45.006,-6.223L45.006,-7.764L46.055,-8.396L46.055,-6.223L47.115,-6.223L47.115,-5.402L46.055,-5.402L46.055,-1.764C46.055,-1.463 46.073,-1.27 46.11,-1.184C46.147,-1.098 46.208,-1.029 46.292,-0.979C46.376,-0.928 46.496,-0.902 46.652,-0.902C46.77,-0.902 46.924,-0.916 47.115,-0.943Z" style="fill:white;fill-rule:nonzero;"/>
                    <path d="M48.152,-7.377L48.152,-8.59L49.207,-8.59L49.207,-7.377L48.152,-7.377ZM48.152,0L48.152,-6.223L49.207,-6.223L49.207,0L48.152,0Z" style="fill:white;fill-rule:nonzero;"/>
                    <path d="M52.541,0L50.174,-6.223L51.287,-6.223L52.623,-2.496C52.768,-2.094 52.9,-1.676 53.021,-1.242C53.115,-1.57 53.246,-1.965 53.414,-2.426L54.797,-6.223L55.881,-6.223L53.525,0L52.541,0Z" style="fill:white;fill-rule:nonzero;"/>
                    <path d="M60.873,-0.768C60.482,-0.436 60.106,-0.201 59.745,-0.064C59.384,0.072 58.996,0.141 58.582,0.141C57.898,0.141 57.373,-0.026 57.006,-0.36C56.639,-0.694 56.455,-1.121 56.455,-1.641C56.455,-1.945 56.524,-2.224 56.663,-2.476C56.802,-2.728 56.983,-2.93 57.208,-3.082C57.433,-3.234 57.686,-3.35 57.967,-3.428C58.174,-3.482 58.486,-3.535 58.904,-3.586C59.756,-3.688 60.383,-3.809 60.785,-3.949C60.789,-4.094 60.791,-4.186 60.791,-4.225C60.791,-4.654 60.691,-4.957 60.492,-5.133C60.223,-5.371 59.822,-5.49 59.291,-5.49C58.795,-5.49 58.429,-5.403 58.192,-5.229C57.956,-5.056 57.781,-4.748 57.668,-4.307L56.637,-4.447C56.73,-4.889 56.885,-5.245 57.1,-5.517C57.314,-5.788 57.625,-5.997 58.031,-6.144C58.438,-6.29 58.908,-6.363 59.443,-6.363C59.975,-6.363 60.406,-6.301 60.738,-6.176C61.07,-6.051 61.314,-5.894 61.471,-5.704C61.627,-5.515 61.736,-5.275 61.799,-4.986C61.834,-4.807 61.852,-4.482 61.852,-4.014L61.852,-2.607C61.852,-1.627 61.874,-1.007 61.919,-0.747C61.964,-0.487 62.053,-0.238 62.186,0L61.084,0C60.975,-0.219 60.904,-0.475 60.873,-0.768ZM60.785,-3.123C60.402,-2.967 59.828,-2.834 59.063,-2.725C58.629,-2.662 58.322,-2.592 58.143,-2.514C57.963,-2.436 57.824,-2.321 57.727,-2.171C57.629,-2.021 57.58,-1.854 57.58,-1.67C57.58,-1.389 57.687,-1.154 57.899,-0.967C58.112,-0.779 58.424,-0.686 58.834,-0.686C59.24,-0.686 59.602,-0.774 59.918,-0.952C60.234,-1.13 60.467,-1.373 60.615,-1.682C60.729,-1.92 60.785,-2.271 60.785,-2.736L60.785,-3.123Z" style="fill:white;fill-rule:nonzero;"/>
                </g>
            </g>
            <g transform="matrix(1,0,0,1,69.059,12)">
                <g>
                    <path d="M0.984,0L0.984,-8.59L6.779,-8.59L6.779,-7.576L2.121,-7.576L2.121,-4.916L6.152,-4.916L6.152,-3.902L2.121,-3.902L2.121,0L0.984,0Z" style="fill:white;fill-rule:nonzero;"/>
                    <path d="M8.127,-7.377L8.127,-8.59L9.182,-8.59L9.182,-7.377L8.127,-7.377ZM8.127,0L8.127,-6.223L9.182,-6.223L9.182,0L8.127,0Z" style="fill:white;fill-rule:nonzero;"/>
                    <path d="M10.787,0L10.787,-6.223L11.736,-6.223L11.736,-5.338C12.193,-6.021 12.854,-6.363 13.717,-6.363C14.092,-6.363 14.437,-6.296 14.751,-6.161C15.065,-6.026 15.301,-5.85 15.457,-5.631C15.613,-5.412 15.723,-5.152 15.785,-4.852C15.824,-4.656 15.844,-4.314 15.844,-3.826L15.844,0L14.789,0L14.789,-3.785C14.789,-4.215 14.748,-4.536 14.666,-4.749C14.584,-4.962 14.438,-5.132 14.229,-5.259C14.021,-5.386 13.775,-5.449 13.494,-5.449C13.045,-5.449 12.657,-5.307 12.331,-5.021C12.005,-4.736 11.842,-4.195 11.842,-3.398L11.842,0L10.787,0Z" style="fill:white;fill-rule:nonzero;"/>
                    <path d="M21.521,-0.768C21.131,-0.436 20.755,-0.201 20.394,-0.064C20.032,0.072 19.645,0.141 19.23,0.141C18.547,0.141 18.021,-0.026 17.654,-0.36C17.287,-0.694 17.104,-1.121 17.104,-1.641C17.104,-1.945 17.173,-2.224 17.312,-2.476C17.45,-2.728 17.632,-2.93 17.856,-3.082C18.081,-3.234 18.334,-3.35 18.615,-3.428C18.822,-3.482 19.135,-3.535 19.553,-3.586C20.404,-3.688 21.031,-3.809 21.434,-3.949C21.438,-4.094 21.439,-4.186 21.439,-4.225C21.439,-4.654 21.34,-4.957 21.141,-5.133C20.871,-5.371 20.471,-5.49 19.939,-5.49C19.443,-5.49 19.077,-5.403 18.841,-5.229C18.604,-5.056 18.43,-4.748 18.316,-4.307L17.285,-4.447C17.379,-4.889 17.533,-5.245 17.748,-5.517C17.963,-5.788 18.273,-5.997 18.68,-6.144C19.086,-6.29 19.557,-6.363 20.092,-6.363C20.623,-6.363 21.055,-6.301 21.387,-6.176C21.719,-6.051 21.963,-5.894 22.119,-5.704C22.275,-5.515 22.385,-5.275 22.447,-4.986C22.482,-4.807 22.5,-4.482 22.5,-4.014L22.5,-2.607C22.5,-1.627 22.522,-1.007 22.567,-0.747C22.612,-0.487 22.701,-0.238 22.834,0L21.732,0C21.623,-0.219 21.553,-0.475 21.521,-0.768ZM21.434,-3.123C21.051,-2.967 20.477,-2.834 19.711,-2.725C19.277,-2.662 18.971,-2.592 18.791,-2.514C18.611,-2.436 18.473,-2.321 18.375,-2.171C18.277,-2.021 18.229,-1.854 18.229,-1.67C18.229,-1.389 18.335,-1.154 18.548,-0.967C18.761,-0.779 19.072,-0.686 19.482,-0.686C19.889,-0.686 20.25,-0.774 20.566,-0.952C20.883,-1.13 21.115,-1.373 21.264,-1.682C21.377,-1.92 21.434,-2.271 21.434,-2.736L21.434,-3.123Z" style="fill:white;fill-rule:nonzero;"/>
                    <path d="M24.135,0L24.135,-6.223L25.084,-6.223L25.084,-5.338C25.541,-6.021 26.201,-6.363 27.064,-6.363C27.439,-6.363 27.784,-6.296 28.099,-6.161C28.413,-6.026 28.648,-5.85 28.805,-5.631C28.961,-5.412 29.07,-5.152 29.133,-4.852C29.172,-4.656 29.191,-4.314 29.191,-3.826L29.191,0L28.137,0L28.137,-3.785C28.137,-4.215 28.096,-4.536 28.014,-4.749C27.932,-4.962 27.786,-5.132 27.577,-5.259C27.368,-5.386 27.123,-5.449 26.842,-5.449C26.393,-5.449 26.005,-5.307 25.679,-5.021C25.353,-4.736 25.189,-4.195 25.189,-3.398L25.189,0L24.135,0Z" style="fill:white;fill-rule:nonzero;"/>
                    <path d="M34.869,-2.279L35.906,-2.145C35.793,-1.43 35.503,-0.87 35.036,-0.466C34.569,-0.062 33.996,0.141 33.316,0.141C32.465,0.141 31.78,-0.138 31.263,-0.694C30.745,-1.251 30.486,-2.049 30.486,-3.088C30.486,-3.76 30.598,-4.348 30.82,-4.852C31.043,-5.355 31.382,-5.733 31.837,-5.985C32.292,-6.237 32.787,-6.363 33.322,-6.363C33.998,-6.363 34.551,-6.192 34.98,-5.851C35.41,-5.509 35.686,-5.023 35.807,-4.395L34.781,-4.236C34.684,-4.654 34.511,-4.969 34.263,-5.18C34.015,-5.391 33.715,-5.496 33.363,-5.496C32.832,-5.496 32.4,-5.306 32.068,-4.925C31.736,-4.544 31.57,-3.941 31.57,-3.117C31.57,-2.281 31.73,-1.674 32.051,-1.295C32.371,-0.916 32.789,-0.727 33.305,-0.727C33.719,-0.727 34.064,-0.854 34.342,-1.107C34.619,-1.361 34.795,-1.752 34.869,-2.279Z" style="fill:white;fill-rule:nonzero;"/>
                    <path d="M36.814,-7.377L36.814,-8.59L37.869,-8.59L37.869,-7.377L36.814,-7.377ZM36.814,0L36.814,-6.223L37.869,-6.223L37.869,0L36.814,0Z" style="fill:white;fill-rule:nonzero;"/>
                    <path d="M43.734,-2.004L44.824,-1.869C44.652,-1.232 44.334,-0.738 43.869,-0.387C43.404,-0.035 42.811,0.141 42.088,0.141C41.178,0.141 40.456,-0.14 39.923,-0.7C39.39,-1.261 39.123,-2.047 39.123,-3.059C39.123,-4.105 39.393,-4.918 39.932,-5.496C40.471,-6.074 41.17,-6.363 42.029,-6.363C42.861,-6.363 43.541,-6.08 44.068,-5.514C44.596,-4.947 44.859,-4.15 44.859,-3.123C44.859,-3.061 44.857,-2.967 44.854,-2.842L40.213,-2.842C40.252,-2.158 40.445,-1.635 40.793,-1.271C41.141,-0.908 41.574,-0.727 42.094,-0.727C42.48,-0.727 42.811,-0.828 43.084,-1.031C43.357,-1.234 43.574,-1.559 43.734,-2.004ZM40.271,-3.709L43.746,-3.709C43.699,-4.232 43.566,-4.625 43.348,-4.887C43.012,-5.293 42.576,-5.496 42.041,-5.496C41.557,-5.496 41.149,-5.334 40.819,-5.01C40.489,-4.686 40.307,-4.252 40.271,-3.709Z" style="fill:white;fill-rule:nonzero;"/>
                    <path d="M46.137,0L46.137,-6.223L47.086,-6.223L47.086,-5.279C47.328,-5.721 47.552,-6.012 47.757,-6.152C47.962,-6.293 48.188,-6.363 48.434,-6.363C48.789,-6.363 49.15,-6.25 49.518,-6.023L49.154,-5.045C48.896,-5.197 48.639,-5.273 48.381,-5.273C48.15,-5.273 47.943,-5.204 47.76,-5.065C47.576,-4.927 47.445,-4.734 47.367,-4.488C47.25,-4.113 47.191,-3.703 47.191,-3.258L47.191,0L46.137,0Z" style="fill:white;fill-rule:nonzero;"/>
                    <path d="M54.205,-0.768C53.814,-0.436 53.438,-0.201 53.077,-0.064C52.716,0.072 52.328,0.141 51.914,0.141C51.23,0.141 50.705,-0.026 50.338,-0.36C49.971,-0.694 49.787,-1.121 49.787,-1.641C49.787,-1.945 49.856,-2.224 49.995,-2.476C50.134,-2.728 50.315,-2.93 50.54,-3.082C50.765,-3.234 51.018,-3.35 51.299,-3.428C51.506,-3.482 51.818,-3.535 52.236,-3.586C53.088,-3.688 53.715,-3.809 54.117,-3.949C54.121,-4.094 54.123,-4.186 54.123,-4.225C54.123,-4.654 54.023,-4.957 53.824,-5.133C53.555,-5.371 53.154,-5.49 52.623,-5.49C52.127,-5.49 51.761,-5.403 51.524,-5.229C51.288,-5.056 51.113,-4.748 51,-4.307L49.969,-4.447C50.063,-4.889 50.217,-5.245 50.432,-5.517C50.646,-5.788 50.957,-5.997 51.363,-6.144C51.77,-6.29 52.24,-6.363 52.775,-6.363C53.307,-6.363 53.738,-6.301 54.07,-6.176C54.402,-6.051 54.646,-5.894 54.803,-5.704C54.959,-5.515 55.068,-5.275 55.131,-4.986C55.166,-4.807 55.184,-4.482 55.184,-4.014L55.184,-2.607C55.184,-1.627 55.206,-1.007 55.251,-0.747C55.296,-0.487 55.385,-0.238 55.518,0L54.416,0C54.307,-0.219 54.236,-0.475 54.205,-0.768ZM54.117,-3.123C53.734,-2.967 53.16,-2.834 52.395,-2.725C51.961,-2.662 51.654,-2.592 51.475,-2.514C51.295,-2.436 51.156,-2.321 51.059,-2.171C50.961,-2.021 50.912,-1.854 50.912,-1.67C50.912,-1.389 51.019,-1.154 51.231,-0.967C51.444,-0.779 51.756,-0.686 52.166,-0.686C52.572,-0.686 52.934,-0.774 53.25,-0.952C53.566,-1.13 53.799,-1.373 53.947,-1.682C54.061,-1.92 54.117,-2.271 54.117,-2.736L54.117,-3.123Z" style="fill:white;fill-rule:nonzero;"/>
                </g>
            </g>
        </g>
        <g transform="matrix(1,0,0,1,34.176,99.674)">
            <g>
                <g transform="matrix(1,0,0,1,0,12)">
                    <g>
                        <path d="M0.926,0L0.926,-8.59L4.166,-8.59C4.736,-8.59 5.172,-8.563 5.473,-8.508C5.895,-8.438 6.248,-8.304 6.533,-8.106C6.818,-7.909 7.048,-7.633 7.222,-7.277C7.396,-6.922 7.482,-6.531 7.482,-6.105C7.482,-5.375 7.25,-4.757 6.785,-4.251C6.32,-3.745 5.48,-3.492 4.266,-3.492L2.063,-3.492L2.063,0L0.926,0ZM2.063,-4.506L4.283,-4.506C5.018,-4.506 5.539,-4.643 5.848,-4.916C6.156,-5.189 6.311,-5.574 6.311,-6.07C6.311,-6.43 6.22,-6.737 6.038,-6.993C5.856,-7.249 5.617,-7.418 5.32,-7.5C5.129,-7.551 4.775,-7.576 4.26,-7.576L2.063,-7.576L2.063,-4.506Z" style="fill:white;fill-rule:nonzero;"/>
                        <path d="M13.055,-2.004L14.145,-1.869C13.973,-1.232 13.654,-0.738 13.189,-0.387C12.725,-0.035 12.131,0.141 11.408,0.141C10.498,0.141 9.776,-0.14 9.243,-0.7C8.71,-1.261 8.443,-2.047 8.443,-3.059C8.443,-4.105 8.713,-4.918 9.252,-5.496C9.791,-6.074 10.49,-6.363 11.35,-6.363C12.182,-6.363 12.861,-6.08 13.389,-5.514C13.916,-4.947 14.18,-4.15 14.18,-3.123C14.18,-3.061 14.178,-2.967 14.174,-2.842L9.533,-2.842C9.572,-2.158 9.766,-1.635 10.113,-1.271C10.461,-0.908 10.895,-0.727 11.414,-0.727C11.801,-0.727 12.131,-0.828 12.404,-1.031C12.678,-1.234 12.895,-1.559 13.055,-2.004ZM9.592,-3.709L13.066,-3.709C13.02,-4.232 12.887,-4.625 12.668,-4.887C12.332,-5.293 11.896,-5.496 11.361,-5.496C10.877,-5.496 10.47,-5.334 10.14,-5.01C9.81,-4.686 9.627,-4.252 9.592,-3.709Z" style="fill:white;fill-rule:nonzero;"/>
                        <path d="M15.457,0L15.457,-6.223L16.406,-6.223L16.406,-5.279C16.648,-5.721 16.872,-6.012 17.077,-6.152C17.282,-6.293 17.508,-6.363 17.754,-6.363C18.109,-6.363 18.471,-6.25 18.838,-6.023L18.475,-5.045C18.217,-5.197 17.959,-5.273 17.701,-5.273C17.471,-5.273 17.264,-5.204 17.08,-5.065C16.896,-4.927 16.766,-4.734 16.688,-4.488C16.57,-4.113 16.512,-3.703 16.512,-3.258L16.512,0L15.457,0Z" style="fill:white;fill-rule:nonzero;"/>
                        <path d="M19.043,-1.857L20.086,-2.021C20.145,-1.604 20.308,-1.283 20.575,-1.061C20.843,-0.838 21.217,-0.727 21.697,-0.727C22.182,-0.727 22.541,-0.825 22.775,-1.022C23.01,-1.22 23.127,-1.451 23.127,-1.717C23.127,-1.955 23.023,-2.143 22.816,-2.279C22.672,-2.373 22.313,-2.492 21.738,-2.637C20.965,-2.832 20.429,-3.001 20.13,-3.144C19.831,-3.286 19.604,-3.483 19.45,-3.735C19.296,-3.987 19.219,-4.266 19.219,-4.57C19.219,-4.848 19.282,-5.104 19.409,-5.341C19.536,-5.577 19.709,-5.773 19.928,-5.93C20.092,-6.051 20.315,-6.153 20.599,-6.237C20.882,-6.321 21.186,-6.363 21.51,-6.363C21.998,-6.363 22.427,-6.293 22.796,-6.152C23.165,-6.012 23.438,-5.821 23.613,-5.581C23.789,-5.341 23.91,-5.02 23.977,-4.617L22.945,-4.477C22.898,-4.797 22.763,-5.047 22.538,-5.227C22.313,-5.406 21.996,-5.496 21.586,-5.496C21.102,-5.496 20.756,-5.416 20.549,-5.256C20.342,-5.096 20.238,-4.908 20.238,-4.693C20.238,-4.557 20.281,-4.434 20.367,-4.324C20.453,-4.211 20.588,-4.117 20.771,-4.043C20.877,-4.004 21.188,-3.914 21.703,-3.773C22.449,-3.574 22.97,-3.411 23.265,-3.284C23.56,-3.157 23.791,-2.973 23.959,-2.73C24.127,-2.488 24.211,-2.188 24.211,-1.828C24.211,-1.477 24.108,-1.146 23.903,-0.835C23.698,-0.524 23.402,-0.284 23.016,-0.114C22.629,0.056 22.191,0.141 21.703,0.141C20.895,0.141 20.278,-0.027 19.854,-0.363C19.431,-0.699 19.16,-1.197 19.043,-1.857Z" style="fill:white;fill-rule:nonzero;"/>
                        <path d="M25.465,2.385L25.465,-6.223L26.426,-6.223L26.426,-5.414C26.652,-5.73 26.908,-5.968 27.193,-6.126C27.479,-6.284 27.824,-6.363 28.23,-6.363C28.762,-6.363 29.23,-6.227 29.637,-5.953C30.043,-5.68 30.35,-5.294 30.557,-4.796C30.764,-4.298 30.867,-3.752 30.867,-3.158C30.867,-2.521 30.753,-1.948 30.524,-1.438C30.296,-0.929 29.964,-0.538 29.528,-0.267C29.093,0.005 28.635,0.141 28.154,0.141C27.803,0.141 27.487,0.066 27.208,-0.082C26.929,-0.23 26.699,-0.418 26.52,-0.645L26.52,2.385L25.465,2.385ZM26.42,-3.076C26.42,-2.275 26.582,-1.684 26.906,-1.301C27.23,-0.918 27.623,-0.727 28.084,-0.727C28.553,-0.727 28.954,-0.925 29.288,-1.321C29.622,-1.718 29.789,-2.332 29.789,-3.164C29.789,-3.957 29.626,-4.551 29.3,-4.945C28.974,-5.34 28.584,-5.537 28.131,-5.537C27.682,-5.537 27.284,-5.327 26.938,-4.907C26.593,-4.487 26.42,-3.877 26.42,-3.076Z" style="fill:white;fill-rule:nonzero;"/>
                        <path d="M36.398,-2.004L37.488,-1.869C37.316,-1.232 36.998,-0.738 36.533,-0.387C36.068,-0.035 35.475,0.141 34.752,0.141C33.842,0.141 33.12,-0.14 32.587,-0.7C32.054,-1.261 31.787,-2.047 31.787,-3.059C31.787,-4.105 32.057,-4.918 32.596,-5.496C33.135,-6.074 33.834,-6.363 34.693,-6.363C35.525,-6.363 36.205,-6.08 36.732,-5.514C37.26,-4.947 37.523,-4.15 37.523,-3.123C37.523,-3.061 37.521,-2.967 37.518,-2.842L32.877,-2.842C32.916,-2.158 33.109,-1.635 33.457,-1.271C33.805,-0.908 34.238,-0.727 34.758,-0.727C35.145,-0.727 35.475,-0.828 35.748,-1.031C36.021,-1.234 36.238,-1.559 36.398,-2.004ZM32.936,-3.709L36.41,-3.709C36.363,-4.232 36.23,-4.625 36.012,-4.887C35.676,-5.293 35.24,-5.496 34.705,-5.496C34.221,-5.496 33.813,-5.334 33.483,-5.01C33.153,-4.686 32.971,-4.252 32.936,-3.709Z" style="fill:white;fill-rule:nonzero;"/>
                        <path d="M42.873,-2.279L43.91,-2.145C43.797,-1.43 43.507,-0.87 43.04,-0.466C42.573,-0.062 42,0.141 41.32,0.141C40.469,0.141 39.784,-0.138 39.267,-0.694C38.749,-1.251 38.49,-2.049 38.49,-3.088C38.49,-3.76 38.602,-4.348 38.824,-4.852C39.047,-5.355 39.386,-5.733 39.841,-5.985C40.296,-6.237 40.791,-6.363 41.326,-6.363C42.002,-6.363 42.555,-6.192 42.984,-5.851C43.414,-5.509 43.689,-5.023 43.811,-4.395L42.785,-4.236C42.688,-4.654 42.515,-4.969 42.267,-5.18C42.019,-5.391 41.719,-5.496 41.367,-5.496C40.836,-5.496 40.404,-5.306 40.072,-4.925C39.74,-4.544 39.574,-3.941 39.574,-3.117C39.574,-2.281 39.734,-1.674 40.055,-1.295C40.375,-0.916 40.793,-0.727 41.309,-0.727C41.723,-0.727 42.068,-0.854 42.346,-1.107C42.623,-1.361 42.799,-1.752 42.873,-2.279Z" style="fill:white;fill-rule:nonzero;"/>
                        <path d="M47.115,-0.943L47.268,-0.012C46.971,0.051 46.705,0.082 46.471,0.082C46.088,0.082 45.791,0.021 45.58,-0.1C45.369,-0.221 45.221,-0.38 45.135,-0.577C45.049,-0.774 45.006,-1.189 45.006,-1.822L45.006,-5.402L44.232,-5.402L44.232,-6.223L45.006,-6.223L45.006,-7.764L46.055,-8.396L46.055,-6.223L47.115,-6.223L47.115,-5.402L46.055,-5.402L46.055,-1.764C46.055,-1.463 46.073,-1.27 46.11,-1.184C46.147,-1.098 46.208,-1.029 46.292,-0.979C46.376,-0.928 46.496,-0.902 46.652,-0.902C46.77,-0.902 46.924,-0.916 47.115,-0.943Z" style="fill:white;fill-rule:nonzero;"/>
                        <path d="M48.152,-7.377L48.152,-8.59L49.207,-8.59L49.207,-7.377L48.152,-7.377ZM48.152,0L48.152,-6.223L49.207,-6.223L49.207,0L48.152,0Z" style="fill:white;fill-rule:nonzero;"/>
                        <path d="M52.541,0L50.174,-6.223L51.287,-6.223L52.623,-2.496C52.768,-2.094 52.9,-1.676 53.021,-1.242C53.115,-1.57 53.246,-1.965 53.414,-2.426L54.797,-6.223L55.881,-6.223L53.525,0L52.541,0Z" style="fill:white;fill-rule:nonzero;"/>
                        <path d="M60.873,-0.768C60.482,-0.436 60.106,-0.201 59.745,-0.064C59.384,0.072 58.996,0.141 58.582,0.141C57.898,0.141 57.373,-0.026 57.006,-0.36C56.639,-0.694 56.455,-1.121 56.455,-1.641C56.455,-1.945 56.524,-2.224 56.663,-2.476C56.802,-2.728 56.983,-2.93 57.208,-3.082C57.433,-3.234 57.686,-3.35 57.967,-3.428C58.174,-3.482 58.486,-3.535 58.904,-3.586C59.756,-3.688 60.383,-3.809 60.785,-3.949C60.789,-4.094 60.791,-4.186 60.791,-4.225C60.791,-4.654 60.691,-4.957 60.492,-5.133C60.223,-5.371 59.822,-5.49 59.291,-5.49C58.795,-5.49 58.429,-5.403 58.192,-5.229C57.956,-5.056 57.781,-4.748 57.668,-4.307L56.637,-4.447C56.73,-4.889 56.885,-5.245 57.1,-5.517C57.314,-5.788 57.625,-5.997 58.031,-6.144C58.438,-6.29 58.908,-6.363 59.443,-6.363C59.975,-6.363 60.406,-6.301 60.738,-6.176C61.07,-6.051 61.314,-5.894 61.471,-5.704C61.627,-5.515 61.736,-5.275 61.799,-4.986C61.834,-4.807 61.852,-4.482 61.852,-4.014L61.852,-2.607C61.852,-1.627 61.874,-1.007 61.919,-0.747C61.964,-0.487 62.053,-0.238 62.186,0L61.084,0C60.975,-0.219 60.904,-0.475 60.873,-0.768ZM60.785,-3.123C60.402,-2.967 59.828,-2.834 59.063,-2.725C58.629,-2.662 58.322,-2.592 58.143,-2.514C57.963,-2.436 57.824,-2.321 57.727,-2.171C57.629,-2.021 57.58,-1.854 57.58,-1.67C57.58,-1.389 57.687,-1.154 57.899,-0.967C58.112,-0.779 58.424,-0.686 58.834,-0.686C59.24,-0.686 59.602,-0.774 59.918,-0.952C60.234,-1.13 60.467,-1.373 60.615,-1.682C60.729,-1.92 60.785,-2.271 60.785,-2.736L60.785,-3.123Z" style="fill:white;fill-rule:nonzero;"/>
                    </g>
                </g>
                <g transform="matrix(1,0,0,1,69.059,12)">
                    <g>
                        <path d="M4.828,0L4.828,-0.785C4.434,-0.168 3.854,0.141 3.088,0.141C2.592,0.141 2.136,0.004 1.72,-0.27C1.304,-0.543 0.981,-0.925 0.753,-1.415C0.524,-1.905 0.41,-2.469 0.41,-3.105C0.41,-3.727 0.514,-4.29 0.721,-4.796C0.928,-5.302 1.238,-5.689 1.652,-5.959C2.066,-6.229 2.529,-6.363 3.041,-6.363C3.416,-6.363 3.75,-6.284 4.043,-6.126C4.336,-5.968 4.574,-5.762 4.758,-5.508L4.758,-8.59L5.807,-8.59L5.807,0L4.828,0ZM1.494,-3.105C1.494,-2.309 1.662,-1.713 1.998,-1.318C2.334,-0.924 2.73,-0.727 3.188,-0.727C3.648,-0.727 4.04,-0.915 4.362,-1.292C4.685,-1.669 4.846,-2.244 4.846,-3.018C4.846,-3.869 4.682,-4.494 4.354,-4.893C4.025,-5.291 3.621,-5.49 3.141,-5.49C2.672,-5.49 2.28,-5.299 1.966,-4.916C1.651,-4.533 1.494,-3.93 1.494,-3.105Z" style="fill:white;fill-rule:nonzero;"/>
                        <path d="M11.725,-2.004L12.814,-1.869C12.643,-1.232 12.324,-0.738 11.859,-0.387C11.395,-0.035 10.801,0.141 10.078,0.141C9.168,0.141 8.446,-0.14 7.913,-0.7C7.38,-1.261 7.113,-2.047 7.113,-3.059C7.113,-4.105 7.383,-4.918 7.922,-5.496C8.461,-6.074 9.16,-6.363 10.02,-6.363C10.852,-6.363 11.531,-6.08 12.059,-5.514C12.586,-4.947 12.85,-4.15 12.85,-3.123C12.85,-3.061 12.848,-2.967 12.844,-2.842L8.203,-2.842C8.242,-2.158 8.436,-1.635 8.783,-1.271C9.131,-0.908 9.564,-0.727 10.084,-0.727C10.471,-0.727 10.801,-0.828 11.074,-1.031C11.348,-1.234 11.564,-1.559 11.725,-2.004ZM8.262,-3.709L11.736,-3.709C11.689,-4.232 11.557,-4.625 11.338,-4.887C11.002,-5.293 10.566,-5.496 10.031,-5.496C9.547,-5.496 9.14,-5.334 8.81,-5.01C8.479,-4.686 8.297,-4.252 8.262,-3.709Z" style="fill:white;fill-rule:nonzero;"/>
                        <rect x="14.115" y="-8.59" width="1.055" height="8.59" style="fill:white;fill-rule:nonzero;"/>
                    </g>
                </g>
                <g transform="matrix(1,0,0,1,90.242,12)">
                    <g>
                        <path d="M4.852,-2.279L5.889,-2.145C5.775,-1.43 5.485,-0.87 5.019,-0.466C4.552,-0.062 3.979,0.141 3.299,0.141C2.447,0.141 1.763,-0.138 1.245,-0.694C0.728,-1.251 0.469,-2.049 0.469,-3.088C0.469,-3.76 0.58,-4.348 0.803,-4.852C1.025,-5.355 1.364,-5.733 1.819,-5.985C2.274,-6.237 2.77,-6.363 3.305,-6.363C3.98,-6.363 4.533,-6.192 4.963,-5.851C5.393,-5.509 5.668,-5.023 5.789,-4.395L4.764,-4.236C4.666,-4.654 4.493,-4.969 4.245,-5.18C3.997,-5.391 3.697,-5.496 3.346,-5.496C2.814,-5.496 2.383,-5.306 2.051,-4.925C1.719,-4.544 1.553,-3.941 1.553,-3.117C1.553,-2.281 1.713,-1.674 2.033,-1.295C2.354,-0.916 2.771,-0.727 3.287,-0.727C3.701,-0.727 4.047,-0.854 4.324,-1.107C4.602,-1.361 4.777,-1.752 4.852,-2.279Z" style="fill:white;fill-rule:nonzero;"/>
                        <rect x="6.768" y="-8.59" width="1.055" height="8.59" style="fill:white;fill-rule:nonzero;"/>
                        <path d="M9.463,-7.377L9.463,-8.59L10.518,-8.59L10.518,-7.377L9.463,-7.377ZM9.463,0L9.463,-6.223L10.518,-6.223L10.518,0L9.463,0Z" style="fill:white;fill-rule:nonzero;"/>
                        <path d="M16.383,-2.004L17.473,-1.869C17.301,-1.232 16.982,-0.738 16.518,-0.387C16.053,-0.035 15.459,0.141 14.736,0.141C13.826,0.141 13.104,-0.14 12.571,-0.7C12.038,-1.261 11.771,-2.047 11.771,-3.059C11.771,-4.105 12.041,-4.918 12.58,-5.496C13.119,-6.074 13.818,-6.363 14.678,-6.363C15.51,-6.363 16.189,-6.08 16.717,-5.514C17.244,-4.947 17.508,-4.15 17.508,-3.123C17.508,-3.061 17.506,-2.967 17.502,-2.842L12.861,-2.842C12.9,-2.158 13.094,-1.635 13.441,-1.271C13.789,-0.908 14.223,-0.727 14.742,-0.727C15.129,-0.727 15.459,-0.828 15.732,-1.031C16.006,-1.234 16.223,-1.559 16.383,-2.004ZM12.92,-3.709L16.395,-3.709C16.348,-4.232 16.215,-4.625 15.996,-4.887C15.66,-5.293 15.225,-5.496 14.689,-5.496C14.205,-5.496 13.798,-5.334 13.468,-5.01C13.138,-4.686 12.955,-4.252 12.92,-3.709Z" style="fill:white;fill-rule:nonzero;"/>
                        <path d="M18.797,0L18.797,-6.223L19.746,-6.223L19.746,-5.338C20.203,-6.021 20.863,-6.363 21.727,-6.363C22.102,-6.363 22.446,-6.296 22.761,-6.161C23.075,-6.026 23.311,-5.85 23.467,-5.631C23.623,-5.412 23.732,-5.152 23.795,-4.852C23.834,-4.656 23.854,-4.314 23.854,-3.826L23.854,0L22.799,0L22.799,-3.785C22.799,-4.215 22.758,-4.536 22.676,-4.749C22.594,-4.962 22.448,-5.132 22.239,-5.259C22.03,-5.386 21.785,-5.449 21.504,-5.449C21.055,-5.449 20.667,-5.307 20.341,-5.021C20.015,-4.736 19.852,-4.195 19.852,-3.398L19.852,0L18.797,0Z" style="fill:white;fill-rule:nonzero;"/>
                        <path d="M27.773,-0.943L27.926,-0.012C27.629,0.051 27.363,0.082 27.129,0.082C26.746,0.082 26.449,0.021 26.238,-0.1C26.027,-0.221 25.879,-0.38 25.793,-0.577C25.707,-0.774 25.664,-1.189 25.664,-1.822L25.664,-5.402L24.891,-5.402L24.891,-6.223L25.664,-6.223L25.664,-7.764L26.713,-8.396L26.713,-6.223L27.773,-6.223L27.773,-5.402L26.713,-5.402L26.713,-1.764C26.713,-1.463 26.731,-1.27 26.769,-1.184C26.806,-1.098 26.866,-1.029 26.95,-0.979C27.034,-0.928 27.154,-0.902 27.311,-0.902C27.428,-0.902 27.582,-0.916 27.773,-0.943Z" style="fill:white;fill-rule:nonzero;"/>
                        <path d="M33.064,-2.004L34.154,-1.869C33.982,-1.232 33.664,-0.738 33.199,-0.387C32.734,-0.035 32.141,0.141 31.418,0.141C30.508,0.141 29.786,-0.14 29.253,-0.7C28.72,-1.261 28.453,-2.047 28.453,-3.059C28.453,-4.105 28.723,-4.918 29.262,-5.496C29.801,-6.074 30.5,-6.363 31.359,-6.363C32.191,-6.363 32.871,-6.08 33.398,-5.514C33.926,-4.947 34.189,-4.15 34.189,-3.123C34.189,-3.061 34.188,-2.967 34.184,-2.842L29.543,-2.842C29.582,-2.158 29.775,-1.635 30.123,-1.271C30.471,-0.908 30.904,-0.727 31.424,-0.727C31.811,-0.727 32.141,-0.828 32.414,-1.031C32.688,-1.234 32.904,-1.559 33.064,-2.004ZM29.602,-3.709L33.076,-3.709C33.029,-4.232 32.896,-4.625 32.678,-4.887C32.342,-5.293 31.906,-5.496 31.371,-5.496C30.887,-5.496 30.479,-5.334 30.149,-5.01C29.819,-4.686 29.637,-4.252 29.602,-3.709Z" style="fill:white;fill-rule:nonzero;"/>
                    </g>
                </g>
            </g>
        </g>
        <g transform="matrix(1,0,0,1,262.34,99.674)">
            <g>
                <g transform="matrix(1,0,0,1,0,12)">
                    <g>
                        <path d="M0.926,0L0.926,-8.59L4.166,-8.59C4.736,-8.59 5.172,-8.563 5.473,-8.508C5.895,-8.438 6.248,-8.304 6.533,-8.106C6.818,-7.909 7.048,-7.633 7.222,-7.277C7.396,-6.922 7.482,-6.531 7.482,-6.105C7.482,-5.375 7.25,-4.757 6.785,-4.251C6.32,-3.745 5.48,-3.492 4.266,-3.492L2.063,-3.492L2.063,0L0.926,0ZM2.063,-4.506L4.283,-4.506C5.018,-4.506 5.539,-4.643 5.848,-4.916C6.156,-5.189 6.311,-5.574 6.311,-6.07C6.311,-6.43 6.22,-6.737 6.038,-6.993C5.856,-7.249 5.617,-7.418 5.32,-7.5C5.129,-7.551 4.775,-7.576 4.26,-7.576L2.063,-7.576L2.063,-4.506Z" style="fill:white;fill-rule:nonzero;"/>
                        <path d="M13.055,-2.004L14.145,-1.869C13.973,-1.232 13.654,-0.738 13.189,-0.387C12.725,-0.035 12.131,0.141 11.408,0.141C10.498,0.141 9.776,-0.14 9.243,-0.7C8.71,-1.261 8.443,-2.047 8.443,-3.059C8.443,-4.105 8.713,-4.918 9.252,-5.496C9.791,-6.074 10.49,-6.363 11.35,-6.363C12.182,-6.363 12.861,-6.08 13.389,-5.514C13.916,-4.947 14.18,-4.15 14.18,-3.123C14.18,-3.061 14.178,-2.967 14.174,-2.842L9.533,-2.842C9.572,-2.158 9.766,-1.635 10.113,-1.271C10.461,-0.908 10.895,-0.727 11.414,-0.727C11.801,-0.727 12.131,-0.828 12.404,-1.031C12.678,-1.234 12.895,-1.559 13.055,-2.004ZM9.592,-3.709L13.066,-3.709C13.02,-4.232 12.887,-4.625 12.668,-4.887C12.332,-5.293 11.896,-5.496 11.361,-5.496C10.877,-5.496 10.47,-5.334 10.14,-5.01C9.81,-4.686 9.627,-4.252 9.592,-3.709Z" style="fill:white;fill-rule:nonzero;"/>
                        <path d="M15.457,0L15.457,-6.223L16.406,-6.223L16.406,-5.279C16.648,-5.721 16.872,-6.012 17.077,-6.152C17.282,-6.293 17.508,-6.363 17.754,-6.363C18.109,-6.363 18.471,-6.25 18.838,-6.023L18.475,-5.045C18.217,-5.197 17.959,-5.273 17.701,-5.273C17.471,-5.273 17.264,-5.204 17.08,-5.065C16.896,-4.927 16.766,-4.734 16.688,-4.488C16.57,-4.113 16.512,-3.703 16.512,-3.258L16.512,0L15.457,0Z" style="fill:white;fill-rule:nonzero;"/>
                        <path d="M19.043,-1.857L20.086,-2.021C20.145,-1.604 20.308,-1.283 20.575,-1.061C20.843,-0.838 21.217,-0.727 21.697,-0.727C22.182,-0.727 22.541,-0.825 22.775,-1.022C23.01,-1.22 23.127,-1.451 23.127,-1.717C23.127,-1.955 23.023,-2.143 22.816,-2.279C22.672,-2.373 22.313,-2.492 21.738,-2.637C20.965,-2.832 20.429,-3.001 20.13,-3.144C19.831,-3.286 19.604,-3.483 19.45,-3.735C19.296,-3.987 19.219,-4.266 19.219,-4.57C19.219,-4.848 19.282,-5.104 19.409,-5.341C19.536,-5.577 19.709,-5.773 19.928,-5.93C20.092,-6.051 20.315,-6.153 20.599,-6.237C20.882,-6.321 21.186,-6.363 21.51,-6.363C21.998,-6.363 22.427,-6.293 22.796,-6.152C23.165,-6.012 23.438,-5.821 23.613,-5.581C23.789,-5.341 23.91,-5.02 23.977,-4.617L22.945,-4.477C22.898,-4.797 22.763,-5.047 22.538,-5.227C22.313,-5.406 21.996,-5.496 21.586,-5.496C21.102,-5.496 20.756,-5.416 20.549,-5.256C20.342,-5.096 20.238,-4.908 20.238,-4.693C20.238,-4.557 20.281,-4.434 20.367,-4.324C20.453,-4.211 20.588,-4.117 20.771,-4.043C20.877,-4.004 21.188,-3.914 21.703,-3.773C22.449,-3.574 22.97,-3.411 23.265,-3.284C23.56,-3.157 23.791,-2.973 23.959,-2.73C24.127,-2.488 24.211,-2.188 24.211,-1.828C24.211,-1.477 24.108,-1.146 23.903,-0.835C23.698,-0.524 23.402,-0.284 23.016,-0.114C22.629,0.056 22.191,0.141 21.703,0.141C20.895,0.141 20.278,-0.027 19.854,-0.363C19.431,-0.699 19.16,-1.197 19.043,-1.857Z" style="fill:white;fill-rule:nonzero;"/>
                        <path d="M25.465,2.385L25.465,-6.223L26.426,-6.223L26.426,-5.414C26.652,-5.73 26.908,-5.968 27.193,-6.126C27.479,-6.284 27.824,-6.363 28.23,-6.363C28.762,-6.363 29.23,-6.227 29.637,-5.953C30.043,-5.68 30.35,-5.294 30.557,-4.796C30.764,-4.298 30.867,-3.752 30.867,-3.158C30.867,-2.521 30.753,-1.948 30.524,-1.438C30.296,-0.929 29.964,-0.538 29.528,-0.267C29.093,0.005 28.635,0.141 28.154,0.141C27.803,0.141 27.487,0.066 27.208,-0.082C26.929,-0.23 26.699,-0.418 26.52,-0.645L26.52,2.385L25.465,2.385ZM26.42,-3.076C26.42,-2.275 26.582,-1.684 26.906,-1.301C27.23,-0.918 27.623,-0.727 28.084,-0.727C28.553,-0.727 28.954,-0.925 29.288,-1.321C29.622,-1.718 29.789,-2.332 29.789,-3.164C29.789,-3.957 29.626,-4.551 29.3,-4.945C28.974,-5.34 28.584,-5.537 28.131,-5.537C27.682,-5.537 27.284,-5.327 26.938,-4.907C26.593,-4.487 26.42,-3.877 26.42,-3.076Z" style="fill:white;fill-rule:nonzero;"/>
                        <path d="M36.398,-2.004L37.488,-1.869C37.316,-1.232 36.998,-0.738 36.533,-0.387C36.068,-0.035 35.475,0.141 34.752,0.141C33.842,0.141 33.12,-0.14 32.587,-0.7C32.054,-1.261 31.787,-2.047 31.787,-3.059C31.787,-4.105 32.057,-4.918 32.596,-5.496C33.135,-6.074 33.834,-6.363 34.693,-6.363C35.525,-6.363 36.205,-6.08 36.732,-5.514C37.26,-4.947 37.523,-4.15 37.523,-3.123C37.523,-3.061 37.521,-2.967 37.518,-2.842L32.877,-2.842C32.916,-2.158 33.109,-1.635 33.457,-1.271C33.805,-0.908 34.238,-0.727 34.758,-0.727C35.145,-0.727 35.475,-0.828 35.748,-1.031C36.021,-1.234 36.238,-1.559 36.398,-2.004ZM32.936,-3.709L36.41,-3.709C36.363,-4.232 36.23,-4.625 36.012,-4.887C35.676,-5.293 35.24,-5.496 34.705,-5.496C34.221,-5.496 33.813,-5.334 33.483,-5.01C33.153,-4.686 32.971,-4.252 32.936,-3.709Z" style="fill:white;fill-rule:nonzero;"/>
                        <path d="M42.873,-2.279L43.91,-2.145C43.797,-1.43 43.507,-0.87 43.04,-0.466C42.573,-0.062 42,0.141 41.32,0.141C40.469,0.141 39.784,-0.138 39.267,-0.694C38.749,-1.251 38.49,-2.049 38.49,-3.088C38.49,-3.76 38.602,-4.348 38.824,-4.852C39.047,-5.355 39.386,-5.733 39.841,-5.985C40.296,-6.237 40.791,-6.363 41.326,-6.363C42.002,-6.363 42.555,-6.192 42.984,-5.851C43.414,-5.509 43.689,-5.023 43.811,-4.395L42.785,-4.236C42.688,-4.654 42.515,-4.969 42.267,-5.18C42.019,-5.391 41.719,-5.496 41.367,-5.496C40.836,-5.496 40.404,-5.306 40.072,-4.925C39.74,-4.544 39.574,-3.941 39.574,-3.117C39.574,-2.281 39.734,-1.674 40.055,-1.295C40.375,-0.916 40.793,-0.727 41.309,-0.727C41.723,-0.727 42.068,-0.854 42.346,-1.107C42.623,-1.361 42.799,-1.752 42.873,-2.279Z" style="fill:white;fill-rule:nonzero;"/>
                        <path d="M47.115,-0.943L47.268,-0.012C46.971,0.051 46.705,0.082 46.471,0.082C46.088,0.082 45.791,0.021 45.58,-0.1C45.369,-0.221 45.221,-0.38 45.135,-0.577C45.049,-0.774 45.006,-1.189 45.006,-1.822L45.006,-5.402L44.232,-5.402L44.232,-6.223L45.006,-6.223L45.006,-7.764L46.055,-8.396L46.055,-6.223L47.115,-6.223L47.115,-5.402L46.055,-5.402L46.055,-1.764C46.055,-1.463 46.073,-1.27 46.11,-1.184C46.147,-1.098 46.208,-1.029 46.292,-0.979C46.376,-0.928 46.496,-0.902 46.652,-0.902C46.77,-0.902 46.924,-0.916 47.115,-0.943Z" style="fill:white;fill-rule:nonzero;"/>
                        <path d="M48.152,-7.377L48.152,-8.59L49.207,-8.59L49.207,-7.377L48.152,-7.377ZM48.152,0L48.152,-6.223L49.207,-6.223L49.207,0L48.152,0Z" style="fill:white;fill-rule:nonzero;"/>
                        <path d="M52.541,0L50.174,-6.223L51.287,-6.223L52.623,-2.496C52.768,-2.094 52.9,-1.676 53.021,-1.242C53.115,-1.57 53.246,-1.965 53.414,-2.426L54.797,-6.223L55.881,-6.223L53.525,0L52.541,0Z" style="fill:white;fill-rule:nonzero;"/>
                        <path d="M60.873,-0.768C60.482,-0.436 60.106,-0.201 59.745,-0.064C59.384,0.072 58.996,0.141 58.582,0.141C57.898,0.141 57.373,-0.026 57.006,-0.36C56.639,-0.694 56.455,-1.121 56.455,-1.641C56.455,-1.945 56.524,-2.224 56.663,-2.476C56.802,-2.728 56.983,-2.93 57.208,-3.082C57.433,-3.234 57.686,-3.35 57.967,-3.428C58.174,-3.482 58.486,-3.535 58.904,-3.586C59.756,-3.688 60.383,-3.809 60.785,-3.949C60.789,-4.094 60.791,-4.186 60.791,-4.225C60.791,-4.654 60.691,-4.957 60.492,-5.133C60.223,-5.371 59.822,-5.49 59.291,-5.49C58.795,-5.49 58.429,-5.403 58.192,-5.229C57.956,-5.056 57.781,-4.748 57.668,-4.307L56.637,-4.447C56.73,-4.889 56.885,-5.245 57.1,-5.517C57.314,-5.788 57.625,-5.997 58.031,-6.144C58.438,-6.29 58.908,-6.363 59.443,-6.363C59.975,-6.363 60.406,-6.301 60.738,-6.176C61.07,-6.051 61.314,-5.894 61.471,-5.704C61.627,-5.515 61.736,-5.275 61.799,-4.986C61.834,-4.807 61.852,-4.482 61.852,-4.014L61.852,-2.607C61.852,-1.627 61.874,-1.007 61.919,-0.747C61.964,-0.487 62.053,-0.238 62.186,0L61.084,0C60.975,-0.219 60.904,-0.475 60.873,-0.768ZM60.785,-3.123C60.402,-2.967 59.828,-2.834 59.063,-2.725C58.629,-2.662 58.322,-2.592 58.143,-2.514C57.963,-2.436 57.824,-2.321 57.727,-2.171C57.629,-2.021 57.58,-1.854 57.58,-1.67C57.58,-1.389 57.687,-1.154 57.899,-0.967C58.112,-0.779 58.424,-0.686 58.834,-0.686C59.24,-0.686 59.602,-0.774 59.918,-0.952C60.234,-1.13 60.467,-1.373 60.615,-1.682C60.729,-1.92 60.785,-2.271 60.785,-2.736L60.785,-3.123Z" style="fill:white;fill-rule:nonzero;"/>
                    </g>
                </g>
                <g transform="matrix(1,0,0,1,69.059,12)">
                    <g>
                        <path d="M0.797,-7.377L0.797,-8.59L1.852,-8.59L1.852,-7.377L0.797,-7.377ZM0.797,0L0.797,-6.223L1.852,-6.223L1.852,0L0.797,0Z" style="fill:white;fill-rule:nonzero;"/>
                        <path d="M3.457,0L3.457,-6.223L4.406,-6.223L4.406,-5.338C4.863,-6.021 5.523,-6.363 6.387,-6.363C6.762,-6.363 7.106,-6.296 7.421,-6.161C7.735,-6.026 7.971,-5.85 8.127,-5.631C8.283,-5.412 8.393,-5.152 8.455,-4.852C8.494,-4.656 8.514,-4.314 8.514,-3.826L8.514,0L7.459,0L7.459,-3.785C7.459,-4.215 7.418,-4.536 7.336,-4.749C7.254,-4.962 7.108,-5.132 6.899,-5.259C6.69,-5.386 6.445,-5.449 6.164,-5.449C5.715,-5.449 5.327,-5.307 5.001,-5.021C4.675,-4.736 4.512,-4.195 4.512,-3.398L4.512,0L3.457,0Z" style="fill:white;fill-rule:nonzero;"/>
                        <path d="M12.434,-0.943L12.586,-0.012C12.289,0.051 12.023,0.082 11.789,0.082C11.406,0.082 11.109,0.021 10.898,-0.1C10.688,-0.221 10.539,-0.38 10.453,-0.577C10.367,-0.774 10.324,-1.189 10.324,-1.822L10.324,-5.402L9.551,-5.402L9.551,-6.223L10.324,-6.223L10.324,-7.764L11.373,-8.396L11.373,-6.223L12.434,-6.223L12.434,-5.402L11.373,-5.402L11.373,-1.764C11.373,-1.463 11.392,-1.27 11.429,-1.184C11.466,-1.098 11.526,-1.029 11.61,-0.979C11.694,-0.928 11.814,-0.902 11.971,-0.902C12.088,-0.902 12.242,-0.916 12.434,-0.943Z" style="fill:white;fill-rule:nonzero;"/>
                        <path d="M17.725,-2.004L18.814,-1.869C18.643,-1.232 18.324,-0.738 17.859,-0.387C17.395,-0.035 16.801,0.141 16.078,0.141C15.168,0.141 14.446,-0.14 13.913,-0.7C13.38,-1.261 13.113,-2.047 13.113,-3.059C13.113,-4.105 13.383,-4.918 13.922,-5.496C14.461,-6.074 15.16,-6.363 16.02,-6.363C16.852,-6.363 17.531,-6.08 18.059,-5.514C18.586,-4.947 18.85,-4.15 18.85,-3.123C18.85,-3.061 18.848,-2.967 18.844,-2.842L14.203,-2.842C14.242,-2.158 14.436,-1.635 14.783,-1.271C15.131,-0.908 15.564,-0.727 16.084,-0.727C16.471,-0.727 16.801,-0.828 17.074,-1.031C17.348,-1.234 17.564,-1.559 17.725,-2.004ZM14.262,-3.709L17.736,-3.709C17.689,-4.232 17.557,-4.625 17.338,-4.887C17.002,-5.293 16.566,-5.496 16.031,-5.496C15.547,-5.496 15.14,-5.334 14.81,-5.01C14.479,-4.686 14.297,-4.252 14.262,-3.709Z" style="fill:white;fill-rule:nonzero;"/>
                        <path d="M20.127,0L20.127,-6.223L21.076,-6.223L21.076,-5.279C21.318,-5.721 21.542,-6.012 21.747,-6.152C21.952,-6.293 22.178,-6.363 22.424,-6.363C22.779,-6.363 23.141,-6.25 23.508,-6.023L23.145,-5.045C22.887,-5.197 22.629,-5.273 22.371,-5.273C22.141,-5.273 21.934,-5.204 21.75,-5.065C21.566,-4.927 21.436,-4.734 21.357,-4.488C21.24,-4.113 21.182,-3.703 21.182,-3.258L21.182,0L20.127,0Z" style="fill:white;fill-rule:nonzero;"/>
                        <path d="M24.135,0L24.135,-6.223L25.084,-6.223L25.084,-5.338C25.541,-6.021 26.201,-6.363 27.064,-6.363C27.439,-6.363 27.784,-6.296 28.099,-6.161C28.413,-6.026 28.648,-5.85 28.805,-5.631C28.961,-5.412 29.07,-5.152 29.133,-4.852C29.172,-4.656 29.191,-4.314 29.191,-3.826L29.191,0L28.137,0L28.137,-3.785C28.137,-4.215 28.096,-4.536 28.014,-4.749C27.932,-4.962 27.786,-5.132 27.577,-5.259C27.368,-5.386 27.123,-5.449 26.842,-5.449C26.393,-5.449 26.005,-5.307 25.679,-5.021C25.353,-4.736 25.189,-4.195 25.189,-3.398L25.189,0L24.135,0Z" style="fill:white;fill-rule:nonzero;"/>
                        <path d="M34.869,-0.768C34.479,-0.436 34.103,-0.201 33.741,-0.064C33.38,0.072 32.992,0.141 32.578,0.141C31.895,0.141 31.369,-0.026 31.002,-0.36C30.635,-0.694 30.451,-1.121 30.451,-1.641C30.451,-1.945 30.521,-2.224 30.659,-2.476C30.798,-2.728 30.979,-2.93 31.204,-3.082C31.429,-3.234 31.682,-3.35 31.963,-3.428C32.17,-3.482 32.482,-3.535 32.9,-3.586C33.752,-3.688 34.379,-3.809 34.781,-3.949C34.785,-4.094 34.787,-4.186 34.787,-4.225C34.787,-4.654 34.688,-4.957 34.488,-5.133C34.219,-5.371 33.818,-5.49 33.287,-5.49C32.791,-5.49 32.425,-5.403 32.188,-5.229C31.952,-5.056 31.777,-4.748 31.664,-4.307L30.633,-4.447C30.727,-4.889 30.881,-5.245 31.096,-5.517C31.311,-5.788 31.621,-5.997 32.027,-6.144C32.434,-6.29 32.904,-6.363 33.439,-6.363C33.971,-6.363 34.402,-6.301 34.734,-6.176C35.066,-6.051 35.311,-5.894 35.467,-5.704C35.623,-5.515 35.732,-5.275 35.795,-4.986C35.83,-4.807 35.848,-4.482 35.848,-4.014L35.848,-2.607C35.848,-1.627 35.87,-1.007 35.915,-0.747C35.96,-0.487 36.049,-0.238 36.182,0L35.08,0C34.971,-0.219 34.9,-0.475 34.869,-0.768ZM34.781,-3.123C34.398,-2.967 33.824,-2.834 33.059,-2.725C32.625,-2.662 32.318,-2.592 32.139,-2.514C31.959,-2.436 31.82,-2.321 31.723,-2.171C31.625,-2.021 31.576,-1.854 31.576,-1.67C31.576,-1.389 31.683,-1.154 31.896,-0.967C32.108,-0.779 32.42,-0.686 32.83,-0.686C33.236,-0.686 33.598,-0.774 33.914,-0.952C34.23,-1.13 34.463,-1.373 34.611,-1.682C34.725,-1.92 34.781,-2.271 34.781,-2.736L34.781,-3.123Z" style="fill:white;fill-rule:nonzero;"/>
                    </g>
                </g>
            </g>
        </g>
        <g transform="matrix(1,0,0,1,133.232,172.724)">
            <g transform="matrix(1,0,0,1,0,12)">
                <g>
                    <path d="M0.926,0L0.926,-8.59L4.166,-8.59C4.736,-8.59 5.172,-8.563 5.473,-8.508C5.895,-8.438 6.248,-8.304 6.533,-8.106C6.818,-7.909 7.048,-7.633 7.222,-7.277C7.396,-6.922 7.482,-6.531 7.482,-6.105C7.482,-5.375 7.25,-4.757 6.785,-4.251C6.32,-3.745 5.48,-3.492 4.266,-3.492L2.063,-3.492L2.063,0L0.926,0ZM2.063,-4.506L4.283,-4.506C5.018,-4.506 5.539,-4.643 5.848,-4.916C6.156,-5.189 6.311,-5.574 6.311,-6.07C6.311,-6.43 6.22,-6.737 6.038,-6.993C5.856,-7.249 5.617,-7.418 5.32,-7.5C5.129,-7.551 4.775,-7.576 4.26,-7.576L2.063,-7.576L2.063,-4.506Z" style="fill:white;fill-rule:nonzero;"/>
                    <path d="M13.055,-2.004L14.145,-1.869C13.973,-1.232 13.654,-0.738 13.189,-0.387C12.725,-0.035 12.131,0.141 11.408,0.141C10.498,0.141 9.776,-0.14 9.243,-0.7C8.71,-1.261 8.443,-2.047 8.443,-3.059C8.443,-4.105 8.713,-4.918 9.252,-5.496C9.791,-6.074 10.49,-6.363 11.35,-6.363C12.182,-6.363 12.861,-6.08 13.389,-5.514C13.916,-4.947 14.18,-4.15 14.18,-3.123C14.18,-3.061 14.178,-2.967 14.174,-2.842L9.533,-2.842C9.572,-2.158 9.766,-1.635 10.113,-1.271C10.461,-0.908 10.895,-0.727 11.414,-0.727C11.801,-0.727 12.131,-0.828 12.404,-1.031C12.678,-1.234 12.895,-1.559 13.055,-2.004ZM9.592,-3.709L13.066,-3.709C13.02,-4.232 12.887,-4.625 12.668,-4.887C12.332,-5.293 11.896,-5.496 11.361,-5.496C10.877,-5.496 10.47,-5.334 10.14,-5.01C9.81,-4.686 9.627,-4.252 9.592,-3.709Z" style="fill:white;fill-rule:nonzero;"/>
                    <path d="M15.457,0L15.457,-6.223L16.406,-6.223L16.406,-5.279C16.648,-5.721 16.872,-6.012 17.077,-6.152C17.282,-6.293 17.508,-6.363 17.754,-6.363C18.109,-6.363 18.471,-6.25 18.838,-6.023L18.475,-5.045C18.217,-5.197 17.959,-5.273 17.701,-5.273C17.471,-5.273 17.264,-5.204 17.08,-5.065C16.896,-4.927 16.766,-4.734 16.688,-4.488C16.57,-4.113 16.512,-3.703 16.512,-3.258L16.512,0L15.457,0Z" style="fill:white;fill-rule:nonzero;"/>
                    <path d="M19.043,-1.857L20.086,-2.021C20.145,-1.604 20.308,-1.283 20.575,-1.061C20.843,-0.838 21.217,-0.727 21.697,-0.727C22.182,-0.727 22.541,-0.825 22.775,-1.022C23.01,-1.22 23.127,-1.451 23.127,-1.717C23.127,-1.955 23.023,-2.143 22.816,-2.279C22.672,-2.373 22.313,-2.492 21.738,-2.637C20.965,-2.832 20.429,-3.001 20.13,-3.144C19.831,-3.286 19.604,-3.483 19.45,-3.735C19.296,-3.987 19.219,-4.266 19.219,-4.57C19.219,-4.848 19.282,-5.104 19.409,-5.341C19.536,-5.577 19.709,-5.773 19.928,-5.93C20.092,-6.051 20.315,-6.153 20.599,-6.237C20.882,-6.321 21.186,-6.363 21.51,-6.363C21.998,-6.363 22.427,-6.293 22.796,-6.152C23.165,-6.012 23.438,-5.821 23.613,-5.581C23.789,-5.341 23.91,-5.02 23.977,-4.617L22.945,-4.477C22.898,-4.797 22.763,-5.047 22.538,-5.227C22.313,-5.406 21.996,-5.496 21.586,-5.496C21.102,-5.496 20.756,-5.416 20.549,-5.256C20.342,-5.096 20.238,-4.908 20.238,-4.693C20.238,-4.557 20.281,-4.434 20.367,-4.324C20.453,-4.211 20.588,-4.117 20.771,-4.043C20.877,-4.004 21.188,-3.914 21.703,-3.773C22.449,-3.574 22.97,-3.411 23.265,-3.284C23.56,-3.157 23.791,-2.973 23.959,-2.73C24.127,-2.488 24.211,-2.188 24.211,-1.828C24.211,-1.477 24.108,-1.146 23.903,-0.835C23.698,-0.524 23.402,-0.284 23.016,-0.114C22.629,0.056 22.191,0.141 21.703,0.141C20.895,0.141 20.278,-0.027 19.854,-0.363C19.431,-0.699 19.16,-1.197 19.043,-1.857Z" style="fill:white;fill-rule:nonzero;"/>
                    <path d="M25.465,2.385L25.465,-6.223L26.426,-6.223L26.426,-5.414C26.652,-5.73 26.908,-5.968 27.193,-6.126C27.479,-6.284 27.824,-6.363 28.23,-6.363C28.762,-6.363 29.23,-6.227 29.637,-5.953C30.043,-5.68 30.35,-5.294 30.557,-4.796C30.764,-4.298 30.867,-3.752 30.867,-3.158C30.867,-2.521 30.753,-1.948 30.524,-1.438C30.296,-0.929 29.964,-0.538 29.528,-0.267C29.093,0.005 28.635,0.141 28.154,0.141C27.803,0.141 27.487,0.066 27.208,-0.082C26.929,-0.23 26.699,-0.418 26.52,-0.645L26.52,2.385L25.465,2.385ZM26.42,-3.076C26.42,-2.275 26.582,-1.684 26.906,-1.301C27.23,-0.918 27.623,-0.727 28.084,-0.727C28.553,-0.727 28.954,-0.925 29.288,-1.321C29.622,-1.718 29.789,-2.332 29.789,-3.164C29.789,-3.957 29.626,-4.551 29.3,-4.945C28.974,-5.34 28.584,-5.537 28.131,-5.537C27.682,-5.537 27.284,-5.327 26.938,-4.907C26.593,-4.487 26.42,-3.877 26.42,-3.076Z" style="fill:white;fill-rule:nonzero;"/>
                    <path d="M36.398,-2.004L37.488,-1.869C37.316,-1.232 36.998,-0.738 36.533,-0.387C36.068,-0.035 35.475,0.141 34.752,0.141C33.842,0.141 33.12,-0.14 32.587,-0.7C32.054,-1.261 31.787,-2.047 31.787,-3.059C31.787,-4.105 32.057,-4.918 32.596,-5.496C33.135,-6.074 33.834,-6.363 34.693,-6.363C35.525,-6.363 36.205,-6.08 36.732,-5.514C37.26,-4.947 37.523,-4.15 37.523,-3.123C37.523,-3.061 37.521,-2.967 37.518,-2.842L32.877,-2.842C32.916,-2.158 33.109,-1.635 33.457,-1.271C33.805,-0.908 34.238,-0.727 34.758,-0.727C35.145,-0.727 35.475,-0.828 35.748,-1.031C36.021,-1.234 36.238,-1.559 36.398,-2.004ZM32.936,-3.709L36.41,-3.709C36.363,-4.232 36.23,-4.625 36.012,-4.887C35.676,-5.293 35.24,-5.496 34.705,-5.496C34.221,-5.496 33.813,-5.334 33.483,-5.01C33.153,-4.686 32.971,-4.252 32.936,-3.709Z" style="fill:white;fill-rule:nonzero;"/>
                    <path d="M42.873,-2.279L43.91,-2.145C43.797,-1.43 43.507,-0.87 43.04,-0.466C42.573,-0.062 42,0.141 41.32,0.141C40.469,0.141 39.784,-0.138 39.267,-0.694C38.749,-1.251 38.49,-2.049 38.49,-3.088C38.49,-3.76 38.602,-4.348 38.824,-4.852C39.047,-5.355 39.386,-5.733 39.841,-5.985C40.296,-6.237 40.791,-6.363 41.326,-6.363C42.002,-6.363 42.555,-6.192 42.984,-5.851C43.414,-5.509 43.689,-5.023 43.811,-4.395L42.785,-4.236C42.688,-4.654 42.515,-4.969 42.267,-5.18C42.019,-5.391 41.719,-5.496 41.367,-5.496C40.836,-5.496 40.404,-5.306 40.072,-4.925C39.74,-4.544 39.574,-3.941 39.574,-3.117C39.574,-2.281 39.734,-1.674 40.055,-1.295C40.375,-0.916 40.793,-0.727 41.309,-0.727C41.723,-0.727 42.068,-0.854 42.346,-1.107C42.623,-1.361 42.799,-1.752 42.873,-2.279Z" style="fill:white;fill-rule:nonzero;"/>
                    <path d="M47.115,-0.943L47.268,-0.012C46.971,0.051 46.705,0.082 46.471,0.082C46.088,0.082 45.791,0.021 45.58,-0.1C45.369,-0.221 45.221,-0.38 45.135,-0.577C45.049,-0.774 45.006,-1.189 45.006,-1.822L45.006,-5.402L44.232,-5.402L44.232,-6.223L45.006,-6.223L45.006,-7.764L46.055,-8.396L46.055,-6.223L47.115,-6.223L47.115,-5.402L46.055,-5.402L46.055,-1.764C46.055,-1.463 46.073,-1.27 46.11,-1.184C46.147,-1.098 46.208,-1.029 46.292,-0.979C46.376,-0.928 46.496,-0.902 46.652,-0.902C46.77,-0.902 46.924,-0.916 47.115,-0.943Z" style="fill:white;fill-rule:nonzero;"/>
                    <path d="M48.152,-7.377L48.152,-8.59L49.207,-8.59L49.207,-7.377L48.152,-7.377ZM48.152,0L48.152,-6.223L49.207,-6.223L49.207,0L48.152,0Z" style="fill:white;fill-rule:nonzero;"/>
                    <path d="M52.541,0L50.174,-6.223L51.287,-6.223L52.623,-2.496C52.768,-2.094 52.9,-1.676 53.021,-1.242C53.115,-1.57 53.246,-1.965 53.414,-2.426L54.797,-6.223L55.881,-6.223L53.525,0L52.541,0Z" style="fill:white;fill-rule:nonzero;"/>
                    <path d="M60.873,-0.768C60.482,-0.436 60.106,-0.201 59.745,-0.064C59.384,0.072 58.996,0.141 58.582,0.141C57.898,0.141 57.373,-0.026 57.006,-0.36C56.639,-0.694 56.455,-1.121 56.455,-1.641C56.455,-1.945 56.524,-2.224 56.663,-2.476C56.802,-2.728 56.983,-2.93 57.208,-3.082C57.433,-3.234 57.686,-3.35 57.967,-3.428C58.174,-3.482 58.486,-3.535 58.904,-3.586C59.756,-3.688 60.383,-3.809 60.785,-3.949C60.789,-4.094 60.791,-4.186 60.791,-4.225C60.791,-4.654 60.691,-4.957 60.492,-5.133C60.223,-5.371 59.822,-5.49 59.291,-5.49C58.795,-5.49 58.429,-5.403 58.192,-5.229C57.956,-5.056 57.781,-4.748 57.668,-4.307L56.637,-4.447C56.73,-4.889 56.885,-5.245 57.1,-5.517C57.314,-5.788 57.625,-5.997 58.031,-6.144C58.438,-6.29 58.908,-6.363 59.443,-6.363C59.975,-6.363 60.406,-6.301 60.738,-6.176C61.07,-6.051 61.314,-5.894 61.471,-5.704C61.627,-5.515 61.736,-5.275 61.799,-4.986C61.834,-4.807 61.852,-4.482 61.852,-4.014L61.852,-2.607C61.852,-1.627 61.874,-1.007 61.919,-0.747C61.964,-0.487 62.053,-0.238 62.186,0L61.084,0C60.975,-0.219 60.904,-0.475 60.873,-0.768ZM60.785,-3.123C60.402,-2.967 59.828,-2.834 59.063,-2.725C58.629,-2.662 58.322,-2.592 58.143,-2.514C57.963,-2.436 57.824,-2.321 57.727,-2.171C57.629,-2.021 57.58,-1.854 57.58,-1.67C57.58,-1.389 57.687,-1.154 57.899,-0.967C58.112,-0.779 58.424,-0.686 58.834,-0.686C59.24,-0.686 59.602,-0.774 59.918,-0.952C60.234,-1.13 60.467,-1.373 60.615,-1.682C60.729,-1.92 60.785,-2.271 60.785,-2.736L60.785,-3.123Z" style="fill:white;fill-rule:nonzero;"/>
                </g>
            </g>
            <g transform="matrix(1,0,0,1,69.059,12)">
                <g>
                    <path d="M4.828,0L4.828,-0.785C4.434,-0.168 3.854,0.141 3.088,0.141C2.592,0.141 2.136,0.004 1.72,-0.27C1.304,-0.543 0.981,-0.925 0.753,-1.415C0.524,-1.905 0.41,-2.469 0.41,-3.105C0.41,-3.727 0.514,-4.29 0.721,-4.796C0.928,-5.302 1.238,-5.689 1.652,-5.959C2.066,-6.229 2.529,-6.363 3.041,-6.363C3.416,-6.363 3.75,-6.284 4.043,-6.126C4.336,-5.968 4.574,-5.762 4.758,-5.508L4.758,-8.59L5.807,-8.59L5.807,0L4.828,0ZM1.494,-3.105C1.494,-2.309 1.662,-1.713 1.998,-1.318C2.334,-0.924 2.73,-0.727 3.188,-0.727C3.648,-0.727 4.04,-0.915 4.362,-1.292C4.685,-1.669 4.846,-2.244 4.846,-3.018C4.846,-3.869 4.682,-4.494 4.354,-4.893C4.025,-5.291 3.621,-5.49 3.141,-5.49C2.672,-5.49 2.28,-5.299 1.966,-4.916C1.651,-4.533 1.494,-3.93 1.494,-3.105Z" style="fill:white;fill-rule:nonzero;"/>
                    <path d="M11.725,-2.004L12.814,-1.869C12.643,-1.232 12.324,-0.738 11.859,-0.387C11.395,-0.035 10.801,0.141 10.078,0.141C9.168,0.141 8.446,-0.14 7.913,-0.7C7.38,-1.261 7.113,-2.047 7.113,-3.059C7.113,-4.105 7.383,-4.918 7.922,-5.496C8.461,-6.074 9.16,-6.363 10.02,-6.363C10.852,-6.363 11.531,-6.08 12.059,-5.514C12.586,-4.947 12.85,-4.15 12.85,-3.123C12.85,-3.061 12.848,-2.967 12.844,-2.842L8.203,-2.842C8.242,-2.158 8.436,-1.635 8.783,-1.271C9.131,-0.908 9.564,-0.727 10.084,-0.727C10.471,-0.727 10.801,-0.828 11.074,-1.031C11.348,-1.234 11.564,-1.559 11.725,-2.004ZM8.262,-3.709L11.736,-3.709C11.689,-4.232 11.557,-4.625 11.338,-4.887C11.002,-5.293 10.566,-5.496 10.031,-5.496C9.547,-5.496 9.14,-5.334 8.81,-5.01C8.479,-4.686 8.297,-4.252 8.262,-3.709Z" style="fill:white;fill-rule:nonzero;"/>
                </g>
            </g>
            <g transform="matrix(1,0,0,1,86.695,12)">
                <g>
                    <path d="M0.797,-7.377L0.797,-8.59L1.852,-8.59L1.852,-7.377L0.797,-7.377ZM0.797,0L0.797,-6.223L1.852,-6.223L1.852,0L0.797,0Z" style="fill:white;fill-rule:nonzero;"/>
                    <path d="M3.457,0L3.457,-6.223L4.406,-6.223L4.406,-5.338C4.863,-6.021 5.523,-6.363 6.387,-6.363C6.762,-6.363 7.106,-6.296 7.421,-6.161C7.735,-6.026 7.971,-5.85 8.127,-5.631C8.283,-5.412 8.393,-5.152 8.455,-4.852C8.494,-4.656 8.514,-4.314 8.514,-3.826L8.514,0L7.459,0L7.459,-3.785C7.459,-4.215 7.418,-4.536 7.336,-4.749C7.254,-4.962 7.108,-5.132 6.899,-5.259C6.69,-5.386 6.445,-5.449 6.164,-5.449C5.715,-5.449 5.327,-5.307 5.001,-5.021C4.675,-4.736 4.512,-4.195 4.512,-3.398L4.512,0L3.457,0Z" style="fill:white;fill-rule:nonzero;"/>
                    <path d="M10.131,0L10.131,-6.223L11.08,-6.223L11.08,-5.338C11.537,-6.021 12.197,-6.363 13.061,-6.363C13.436,-6.363 13.78,-6.296 14.095,-6.161C14.409,-6.026 14.645,-5.85 14.801,-5.631C14.957,-5.412 15.066,-5.152 15.129,-4.852C15.168,-4.656 15.188,-4.314 15.188,-3.826L15.188,0L14.133,0L14.133,-3.785C14.133,-4.215 14.092,-4.536 14.01,-4.749C13.928,-4.962 13.782,-5.132 13.573,-5.259C13.364,-5.386 13.119,-5.449 12.838,-5.449C12.389,-5.449 12.001,-5.307 11.675,-5.021C11.349,-4.736 11.186,-4.195 11.186,-3.398L11.186,0L10.131,0Z" style="fill:white;fill-rule:nonzero;"/>
                    <path d="M16.412,-3.111C16.412,-4.264 16.732,-5.117 17.373,-5.672C17.908,-6.133 18.561,-6.363 19.33,-6.363C20.186,-6.363 20.885,-6.083 21.428,-5.522C21.971,-4.962 22.242,-4.188 22.242,-3.199C22.242,-2.398 22.122,-1.769 21.882,-1.31C21.642,-0.851 21.292,-0.494 20.833,-0.24C20.374,0.014 19.873,0.141 19.33,0.141C18.459,0.141 17.755,-0.139 17.218,-0.697C16.681,-1.256 16.412,-2.061 16.412,-3.111ZM17.496,-3.111C17.496,-2.314 17.67,-1.718 18.018,-1.321C18.365,-0.925 18.803,-0.727 19.33,-0.727C19.854,-0.727 20.289,-0.926 20.637,-1.324C20.984,-1.723 21.158,-2.33 21.158,-3.146C21.158,-3.916 20.983,-4.499 20.634,-4.896C20.284,-5.292 19.85,-5.49 19.33,-5.49C18.803,-5.49 18.365,-5.293 18.018,-4.898C17.67,-4.504 17.496,-3.908 17.496,-3.111Z" style="fill:white;fill-rule:nonzero;"/>
                    <path d="M25.207,0L22.84,-6.223L23.953,-6.223L25.289,-2.496C25.434,-2.094 25.566,-1.676 25.688,-1.242C25.781,-1.57 25.912,-1.965 26.08,-2.426L27.463,-6.223L28.547,-6.223L26.191,0L25.207,0Z" style="fill:white;fill-rule:nonzero;"/>
                    <path d="M33.539,-0.768C33.148,-0.436 32.772,-0.201 32.411,-0.064C32.05,0.072 31.662,0.141 31.248,0.141C30.564,0.141 30.039,-0.026 29.672,-0.36C29.305,-0.694 29.121,-1.121 29.121,-1.641C29.121,-1.945 29.19,-2.224 29.329,-2.476C29.468,-2.728 29.649,-2.93 29.874,-3.082C30.099,-3.234 30.352,-3.35 30.633,-3.428C30.84,-3.482 31.152,-3.535 31.57,-3.586C32.422,-3.688 33.049,-3.809 33.451,-3.949C33.455,-4.094 33.457,-4.186 33.457,-4.225C33.457,-4.654 33.357,-4.957 33.158,-5.133C32.889,-5.371 32.488,-5.49 31.957,-5.49C31.461,-5.49 31.095,-5.403 30.858,-5.229C30.622,-5.056 30.447,-4.748 30.334,-4.307L29.303,-4.447C29.396,-4.889 29.551,-5.245 29.766,-5.517C29.98,-5.788 30.291,-5.997 30.697,-6.144C31.104,-6.29 31.574,-6.363 32.109,-6.363C32.641,-6.363 33.072,-6.301 33.404,-6.176C33.736,-6.051 33.98,-5.894 34.137,-5.704C34.293,-5.515 34.402,-5.275 34.465,-4.986C34.5,-4.807 34.518,-4.482 34.518,-4.014L34.518,-2.607C34.518,-1.627 34.54,-1.007 34.585,-0.747C34.63,-0.487 34.719,-0.238 34.852,0L33.75,0C33.641,-0.219 33.57,-0.475 33.539,-0.768ZM33.451,-3.123C33.068,-2.967 32.494,-2.834 31.729,-2.725C31.295,-2.662 30.988,-2.592 30.809,-2.514C30.629,-2.436 30.49,-2.321 30.393,-2.171C30.295,-2.021 30.246,-1.854 30.246,-1.67C30.246,-1.389 30.353,-1.154 30.565,-0.967C30.778,-0.779 31.09,-0.686 31.5,-0.686C31.906,-0.686 32.268,-0.774 32.584,-0.952C32.9,-1.13 33.133,-1.373 33.281,-1.682C33.395,-1.92 33.451,-2.271 33.451,-2.736L33.451,-3.123Z" style="fill:white;fill-rule:nonzero;"/>
                    <path d="M40.213,-2.279L41.25,-2.145C41.137,-1.43 40.847,-0.87 40.38,-0.466C39.913,-0.062 39.34,0.141 38.66,0.141C37.809,0.141 37.124,-0.138 36.606,-0.694C36.089,-1.251 35.83,-2.049 35.83,-3.088C35.83,-3.76 35.941,-4.348 36.164,-4.852C36.387,-5.355 36.726,-5.733 37.181,-5.985C37.636,-6.237 38.131,-6.363 38.666,-6.363C39.342,-6.363 39.895,-6.192 40.324,-5.851C40.754,-5.509 41.029,-5.023 41.15,-4.395L40.125,-4.236C40.027,-4.654 39.854,-4.969 39.606,-5.18C39.358,-5.391 39.059,-5.496 38.707,-5.496C38.176,-5.496 37.744,-5.306 37.412,-4.925C37.08,-4.544 36.914,-3.941 36.914,-3.117C36.914,-2.281 37.074,-1.674 37.395,-1.295C37.715,-0.916 38.133,-0.727 38.648,-0.727C39.063,-0.727 39.408,-0.854 39.686,-1.107C39.963,-1.361 40.139,-1.752 40.213,-2.279Z" style="fill:white;fill-rule:nonzero;"/>
                    <path d="M42.158,-7.377L42.158,-8.59L43.213,-8.59L43.213,-7.377L42.158,-7.377ZM42.158,0L42.158,-6.223L43.213,-6.223L43.213,0L42.158,0Z" style="fill:white;fill-rule:nonzero;"/>
                    <path d="M44.426,-3.111C44.426,-4.264 44.746,-5.117 45.387,-5.672C45.922,-6.133 46.574,-6.363 47.344,-6.363C48.199,-6.363 48.898,-6.083 49.441,-5.522C49.984,-4.962 50.256,-4.188 50.256,-3.199C50.256,-2.398 50.136,-1.769 49.896,-1.31C49.655,-0.851 49.306,-0.494 48.847,-0.24C48.388,0.014 47.887,0.141 47.344,0.141C46.473,0.141 45.769,-0.139 45.231,-0.697C44.694,-1.256 44.426,-2.061 44.426,-3.111ZM45.51,-3.111C45.51,-2.314 45.684,-1.718 46.031,-1.321C46.379,-0.925 46.816,-0.727 47.344,-0.727C47.867,-0.727 48.303,-0.926 48.65,-1.324C48.998,-1.723 49.172,-2.33 49.172,-3.146C49.172,-3.916 48.997,-4.499 48.647,-4.896C48.298,-5.292 47.863,-5.49 47.344,-5.49C46.816,-5.49 46.379,-5.293 46.031,-4.898C45.684,-4.504 45.51,-3.908 45.51,-3.111ZM46.758,-6.996L47.537,-8.637L48.92,-8.637L47.631,-6.996L46.758,-6.996Z" style="fill:white;fill-rule:nonzero;"/>
                    <path d="M51.492,0L51.492,-6.223L52.441,-6.223L52.441,-5.338C52.898,-6.021 53.559,-6.363 54.422,-6.363C54.797,-6.363 55.142,-6.296 55.456,-6.161C55.771,-6.026 56.006,-5.85 56.162,-5.631C56.318,-5.412 56.428,-5.152 56.49,-4.852C56.529,-4.656 56.549,-4.314 56.549,-3.826L56.549,0L55.494,0L55.494,-3.785C55.494,-4.215 55.453,-4.536 55.371,-4.749C55.289,-4.962 55.144,-5.132 54.935,-5.259C54.726,-5.386 54.48,-5.449 54.199,-5.449C53.75,-5.449 53.362,-5.307 53.036,-5.021C52.71,-4.736 52.547,-4.195 52.547,-3.398L52.547,0L51.492,0Z" style="fill:white;fill-rule:nonzero;"/>
                </g>
            </g>
        </g>
        <g transform="matrix(1,0,0,1,170.076,189.21)">
            <g transform="matrix(1,0,0,1,0,12)">
                <path d="M0.744,2.396L0.627,1.406C0.857,1.469 1.059,1.5 1.23,1.5C1.465,1.5 1.652,1.461 1.793,1.383C1.934,1.305 2.049,1.195 2.139,1.055C2.205,0.949 2.313,0.687 2.461,0.27C2.48,0.211 2.512,0.125 2.555,0.012L0.193,-6.223L1.33,-6.223L2.625,-2.619C2.793,-2.162 2.943,-1.682 3.076,-1.178C3.197,-1.662 3.342,-2.135 3.51,-2.596L4.84,-6.223L5.895,-6.223L3.527,0.105C3.273,0.789 3.076,1.26 2.936,1.518C2.748,1.865 2.533,2.12 2.291,2.282C2.049,2.444 1.76,2.525 1.424,2.525C1.221,2.525 0.994,2.482 0.744,2.396Z" style="fill:white;fill-rule:nonzero;"/>
            </g>
            <g transform="matrix(1,0,0,1,10.587,12)">
                <g>
                    <g>
                        <path d="M4.852,-0.768C4.461,-0.436 4.085,-0.201 3.724,-0.064C3.362,0.072 2.975,0.141 2.561,0.141C1.877,0.141 1.352,-0.026 0.984,-0.36C0.617,-0.694 0.434,-1.121 0.434,-1.641C0.434,-1.945 0.503,-2.224 0.642,-2.476C0.78,-2.728 0.962,-2.93 1.187,-3.082C1.411,-3.234 1.664,-3.35 1.945,-3.428C2.152,-3.482 2.465,-3.535 2.883,-3.586C3.734,-3.688 4.361,-3.809 4.764,-3.949C4.768,-4.094 4.77,-4.186 4.77,-4.225C4.77,-4.654 4.67,-4.957 4.471,-5.133C4.201,-5.371 3.801,-5.49 3.27,-5.49C2.773,-5.49 2.407,-5.403 2.171,-5.229C1.935,-5.056 1.76,-4.748 1.646,-4.307L0.615,-4.447C0.709,-4.889 0.863,-5.245 1.078,-5.517C1.293,-5.788 1.604,-5.997 2.01,-6.144C2.416,-6.29 2.887,-6.363 3.422,-6.363C3.953,-6.363 4.385,-6.301 4.717,-6.176C5.049,-6.051 5.293,-5.894 5.449,-5.704C5.605,-5.515 5.715,-5.275 5.777,-4.986C5.813,-4.807 5.83,-4.482 5.83,-4.014L5.83,-2.607C5.83,-1.627 5.853,-1.007 5.897,-0.747C5.942,-0.487 6.031,-0.238 6.164,0L5.063,0C4.953,-0.219 4.883,-0.475 4.852,-0.768ZM4.764,-3.123C4.381,-2.967 3.807,-2.834 3.041,-2.725C2.607,-2.662 2.301,-2.592 2.121,-2.514C1.941,-2.436 1.803,-2.321 1.705,-2.171C1.607,-2.021 1.559,-1.854 1.559,-1.67C1.559,-1.389 1.665,-1.154 1.878,-0.967C2.091,-0.779 2.402,-0.686 2.813,-0.686C3.219,-0.686 3.58,-0.774 3.896,-0.952C4.213,-1.13 4.445,-1.373 4.594,-1.682C4.707,-1.92 4.764,-2.271 4.764,-2.736L4.764,-3.123Z" style="fill:white;fill-rule:nonzero;"/>
                        <path d="M7.465,2.385L7.465,-6.223L8.426,-6.223L8.426,-5.414C8.652,-5.73 8.908,-5.968 9.193,-6.126C9.479,-6.284 9.824,-6.363 10.23,-6.363C10.762,-6.363 11.23,-6.227 11.637,-5.953C12.043,-5.68 12.35,-5.294 12.557,-4.796C12.764,-4.298 12.867,-3.752 12.867,-3.158C12.867,-2.521 12.753,-1.948 12.524,-1.438C12.296,-0.929 11.964,-0.538 11.528,-0.267C11.093,0.005 10.635,0.141 10.154,0.141C9.803,0.141 9.487,0.066 9.208,-0.082C8.929,-0.23 8.699,-0.418 8.52,-0.645L8.52,2.385L7.465,2.385ZM8.42,-3.076C8.42,-2.275 8.582,-1.684 8.906,-1.301C9.23,-0.918 9.623,-0.727 10.084,-0.727C10.553,-0.727 10.954,-0.925 11.288,-1.321C11.622,-1.718 11.789,-2.332 11.789,-3.164C11.789,-3.957 11.626,-4.551 11.3,-4.945C10.974,-5.34 10.584,-5.537 10.131,-5.537C9.682,-5.537 9.284,-5.327 8.938,-4.907C8.593,-4.487 8.42,-3.877 8.42,-3.076Z" style="fill:white;fill-rule:nonzero;"/>
                        <path d="M14.127,0L14.127,-6.223L15.076,-6.223L15.076,-5.279C15.318,-5.721 15.542,-6.012 15.747,-6.152C15.952,-6.293 16.178,-6.363 16.424,-6.363C16.779,-6.363 17.141,-6.25 17.508,-6.023L17.145,-5.045C16.887,-5.197 16.629,-5.273 16.371,-5.273C16.141,-5.273 15.934,-5.204 15.75,-5.065C15.566,-4.927 15.436,-4.734 15.357,-4.488C15.24,-4.113 15.182,-3.703 15.182,-3.258L15.182,0L14.127,0Z" style="fill:white;fill-rule:nonzero;"/>
                        <path d="M22.395,-2.004L23.484,-1.869C23.313,-1.232 22.994,-0.738 22.529,-0.387C22.064,-0.035 21.471,0.141 20.748,0.141C19.838,0.141 19.116,-0.14 18.583,-0.7C18.05,-1.261 17.783,-2.047 17.783,-3.059C17.783,-4.105 18.053,-4.918 18.592,-5.496C19.131,-6.074 19.83,-6.363 20.689,-6.363C21.521,-6.363 22.201,-6.08 22.729,-5.514C23.256,-4.947 23.52,-4.15 23.52,-3.123C23.52,-3.061 23.518,-2.967 23.514,-2.842L18.873,-2.842C18.912,-2.158 19.105,-1.635 19.453,-1.271C19.801,-0.908 20.234,-0.727 20.754,-0.727C21.141,-0.727 21.471,-0.828 21.744,-1.031C22.018,-1.234 22.234,-1.559 22.395,-2.004ZM18.932,-3.709L22.406,-3.709C22.359,-4.232 22.227,-4.625 22.008,-4.887C21.672,-5.293 21.236,-5.496 20.701,-5.496C20.217,-5.496 19.81,-5.334 19.479,-5.01C19.149,-4.686 18.967,-4.252 18.932,-3.709Z" style="fill:white;fill-rule:nonzero;"/>
                        <path d="M24.809,0L24.809,-6.223L25.758,-6.223L25.758,-5.338C26.215,-6.021 26.875,-6.363 27.738,-6.363C28.113,-6.363 28.458,-6.296 28.772,-6.161C29.087,-6.026 29.322,-5.85 29.479,-5.631C29.635,-5.412 29.744,-5.152 29.807,-4.852C29.846,-4.656 29.865,-4.314 29.865,-3.826L29.865,0L28.811,0L28.811,-3.785C28.811,-4.215 28.77,-4.536 28.688,-4.749C28.605,-4.962 28.46,-5.132 28.251,-5.259C28.042,-5.386 27.797,-5.449 27.516,-5.449C27.066,-5.449 26.679,-5.307 26.353,-5.021C26.026,-4.736 25.863,-4.195 25.863,-3.398L25.863,0L24.809,0Z" style="fill:white;fill-rule:nonzero;"/>
                        <path d="M35.52,0L35.52,-0.785C35.125,-0.168 34.545,0.141 33.779,0.141C33.283,0.141 32.827,0.004 32.411,-0.27C31.995,-0.543 31.673,-0.925 31.444,-1.415C31.216,-1.905 31.102,-2.469 31.102,-3.105C31.102,-3.727 31.205,-4.29 31.412,-4.796C31.619,-5.302 31.93,-5.689 32.344,-5.959C32.758,-6.229 33.221,-6.363 33.732,-6.363C34.107,-6.363 34.441,-6.284 34.734,-6.126C35.027,-5.968 35.266,-5.762 35.449,-5.508L35.449,-8.59L36.498,-8.59L36.498,0L35.52,0ZM32.186,-3.105C32.186,-2.309 32.354,-1.713 32.689,-1.318C33.025,-0.924 33.422,-0.727 33.879,-0.727C34.34,-0.727 34.731,-0.915 35.054,-1.292C35.376,-1.669 35.537,-2.244 35.537,-3.018C35.537,-3.869 35.373,-4.494 35.045,-4.893C34.717,-5.291 34.313,-5.49 33.832,-5.49C33.363,-5.49 32.972,-5.299 32.657,-4.916C32.343,-4.533 32.186,-3.93 32.186,-3.105Z" style="fill:white;fill-rule:nonzero;"/>
                        <path d="M38.162,-7.377L38.162,-8.59L39.217,-8.59L39.217,-7.377L38.162,-7.377ZM38.162,0L38.162,-6.223L39.217,-6.223L39.217,0L38.162,0Z" style="fill:white;fill-rule:nonzero;"/>
                        <path d="M40.266,0L40.266,-0.855L44.227,-5.402C43.777,-5.379 43.381,-5.367 43.037,-5.367L40.5,-5.367L40.5,-6.223L45.586,-6.223L45.586,-5.525L42.217,-1.576L41.566,-0.855C42.039,-0.891 42.482,-0.908 42.896,-0.908L45.773,-0.908L45.773,0L40.266,0Z" style="fill:white;fill-rule:nonzero;"/>
                        <path d="M50.883,-0.768C50.492,-0.436 50.116,-0.201 49.755,-0.064C49.394,0.072 49.006,0.141 48.592,0.141C47.908,0.141 47.383,-0.026 47.016,-0.36C46.648,-0.694 46.465,-1.121 46.465,-1.641C46.465,-1.945 46.534,-2.224 46.673,-2.476C46.812,-2.728 46.993,-2.93 47.218,-3.082C47.442,-3.234 47.695,-3.35 47.977,-3.428C48.184,-3.482 48.496,-3.535 48.914,-3.586C49.766,-3.688 50.393,-3.809 50.795,-3.949C50.799,-4.094 50.801,-4.186 50.801,-4.225C50.801,-4.654 50.701,-4.957 50.502,-5.133C50.232,-5.371 49.832,-5.49 49.301,-5.49C48.805,-5.49 48.438,-5.403 48.202,-5.229C47.966,-5.056 47.791,-4.748 47.678,-4.307L46.646,-4.447C46.74,-4.889 46.895,-5.245 47.109,-5.517C47.324,-5.788 47.635,-5.997 48.041,-6.144C48.447,-6.29 48.918,-6.363 49.453,-6.363C49.984,-6.363 50.416,-6.301 50.748,-6.176C51.08,-6.051 51.324,-5.894 51.48,-5.704C51.637,-5.515 51.746,-5.275 51.809,-4.986C51.844,-4.807 51.861,-4.482 51.861,-4.014L51.861,-2.607C51.861,-1.627 51.884,-1.007 51.929,-0.747C51.974,-0.487 52.063,-0.238 52.195,0L51.094,0C50.984,-0.219 50.914,-0.475 50.883,-0.768ZM50.795,-3.123C50.412,-2.967 49.838,-2.834 49.072,-2.725C48.639,-2.662 48.332,-2.592 48.152,-2.514C47.973,-2.436 47.834,-2.321 47.736,-2.171C47.639,-2.021 47.59,-1.854 47.59,-1.67C47.59,-1.389 47.696,-1.154 47.909,-0.967C48.122,-0.779 48.434,-0.686 48.844,-0.686C49.25,-0.686 49.611,-0.774 49.928,-0.952C50.244,-1.13 50.477,-1.373 50.625,-1.682C50.738,-1.92 50.795,-2.271 50.795,-2.736L50.795,-3.123Z" style="fill:white;fill-rule:nonzero;"/>
                        <path d="M53.49,-7.365L53.49,-8.59L54.545,-8.59L54.545,-7.365L53.49,-7.365ZM52.154,2.414L52.354,1.518C52.564,1.572 52.73,1.6 52.852,1.6C53.066,1.6 53.227,1.528 53.332,1.386C53.438,1.243 53.49,0.887 53.49,0.316L53.49,-6.223L54.545,-6.223L54.545,0.34C54.545,1.105 54.445,1.639 54.246,1.939C53.992,2.33 53.57,2.525 52.98,2.525C52.695,2.525 52.42,2.488 52.154,2.414Z" style="fill:white;fill-rule:nonzero;"/>
                        <path d="M60.422,-2.004L61.512,-1.869C61.34,-1.232 61.021,-0.738 60.557,-0.387C60.092,-0.035 59.498,0.141 58.775,0.141C57.865,0.141 57.144,-0.14 56.61,-0.7C56.077,-1.261 55.811,-2.047 55.811,-3.059C55.811,-4.105 56.08,-4.918 56.619,-5.496C57.158,-6.074 57.857,-6.363 58.717,-6.363C59.549,-6.363 60.229,-6.08 60.756,-5.514C61.283,-4.947 61.547,-4.15 61.547,-3.123C61.547,-3.061 61.545,-2.967 61.541,-2.842L56.9,-2.842C56.939,-2.158 57.133,-1.635 57.48,-1.271C57.828,-0.908 58.262,-0.727 58.781,-0.727C59.168,-0.727 59.498,-0.828 59.771,-1.031C60.045,-1.234 60.262,-1.559 60.422,-2.004ZM56.959,-3.709L60.434,-3.709C60.387,-4.232 60.254,-4.625 60.035,-4.887C59.699,-5.293 59.264,-5.496 58.729,-5.496C58.244,-5.496 57.837,-5.334 57.507,-5.01C57.177,-4.686 56.994,-4.252 56.959,-3.709Z" style="fill:white;fill-rule:nonzero;"/>
                    </g>
                </g>
            </g>
        </g>
        <g transform="matrix(1,0,0,1,-90.127,381.51)">
            <path d="M192.495,-348.423L199.422,-351.887L192.495,-355.35C194.219,-353.375 194.219,-350.398 192.495,-348.423Z" style="fill:rgb(1,29,106);"/>
        </g>
        <g transform="matrix(1,0,0,1,-42.873,342.017)">
            <path d="M98.5,-271L95.037,-264.073L91.569,-271C93.545,-269.274 96.524,-269.274 98.5,-271Z" style="fill:rgb(1,29,106);"/>
        </g>
        <g transform="matrix(1,0,0,1,-45.922,378.461)">
            <path d="M149.676,-348.838L125.47,-348.838C118.209,-348.838 111.238,-345.95 106.103,-340.816C100.969,-335.681 98.081,-328.71 98.081,-321.449L98.081,-306.059" style="fill:none;fill-rule:nonzero;stroke:rgb(1,29,106);stroke-width:4.34px;stroke-dasharray:0,13.03,0,0;"/>
        </g>
        <g transform="matrix(1,0,0,1,-90.127,244.264)">
            <path d="M192.495,-55.29L199.422,-58.754L192.495,-62.218C194.22,-60.243 194.22,-57.265 192.495,-55.29Z" style="fill:rgb(1,29,106);"/>
        </g>
        <g transform="matrix(1,0,0,1,-42.873,283.757)">
            <path d="M91.569,-139.64L95.033,-146.567L98.5,-139.64C96.524,-141.366 93.545,-141.366 91.569,-139.64Z" style="fill:rgb(1,29,106);"/>
        </g>
        <g transform="matrix(1,0,0,1,-45.922,278.878)">
            <path d="M149.676,-93.367L125.47,-93.367C118.209,-93.367 111.238,-96.255 106.103,-101.389C100.969,-106.524 98.081,-113.495 98.081,-120.756L98.081,-136.146" style="fill:none;fill-rule:nonzero;stroke:rgb(1,29,106);stroke-width:4.34px;stroke-dasharray:0,13.03,0,0;"/>
        </g>
        <g transform="matrix(1,0,0,1,-269.891,381.51)">
            <path d="M583.368,-355.35L576.441,-351.887L583.368,-348.423C581.644,-350.398 581.644,-353.375 583.368,-355.35Z" style="fill:rgb(1,29,106);"/>
        </g>
        <g transform="matrix(1,0,0,1,-317.145,342.017)">
            <path d="M684.3,-271L680.836,-264.073L677.368,-271C679.344,-269.274 682.324,-269.274 684.3,-271Z" style="fill:rgb(1,29,106);"/>
        </g>
        <g transform="matrix(1,0,0,1,-274.77,378.461)">
            <path d="M586.862,-348.838L611.068,-348.838C618.329,-348.838 625.3,-345.95 630.434,-340.816C635.569,-335.682 638.456,-328.71 638.456,-321.449L638.456,-306.059" style="fill:none;fill-rule:nonzero;stroke:rgb(1,29,106);stroke-width:4.34px;stroke-dasharray:0,13.03,0,0;"/>
        </g>
        <g transform="matrix(1,0,0,1,-269.891,244.264)">
            <path d="M583.368,-62.217L576.441,-58.753L583.368,-55.289C581.644,-57.264 581.644,-60.242 583.368,-62.217Z" style="fill:rgb(1,29,106);"/>
        </g>
        <g transform="matrix(1,0,0,1,-317.145,283.757)">
            <path d="M677.368,-139.64L680.832,-146.567L684.296,-139.64C682.321,-141.364 679.343,-141.364 677.368,-139.64Z" style="fill:rgb(1,29,106);"/>
        </g>
        <g transform="matrix(1,0,0,1,-274.77,278.878)">
            <path d="M586.862,-93.367L611.068,-93.367C618.329,-93.367 625.3,-96.255 630.434,-101.389C635.569,-106.523 638.456,-113.495 638.456,-120.756L638.456,-136.146" style="fill:none;fill-rule:nonzero;stroke:rgb(1,29,106);stroke-width:4.34px;stroke-dasharray:0,13.03,0,0;"/>
        </g>
        <g transform="matrix(1,0,0,1,-30.087,324.23)">
            <path d="M64.261,-228.331L128.714,-228.331" style="fill:none;fill-rule:nonzero;stroke:white;stroke-width:2.06px;stroke-dasharray:0,6.17,0,0;"/>
        </g>
        <g transform="matrix(1,0,0,1,-232.652,324.23)">
            <path d="M496.906,-228.331L561.359,-228.331" style="fill:none;fill-rule:nonzero;stroke:white;stroke-width:2.06px;stroke-dasharray:0,6.17,0,0;"/>
        </g>
        <g transform="matrix(1,0,0,1,-127.444,394.241)">
            <path d="M272.2,-374.558L336.653,-374.558" style="fill:none;fill-rule:nonzero;stroke:white;stroke-width:2.06px;stroke-dasharray:0,6.17,0,0;"/>
        </g>
        <g transform="matrix(1,0,0,1,-119.436,265.72)">
            <path d="M255.1,-96.861L319.553,-96.861" style="fill:none;fill-rule:nonzero;stroke:white;stroke-width:2.06px;stroke-dasharray:0,6.17,0,0;"/>
        </g>
    </g>
</svg>
