<svg xmlns="http://www.w3.org/2000/svg" width="415.845" height="215.134" viewBox="0 0 415.845 215.134"><g transform="translate(0)"><path d="M402.775-383.175a21.365,21.365,0,0,0-21.365-21.366H226.887a21.366,21.366,0,0,0-21.366,21.366v37.88H402.775Z" transform="translate(-96.225 404.541)" fill="#011d6a" fill-rule="evenodd"/><path d="M197.254-257.975H21.366A21.366,21.366,0,0,0,0-236.609v16.515a21.366,21.366,0,0,0,21.366,21.366H197.254Z" transform="translate(0 335.918)" fill="#011d6a" fill-rule="evenodd"/><path d="M608.3-236.609a21.366,21.366,0,0,0-21.365-21.366H411.042v59.247H586.931A21.365,21.365,0,0,0,608.3-220.094Z" transform="translate(-192.451 335.918)" fill="#011d6a" fill-rule="evenodd"/><path d="M402.775-111.408H205.521v37.881a21.366,21.366,0,0,0,21.366,21.366H381.41a21.365,21.365,0,0,0,21.365-21.366Z" transform="translate(-96.225 267.295)" fill="#011d6a" fill-rule="evenodd"/><g transform="translate(144.008 19.539)"><text transform="translate(0 12)" fill="#fff" font-size="12" font-family="Oxygen-Regular, Oxygen"><tspan x="0" y="0">Perspectiva</tspan></text><text transform="translate(69.059 12)" fill="#fff" font-size="12" font-family="Oxygen-Regular, Oxygen"><tspan x="0" y="0">Financiera</tspan></text></g><g transform="translate(34.176 97.483)"><g transform="translate(0 0)"><text transform="translate(0 12)" fill="#fff" font-size="12" font-family="Oxygen-Regular, Oxygen"><tspan x="0" y="0">Perspectiva</tspan></text><text transform="translate(69.059 12)" fill="#fff" font-size="12" font-family="Oxygen-Regular, Oxygen"><tspan x="0" y="0">del</tspan></text><text transform="translate(90.242 12)" fill="#fff" font-size="12" font-family="Oxygen-Regular, Oxygen"><tspan x="0" y="0">cliente</tspan></text></g></g><g transform="translate(262.34 97.483)"><g transform="translate(0 0)"><text transform="translate(0 12)" fill="#fff" font-size="12" font-family="Oxygen-Regular, Oxygen"><tspan x="0" y="0">Perspectiva</tspan></text><text transform="translate(69.059 12)" fill="#fff" font-size="12" font-family="Oxygen-Regular, Oxygen"><tspan x="0" y="0">interna</tspan></text></g></g><g transform="translate(133.232 167.488)"><text transform="translate(0 12)" fill="#fff" font-size="12" font-family="Oxygen-Regular, Oxygen"><tspan x="0" y="0">Perspectiva</tspan></text><text transform="translate(69.059 12)" fill="#fff" font-size="12" font-family="Oxygen-Regular, Oxygen"><tspan x="0" y="0">de</tspan></text><text transform="translate(86.695 12)" fill="#fff" font-size="12" font-family="Oxygen-Regular, Oxygen"><tspan x="0" y="0">innovación</tspan></text></g><g transform="translate(170.076 183.974)"><text transform="translate(0 12)" fill="#fff" font-size="12" font-family="Oxygen-Regular, Oxygen"><tspan x="0" y="0">y</tspan></text><text transform="translate(9.553 12)" fill="#fff" font-size="12" font-family="Oxygen-Regular, Oxygen"><tspan x="0" y="0">apr</tspan></text><text transform="translate(28.404 12)" fill="#fff" font-size="12" font-family="Oxygen-Regular, Oxygen"><tspan x="0" y="0">endizaje</tspan></text></g><path d="M192.495-348.423l6.927-3.464-6.927-3.463A5.266,5.266,0,0,1,192.495-348.423Z" transform="translate(-90.127 381.51)" fill="#011d6a" fill-rule="evenodd"/><path d="M98.5-271l-3.463,6.927L91.569-271A5.268,5.268,0,0,0,98.5-271Z" transform="translate(-42.873 342.017)" fill="#011d6a" fill-rule="evenodd"/><path d="M149.676-348.838H125.47a27.391,27.391,0,0,0-19.367,8.022,27.39,27.39,0,0,0-8.022,19.367v15.39" transform="translate(-45.922 378.461)" fill="none" stroke="#011d6a" stroke-linecap="round" stroke-linejoin="round" stroke-width="4.342" stroke-dasharray="0 13.026 0 0"/><path d="M192.495-55.29l6.927-3.464-6.927-3.464A5.267,5.267,0,0,1,192.495-55.29Z" transform="translate(-90.127 244.264)" fill="#011d6a" fill-rule="evenodd"/><path d="M91.569-139.64l3.464-6.927L98.5-139.64A5.268,5.268,0,0,0,91.569-139.64Z" transform="translate(-42.873 283.757)" fill="#011d6a" fill-rule="evenodd"/><path d="M149.676-93.367H125.47a27.39,27.39,0,0,1-19.367-8.022,27.39,27.39,0,0,1-8.022-19.367v-15.39" transform="translate(-45.922 278.878)" fill="none" stroke="#011d6a" stroke-linecap="round" stroke-linejoin="round" stroke-width="4.342" stroke-dasharray="0 13.026 0 0"/><path d="M583.368-355.35l-6.927,3.463,6.927,3.464A5.267,5.267,0,0,1,583.368-355.35Z" transform="translate(-269.891 381.51)" fill="#011d6a" fill-rule="evenodd"/><path d="M684.3-271l-3.464,6.927L677.368-271A5.268,5.268,0,0,0,684.3-271Z" transform="translate(-317.145 342.017)" fill="#011d6a" fill-rule="evenodd"/><path d="M586.862-348.838h24.206a27.389,27.389,0,0,1,19.366,8.022,27.388,27.388,0,0,1,8.022,19.367v15.39" transform="translate(-274.77 378.461)" fill="none" stroke="#011d6a" stroke-linecap="round" stroke-linejoin="round" stroke-width="4.342" stroke-dasharray="0 13.026 0 0"/><path d="M583.368-62.217l-6.927,3.464,6.927,3.464A5.268,5.268,0,0,1,583.368-62.217Z" transform="translate(-269.891 244.264)" fill="#011d6a" fill-rule="evenodd"/><path d="M677.368-139.64l3.464-6.927,3.464,6.927A5.268,5.268,0,0,0,677.368-139.64Z" transform="translate(-317.145 283.757)" fill="#011d6a" fill-rule="evenodd"/><path d="M586.862-93.367h24.206a27.388,27.388,0,0,0,19.366-8.022,27.388,27.388,0,0,0,8.022-19.367v-15.39" transform="translate(-274.77 278.878)" fill="none" stroke="#011d6a" stroke-linecap="round" stroke-linejoin="round" stroke-width="4.342" stroke-dasharray="0 13.026 0 0"/><path d="M64.261-228.331h64.453" transform="translate(-30.087 322.039)" fill="none" stroke="#fff" stroke-linecap="round" stroke-linejoin="round" stroke-width="2.058" stroke-dasharray="0 6.173 0 0"/><path d="M496.906-228.331h64.453" transform="translate(-232.652 322.039)" fill="none" stroke="#fff" stroke-linecap="round" stroke-linejoin="round" stroke-width="2.058" stroke-dasharray="0 6.173 0 0"/><path d="M272.2-374.558h64.453" transform="translate(-127.444 390.503)" fill="none" stroke="#fff" stroke-linecap="round" stroke-linejoin="round" stroke-width="2.058" stroke-dasharray="0 6.173 0 0"/><path d="M255.1-96.861h64.453" transform="translate(-119.436 260.484)" fill="none" stroke="#fff" stroke-linecap="round" stroke-linejoin="round" stroke-width="2.058" stroke-dasharray="0 6.173 0 0"/></g></svg>