<svg xmlns="http://www.w3.org/2000/svg" width="26" height="25.876" viewBox="0 0 26 25.876"><g transform="translate(0 -0.062)"><path d="M26,12.955a13,13,0,1,0-15.031,12.8V16.7h-3.3V12.955h3.3V10.1c0-3.247,1.941-5.04,4.91-5.04a20.059,20.059,0,0,1,2.91.253V8.5H17.15a1.876,1.876,0,0,0-2.119,2.023v2.43h3.605L18.06,16.7H15.031v9.053A12.972,12.972,0,0,0,26,12.955" transform="translate(0 0.062)" fill="#021e6b"/><path d="M10.346,11.612l.574-3.736H7.331V5.451A1.869,1.869,0,0,1,9.44,3.433h1.632V.252A19.93,19.93,0,0,0,8.175,0C5.218,0,3.286,1.789,3.286,5.028V7.876H0v3.736H3.286v9.031a13.1,13.1,0,0,0,4.044,0V11.612Z" transform="translate(7.713 5.138)" fill="#fff"/></g></svg>