<?xml version="1.0" encoding="UTF-8" standalone="no"?><!DOCTYPE svg PUBLIC "-//W3C//DTD SVG 1.1//EN" "http://www.w3.org/Graphics/SVG/1.1/DTD/svg11.dtd"><svg width="100%" height="100%" viewBox="0 0 2240 1592" version="1.1" xmlns="http://www.w3.org/2000/svg" xmlns:xlink="http://www.w3.org/1999/xlink" xml:space="preserve" xmlns:serif="http://www.serif.com/" style="fill-rule:evenodd;clip-rule:evenodd;stroke-linecap:round;stroke-linejoin:round;stroke-miterlimit:1.5;"><path d="M1176.75,346.213l40.706,-20.353l-40.706,-20.352c10.176,10.176 10.176,30.529 -0,40.705Z" style="fill:#021e6b;"/><path d="M1064.09,346.213l-40.705,-20.353l40.705,-20.352c-10.176,10.176 -10.176,30.529 0,40.705Z" style="fill:#021e6b;"/><path d="M1184.89,325.86l-128.947,0" style="fill:none;stroke:#021e6b;stroke-width:13.57px;stroke-dasharray:0,40.71,0,0;"/><path d="M1176.75,1306.95l40.706,-20.353l-40.706,-20.353c10.176,10.177 10.176,30.529 -0,40.706Z" style="fill:#021e6b;"/><path d="M1064.09,1306.95l-40.705,-20.353l40.705,-20.353c-10.176,10.177 -10.176,30.529 0,40.706Z" style="fill:#021e6b;"/><path d="M1184.89,1286.6l-128.947,-0" style="fill:none;stroke:#021e6b;stroke-width:13.57px;stroke-dasharray:0,40.71,0,0;"/><path d="M516.003,732.497l-20.353,-40.706l-20.353,40.706c10.177,-10.177 30.529,-10.177 40.706,-0Z" style="fill:#021e6b;"/><path d="M516.003,845.161l-20.353,40.706l-20.353,-40.706c10.177,10.177 30.529,10.177 40.706,0Z" style="fill:#021e6b;"/><path d="M495.65,724.356l-0,128.947" style="fill:none;stroke:#021e6b;stroke-width:13.57px;stroke-dasharray:0,40.71,0,0;"/><path d="M1810.32,732.497l-20.353,-40.706l-20.353,40.706c10.177,-10.177 30.529,-10.177 40.706,-0Z" style="fill:#021e6b;"/><path d="M1810.32,845.161l-20.353,40.706l-20.353,-40.706c10.177,10.177 30.529,10.177 40.706,0Z" style="fill:#021e6b;"/><path d="M1789.97,724.356l0,128.947" style="fill:none;stroke:#021e6b;stroke-width:13.57px;stroke-dasharray:0,40.71,0,0;"/><path d="M983.295,2.752l-796.567,-0c-48.793,-0 -95.588,19.383 -130.091,53.885c-34.502,34.503 -53.885,81.298 -53.885,130.091l-0,471.711l980.543,0l-0,-655.687Z" style="fill:#021e6b;stroke:#021e6b;stroke-width:5.5px;"/><path d="M983.295,932.92l-980.543,-0l-0,471.711c-0,48.793 19.383,95.588 53.885,130.091c34.503,34.502 81.298,53.885 130.091,53.885l796.567,-0l-0,-655.687Z" style="fill:#021e6b;stroke:#021e6b;stroke-width:5.5px;"/><path d="M2236.8,186.728c0,-48.793 -19.383,-95.588 -53.885,-130.091c-34.503,-34.502 -81.298,-53.885 -130.091,-53.885l-796.567,-0l0,655.687l980.543,0l0,-471.711Z" style="fill:#021e6b;stroke:#021e6b;stroke-width:5.5px;"/><path d="M2236.8,932.92l-980.543,-0l0,655.687l796.567,-0c48.793,-0 95.588,-19.383 130.091,-53.885c34.502,-34.503 53.885,-81.298 53.885,-130.091l0,-471.711Z" style="fill:#021e6b;stroke:#021e6b;stroke-width:5.5px;"/><g><g><rect x="305.34" y="277.199" width="6.335" height="54.163" style="fill:#fff;fill-rule:nonzero;"/><path d="M323.687,331.362l0,-40.174l5.127,0l0.769,5.75c1.587,-1.978 3.571,-3.571 5.951,-4.779c2.381,-1.209 4.95,-1.813 7.709,-1.813c4.639,0 8.069,1.3 10.291,3.9c2.221,2.6 3.332,6.598 3.332,11.994l0,25.122l-6.116,-0c0,-16.114 -0.012,-24.744 -0.036,-25.891c-0.098,-3.418 -0.788,-5.921 -2.069,-7.508c-1.282,-1.587 -3.424,-2.38 -6.427,-2.38c-3.15,-0 -5.774,0.757 -7.874,2.27c-2.1,1.514 -3.467,3.479 -4.101,5.896c-0.245,1.636 -0.367,3.516 -0.367,5.64l0,21.973l-6.189,-0Z" style="fill:#fff;fill-rule:nonzero;"/><path d="M379.864,332.094c-3.955,0 -6.763,-0.964 -8.423,-2.893c-1.66,-1.929 -2.539,-5.041 -2.636,-9.338l-0,-24.134l-5.97,0l0.257,-4.028l5.676,-0.513l2.087,-9.191l4.029,-0.147l-0,9.338l11.169,0l0,4.541l-11.169,0l-0,23.035c-0,3.052 0.464,5.2 1.391,6.445c0.928,1.246 2.515,1.868 4.761,1.868c0.806,0 2.551,-0.195 5.237,-0.586l0.256,4.834c-2.905,0.513 -5.127,0.769 -6.665,0.769Z" style="fill:#fff;fill-rule:nonzero;"/><path d="M415.808,298.604c-1.795,-2.136 -4.254,-3.204 -7.379,-3.204c-3.125,-0 -5.677,1.105 -7.654,3.314c-1.978,2.21 -3.137,5.231 -3.479,9.064l21.203,-0c0,-3.98 -0.897,-7.038 -2.691,-9.174Zm-6.171,33.6c-5.835,0 -10.431,-1.855 -13.788,-5.566c-3.357,-3.711 -5.035,-8.789 -5.035,-15.235c-0,-6.225 1.623,-11.273 4.87,-15.143c3.247,-3.869 7.52,-5.841 12.818,-5.914c4.98,0 8.929,1.703 11.847,5.109c2.917,3.406 4.376,7.953 4.376,13.641c-0,0.293 -0.006,0.83 -0.018,1.611c-0.013,0.782 -0.019,1.343 -0.019,1.685l-27.575,0c0.073,4.565 1.251,8.124 3.534,10.675c2.282,2.551 5.352,3.827 9.21,3.827c4.248,0 8.508,-1.123 12.781,-3.369l0.952,4.944c-4.077,2.49 -8.728,3.735 -13.953,3.735Z" style="fill:#fff;fill-rule:nonzero;"/><path d="M444.024,332.094c-3.906,0 -6.671,-1.05 -8.294,-3.149c-1.624,-2.1 -2.436,-5.75 -2.436,-10.95l0,-42.407l6.079,-0.366l0,40.356c0,1.66 0.019,2.991 0.055,3.992c0.037,1.001 0.128,1.983 0.275,2.948c0.146,0.964 0.342,1.69 0.586,2.179c0.244,0.488 0.598,0.934 1.062,1.336c0.464,0.403 1.019,0.672 1.666,0.806c0.647,0.134 1.447,0.201 2.399,0.201c0.781,0 2.319,-0.146 4.614,-0.439l0.33,4.871c-2.515,0.415 -4.627,0.622 -6.336,0.622Z" style="fill:#fff;fill-rule:nonzero;"/><path d="M461.273,291.188l-0,40.174l-6.153,-0l0,-40.174l6.153,0Zm-0,-14.611l-0,7.251l-6.153,-0l0,-7.251l6.153,-0Z" style="fill:#fff;fill-rule:nonzero;"/><path d="M488.372,326.125c2.076,-0 3.894,-0.366 5.457,-1.099c1.562,-0.732 2.783,-1.745 3.662,-3.039c0.879,-1.294 1.532,-2.735 1.959,-4.322c0.428,-1.586 0.641,-3.32 0.641,-5.2l0,-2.966c0,-1.953 -0.22,-3.754 -0.659,-5.402c-0.439,-1.648 -1.117,-3.125 -2.032,-4.431c-0.916,-1.306 -2.137,-2.325 -3.663,-3.058c-1.525,-0.732 -3.302,-1.098 -5.328,-1.098c-1.685,-0 -3.217,0.317 -4.596,0.952c-1.379,0.635 -2.515,1.471 -3.406,2.508c-0.891,1.038 -1.648,2.247 -2.27,3.626c-0.623,1.379 -1.068,2.777 -1.337,4.193c-0.268,1.416 -0.403,2.844 -0.403,4.285c0,1.416 0.147,2.82 0.44,4.211c0.293,1.392 0.757,2.747 1.391,4.065c0.635,1.318 1.404,2.472 2.307,3.461c0.904,0.989 2.033,1.788 3.388,2.398c1.355,0.611 2.838,0.916 4.449,0.916Zm-9.411,23.621l-0.55,-5.53l7.471,-0c2.075,-0 3.882,-0.147 5.42,-0.44c1.538,-0.293 2.82,-0.775 3.845,-1.446c1.026,-0.672 1.856,-1.416 2.491,-2.234c0.634,-0.818 1.116,-1.88 1.446,-3.186c0.33,-1.306 0.549,-2.6 0.659,-3.882c0.11,-1.282 0.165,-2.85 0.165,-4.706l0,-3.552c-1.465,2.1 -3.162,3.717 -5.09,4.852c-1.929,1.136 -4.383,1.703 -7.361,1.703c-2.295,0 -4.413,-0.397 -6.354,-1.19c-1.941,-0.793 -3.577,-1.849 -4.907,-3.168c-1.331,-1.318 -2.466,-2.844 -3.406,-4.577c-0.94,-1.734 -1.623,-3.528 -2.051,-5.384c-0.427,-1.855 -0.641,-3.723 -0.641,-5.603c0,-2.929 0.361,-5.639 1.081,-8.13c0.72,-2.49 1.788,-4.712 3.204,-6.665c1.416,-1.953 3.278,-3.485 5.585,-4.596c2.307,-1.11 4.95,-1.666 7.928,-1.666c2.637,0 4.938,0.507 6.903,1.52c1.966,1.013 3.73,2.57 5.292,4.669l0,-5.347l5.969,0l0,37.281c0,1.709 -0.042,3.204 -0.128,4.486c-0.085,1.282 -0.293,2.704 -0.622,4.266c-0.33,1.563 -0.775,2.905 -1.337,4.028c-0.562,1.124 -1.349,2.253 -2.362,3.388c-1.013,1.135 -2.222,2.051 -3.626,2.747c-1.403,0.695 -3.143,1.263 -5.218,1.702c-2.075,0.44 -4.419,0.66 -7.031,0.66l-6.775,-0Z" style="fill:#fff;fill-rule:nonzero;"/><path d="M539.404,298.604c-1.795,-2.136 -4.254,-3.204 -7.379,-3.204c-3.125,-0 -5.677,1.105 -7.654,3.314c-1.978,2.21 -3.137,5.231 -3.479,9.064l21.204,-0c-0,-3.98 -0.898,-7.038 -2.692,-9.174Zm-6.171,33.6c-5.835,0 -10.431,-1.855 -13.788,-5.566c-3.357,-3.711 -5.035,-8.789 -5.035,-15.235c0,-6.225 1.624,-11.273 4.871,-15.143c3.247,-3.869 7.519,-5.841 12.817,-5.914c4.98,0 8.929,1.703 11.847,5.109c2.917,3.406 4.376,7.953 4.376,13.641c0,0.293 -0.006,0.83 -0.018,1.611c-0.012,0.782 -0.018,1.343 -0.018,1.685l-27.576,0c0.073,4.565 1.251,8.124 3.534,10.675c2.282,2.551 5.353,3.827 9.21,3.827c4.248,0 8.508,-1.123 12.781,-3.369l0.952,4.944c-4.077,2.49 -8.728,3.735 -13.953,3.735Z" style="fill:#fff;fill-rule:nonzero;"/><path d="M556.817,331.362l0,-40.174l5.127,0l0.769,5.75c1.587,-1.978 3.571,-3.571 5.951,-4.779c2.381,-1.209 4.95,-1.813 7.709,-1.813c4.639,0 8.069,1.3 10.29,3.9c2.222,2.6 3.333,6.598 3.333,11.994l-0,25.122l-6.116,-0c0,-16.114 -0.012,-24.744 -0.036,-25.891c-0.098,-3.418 -0.788,-5.921 -2.069,-7.508c-1.282,-1.587 -3.425,-2.38 -6.427,-2.38c-3.15,-0 -5.774,0.757 -7.874,2.27c-2.1,1.514 -3.467,3.479 -4.102,5.896c-0.244,1.636 -0.366,3.516 -0.366,5.64l0,21.973l-6.189,-0Z" style="fill:#fff;fill-rule:nonzero;"/><path d="M617.169,332.204c-5.908,0 -10.529,-1.916 -13.861,-5.749c-3.333,-3.833 -4.999,-8.851 -4.999,-15.052c0.024,-6.25 1.727,-11.322 5.109,-15.216c3.381,-3.894 8.013,-5.841 13.897,-5.841c2.075,0 4.084,0.257 6.024,0.769c1.941,0.513 3.473,1.184 4.596,2.014l-1.684,4.761c-2.857,-1.538 -5.872,-2.307 -9.046,-2.307c-3.881,-0 -6.951,1.416 -9.21,4.248c-2.258,2.832 -3.387,6.702 -3.387,11.609c-0,4.785 1.117,8.575 3.351,11.371c2.233,2.795 5.328,4.193 9.283,4.193c3.149,-0 6.372,-0.855 9.668,-2.564l0.769,4.871c-2.661,1.929 -6.165,2.893 -10.51,2.893Z" style="fill:#fff;fill-rule:nonzero;"/><path d="M642.84,291.188l0,40.174l-6.152,-0l-0,-40.174l6.152,0Zm0,-14.611l0,7.251l-6.152,-0l-0,-7.251l6.152,-0Z" style="fill:#fff;fill-rule:nonzero;"/><path d="M665.948,327.26c2.905,0 5.463,-0.799 7.672,-2.398c2.21,-1.6 3.632,-3.754 4.267,-6.464l-0,-6.775c-0.123,0 -0.861,0.061 -2.216,0.183c-1.355,0.122 -2.24,0.195 -2.655,0.22c-5.298,0.464 -8.991,1.33 -11.078,2.6c-2.087,1.269 -3.131,3.308 -3.131,6.116c-0,2.148 0.635,3.772 1.904,4.87c1.27,1.099 3.015,1.648 5.237,1.648Zm13.294,4.102c-0.367,-1.563 -0.721,-3.247 -1.062,-5.054c-2.222,2.222 -4.31,3.76 -6.263,4.614c-1.953,0.855 -4.248,1.282 -6.884,1.282c-3.76,0 -6.781,-0.983 -9.064,-2.948c-2.283,-1.965 -3.424,-4.791 -3.424,-8.478c-0,-4.101 1.556,-7.141 4.669,-9.118c3.113,-1.978 7.599,-3.211 13.458,-3.699c0.806,-0.073 2.02,-0.177 3.644,-0.311c1.624,-0.135 2.838,-0.238 3.644,-0.312l-0,-3.552c-0,-2.832 -0.659,-4.932 -1.978,-6.299c-1.318,-1.367 -3.393,-2.051 -6.225,-2.051c-3.955,0 -7.947,0.977 -11.975,2.93c-0.122,-0.293 -0.44,-1.141 -0.953,-2.545c-0.512,-1.404 -0.781,-2.13 -0.805,-2.179c1.782,-1.001 3.9,-1.8 6.354,-2.399c2.453,-0.598 4.949,-0.897 7.489,-0.897c5.004,0 8.612,1.093 10.821,3.278c2.21,2.185 3.314,5.902 3.314,11.151l0,26.587l-4.76,-0Z" style="fill:#fff;fill-rule:nonzero;"/><path d="M320.904,429.079c-5.908,0 -10.528,-1.916 -13.861,-5.749c-3.332,-3.833 -4.999,-8.851 -4.999,-15.052c0.025,-6.25 1.728,-11.322 5.109,-15.216c3.381,-3.894 8.014,-5.841 13.898,-5.841c2.075,0 4.083,0.257 6.024,0.769c1.941,0.513 3.473,1.184 4.596,2.014l-1.685,4.761c-2.856,-1.538 -5.871,-2.307 -9.045,-2.307c-3.882,-0 -6.952,1.416 -9.21,4.248c-2.259,2.832 -3.388,6.702 -3.388,11.609c0,4.785 1.117,8.575 3.351,11.371c2.234,2.795 5.328,4.193 9.283,4.193c3.15,-0 6.372,-0.855 9.668,-2.564l0.769,4.871c-2.661,1.929 -6.164,2.893 -10.51,2.893Z" style="fill:#fff;fill-rule:nonzero;"/><path d="M343.829,408.242c-0,4.76 1.056,8.575 3.168,11.444c2.111,2.868 5.194,4.303 9.247,4.303c4.003,-0 7.025,-1.428 9.063,-4.285c2.039,-2.856 3.058,-6.702 3.058,-11.536c0,-4.907 -1.007,-8.77 -3.021,-11.59c-2.014,-2.82 -5.084,-4.23 -9.21,-4.23c-4.004,0 -7.056,1.441 -9.156,4.321c-2.099,2.881 -3.149,6.739 -3.149,11.573Zm30.872,-0.11c-0,6.225 -1.661,11.273 -4.981,15.143c-3.32,3.869 -7.91,5.804 -13.769,5.804c-5.64,0 -10.126,-1.953 -13.459,-5.859c-3.332,-3.907 -4.998,-8.924 -4.998,-15.052c-0,-6.25 1.672,-11.303 5.017,-15.161c3.344,-3.857 7.934,-5.786 13.769,-5.786c5.737,0 10.242,1.935 13.513,5.805c3.272,3.869 4.908,8.905 4.908,15.106Z" style="fill:#fff;fill-rule:nonzero;"/><path d="M434.356,428.237l0,-20.911c0,-1.953 -0.042,-3.589 -0.128,-4.907c-0.085,-1.318 -0.281,-2.661 -0.586,-4.028c-0.305,-1.368 -0.732,-2.448 -1.282,-3.241c-0.549,-0.794 -1.312,-1.441 -2.288,-1.941c-0.977,-0.501 -2.149,-0.751 -3.516,-0.751c-2.686,-0 -4.974,0.72 -6.866,2.161c-1.893,1.44 -3.241,3.466 -4.047,6.079c-0.22,1.758 -0.33,3.637 -0.33,5.639l0,21.9l-6.115,-0l-0,-21.57c-0,-1.807 -0.061,-3.375 -0.184,-4.706c-0.122,-1.33 -0.354,-2.624 -0.695,-3.882c-0.342,-1.257 -0.8,-2.276 -1.374,-3.058c-0.573,-0.781 -1.336,-1.403 -2.288,-1.867c-0.953,-0.464 -2.088,-0.696 -3.406,-0.696c-2.93,-0 -5.39,0.745 -7.379,2.234c-1.99,1.489 -3.327,3.467 -4.01,5.932c-0.22,1.88 -0.33,3.919 -0.33,6.116l0,21.497l-6.116,-0c-0.048,-25.122 -0.073,-38.513 -0.073,-40.174l5.127,0l0.769,5.75c1.221,-1.856 2.954,-3.418 5.2,-4.688c2.246,-1.269 4.798,-1.904 7.654,-1.904c1.489,0 2.863,0.153 4.12,0.458c1.257,0.305 2.307,0.69 3.149,1.153c0.843,0.464 1.593,1.02 2.253,1.667c0.659,0.647 1.171,1.281 1.538,1.904c0.366,0.623 0.671,1.276 0.915,1.959c2.93,-4.76 7.41,-7.141 13.44,-7.141c4.468,0 7.746,1.276 9.833,3.827c2.087,2.551 3.131,6.329 3.131,11.334l0,25.855l-6.116,-0Z" style="fill:#fff;fill-rule:nonzero;"/><path d="M471.435,395.479c-1.794,-2.136 -4.254,-3.204 -7.379,-3.204c-3.125,-0 -5.676,1.105 -7.654,3.314c-1.977,2.21 -3.137,5.231 -3.479,9.064l21.204,-0c-0,-3.98 -0.897,-7.038 -2.692,-9.174Zm-6.171,33.6c-5.834,0 -10.43,-1.855 -13.787,-5.566c-3.357,-3.711 -5.036,-8.789 -5.036,-15.235c0,-6.225 1.624,-11.273 4.871,-15.143c3.247,-3.869 7.519,-5.841 12.817,-5.914c4.981,0 8.93,1.703 11.847,5.109c2.918,3.406 4.376,7.953 4.376,13.641c0,0.293 -0.006,0.83 -0.018,1.611c-0.012,0.782 -0.018,1.343 -0.018,1.685l-27.576,0c0.073,4.565 1.251,8.124 3.534,10.675c2.283,2.551 5.353,3.827 9.21,3.827c4.248,0 8.509,-1.123 12.781,-3.369l0.952,4.944c-4.077,2.49 -8.728,3.735 -13.953,3.735Z" style="fill:#fff;fill-rule:nonzero;"/><path d="M506.866,387.697c1.099,0 2.1,0.073 3.003,0.22l-0.22,5.64c-1.123,-0.196 -2.099,-0.293 -2.929,-0.293c-3.418,-0 -6.195,1.19 -8.332,3.57c-2.136,2.381 -3.204,5.329 -3.204,8.844l-0,22.559l-6.116,-0c-0.024,-24.658 -0.036,-38.05 -0.036,-40.174l5.09,0l0.586,7.215c1.391,-2.271 3.161,-4.102 5.31,-5.493c2.148,-1.392 4.431,-2.088 6.848,-2.088Z" style="fill:#fff;fill-rule:nonzero;"/><path d="M532.428,429.079c-5.909,0 -10.529,-1.916 -13.862,-5.749c-3.332,-3.833 -4.998,-8.851 -4.998,-15.052c0.024,-6.25 1.727,-11.322 5.108,-15.216c3.382,-3.894 8.014,-5.841 13.898,-5.841c2.075,0 4.083,0.257 6.024,0.769c1.941,0.513 3.473,1.184 4.596,2.014l-1.684,4.761c-2.857,-1.538 -5.872,-2.307 -9.046,-2.307c-3.882,-0 -6.952,1.416 -9.21,4.248c-2.258,2.832 -3.387,6.702 -3.387,11.609c-0,4.785 1.116,8.575 3.35,11.371c2.234,2.795 5.329,4.193 9.284,4.193c3.149,-0 6.372,-0.855 9.668,-2.564l0.769,4.871c-2.661,1.929 -6.165,2.893 -10.51,2.893Z" style="fill:#fff;fill-rule:nonzero;"/><path d="M558.099,388.063l-0,40.174l-6.152,-0l-0,-40.174l6.152,0Zm-0,-14.611l-0,7.251l-6.152,-0l-0,-7.251l6.152,-0Z" style="fill:#fff;fill-rule:nonzero;"/><path d="M581.207,424.135c2.905,0 5.463,-0.799 7.672,-2.398c2.209,-1.6 3.632,-3.754 4.266,-6.464l0,-6.775c-0.122,0 -0.86,0.061 -2.215,0.183c-1.355,0.122 -2.24,0.195 -2.655,0.22c-5.298,0.464 -8.991,1.33 -11.078,2.6c-2.088,1.269 -3.131,3.308 -3.131,6.116c-0,2.148 0.635,3.772 1.904,4.87c1.27,1.099 3.015,1.648 5.237,1.648Zm13.293,4.102c-0.366,-1.563 -0.72,-3.247 -1.062,-5.054c-2.221,2.222 -4.309,3.76 -6.262,4.614c-1.953,0.855 -4.248,1.282 -6.885,1.282c-3.759,0 -6.781,-0.983 -9.063,-2.948c-2.283,-1.965 -3.424,-4.791 -3.424,-8.478c-0,-4.101 1.556,-7.141 4.669,-9.118c3.113,-1.978 7.599,-3.211 13.458,-3.699c0.806,-0.073 2.02,-0.177 3.644,-0.311c1.623,-0.135 2.838,-0.238 3.644,-0.312l-0,-3.552c-0,-2.832 -0.66,-4.932 -1.978,-6.299c-1.318,-1.367 -3.393,-2.051 -6.226,-2.051c-3.955,0 -7.946,0.977 -11.975,2.93c-0.122,-0.293 -0.439,-1.141 -0.952,-2.545c-0.512,-1.404 -0.781,-2.13 -0.805,-2.179c1.782,-1.001 3.9,-1.8 6.353,-2.399c2.454,-0.598 4.95,-0.897 7.489,-0.897c5.005,0 8.612,1.093 10.822,3.278c2.209,2.185 3.314,5.902 3.314,11.151l0,26.587l-4.761,-0Z" style="fill:#fff;fill-rule:nonzero;"/><path d="M620.611,428.969c-3.906,0 -6.671,-1.05 -8.295,-3.149c-1.623,-2.1 -2.435,-5.75 -2.435,-10.95l0,-42.407l6.079,-0.366l0,40.356c0,1.66 0.019,2.991 0.055,3.992c0.037,1.001 0.128,1.983 0.275,2.948c0.146,0.964 0.342,1.69 0.586,2.179c0.244,0.488 0.598,0.934 1.062,1.336c0.464,0.403 1.019,0.672 1.666,0.806c0.647,0.134 1.447,0.201 2.399,0.201c0.781,0 2.319,-0.146 4.614,-0.439l0.33,4.871c-2.515,0.415 -4.627,0.622 -6.336,0.622Z" style="fill:#fff;fill-rule:nonzero;"/></g><path d="M303.068,232.112l378.746,0" style="fill:none;stroke:#fff;stroke-width:6.43px;stroke-dasharray:0,19.29,0,0;"/></g><g><g><rect x="166.363" y="1150.16" width="6.335" height="54.163" style="fill:#fff;fill-rule:nonzero;"/><path d="M184.71,1204.32l0,-40.173l5.127,-0l0.769,5.749c1.587,-1.977 3.571,-3.57 5.951,-4.779c2.381,-1.208 4.95,-1.812 7.709,-1.812c4.639,-0 8.069,1.3 10.29,3.9c2.222,2.6 3.333,6.598 3.333,11.993l0,25.122l-6.116,0c0,-16.113 -0.012,-24.743 -0.036,-25.891c-0.098,-3.418 -0.788,-5.92 -2.069,-7.507c-1.282,-1.587 -3.424,-2.381 -6.427,-2.381c-3.15,0 -5.774,0.757 -7.874,2.271c-2.1,1.514 -3.467,3.479 -4.102,5.896c-0.244,1.636 -0.366,3.516 -0.366,5.64l0,21.972l-6.189,0Z" style="fill:#fff;fill-rule:nonzero;"/><path d="M240.887,1205.05c-3.955,-0 -6.763,-0.965 -8.423,-2.893c-1.66,-1.929 -2.539,-5.042 -2.637,-9.339l0,-24.133l-5.969,-0l0.257,-4.028l5.676,-0.513l2.087,-9.192l4.029,-0.146l-0,9.338l11.169,-0l0,4.541l-11.169,-0l-0,23.035c-0,3.051 0.463,5.2 1.391,6.445c0.928,1.245 2.515,1.868 4.761,1.868c0.806,-0 2.551,-0.196 5.237,-0.586l0.256,4.834c-2.905,0.512 -5.127,0.769 -6.665,0.769Z" style="fill:#fff;fill-rule:nonzero;"/><path d="M276.831,1171.56c-1.795,-2.136 -4.254,-3.205 -7.379,-3.205c-3.125,0 -5.677,1.105 -7.654,3.315c-1.978,2.209 -3.138,5.23 -3.479,9.063l21.203,0c0,-3.979 -0.897,-7.037 -2.691,-9.173Zm-6.171,33.6c-5.835,-0 -10.431,-1.856 -13.788,-5.567c-3.357,-3.711 -5.035,-8.789 -5.035,-15.234c-0,-6.226 1.623,-11.273 4.87,-15.143c3.247,-3.87 7.52,-5.841 12.818,-5.914c4.98,-0 8.929,1.703 11.847,5.108c2.917,3.406 4.376,7.953 4.376,13.642c-0,0.293 -0.006,0.83 -0.018,1.611c-0.013,0.781 -0.019,1.343 -0.019,1.685l-27.575,-0c0.073,4.565 1.251,8.123 3.534,10.675c2.282,2.551 5.352,3.827 9.21,3.827c4.248,-0 8.508,-1.124 12.78,-3.37l0.953,4.944c-4.078,2.49 -8.728,3.736 -13.953,3.736Z" style="fill:#fff;fill-rule:nonzero;"/><path d="M305.047,1205.05c-3.906,-0 -6.671,-1.05 -8.294,-3.15c-1.624,-2.099 -2.436,-5.749 -2.436,-10.949l0,-42.408l6.079,-0.366l0,40.357c0,1.66 0.019,2.99 0.055,3.991c0.037,1.001 0.128,1.984 0.275,2.948c0.146,0.965 0.342,1.691 0.586,2.179c0.244,0.489 0.598,0.934 1.062,1.337c0.464,0.403 1.019,0.671 1.666,0.806c0.647,0.134 1.447,0.201 2.399,0.201c0.781,0 2.319,-0.146 4.614,-0.439l0.33,4.87c-2.515,0.415 -4.627,0.623 -6.336,0.623Z" style="fill:#fff;fill-rule:nonzero;"/><path d="M322.296,1164.15l-0,40.173l-6.153,0l0,-40.173l6.153,-0Zm-0,-14.612l-0,7.251l-6.153,0l0,-7.251l6.153,0Z" style="fill:#fff;fill-rule:nonzero;"/><path d="M349.395,1199.08c2.076,0 3.894,-0.366 5.457,-1.098c1.562,-0.733 2.783,-1.746 3.662,-3.04c0.879,-1.294 1.532,-2.734 1.959,-4.321c0.427,-1.587 0.641,-3.32 0.641,-5.2l0,-2.966c0,-1.954 -0.22,-3.754 -0.659,-5.402c-0.44,-1.648 -1.117,-3.125 -2.033,-4.431c-0.915,-1.306 -2.136,-2.326 -3.662,-3.058c-1.526,-0.733 -3.302,-1.099 -5.328,-1.099c-1.685,0 -3.217,0.318 -4.596,0.952c-1.379,0.635 -2.515,1.471 -3.406,2.509c-0.891,1.038 -1.648,2.246 -2.27,3.625c-0.623,1.38 -1.068,2.778 -1.337,4.194c-0.268,1.416 -0.403,2.844 -0.403,4.284c0,1.416 0.147,2.82 0.44,4.212c0.293,1.391 0.757,2.746 1.391,4.065c0.635,1.318 1.404,2.472 2.307,3.46c0.904,0.989 2.033,1.789 3.388,2.399c1.355,0.61 2.838,0.915 4.449,0.915Zm-9.411,23.621l-0.55,-5.53l7.471,0c2.075,0 3.882,-0.146 5.42,-0.439c1.538,-0.293 2.82,-0.775 3.845,-1.447c1.026,-0.671 1.856,-1.416 2.49,-2.234c0.635,-0.817 1.117,-1.879 1.447,-3.186c0.33,-1.306 0.549,-2.6 0.659,-3.881c0.11,-1.282 0.165,-2.851 0.165,-4.706l0,-3.552c-1.465,2.099 -3.162,3.717 -5.09,4.852c-1.929,1.135 -4.383,1.703 -7.361,1.703c-2.295,-0 -4.413,-0.397 -6.354,-1.19c-1.941,-0.794 -3.577,-1.85 -4.907,-3.168c-1.331,-1.319 -2.466,-2.844 -3.406,-4.578c-0.94,-1.733 -1.623,-3.528 -2.051,-5.383c-0.427,-1.856 -0.641,-3.723 -0.641,-5.603c0,-2.93 0.361,-5.64 1.081,-8.13c0.72,-2.49 1.788,-4.712 3.204,-6.665c1.416,-1.953 3.278,-3.485 5.585,-4.596c2.307,-1.111 4.95,-1.666 7.928,-1.666c2.637,-0 4.938,0.506 6.903,1.519c1.966,1.014 3.73,2.57 5.292,4.67l0,-5.347l5.969,-0l0,37.28c0,1.709 -0.042,3.205 -0.128,4.486c-0.085,1.282 -0.293,2.704 -0.622,4.267c-0.33,1.562 -0.776,2.905 -1.337,4.028c-0.562,1.123 -1.349,2.252 -2.362,3.387c-1.013,1.136 -2.222,2.051 -3.626,2.747c-1.403,0.696 -3.143,1.263 -5.218,1.703c-2.075,0.439 -4.419,0.659 -7.031,0.659l-6.775,0Z" style="fill:#fff;fill-rule:nonzero;"/><path d="M400.427,1171.56c-1.795,-2.136 -4.254,-3.205 -7.379,-3.205c-3.125,0 -5.677,1.105 -7.654,3.315c-1.978,2.209 -3.137,5.23 -3.479,9.063l21.204,0c-0,-3.979 -0.898,-7.037 -2.692,-9.173Zm-6.171,33.6c-5.835,-0 -10.431,-1.856 -13.788,-5.567c-3.357,-3.711 -5.035,-8.789 -5.035,-15.234c-0,-6.226 1.623,-11.273 4.871,-15.143c3.247,-3.87 7.519,-5.841 12.817,-5.914c4.98,-0 8.929,1.703 11.847,5.108c2.917,3.406 4.376,7.953 4.376,13.642c0,0.293 -0.006,0.83 -0.018,1.611c-0.012,0.781 -0.019,1.343 -0.019,1.685l-27.575,-0c0.073,4.565 1.251,8.123 3.534,10.675c2.282,2.551 5.353,3.827 9.21,3.827c4.248,-0 8.508,-1.124 12.781,-3.37l0.952,4.944c-4.077,2.49 -8.728,3.736 -13.953,3.736Z" style="fill:#fff;fill-rule:nonzero;"/><path d="M417.84,1204.32l0,-40.173l5.127,-0l0.769,5.749c1.587,-1.977 3.571,-3.57 5.951,-4.779c2.38,-1.208 4.95,-1.812 7.709,-1.812c4.639,-0 8.069,1.3 10.29,3.9c2.222,2.6 3.333,6.598 3.333,11.993l-0,25.122l-6.116,0c0,-16.113 -0.012,-24.743 -0.036,-25.891c-0.098,-3.418 -0.788,-5.92 -2.07,-7.507c-1.281,-1.587 -3.424,-2.381 -6.427,-2.381c-3.149,0 -5.773,0.757 -7.873,2.271c-2.1,1.514 -3.467,3.479 -4.102,5.896c-0.244,1.636 -0.366,3.516 -0.366,5.64l0,21.972l-6.189,0Z" style="fill:#fff;fill-rule:nonzero;"/><path d="M478.192,1205.16c-5.908,-0 -10.529,-1.917 -13.861,-5.75c-3.333,-3.833 -4.999,-8.85 -4.999,-15.051c0.024,-6.25 1.727,-11.322 5.109,-15.216c3.381,-3.894 8.013,-5.841 13.897,-5.841c2.075,-0 4.083,0.256 6.024,0.769c1.941,0.512 3.473,1.184 4.596,2.014l-1.684,4.761c-2.857,-1.538 -5.872,-2.308 -9.046,-2.308c-3.881,0 -6.952,1.417 -9.21,4.249c-2.258,2.832 -3.387,6.701 -3.387,11.608c-0,4.786 1.117,8.576 3.351,11.371c2.233,2.796 5.328,4.193 9.283,4.193c3.149,0 6.372,-0.854 9.668,-2.563l0.769,4.871c-2.661,1.928 -6.165,2.893 -10.51,2.893Z" style="fill:#fff;fill-rule:nonzero;"/><path d="M503.863,1164.15l0,40.173l-6.152,0l-0,-40.173l6.152,-0Zm0,-14.612l0,7.251l-6.152,0l-0,-7.251l6.152,0Z" style="fill:#fff;fill-rule:nonzero;"/><path d="M526.971,1200.22c2.905,-0 5.463,-0.8 7.672,-2.399c2.21,-1.599 3.632,-3.754 4.267,-6.464l-0,-6.774c-0.123,-0 -0.861,0.061 -2.216,0.183c-1.355,0.122 -2.24,0.195 -2.655,0.219c-5.298,0.464 -8.991,1.331 -11.078,2.6c-2.087,1.27 -3.131,3.309 -3.131,6.116c-0,2.149 0.635,3.772 1.904,4.871c1.27,1.098 3.015,1.648 5.237,1.648Zm13.293,4.101c-0.366,-1.562 -0.72,-3.247 -1.062,-5.053c-2.221,2.221 -4.309,3.759 -6.262,4.614c-1.953,0.854 -4.248,1.282 -6.884,1.282c-3.76,-0 -6.781,-0.983 -9.064,-2.948c-2.283,-1.966 -3.424,-4.792 -3.424,-8.478c-0,-4.102 1.556,-7.141 4.669,-9.119c3.113,-1.977 7.599,-3.21 13.458,-3.699c0.806,-0.073 2.02,-0.177 3.644,-0.311c1.623,-0.134 2.838,-0.238 3.644,-0.311l-0,-3.552c-0,-2.832 -0.659,-4.932 -1.978,-6.299c-1.318,-1.367 -3.393,-2.051 -6.225,-2.051c-3.955,0 -7.947,0.977 -11.975,2.93c-0.123,-0.293 -0.44,-1.142 -0.953,-2.545c-0.512,-1.404 -0.781,-2.131 -0.805,-2.179c1.782,-1.001 3.9,-1.801 6.353,-2.399c2.454,-0.598 4.95,-0.897 7.489,-0.897c5.005,-0 8.613,1.092 10.822,3.277c2.21,2.185 3.314,5.902 3.314,11.151l0,26.587l-4.761,0Z" style="fill:#fff;fill-rule:nonzero;"/><path d="M169.403,1281.2c-0,4.761 1.056,8.576 3.167,11.444c2.112,2.869 5.194,4.303 9.247,4.303c4.004,0 7.025,-1.428 9.064,-4.284c2.039,-2.857 3.058,-6.702 3.058,-11.536c-0,-4.907 -1.007,-8.771 -3.021,-11.591c-2.015,-2.819 -5.085,-4.229 -9.211,-4.229c-4.004,-0 -7.055,1.44 -9.155,4.321c-2.1,2.881 -3.149,6.738 -3.149,11.572Zm30.871,-0.11c0,6.226 -1.66,11.274 -4.98,15.143c-3.321,3.87 -7.91,5.805 -13.77,5.805c-5.639,-0 -10.125,-1.954 -13.458,-5.86c-3.333,-3.906 -4.999,-8.923 -4.999,-15.051c0,-6.25 1.673,-11.304 5.017,-15.161c3.345,-3.858 7.935,-5.786 13.77,-5.786c5.737,-0 10.242,1.934 13.513,5.804c3.272,3.87 4.907,8.905 4.907,15.106Z" style="fill:#fff;fill-rule:nonzero;"/><path d="M226.934,1260.66c1.099,-0 2.1,0.073 3.003,0.219l-0.219,5.64c-1.123,-0.195 -2.1,-0.293 -2.93,-0.293c-3.418,0 -6.195,1.19 -8.331,3.571c-2.137,2.38 -3.205,5.328 -3.205,8.844l0,22.558l-6.115,0c-0.025,-24.658 -0.037,-38.049 -0.037,-40.173l5.09,-0l0.586,7.214c1.392,-2.27 3.162,-4.101 5.31,-5.493c2.149,-1.391 4.431,-2.087 6.848,-2.087Z" style="fill:#fff;fill-rule:nonzero;"/><path d="M250.994,1295.96c2.076,0 3.895,-0.366 5.457,-1.098c1.563,-0.733 2.783,-1.746 3.662,-3.04c0.879,-1.294 1.532,-2.734 1.959,-4.321c0.428,-1.587 0.641,-3.32 0.641,-5.2l0,-2.966c0,-1.954 -0.219,-3.754 -0.659,-5.402c-0.439,-1.648 -1.117,-3.125 -2.032,-4.431c-0.916,-1.306 -2.137,-2.326 -3.663,-3.058c-1.525,-0.733 -3.302,-1.099 -5.328,-1.099c-1.684,0 -3.216,0.318 -4.596,0.952c-1.379,0.635 -2.514,1.471 -3.406,2.509c-0.891,1.038 -1.648,2.246 -2.27,3.625c-0.623,1.38 -1.068,2.778 -1.337,4.194c-0.268,1.416 -0.403,2.844 -0.403,4.284c0,1.416 0.147,2.82 0.44,4.212c0.293,1.391 0.757,2.746 1.391,4.065c0.635,1.318 1.404,2.472 2.308,3.46c0.903,0.989 2.032,1.789 3.387,2.399c1.355,0.61 2.838,0.915 4.449,0.915Zm-9.411,23.621l-0.549,-5.53l7.47,0c2.075,0 3.882,-0.146 5.42,-0.439c1.538,-0.293 2.82,-0.775 3.845,-1.447c1.026,-0.671 1.856,-1.416 2.491,-2.234c0.634,-0.817 1.117,-1.879 1.446,-3.186c0.33,-1.306 0.549,-2.6 0.659,-3.881c0.11,-1.282 0.165,-2.851 0.165,-4.706l0,-3.552c-1.465,2.099 -3.161,3.717 -5.09,4.852c-1.929,1.135 -4.383,1.703 -7.361,1.703c-2.295,-0 -4.413,-0.397 -6.354,-1.19c-1.941,-0.794 -3.576,-1.85 -4.907,-3.168c-1.331,-1.319 -2.466,-2.844 -3.406,-4.578c-0.94,-1.733 -1.623,-3.528 -2.051,-5.383c-0.427,-1.856 -0.64,-3.723 -0.64,-5.603c-0,-2.93 0.36,-5.64 1.08,-8.13c0.72,-2.49 1.788,-4.712 3.204,-6.665c1.416,-1.953 3.278,-3.485 5.585,-4.596c2.307,-1.111 4.95,-1.666 7.928,-1.666c2.637,-0 4.938,0.506 6.903,1.519c1.966,1.014 3.73,2.57 5.292,4.67l0,-5.347l5.969,-0l0,37.28c0,1.709 -0.042,3.205 -0.128,4.486c-0.085,1.282 -0.293,2.704 -0.622,4.267c-0.33,1.562 -0.775,2.905 -1.337,4.028c-0.561,1.123 -1.349,2.252 -2.362,3.387c-1.013,1.136 -2.222,2.051 -3.625,2.747c-1.404,0.696 -3.144,1.263 -5.219,1.703c-2.075,0.439 -4.419,0.659 -7.031,0.659l-6.775,0Z" style="fill:#fff;fill-rule:nonzero;"/><path d="M290.472,1297.1c2.905,-0 5.463,-0.8 7.672,-2.399c2.21,-1.599 3.632,-3.754 4.266,-6.464l0,-6.774c-0.122,-0 -0.86,0.061 -2.215,0.183c-1.355,0.122 -2.24,0.195 -2.655,0.219c-5.298,0.464 -8.991,1.331 -11.078,2.6c-2.087,1.27 -3.131,3.309 -3.131,6.116c-0,2.149 0.635,3.772 1.904,4.871c1.27,1.098 3.015,1.648 5.237,1.648Zm13.293,4.101c-0.366,-1.562 -0.72,-3.247 -1.062,-5.053c-2.221,2.221 -4.309,3.759 -6.262,4.614c-1.953,0.854 -4.248,1.282 -6.885,1.282c-3.759,-0 -6.781,-0.983 -9.063,-2.948c-2.283,-1.966 -3.424,-4.792 -3.424,-8.478c-0,-4.102 1.556,-7.141 4.669,-9.119c3.113,-1.977 7.599,-3.21 13.458,-3.699c0.806,-0.073 2.02,-0.177 3.644,-0.311c1.623,-0.134 2.838,-0.238 3.644,-0.311l-0,-3.552c-0,-2.832 -0.659,-4.932 -1.978,-6.299c-1.318,-1.367 -3.393,-2.051 -6.225,-2.051c-3.955,0 -7.947,0.977 -11.975,2.93c-0.123,-0.293 -0.44,-1.142 -0.953,-2.545c-0.512,-1.404 -0.781,-2.131 -0.805,-2.179c1.782,-1.001 3.9,-1.801 6.353,-2.399c2.454,-0.598 4.95,-0.897 7.489,-0.897c5.005,-0 8.613,1.092 10.822,3.277c2.209,2.185 3.314,5.902 3.314,11.151l0,26.587l-4.761,0Z" style="fill:#fff;fill-rule:nonzero;"/><path d="M319.073,1301.2l0,-40.173l5.127,-0l0.769,5.749c1.587,-1.977 3.571,-3.57 5.951,-4.779c2.38,-1.208 4.95,-1.812 7.709,-1.812c4.638,-0 8.069,1.3 10.29,3.9c2.222,2.6 3.333,6.598 3.333,11.993l-0,25.122l-6.116,0c0,-16.113 -0.012,-24.743 -0.037,-25.891c-0.097,-3.418 -0.787,-5.92 -2.069,-7.507c-1.281,-1.587 -3.424,-2.381 -6.427,-2.381c-3.149,0 -5.774,0.757 -7.873,2.271c-2.1,1.514 -3.467,3.479 -4.102,5.896c-0.244,1.636 -0.366,3.516 -0.366,5.64l0,21.972l-6.189,0Z" style="fill:#fff;fill-rule:nonzero;"/><path d="M369.647,1261.02l-0,40.173l-6.153,0l0,-40.173l6.153,-0Zm-0,-14.612l-0,7.251l-6.153,0l0,-7.251l6.153,0Z" style="fill:#fff;fill-rule:nonzero;"/><path d="M407,1301.2l-28.051,0l-0,-4.614l20.544,-30.725l-19.995,-0l-0,-4.834l26.843,-0l0,4.834l-20.508,30.505l21.167,0l0,4.834Z" style="fill:#fff;fill-rule:nonzero;"/><path d="M426.153,1297.1c2.905,-0 5.463,-0.8 7.672,-2.399c2.21,-1.599 3.632,-3.754 4.267,-6.464l-0,-6.774c-0.122,-0 -0.861,0.061 -2.216,0.183c-1.355,0.122 -2.24,0.195 -2.655,0.219c-5.298,0.464 -8.99,1.331 -11.078,2.6c-2.087,1.27 -3.131,3.309 -3.131,6.116c0,2.149 0.635,3.772 1.904,4.871c1.27,1.098 3.015,1.648 5.237,1.648Zm13.294,4.101c-0.367,-1.562 -0.721,-3.247 -1.062,-5.053c-2.222,2.221 -4.309,3.759 -6.263,4.614c-1.953,0.854 -4.248,1.282 -6.884,1.282c-3.76,-0 -6.781,-0.983 -9.064,-2.948c-2.283,-1.966 -3.424,-4.792 -3.424,-8.478c-0,-4.102 1.556,-7.141 4.669,-9.119c3.113,-1.977 7.599,-3.21 13.458,-3.699c0.806,-0.073 2.021,-0.177 3.644,-0.311c1.624,-0.134 2.838,-0.238 3.644,-0.311l-0,-3.552c-0,-2.832 -0.659,-4.932 -1.978,-6.299c-1.318,-1.367 -3.393,-2.051 -6.225,-2.051c-3.955,0 -7.947,0.977 -11.975,2.93c-0.122,-0.293 -0.44,-1.142 -0.952,-2.545c-0.513,-1.404 -0.782,-2.131 -0.806,-2.179c1.782,-1.001 3.9,-1.801 6.354,-2.399c2.453,-0.598 4.95,-0.897 7.489,-0.897c5.005,-0 8.612,1.092 10.821,3.277c2.21,2.185 3.314,5.902 3.314,11.151l0,26.587l-4.76,0Z" style="fill:#fff;fill-rule:nonzero;"/><path d="M471.746,1302.04c-5.908,-0 -10.528,-1.917 -13.861,-5.75c-3.332,-3.833 -4.998,-8.85 -4.998,-15.051c0.024,-6.25 1.727,-11.322 5.108,-15.216c3.382,-3.894 8.014,-5.841 13.898,-5.841c2.075,-0 4.083,0.256 6.024,0.769c1.941,0.512 3.473,1.184 4.596,2.014l-1.685,4.761c-2.856,-1.538 -5.871,-2.308 -9.045,-2.308c-3.882,0 -6.952,1.417 -9.21,4.249c-2.258,2.832 -3.388,6.701 -3.388,11.608c0,4.786 1.117,8.576 3.351,11.371c2.234,2.796 5.329,4.193 9.284,4.193c3.149,0 6.372,-0.854 9.668,-2.563l0.769,4.871c-2.661,1.928 -6.165,2.893 -10.511,2.893Z" style="fill:#fff;fill-rule:nonzero;"/><path d="M497.418,1261.02l-0,40.173l-6.153,0l0,-40.173l6.153,-0Zm-0,-14.612l-0,7.251l-6.153,0l0,-7.251l6.153,0Z" style="fill:#fff;fill-rule:nonzero;"/><path d="M513.385,1281.2c-0,4.761 1.056,8.576 3.167,11.444c2.112,2.869 5.194,4.303 9.247,4.303c4.004,0 7.025,-1.428 9.064,-4.284c2.038,-2.857 3.058,-6.702 3.058,-11.536c-0,-4.907 -1.007,-8.771 -3.021,-11.591c-2.015,-2.819 -5.085,-4.229 -9.211,-4.229c-4.004,-0 -7.055,1.44 -9.155,4.321c-2.1,2.881 -3.149,6.738 -3.149,11.572Zm30.871,-0.11c0,6.226 -1.66,11.274 -4.98,15.143c-3.321,3.87 -7.91,5.805 -13.77,5.805c-5.639,-0 -10.126,-1.954 -13.458,-5.86c-3.333,-3.906 -4.999,-8.923 -4.999,-15.051c0,-6.25 1.673,-11.304 5.017,-15.161c3.345,-3.858 7.935,-5.786 13.77,-5.786c5.737,-0 10.241,1.934 13.513,5.804c3.271,3.87 4.907,8.905 4.907,15.106Z" style="fill:#fff;fill-rule:nonzero;"/><path d="M552.899,1301.2l-0,-40.173l5.127,-0l0.769,5.749c1.587,-1.977 3.57,-3.57 5.951,-4.779c2.38,-1.208 4.95,-1.812 7.708,-1.812c4.639,-0 8.069,1.3 10.291,3.9c2.222,2.6 3.332,6.598 3.332,11.993l0,25.122l-6.115,0c-0,-16.113 -0.012,-24.743 -0.037,-25.891c-0.098,-3.418 -0.787,-5.92 -2.069,-7.507c-1.282,-1.587 -3.424,-2.381 -6.427,-2.381c-3.149,0 -5.774,0.757 -7.873,2.271c-2.1,1.514 -3.467,3.479 -4.102,5.896c-0.244,1.636 -0.366,3.516 -0.366,5.64l-0,21.972l-6.189,0Z" style="fill:#fff;fill-rule:nonzero;"/><path d="M607.867,1297.1c2.905,-0 5.463,-0.8 7.672,-2.399c2.21,-1.599 3.632,-3.754 4.267,-6.464l-0,-6.774c-0.123,-0 -0.861,0.061 -2.216,0.183c-1.355,0.122 -2.24,0.195 -2.655,0.219c-5.298,0.464 -8.991,1.331 -11.078,2.6c-2.087,1.27 -3.131,3.309 -3.131,6.116c-0,2.149 0.635,3.772 1.904,4.871c1.27,1.098 3.015,1.648 5.237,1.648Zm13.293,4.101c-0.366,-1.562 -0.72,-3.247 -1.062,-5.053c-2.221,2.221 -4.309,3.759 -6.262,4.614c-1.953,0.854 -4.248,1.282 -6.884,1.282c-3.76,-0 -6.781,-0.983 -9.064,-2.948c-2.283,-1.966 -3.424,-4.792 -3.424,-8.478c-0,-4.102 1.556,-7.141 4.669,-9.119c3.113,-1.977 7.599,-3.21 13.458,-3.699c0.806,-0.073 2.02,-0.177 3.644,-0.311c1.623,-0.134 2.838,-0.238 3.644,-0.311l-0,-3.552c-0,-2.832 -0.659,-4.932 -1.978,-6.299c-1.318,-1.367 -3.393,-2.051 -6.225,-2.051c-3.955,0 -7.947,0.977 -11.975,2.93c-0.123,-0.293 -0.44,-1.142 -0.953,-2.545c-0.512,-1.404 -0.781,-2.131 -0.805,-2.179c1.782,-1.001 3.9,-1.801 6.353,-2.399c2.454,-0.598 4.95,-0.897 7.489,-0.897c5.005,-0 8.613,1.092 10.822,3.277c2.209,2.185 3.314,5.902 3.314,11.151l0,26.587l-4.761,0Z" style="fill:#fff;fill-rule:nonzero;"/><path d="M647.271,1301.93c-3.906,-0 -6.671,-1.05 -8.294,-3.15c-1.624,-2.099 -2.436,-5.749 -2.436,-10.949l0,-42.408l6.079,-0.366l0,40.357c0,1.66 0.019,2.99 0.055,3.991c0.037,1.001 0.129,1.984 0.275,2.948c0.147,0.965 0.342,1.691 0.586,2.179c0.244,0.489 0.598,0.934 1.062,1.337c0.464,0.403 1.019,0.671 1.666,0.806c0.647,0.134 1.447,0.201 2.399,0.201c0.781,0 2.319,-0.146 4.614,-0.439l0.33,4.87c-2.515,0.415 -4.627,0.623 -6.336,0.623Z" style="fill:#fff;fill-rule:nonzero;"/><path d="M159.808,1357.9l6.482,-0l12.671,33.435l11.279,-33.435l6.482,-0c-10.84,29.834 -16.443,45.215 -16.809,46.143c-1.685,4.223 -3.723,7.318 -6.116,9.283c-2.392,1.965 -5.542,2.948 -9.448,2.948c-1.172,-0 -2.405,-0.098 -3.699,-0.293l-0.366,-5.2c1.367,0.097 2.393,0.146 3.076,0.146c2.759,0 4.852,-0.506 6.281,-1.519c1.428,-1.014 2.704,-2.912 3.827,-5.695c1.001,-2.564 1.745,-4.541 2.234,-5.933l-15.894,-39.88Z" style="fill:#fff;fill-rule:nonzero;"/><path d="M236.676,1392.83c2.075,0 3.894,-0.366 5.456,-1.098c1.563,-0.733 2.783,-1.746 3.662,-3.04c0.879,-1.294 1.532,-2.734 1.96,-4.321c0.427,-1.587 0.64,-3.32 0.64,-5.2l0,-2.966c0,-1.954 -0.219,-3.754 -0.659,-5.402c-0.439,-1.648 -1.117,-3.125 -2.032,-4.431c-0.916,-1.306 -2.137,-2.326 -3.662,-3.058c-1.526,-0.733 -3.302,-1.099 -5.329,-1.099c-1.684,0 -3.216,0.318 -4.596,0.952c-1.379,0.635 -2.514,1.471 -3.405,2.509c-0.892,1.038 -1.648,2.246 -2.271,3.625c-0.623,1.38 -1.068,2.778 -1.337,4.194c-0.268,1.416 -0.402,2.844 -0.402,4.284c-0,1.416 0.146,2.82 0.439,4.212c0.293,1.391 0.757,2.746 1.392,4.065c0.634,1.318 1.403,2.472 2.307,3.46c0.903,0.989 2.032,1.789 3.387,2.399c1.355,0.61 2.838,0.915 4.45,0.915Zm-9.412,23.621l-0.549,-5.53l7.47,0c2.076,0 3.882,-0.146 5.42,-0.439c1.538,-0.293 2.82,-0.775 3.846,-1.447c1.025,-0.671 1.855,-1.416 2.49,-2.234c0.635,-0.817 1.117,-1.879 1.446,-3.186c0.33,-1.306 0.55,-2.6 0.659,-3.881c0.11,-1.282 0.165,-2.851 0.165,-4.706l0,-3.552c-1.465,2.099 -3.161,3.717 -5.09,4.852c-1.929,1.135 -4.382,1.703 -7.361,1.703c-2.295,-0 -4.413,-0.397 -6.354,-1.19c-1.941,-0.794 -3.576,-1.85 -4.907,-3.168c-1.33,-1.319 -2.466,-2.844 -3.406,-4.578c-0.94,-1.733 -1.623,-3.528 -2.05,-5.383c-0.428,-1.856 -0.641,-3.723 -0.641,-5.603c-0,-2.93 0.36,-5.64 1.08,-8.13c0.72,-2.49 1.788,-4.712 3.204,-6.665c1.416,-1.953 3.278,-3.485 5.585,-4.596c2.307,-1.111 4.95,-1.666 7.929,-1.666c2.636,-0 4.937,0.506 6.903,1.519c1.965,1.014 3.729,2.57 5.291,4.67l0,-5.347l5.97,-0l-0,37.28c-0,1.709 -0.043,3.205 -0.129,4.486c-0.085,1.282 -0.293,2.704 -0.622,4.267c-0.33,1.562 -0.775,2.905 -1.337,4.028c-0.561,1.123 -1.349,2.252 -2.362,3.387c-1.013,1.136 -2.222,2.051 -3.625,2.747c-1.404,0.696 -3.144,1.263 -5.219,1.703c-2.075,0.439 -4.419,0.659 -7.031,0.659l-6.775,0Z" style="fill:#fff;fill-rule:nonzero;"/><path d="M287.707,1365.31c-1.794,-2.136 -4.254,-3.205 -7.379,-3.205c-3.125,0 -5.676,1.105 -7.654,3.315c-1.977,2.209 -3.137,5.23 -3.479,9.063l21.204,0c-0,-3.979 -0.897,-7.037 -2.692,-9.173Zm-6.171,33.6c-5.834,-0 -10.43,-1.856 -13.787,-5.567c-3.357,-3.711 -5.036,-8.789 -5.036,-15.234c0,-6.226 1.624,-11.273 4.871,-15.143c3.247,-3.87 7.519,-5.841 12.817,-5.914c4.981,-0 8.93,1.703 11.847,5.108c2.918,3.406 4.376,7.953 4.376,13.642c0,0.293 -0.006,0.83 -0.018,1.611c-0.012,0.781 -0.018,1.343 -0.018,1.685l-27.576,-0c0.073,4.565 1.251,8.123 3.534,10.675c2.283,2.551 5.353,3.827 9.21,3.827c4.248,-0 8.508,-1.124 12.781,-3.37l0.952,4.944c-4.077,2.49 -8.728,3.736 -13.953,3.736Z" style="fill:#fff;fill-rule:nonzero;"/><path d="M317.096,1398.91c-2.735,-0 -5.256,-0.293 -7.563,-0.879c-2.307,-0.586 -4.181,-1.343 -5.621,-2.271l0.769,-5.163c4.077,2.172 8.081,3.259 12.012,3.259c5.957,-0 9.021,-2.1 9.192,-6.299c-0,-1.782 -0.635,-3.186 -1.905,-4.211c-1.269,-1.026 -3.759,-2.173 -7.47,-3.443l-3.04,-1.062c-3.516,-1.172 -6.024,-2.624 -7.526,-4.358c-1.501,-1.733 -2.264,-3.894 -2.288,-6.482c-0,-3.149 1.263,-5.761 3.79,-7.837c2.527,-2.075 5.987,-3.112 10.382,-3.112c4.541,-0 8.679,0.879 12.415,2.636l-1.795,4.688c-3.784,-1.563 -7.324,-2.344 -10.62,-2.344c-2.564,0 -4.572,0.507 -6.024,1.52c-1.453,1.013 -2.179,2.435 -2.179,4.266c-0,1.563 0.525,2.759 1.575,3.589c1.049,0.83 3.149,1.782 6.298,2.857c0.806,0.293 1.819,0.634 3.04,1.025c4.053,1.318 6.921,2.875 8.606,4.669c1.684,1.795 2.527,4.218 2.527,7.269c-0.049,3.711 -1.38,6.586 -3.992,8.625c-2.612,2.038 -6.14,3.058 -10.583,3.058Z" style="fill:#fff;fill-rule:nonzero;"/><path d="M352.838,1398.8c-3.955,-0 -6.763,-0.965 -8.423,-2.893c-1.66,-1.929 -2.539,-5.042 -2.637,-9.339l0,-24.133l-5.969,-0l0.256,-4.028l5.677,-0.513l2.087,-9.192l4.028,-0.146l0,9.338l11.17,-0l-0,4.541l-11.17,-0l0,23.035c0,3.051 0.464,5.2 1.392,6.445c0.928,1.245 2.515,1.868 4.761,1.868c0.805,-0 2.551,-0.196 5.236,-0.586l0.257,4.834c-2.905,0.512 -5.127,0.769 -6.665,0.769Z" style="fill:#fff;fill-rule:nonzero;"/><path d="M373.236,1357.9l-0,40.173l-6.153,0l0,-40.173l6.153,-0Zm-0,-14.612l-0,7.251l-6.153,0l0,-7.251l6.153,0Z" style="fill:#fff;fill-rule:nonzero;"/><path d="M415.46,1338.38l-11.902,14.209l-4.175,-0l6.812,-14.209l9.265,-0Zm-26.258,39.697c0,4.761 1.056,8.576 3.168,11.444c2.112,2.869 5.194,4.303 9.247,4.303c4.004,0 7.025,-1.428 9.064,-4.284c2.038,-2.857 3.058,-6.702 3.058,-11.536c-0,-4.907 -1.007,-8.771 -3.022,-11.591c-2.014,-2.819 -5.084,-4.229 -9.21,-4.229c-4.004,-0 -7.055,1.44 -9.155,4.321c-2.1,2.881 -3.15,6.738 -3.15,11.572Zm30.872,-0.11c0,6.226 -1.66,11.274 -4.98,15.143c-3.321,3.87 -7.911,5.805 -13.77,5.805c-5.64,-0 -10.126,-1.954 -13.458,-5.86c-3.333,-3.906 -4.999,-8.923 -4.999,-15.051c0,-6.25 1.672,-11.304 5.017,-15.161c3.345,-3.858 7.935,-5.786 13.77,-5.786c5.737,-0 10.241,1.934 13.513,5.804c3.271,3.87 4.907,8.905 4.907,15.106Z" style="fill:#fff;fill-rule:nonzero;"/><path d="M428.717,1398.07l-0,-40.173l5.127,-0l0.769,5.749c1.587,-1.977 3.57,-3.57 5.951,-4.779c2.38,-1.208 4.95,-1.812 7.708,-1.812c4.639,-0 8.069,1.3 10.291,3.9c2.222,2.6 3.332,6.598 3.332,11.993l0,25.122l-6.115,0c-0,-16.113 -0.013,-24.743 -0.037,-25.891c-0.098,-3.418 -0.787,-5.92 -2.069,-7.507c-1.282,-1.587 -3.424,-2.381 -6.427,-2.381c-3.149,0 -5.774,0.757 -7.874,2.271c-2.099,1.514 -3.466,3.479 -4.101,5.896c-0.244,1.636 -0.366,3.516 -0.366,5.64l-0,21.972l-6.189,0Z" style="fill:#fff;fill-rule:nonzero;"/><path d="M506.463,1393.64c4.029,0 7.025,-1.294 8.991,-3.882c1.965,-2.588 2.948,-6.286 2.948,-11.096c-0,-5.42 -0.946,-9.503 -2.838,-12.25c-1.893,-2.746 -4.95,-4.12 -9.174,-4.12c-1.88,0 -3.54,0.403 -4.98,1.209c-1.441,0.806 -2.601,1.929 -3.479,3.369c-0.879,1.441 -1.545,3.095 -1.996,4.962c-0.452,1.868 -0.678,3.913 -0.678,6.134c0,3.125 0.385,5.835 1.154,8.13c0.769,2.295 2.008,4.126 3.717,5.493c1.709,1.368 3.821,2.051 6.335,2.051Zm12.049,-1.391c-1.319,2.026 -3.077,3.637 -5.274,4.834c-2.197,1.196 -4.651,1.794 -7.361,1.794c-5.298,-0 -9.448,-1.886 -12.451,-5.658c-3.003,-3.772 -4.504,-8.905 -4.504,-15.399c-0,-6.201 1.526,-11.212 4.577,-15.033c3.052,-3.821 7.141,-5.731 12.268,-5.731c2.662,-0 5.17,0.58 7.526,1.739c2.356,1.16 4.12,2.716 5.292,4.669l-0.11,-3.479l-0,-17.688l6.042,-0.366l0,56.14l-5.2,0l-0.805,-5.822Z" style="fill:#fff;fill-rule:nonzero;"/><path d="M558.3,1365.31c-1.794,-2.136 -4.254,-3.205 -7.379,-3.205c-3.125,0 -5.676,1.105 -7.654,3.315c-1.977,2.209 -3.137,5.23 -3.479,9.063l21.204,0c0,-3.979 -0.897,-7.037 -2.692,-9.173Zm-6.17,33.6c-5.835,-0 -10.431,-1.856 -13.788,-5.567c-3.357,-3.711 -5.036,-8.789 -5.036,-15.234c0,-6.226 1.624,-11.273 4.871,-15.143c3.247,-3.87 7.52,-5.841 12.817,-5.914c4.981,-0 8.93,1.703 11.847,5.108c2.918,3.406 4.377,7.953 4.377,13.642c-0,0.293 -0.006,0.83 -0.019,1.611c-0.012,0.781 -0.018,1.343 -0.018,1.685l-27.576,-0c0.074,4.565 1.252,8.123 3.534,10.675c2.283,2.551 5.353,3.827 9.21,3.827c4.249,-0 8.509,-1.124 12.781,-3.37l0.952,4.944c-4.077,2.49 -8.728,3.736 -13.952,3.736Z" style="fill:#fff;fill-rule:nonzero;"/><path d="M607.244,1398.8c-3.955,-0 -6.762,-0.965 -8.422,-2.893c-1.661,-1.929 -2.539,-5.042 -2.637,-9.339l-0,-24.133l-5.969,-0l0.256,-4.028l5.676,-0.513l2.088,-9.192l4.028,-0.146l0,9.338l11.169,-0l0,4.541l-11.169,-0l0,23.035c0,3.051 0.464,5.2 1.392,6.445c0.927,1.245 2.514,1.868 4.76,1.868c0.806,-0 2.552,-0.196 5.237,-0.586l0.257,4.834c-2.906,0.512 -5.127,0.769 -6.666,0.769Z" style="fill:#fff;fill-rule:nonzero;"/><path d="M631.927,1393.97c2.905,-0 5.463,-0.8 7.672,-2.399c2.21,-1.599 3.632,-3.754 4.267,-6.464l-0,-6.774c-0.122,-0 -0.861,0.061 -2.216,0.183c-1.355,0.122 -2.24,0.195 -2.655,0.219c-5.298,0.464 -8.991,1.331 -11.078,2.6c-2.087,1.27 -3.131,3.309 -3.131,6.116c-0,2.149 0.635,3.772 1.904,4.871c1.27,1.098 3.015,1.648 5.237,1.648Zm13.294,4.101c-0.367,-1.562 -0.721,-3.247 -1.062,-5.053c-2.222,2.221 -4.31,3.759 -6.263,4.614c-1.953,0.854 -4.248,1.282 -6.884,1.282c-3.76,-0 -6.781,-0.983 -9.064,-2.948c-2.283,-1.966 -3.424,-4.792 -3.424,-8.478c-0,-4.102 1.556,-7.141 4.669,-9.119c3.113,-1.977 7.599,-3.21 13.458,-3.699c0.806,-0.073 2.02,-0.177 3.644,-0.311c1.624,-0.134 2.838,-0.238 3.644,-0.311l-0,-3.552c-0,-2.832 -0.659,-4.932 -1.978,-6.299c-1.318,-1.367 -3.393,-2.051 -6.225,-2.051c-3.955,0 -7.947,0.977 -11.975,2.93c-0.122,-0.293 -0.44,-1.142 -0.953,-2.545c-0.512,-1.404 -0.781,-2.131 -0.805,-2.179c1.782,-1.001 3.9,-1.801 6.354,-2.399c2.453,-0.598 4.949,-0.897 7.489,-0.897c5.004,-0 8.612,1.092 10.821,3.277c2.21,2.185 3.314,5.902 3.314,11.151l0,26.587l-4.76,0Z" style="fill:#fff;fill-rule:nonzero;"/><path d="M671.331,1398.8c-3.906,-0 -6.671,-1.05 -8.294,-3.15c-1.624,-2.099 -2.436,-5.749 -2.436,-10.949l0,-42.408l6.08,-0.366l-0,40.357c-0,1.66 0.018,2.99 0.054,3.991c0.037,1.001 0.129,1.984 0.275,2.948c0.147,0.965 0.342,1.691 0.586,2.179c0.244,0.489 0.598,0.934 1.062,1.337c0.464,0.403 1.019,0.671 1.666,0.806c0.647,0.134 1.447,0.201 2.399,0.201c0.781,0 2.319,-0.146 4.614,-0.439l0.33,4.87c-2.515,0.415 -4.627,0.623 -6.336,0.623Z" style="fill:#fff;fill-rule:nonzero;"/><path d="M704.528,1365.31c-1.794,-2.136 -4.254,-3.205 -7.379,-3.205c-3.125,0 -5.676,1.105 -7.654,3.315c-1.977,2.209 -3.137,5.23 -3.479,9.063l21.204,0c0,-3.979 -0.897,-7.037 -2.692,-9.173Zm-6.17,33.6c-5.835,-0 -10.431,-1.856 -13.788,-5.567c-3.357,-3.711 -5.035,-8.789 -5.035,-15.234c-0,-6.226 1.623,-11.273 4.87,-15.143c3.247,-3.87 7.52,-5.841 12.818,-5.914c4.98,-0 8.929,1.703 11.846,5.108c2.918,3.406 4.377,7.953 4.377,13.642c-0,0.293 -0.006,0.83 -0.019,1.611c-0.012,0.781 -0.018,1.343 -0.018,1.685l-27.576,-0c0.074,4.565 1.252,8.123 3.534,10.675c2.283,2.551 5.353,3.827 9.21,3.827c4.249,-0 8.509,-1.124 12.781,-3.37l0.952,4.944c-4.077,2.49 -8.728,3.736 -13.952,3.736Z" style="fill:#fff;fill-rule:nonzero;"/><path d="M721.942,1398.07l-0,-40.173l5.127,-0l0.769,5.749c1.587,-1.977 3.57,-3.57 5.951,-4.779c2.38,-1.208 4.95,-1.812 7.708,-1.812c4.639,-0 8.069,1.3 10.291,3.9c2.222,2.6 3.332,6.598 3.332,11.993l0,25.122l-6.115,0c-0,-16.113 -0.012,-24.743 -0.037,-25.891c-0.098,-3.418 -0.787,-5.92 -2.069,-7.507c-1.282,-1.587 -3.424,-2.381 -6.427,-2.381c-3.149,0 -5.774,0.757 -7.874,2.271c-2.099,1.514 -3.466,3.479 -4.101,5.896c-0.244,1.636 -0.366,3.516 -0.366,5.64l-0,21.972l-6.189,0Z" style="fill:#fff;fill-rule:nonzero;"/><path d="M778.119,1398.8c-3.956,-0 -6.763,-0.965 -8.423,-2.893c-1.661,-1.929 -2.539,-5.042 -2.637,-9.339l-0,-24.133l-5.969,-0l0.256,-4.028l5.676,-0.513l2.088,-9.192l4.028,-0.146l0,9.338l11.169,-0l0,4.541l-11.169,-0l0,23.035c0,3.051 0.464,5.2 1.392,6.445c0.927,1.245 2.514,1.868 4.76,1.868c0.806,-0 2.552,-0.196 5.237,-0.586l0.257,4.834c-2.906,0.512 -5.127,0.769 -6.665,0.769Z" style="fill:#fff;fill-rule:nonzero;"/><path d="M795.367,1378.08c0,4.761 1.056,8.576 3.168,11.444c2.112,2.869 5.194,4.303 9.247,4.303c4.003,0 7.025,-1.428 9.063,-4.284c2.039,-2.857 3.058,-6.702 3.058,-11.536c0,-4.907 -1.007,-8.771 -3.021,-11.591c-2.014,-2.819 -5.084,-4.229 -9.21,-4.229c-4.004,-0 -7.056,1.44 -9.156,4.321c-2.099,2.881 -3.149,6.738 -3.149,11.572Zm30.872,-0.11c-0,6.226 -1.661,11.274 -4.981,15.143c-3.32,3.87 -7.91,5.805 -13.769,5.805c-5.64,-0 -10.126,-1.954 -13.459,-5.86c-3.332,-3.906 -4.998,-8.923 -4.998,-15.051c-0,-6.25 1.672,-11.304 5.017,-15.161c3.344,-3.858 7.934,-5.786 13.769,-5.786c5.738,-0 10.242,1.934 13.513,5.804c3.272,3.87 4.908,8.905 4.908,15.106Z" style="fill:#fff;fill-rule:nonzero;"/></g><path d="M164.091,1105.07l378.746,-0" style="fill:none;stroke:#fff;stroke-width:6.43px;stroke-dasharray:0,19.29,0,0;"/></g><g><g><rect x="1467.14" y="268.905" width="6.335" height="54.163" style="fill:#fff;fill-rule:nonzero;"/><path d="M1485.49,323.067l-0,-40.173l5.127,-0l0.769,5.749c1.586,-1.977 3.57,-3.57 5.95,-4.779c2.381,-1.208 4.95,-1.813 7.709,-1.813c4.639,0 8.069,1.301 10.291,3.901c2.221,2.6 3.332,6.598 3.332,11.993l0,25.122l-6.115,0c-0,-16.113 -0.013,-24.744 -0.037,-25.891c-0.098,-3.418 -0.787,-5.92 -2.069,-7.507c-1.282,-1.587 -3.424,-2.381 -6.427,-2.381c-3.15,0 -5.774,0.757 -7.874,2.271c-2.099,1.513 -3.466,3.479 -4.101,5.896c-0.244,1.636 -0.366,3.515 -0.366,5.639l-0,21.973l-6.189,0Z" style="fill:#fff;fill-rule:nonzero;"/><path d="M1541.67,323.8c-3.955,-0 -6.762,-0.965 -8.423,-2.894c-1.66,-1.928 -2.539,-5.041 -2.636,-9.338l-0,-24.133l-5.969,-0l0.256,-4.029l5.676,-0.512l2.088,-9.192l4.028,-0.147l-0,9.339l11.169,-0l0,4.541l-11.169,-0l-0,23.034c-0,3.052 0.464,5.201 1.391,6.446c0.928,1.245 2.515,1.867 4.761,1.867c0.806,0 2.551,-0.195 5.237,-0.586l0.256,4.834c-2.905,0.513 -5.127,0.77 -6.665,0.77Z" style="fill:#fff;fill-rule:nonzero;"/><path d="M1577.61,290.31c-1.795,-2.137 -4.254,-3.205 -7.379,-3.205c-3.125,0 -5.676,1.105 -7.654,3.314c-1.978,2.21 -3.137,5.231 -3.479,9.064l21.204,0c-0,-3.979 -0.898,-7.037 -2.692,-9.173Zm-6.171,33.599c-5.835,0 -10.431,-1.855 -13.788,-5.566c-3.357,-3.711 -5.035,-8.789 -5.035,-15.234c0,-6.226 1.624,-11.274 4.871,-15.143c3.247,-3.87 7.519,-5.841 12.817,-5.915c4.98,0 8.929,1.703 11.847,5.109c2.917,3.406 4.376,7.953 4.376,13.641c0,0.293 -0.006,0.831 -0.018,1.612c-0.012,0.781 -0.018,1.343 -0.018,1.684l-27.576,0c0.073,4.566 1.251,8.124 3.534,10.675c2.283,2.552 5.353,3.827 9.21,3.827c4.248,0 8.508,-1.123 12.781,-3.369l0.952,4.944c-4.077,2.49 -8.728,3.735 -13.953,3.735Z" style="fill:#fff;fill-rule:nonzero;"/><path d="M1605.83,323.8c-3.906,-0 -6.671,-1.05 -8.294,-3.15c-1.624,-2.1 -2.436,-5.749 -2.436,-10.95l0,-42.407l6.08,-0.366l-0,40.356c-0,1.661 0.018,2.991 0.055,3.992c0.036,1.001 0.128,1.984 0.274,2.948c0.147,0.964 0.342,1.691 0.586,2.179c0.244,0.488 0.598,0.934 1.062,1.337c0.464,0.403 1.019,0.671 1.666,0.805c0.647,0.135 1.447,0.202 2.399,0.202c0.781,-0 2.319,-0.147 4.614,-0.44l0.33,4.871c-2.515,0.415 -4.627,0.623 -6.336,0.623Z" style="fill:#fff;fill-rule:nonzero;"/><path d="M1623.08,282.894l0,40.173l-6.152,0l-0,-40.173l6.152,-0Zm0,-14.612l0,7.251l-6.152,-0l-0,-7.251l6.152,-0Z" style="fill:#fff;fill-rule:nonzero;"/><path d="M1650.18,317.83c2.075,0 3.894,-0.366 5.456,-1.098c1.563,-0.733 2.783,-1.746 3.662,-3.04c0.879,-1.294 1.532,-2.734 1.96,-4.321c0.427,-1.587 0.64,-3.321 0.64,-5.2l0,-2.967c0,-1.953 -0.219,-3.753 -0.659,-5.401c-0.439,-1.648 -1.117,-3.125 -2.032,-4.431c-0.916,-1.307 -2.137,-2.326 -3.662,-3.058c-1.526,-0.733 -3.302,-1.099 -5.329,-1.099c-1.684,0 -3.216,0.317 -4.596,0.952c-1.379,0.635 -2.514,1.471 -3.405,2.509c-0.892,1.037 -1.648,2.246 -2.271,3.625c-0.623,1.38 -1.068,2.777 -1.337,4.193c-0.268,1.416 -0.402,2.845 -0.402,4.285c-0,1.416 0.146,2.82 0.439,4.211c0.293,1.392 0.757,2.747 1.392,4.065c0.634,1.319 1.403,2.472 2.307,3.461c0.903,0.989 2.032,1.788 3.387,2.399c1.355,0.61 2.838,0.915 4.45,0.915Zm-9.412,23.621l-0.549,-5.53l7.47,0c2.076,0 3.882,-0.146 5.42,-0.439c1.538,-0.293 2.82,-0.775 3.846,-1.447c1.025,-0.671 1.855,-1.416 2.49,-2.234c0.635,-0.818 1.117,-1.88 1.446,-3.186c0.33,-1.306 0.55,-2.6 0.659,-3.882c0.11,-1.281 0.165,-2.85 0.165,-4.705l0,-3.553c-1.465,2.1 -3.161,3.717 -5.09,4.853c-1.929,1.135 -4.382,1.702 -7.361,1.702c-2.295,0 -4.413,-0.396 -6.354,-1.19c-1.941,-0.793 -3.576,-1.849 -4.907,-3.167c-1.33,-1.319 -2.466,-2.845 -3.406,-4.578c-0.94,-1.733 -1.623,-3.528 -2.05,-5.383c-0.428,-1.856 -0.641,-3.724 -0.641,-5.603c-0,-2.93 0.36,-5.64 1.08,-8.13c0.72,-2.491 1.788,-4.712 3.204,-6.665c1.416,-1.953 3.278,-3.485 5.585,-4.596c2.307,-1.111 4.95,-1.667 7.929,-1.667c2.636,0 4.937,0.507 6.903,1.52c1.965,1.013 3.729,2.57 5.291,4.669l0,-5.346l5.97,-0l-0,37.28c-0,1.709 -0.043,3.204 -0.129,4.486c-0.085,1.282 -0.293,2.704 -0.622,4.266c-0.33,1.563 -0.775,2.906 -1.337,4.029c-0.561,1.123 -1.349,2.252 -2.362,3.387c-1.013,1.135 -2.222,2.051 -3.625,2.747c-1.404,0.696 -3.144,1.263 -5.219,1.703c-2.075,0.439 -4.419,0.659 -7.031,0.659l-6.775,-0Z" style="fill:#fff;fill-rule:nonzero;"/><path d="M1701.21,290.31c-1.794,-2.137 -4.254,-3.205 -7.379,-3.205c-3.125,0 -5.676,1.105 -7.654,3.314c-1.977,2.21 -3.137,5.231 -3.479,9.064l21.204,0c-0,-3.979 -0.897,-7.037 -2.692,-9.173Zm-6.171,33.599c-5.834,0 -10.43,-1.855 -13.787,-5.566c-3.357,-3.711 -5.036,-8.789 -5.036,-15.234c0,-6.226 1.624,-11.274 4.871,-15.143c3.247,-3.87 7.519,-5.841 12.817,-5.915c4.981,0 8.93,1.703 11.847,5.109c2.918,3.406 4.376,7.953 4.376,13.641c0,0.293 -0.006,0.831 -0.018,1.612c-0.012,0.781 -0.018,1.343 -0.018,1.684l-27.576,0c0.073,4.566 1.251,8.124 3.534,10.675c2.283,2.552 5.353,3.827 9.21,3.827c4.248,0 8.508,-1.123 12.781,-3.369l0.952,4.944c-4.077,2.49 -8.728,3.735 -13.953,3.735Z" style="fill:#fff;fill-rule:nonzero;"/><path d="M1718.62,323.067l0,-40.173l5.127,-0l0.769,5.749c1.587,-1.977 3.571,-3.57 5.951,-4.779c2.381,-1.208 4.95,-1.813 7.709,-1.813c4.639,0 8.069,1.301 10.291,3.901c2.221,2.6 3.332,6.598 3.332,11.993l0,25.122l-6.116,0c0,-16.113 -0.012,-24.744 -0.036,-25.891c-0.098,-3.418 -0.788,-5.92 -2.069,-7.507c-1.282,-1.587 -3.424,-2.381 -6.427,-2.381c-3.15,0 -5.774,0.757 -7.874,2.271c-2.099,1.513 -3.467,3.479 -4.101,5.896c-0.245,1.636 -0.367,3.515 -0.367,5.639l0,21.973l-6.189,0Z" style="fill:#fff;fill-rule:nonzero;"/><path d="M1778.97,323.909c-5.908,0 -10.529,-1.916 -13.861,-5.749c-3.333,-3.833 -4.999,-8.85 -4.999,-15.051c0.025,-6.25 1.727,-11.322 5.109,-15.216c3.381,-3.895 8.014,-5.842 13.897,-5.842c2.076,0 4.084,0.257 6.025,0.77c1.941,0.512 3.473,1.184 4.596,2.014l-1.685,4.76c-2.856,-1.538 -5.872,-2.307 -9.045,-2.307c-3.882,0 -6.952,1.416 -9.211,4.248c-2.258,2.832 -3.387,6.702 -3.387,11.609c-0,4.785 1.117,8.576 3.351,11.371c2.234,2.795 5.328,4.193 9.283,4.193c3.15,0 6.372,-0.854 9.668,-2.563l0.769,4.87c-2.661,1.929 -6.164,2.893 -10.51,2.893Z" style="fill:#fff;fill-rule:nonzero;"/><path d="M1804.64,282.894l0,40.173l-6.152,0l0,-40.173l6.152,-0Zm0,-14.612l0,7.251l-6.152,-0l0,-7.251l6.152,-0Z" style="fill:#fff;fill-rule:nonzero;"/><path d="M1827.75,318.966c2.906,-0 5.463,-0.8 7.672,-2.399c2.21,-1.599 3.632,-3.754 4.267,-6.464l-0,-6.775c-0.122,0 -0.861,0.061 -2.216,0.183c-1.355,0.123 -2.24,0.196 -2.655,0.22c-5.298,0.464 -8.99,1.331 -11.078,2.6c-2.087,1.27 -3.131,3.308 -3.131,6.116c0,2.148 0.635,3.772 1.904,4.871c1.27,1.098 3.016,1.648 5.237,1.648Zm13.294,4.101c-0.366,-1.562 -0.72,-3.247 -1.062,-5.054c-2.222,2.222 -4.309,3.76 -6.262,4.615c-1.954,0.854 -4.249,1.281 -6.885,1.281c-3.76,0 -6.781,-0.982 -9.064,-2.948c-2.283,-1.965 -3.424,-4.791 -3.424,-8.477c-0,-4.102 1.556,-7.142 4.669,-9.119c3.113,-1.978 7.599,-3.21 13.458,-3.699c0.806,-0.073 2.021,-0.177 3.644,-0.311c1.624,-0.134 2.838,-0.238 3.644,-0.311l0,-3.553c0,-2.832 -0.659,-4.931 -1.978,-6.298c-1.318,-1.368 -3.393,-2.051 -6.225,-2.051c-3.955,-0 -7.947,0.976 -11.975,2.929c-0.122,-0.292 -0.44,-1.141 -0.952,-2.545c-0.513,-1.403 -0.782,-2.13 -0.806,-2.179c1.782,-1.001 3.9,-1.8 6.354,-2.398c2.453,-0.598 4.95,-0.898 7.489,-0.898c5.005,0 8.612,1.093 10.821,3.278c2.21,2.185 3.315,5.902 3.315,11.151l-0,26.587l-4.761,0Z" style="fill:#fff;fill-rule:nonzero;"/><path d="M1890.74,318.636c4.028,-0 7.025,-1.294 8.99,-3.882c1.965,-2.588 2.948,-6.287 2.948,-11.096c0,-5.42 -0.946,-9.503 -2.838,-12.25c-1.892,-2.746 -4.95,-4.12 -9.174,-4.12c-1.88,0 -3.54,0.403 -4.98,1.209c-1.441,0.805 -2.6,1.928 -3.479,3.369c-0.879,1.44 -1.544,3.094 -1.996,4.962c-0.452,1.868 -0.677,3.912 -0.677,6.134c-0,3.125 0.384,5.835 1.153,8.13c0.769,2.295 2.008,4.126 3.717,5.493c1.709,1.367 3.821,2.051 6.336,2.051Zm12.048,-1.392c-1.318,2.027 -3.076,3.638 -5.274,4.834c-2.197,1.197 -4.65,1.795 -7.36,1.795c-5.298,-0 -9.449,-1.886 -12.452,-5.658c-3.002,-3.772 -4.504,-8.905 -4.504,-15.399c0,-6.202 1.526,-11.213 4.578,-15.033c3.051,-3.821 7.141,-5.732 12.268,-5.732c2.661,0 5.169,0.58 7.525,1.74c2.356,1.16 4.12,2.716 5.292,4.669l-0.11,-3.479l0,-17.688l6.043,-0.366l-0,56.14l-5.2,0l-0.806,-5.823Z" style="fill:#fff;fill-rule:nonzero;"/><path d="M1942.58,290.31c-1.795,-2.137 -4.254,-3.205 -7.379,-3.205c-3.125,0 -5.677,1.105 -7.654,3.314c-1.978,2.21 -3.137,5.231 -3.479,9.064l21.203,0c0,-3.979 -0.897,-7.037 -2.691,-9.173Zm-6.171,33.599c-5.835,0 -10.431,-1.855 -13.788,-5.566c-3.357,-3.711 -5.035,-8.789 -5.035,-15.234c-0,-6.226 1.623,-11.274 4.87,-15.143c3.248,-3.87 7.52,-5.841 12.818,-5.915c4.98,0 8.929,1.703 11.847,5.109c2.917,3.406 4.376,7.953 4.376,13.641c-0,0.293 -0.006,0.831 -0.018,1.612c-0.013,0.781 -0.019,1.343 -0.019,1.684l-27.575,0c0.073,4.566 1.251,8.124 3.534,10.675c2.282,2.552 5.352,3.827 9.21,3.827c4.248,0 8.508,-1.123 12.781,-3.369l0.952,4.944c-4.077,2.49 -8.728,3.735 -13.953,3.735Z" style="fill:#fff;fill-rule:nonzero;"/><path d="M1989.51,323.8c-3.907,-0 -6.671,-1.05 -8.295,-3.15c-1.624,-2.1 -2.435,-5.749 -2.435,-10.95l-0,-42.407l6.079,-0.366l-0,40.356c-0,1.661 0.018,2.991 0.055,3.992c0.036,1.001 0.128,1.984 0.274,2.948c0.147,0.964 0.342,1.691 0.586,2.179c0.244,0.488 0.598,0.934 1.062,1.337c0.464,0.403 1.02,0.671 1.667,0.805c0.647,0.135 1.446,0.202 2.398,0.202c0.782,-0 2.32,-0.147 4.615,-0.44l0.329,4.871c-2.515,0.415 -4.626,0.623 -6.335,0.623Z" style="fill:#fff;fill-rule:nonzero;"/><path d="M2011.15,318.966c2.905,-0 5.462,-0.8 7.672,-2.399c2.209,-1.599 3.631,-3.754 4.266,-6.464l0,-6.775c-0.122,0 -0.86,0.061 -2.215,0.183c-1.355,0.123 -2.24,0.196 -2.655,0.22c-5.298,0.464 -8.991,1.331 -11.078,2.6c-2.088,1.27 -3.131,3.308 -3.131,6.116c-0,2.148 0.634,3.772 1.904,4.871c1.269,1.098 3.015,1.648 5.237,1.648Zm13.293,4.101c-0.366,-1.562 -0.72,-3.247 -1.062,-5.054c-2.221,2.222 -4.309,3.76 -6.262,4.615c-1.953,0.854 -4.248,1.281 -6.885,1.281c-3.76,0 -6.781,-0.982 -9.064,-2.948c-2.282,-1.965 -3.424,-4.791 -3.424,-8.477c0,-4.102 1.557,-7.142 4.67,-9.119c3.112,-1.978 7.598,-3.21 13.458,-3.699c0.806,-0.073 2.02,-0.177 3.644,-0.311c1.623,-0.134 2.838,-0.238 3.643,-0.311l0,-3.553c0,-2.832 -0.659,-4.931 -1.977,-6.298c-1.318,-1.368 -3.394,-2.051 -6.226,-2.051c-3.955,-0 -7.946,0.976 -11.975,2.929c-0.122,-0.292 -0.439,-1.141 -0.952,-2.545c-0.513,-1.403 -0.781,-2.13 -0.806,-2.179c1.783,-1.001 3.901,-1.8 6.354,-2.398c2.454,-0.598 4.95,-0.898 7.489,-0.898c5.005,0 8.612,1.093 10.822,3.278c2.209,2.185 3.314,5.902 3.314,11.151l-0,26.587l-4.761,0Z" style="fill:#fff;fill-rule:nonzero;"/><path d="M1470.18,399.947c-0,4.761 1.056,8.575 3.168,11.444c2.111,2.869 5.194,4.303 9.246,4.303c4.004,0 7.026,-1.428 9.064,-4.285c2.039,-2.856 3.058,-6.701 3.058,-11.535c0,-4.907 -1.007,-8.771 -3.021,-11.591c-2.014,-2.82 -5.084,-4.23 -9.21,-4.23c-4.004,0 -7.056,1.441 -9.156,4.322c-2.099,2.881 -3.149,6.738 -3.149,11.572Zm30.872,-0.11c-0,6.226 -1.661,11.273 -4.981,15.143c-3.32,3.87 -7.91,5.804 -13.769,5.804c-5.64,0 -10.126,-1.953 -13.459,-5.859c-3.332,-3.906 -4.999,-8.923 -4.999,-15.051c0,-6.25 1.673,-11.304 5.018,-15.161c3.344,-3.858 7.934,-5.787 13.769,-5.787c5.737,0 10.242,1.935 13.513,5.805c3.272,3.87 4.908,8.905 4.908,15.106Z" style="fill:#fff;fill-rule:nonzero;"/><path d="M1509.7,437.374l0,-57.605l5.383,-0l0.586,5.456c3.516,-4.199 7.74,-6.299 12.671,-6.299c3.662,0 6.763,0.916 9.302,2.747c2.539,1.831 4.413,4.309 5.621,7.434c1.209,3.125 1.813,6.775 1.813,10.95c0,4.004 -0.659,7.562 -1.977,10.675c-1.319,3.113 -3.254,5.566 -5.805,7.361c-2.551,1.794 -5.536,2.691 -8.954,2.691c-2.588,0 -5.017,-0.579 -7.287,-1.739c-2.271,-1.16 -4.09,-2.692 -5.457,-4.596c0.147,2.637 0.22,5.2 0.22,7.69l-0,14.832l-6.116,0.403Zm17.798,-21.753c1.855,-0 3.516,-0.421 4.98,-1.264c1.465,-0.842 2.649,-1.995 3.553,-3.46c0.903,-1.465 1.587,-3.131 2.05,-4.999c0.464,-1.868 0.696,-3.888 0.696,-6.061c0,-4.59 -0.964,-8.356 -2.893,-11.297c-1.929,-2.942 -4.748,-4.413 -8.459,-4.413c-7.764,-0 -11.646,5.017 -11.646,15.051c0,5.444 0.91,9.546 2.728,12.305c1.819,2.758 4.816,4.138 8.991,4.138Z" style="fill:#fff;fill-rule:nonzero;"/><path d="M1576.84,387.185c-1.795,-2.137 -4.254,-3.205 -7.379,-3.205c-3.125,0 -5.677,1.105 -7.654,3.314c-1.978,2.21 -3.137,5.231 -3.479,9.064l21.204,0c-0,-3.979 -0.898,-7.037 -2.692,-9.173Zm-6.171,33.599c-5.835,0 -10.431,-1.855 -13.788,-5.566c-3.357,-3.711 -5.035,-8.789 -5.035,-15.234c-0,-6.226 1.624,-11.274 4.871,-15.143c3.247,-3.87 7.519,-5.841 12.817,-5.915c4.98,0 8.929,1.703 11.847,5.109c2.917,3.406 4.376,7.953 4.376,13.641c0,0.293 -0.006,0.831 -0.018,1.612c-0.012,0.781 -0.019,1.343 -0.019,1.684l-27.575,0c0.073,4.566 1.251,8.124 3.534,10.675c2.282,2.552 5.353,3.827 9.21,3.827c4.248,0 8.508,-1.123 12.781,-3.369l0.952,4.944c-4.077,2.49 -8.728,3.735 -13.953,3.735Z" style="fill:#fff;fill-rule:nonzero;"/><path d="M1612.27,379.403c1.098,-0 2.099,0.073 3.003,0.219l-0.22,5.64c-1.123,-0.195 -2.1,-0.293 -2.93,-0.293c-3.418,-0 -6.195,1.19 -8.331,3.571c-2.136,2.38 -3.204,5.328 -3.204,8.844l-0,22.558l-6.116,0c-0.024,-24.658 -0.037,-38.049 -0.037,-40.173l5.091,-0l0.586,7.214c1.391,-2.27 3.161,-4.101 5.31,-5.493c2.148,-1.392 4.431,-2.087 6.848,-2.087Z" style="fill:#fff;fill-rule:nonzero;"/><path d="M1632.49,415.841c2.905,-0 5.462,-0.8 7.672,-2.399c2.209,-1.599 3.631,-3.754 4.266,-6.464l0,-6.775c-0.122,0 -0.86,0.061 -2.215,0.183c-1.355,0.123 -2.24,0.196 -2.655,0.22c-5.298,0.464 -8.991,1.331 -11.078,2.6c-2.088,1.27 -3.131,3.308 -3.131,6.116c-0,2.148 0.634,3.772 1.904,4.871c1.269,1.098 3.015,1.648 5.237,1.648Zm13.293,4.101c-0.366,-1.562 -0.72,-3.247 -1.062,-5.054c-2.222,2.222 -4.309,3.76 -6.262,4.615c-1.953,0.854 -4.248,1.281 -6.885,1.281c-3.76,0 -6.781,-0.982 -9.064,-2.948c-2.282,-1.965 -3.424,-4.791 -3.424,-8.477c0,-4.102 1.557,-7.142 4.67,-9.119c3.112,-1.978 7.598,-3.21 13.458,-3.699c0.805,-0.073 2.02,-0.177 3.644,-0.311c1.623,-0.134 2.838,-0.238 3.643,-0.311l0,-3.553c0,-2.832 -0.659,-4.931 -1.977,-6.298c-1.319,-1.368 -3.394,-2.051 -6.226,-2.051c-3.955,-0 -7.947,0.976 -11.975,2.929c-0.122,-0.292 -0.439,-1.141 -0.952,-2.545c-0.513,-1.403 -0.781,-2.13 -0.806,-2.179c1.783,-1.001 3.9,-1.8 6.354,-2.398c2.454,-0.598 4.95,-0.898 7.489,-0.898c5.005,0 8.612,1.093 10.822,3.278c2.209,2.185 3.314,5.902 3.314,11.151l-0,26.587l-4.761,0Z" style="fill:#fff;fill-rule:nonzero;"/><path d="M1678.08,420.784c-5.908,0 -10.529,-1.916 -13.861,-5.749c-3.333,-3.833 -4.999,-8.85 -4.999,-15.051c0.024,-6.25 1.727,-11.322 5.109,-15.216c3.381,-3.895 8.014,-5.842 13.897,-5.842c2.076,0 4.084,0.257 6.025,0.77c1.94,0.512 3.472,1.184 4.595,2.014l-1.684,4.76c-2.857,-1.538 -5.872,-2.307 -9.045,-2.307c-3.882,0 -6.952,1.416 -9.211,4.248c-2.258,2.832 -3.387,6.702 -3.387,11.609c-0,4.785 1.117,8.576 3.351,11.371c2.234,2.795 5.328,4.193 9.283,4.193c3.15,0 6.372,-0.854 9.668,-2.563l0.769,4.87c-2.661,1.929 -6.164,2.893 -10.51,2.893Z" style="fill:#fff;fill-rule:nonzero;"/><path d="M1703.75,379.769l0,40.173l-6.152,0l-0,-40.173l6.152,-0Zm0,-14.612l0,7.251l-6.152,-0l-0,-7.251l6.152,-0Z" style="fill:#fff;fill-rule:nonzero;"/><path d="M1745.98,360.25l-11.901,14.209l-4.175,-0l6.811,-14.209l9.265,-0Zm-26.257,39.697c0,4.761 1.056,8.575 3.168,11.444c2.112,2.869 5.194,4.303 9.247,4.303c4.004,0 7.025,-1.428 9.063,-4.285c2.039,-2.856 3.058,-6.701 3.058,-11.535c0,-4.907 -1.007,-8.771 -3.021,-11.591c-2.014,-2.82 -5.084,-4.23 -9.21,-4.23c-4.004,0 -7.056,1.441 -9.156,4.322c-2.099,2.881 -3.149,6.738 -3.149,11.572Zm30.872,-0.11c-0,6.226 -1.66,11.273 -4.981,15.143c-3.32,3.87 -7.91,5.804 -13.769,5.804c-5.64,0 -10.126,-1.953 -13.459,-5.859c-3.332,-3.906 -4.998,-8.923 -4.998,-15.051c-0,-6.25 1.672,-11.304 5.017,-15.161c3.344,-3.858 7.934,-5.787 13.769,-5.787c5.738,0 10.242,1.935 13.513,5.805c3.272,3.87 4.908,8.905 4.908,15.106Z" style="fill:#fff;fill-rule:nonzero;"/><path d="M1759.23,419.942l0,-40.173l5.127,-0l0.769,5.749c1.587,-1.977 3.571,-3.57 5.951,-4.779c2.381,-1.208 4.95,-1.813 7.709,-1.813c4.639,0 8.069,1.301 10.29,3.901c2.222,2.6 3.333,6.598 3.333,11.993l-0,25.122l-6.116,0c0,-16.113 -0.012,-24.744 -0.036,-25.891c-0.098,-3.418 -0.788,-5.92 -2.069,-7.507c-1.282,-1.587 -3.425,-2.381 -6.427,-2.381c-3.15,0 -5.774,0.757 -7.874,2.271c-2.1,1.513 -3.467,3.479 -4.102,5.896c-0.244,1.636 -0.366,3.515 -0.366,5.639l0,21.973l-6.189,0Z" style="fill:#fff;fill-rule:nonzero;"/></g><path d="M1464.87,223.817l378.746,0" style="fill:none;stroke:#fff;stroke-width:6.43px;stroke-dasharray:0,19.29,0,0;"/></g><g><g><rect x="1560.16" y="1207.37" width="6.335" height="54.163" style="fill:#fff;fill-rule:nonzero;"/><path d="M1578.51,1261.53l0,-40.174l5.127,0l0.769,5.75c1.587,-1.978 3.571,-3.571 5.951,-4.779c2.38,-1.209 4.95,-1.813 7.709,-1.813c4.638,-0 8.069,1.3 10.29,3.9c2.222,2.6 3.333,6.598 3.333,11.993l-0,25.123l-6.116,-0c0,-16.114 -0.012,-24.744 -0.036,-25.892c-0.098,-3.418 -0.788,-5.92 -2.07,-7.507c-1.281,-1.587 -3.424,-2.38 -6.427,-2.38c-3.149,-0 -5.774,0.757 -7.873,2.27c-2.1,1.514 -3.467,3.479 -4.102,5.896c-0.244,1.636 -0.366,3.516 -0.366,5.64l0,21.973l-6.189,-0Z" style="fill:#fff;fill-rule:nonzero;"/><path d="M1634.68,1262.26c-3.955,-0 -6.763,-0.964 -8.423,-2.893c-1.66,-1.929 -2.539,-5.042 -2.637,-9.338l0,-24.134l-5.969,0l0.256,-4.028l5.677,-0.513l2.087,-9.192l4.028,-0.146l0,9.338l11.17,0l-0,4.541l-11.17,0l0,23.035c0,3.052 0.464,5.2 1.392,6.445c0.928,1.245 2.515,1.868 4.761,1.868c0.805,-0 2.551,-0.195 5.237,-0.586l0.256,4.834c-2.905,0.513 -5.127,0.769 -6.665,0.769Z" style="fill:#fff;fill-rule:nonzero;"/><path d="M1670.63,1228.77c-1.795,-2.136 -4.255,-3.204 -7.38,-3.204c-3.125,-0 -5.676,1.104 -7.653,3.314c-1.978,2.209 -3.138,5.231 -3.479,9.064l21.203,-0c0,-3.98 -0.897,-7.038 -2.691,-9.174Zm-6.171,33.6c-5.835,-0 -10.431,-1.856 -13.788,-5.567c-3.357,-3.71 -5.035,-8.789 -5.035,-15.234c-0,-6.226 1.623,-11.273 4.87,-15.143c3.247,-3.869 7.52,-5.841 12.818,-5.914c4.98,-0 8.929,1.703 11.847,5.109c2.917,3.405 4.376,7.952 4.376,13.641c-0,0.293 -0.006,0.83 -0.019,1.611c-0.012,0.782 -0.018,1.343 -0.018,1.685l-27.576,-0c0.074,4.565 1.252,8.124 3.534,10.675c2.283,2.551 5.353,3.827 9.211,3.827c4.248,-0 8.508,-1.123 12.78,-3.369l0.952,4.943c-4.077,2.491 -8.728,3.736 -13.952,3.736Z" style="fill:#fff;fill-rule:nonzero;"/><path d="M1698.85,1262.26c-3.906,-0 -6.671,-1.05 -8.295,-3.149c-1.623,-2.1 -2.435,-5.75 -2.435,-10.95l0,-42.407l6.079,-0.367l0,40.357c0,1.66 0.018,2.991 0.055,3.992c0.037,1.001 0.128,1.983 0.275,2.948c0.146,0.964 0.342,1.69 0.586,2.179c0.244,0.488 0.598,0.933 1.062,1.336c0.464,0.403 1.019,0.672 1.666,0.806c0.647,0.134 1.447,0.201 2.399,0.201c0.781,0 2.319,-0.146 4.614,-0.439l0.33,4.87c-2.515,0.415 -4.627,0.623 -6.336,0.623Z" style="fill:#fff;fill-rule:nonzero;"/><path d="M1716.09,1221.36l-0,40.174l-6.153,-0l0,-40.174l6.153,0Zm-0,-14.612l-0,7.251l-6.153,0l0,-7.251l6.153,0Z" style="fill:#fff;fill-rule:nonzero;"/><path d="M1743.19,1256.29c2.075,-0 3.894,-0.366 5.457,-1.099c1.562,-0.732 2.783,-1.745 3.662,-3.039c0.879,-1.294 1.532,-2.735 1.959,-4.322c0.427,-1.587 0.641,-3.32 0.641,-5.2l-0,-2.966c-0,-1.953 -0.22,-3.754 -0.659,-5.402c-0.44,-1.648 -1.117,-3.125 -2.033,-4.431c-0.915,-1.306 -2.136,-2.325 -3.662,-3.058c-1.526,-0.732 -3.302,-1.098 -5.328,-1.098c-1.685,-0 -3.217,0.317 -4.596,0.952c-1.38,0.634 -2.515,1.471 -3.406,2.508c-0.891,1.038 -1.648,2.246 -2.27,3.626c-0.623,1.379 -1.069,2.777 -1.337,4.193c-0.269,1.416 -0.403,2.844 -0.403,4.284c0,1.416 0.147,2.82 0.44,4.212c0.293,1.392 0.756,2.746 1.391,4.065c0.635,1.318 1.404,2.472 2.307,3.461c0.904,0.988 2.033,1.788 3.388,2.398c1.355,0.611 2.838,0.916 4.449,0.916Zm-9.411,23.62l-0.55,-5.529l7.471,-0c2.075,-0 3.882,-0.147 5.42,-0.44c1.538,-0.293 2.82,-0.775 3.845,-1.446c1.025,-0.672 1.856,-1.416 2.49,-2.234c0.635,-0.818 1.117,-1.88 1.447,-3.186c0.329,-1.306 0.549,-2.6 0.659,-3.882c0.11,-1.282 0.165,-2.851 0.165,-4.706l-0,-3.552c-1.465,2.099 -3.162,3.717 -5.09,4.852c-1.929,1.135 -4.383,1.703 -7.361,1.703c-2.295,-0 -4.413,-0.397 -6.354,-1.19c-1.941,-0.794 -3.577,-1.85 -4.907,-3.168c-1.331,-1.318 -2.466,-2.844 -3.406,-4.578c-0.94,-1.733 -1.624,-3.527 -2.051,-5.383c-0.427,-1.855 -0.641,-3.723 -0.641,-5.603c0,-2.93 0.36,-5.64 1.081,-8.13c0.72,-2.49 1.788,-4.712 3.204,-6.665c1.416,-1.953 3.278,-3.485 5.585,-4.596c2.307,-1.111 4.95,-1.666 7.928,-1.666c2.637,-0 4.938,0.507 6.903,1.52c1.966,1.013 3.729,2.569 5.292,4.669l-0,-5.347l5.969,0l0,37.28c0,1.709 -0.043,3.205 -0.128,4.487c-0.085,1.281 -0.293,2.703 -0.623,4.266c-0.329,1.562 -0.775,2.905 -1.336,4.028c-0.562,1.123 -1.349,2.252 -2.362,3.388c-1.013,1.135 -2.222,2.05 -3.626,2.746c-1.404,0.696 -3.143,1.264 -5.218,1.703c-2.075,0.44 -4.419,0.659 -7.032,0.659l-6.774,0Z" style="fill:#fff;fill-rule:nonzero;"/><path d="M1794.23,1228.77c-1.795,-2.136 -4.254,-3.204 -7.379,-3.204c-3.125,-0 -5.677,1.104 -7.654,3.314c-1.978,2.209 -3.137,5.231 -3.479,9.064l21.203,-0c0,-3.98 -0.897,-7.038 -2.691,-9.174Zm-6.171,33.6c-5.835,-0 -10.431,-1.856 -13.788,-5.567c-3.357,-3.71 -5.035,-8.789 -5.035,-15.234c-0,-6.226 1.623,-11.273 4.87,-15.143c3.247,-3.869 7.52,-5.841 12.818,-5.914c4.98,-0 8.929,1.703 11.847,5.109c2.917,3.405 4.376,7.952 4.376,13.641c-0,0.293 -0.006,0.83 -0.018,1.611c-0.013,0.782 -0.019,1.343 -0.019,1.685l-27.575,-0c0.073,4.565 1.251,8.124 3.534,10.675c2.282,2.551 5.352,3.827 9.21,3.827c4.248,-0 8.508,-1.123 12.781,-3.369l0.952,4.943c-4.077,2.491 -8.728,3.736 -13.953,3.736Z" style="fill:#fff;fill-rule:nonzero;"/><path d="M1811.64,1261.53l0,-40.174l5.127,0l0.769,5.75c1.587,-1.978 3.571,-3.571 5.951,-4.779c2.38,-1.209 4.95,-1.813 7.709,-1.813c4.638,-0 8.069,1.3 10.29,3.9c2.222,2.6 3.333,6.598 3.333,11.993l-0,25.123l-6.116,-0c0,-16.114 -0.012,-24.744 -0.037,-25.892c-0.097,-3.418 -0.787,-5.92 -2.069,-7.507c-1.281,-1.587 -3.424,-2.38 -6.427,-2.38c-3.149,-0 -5.774,0.757 -7.873,2.27c-2.1,1.514 -3.467,3.479 -4.102,5.896c-0.244,1.636 -0.366,3.516 -0.366,5.64l-0,21.973l-6.189,-0Z" style="fill:#fff;fill-rule:nonzero;"/><path d="M1871.99,1262.37c-5.909,-0 -10.529,-1.917 -13.861,-5.75c-3.333,-3.833 -4.999,-8.85 -4.999,-15.051c0.024,-6.25 1.727,-11.322 5.108,-15.216c3.382,-3.894 8.014,-5.841 13.898,-5.841c2.075,-0 4.083,0.256 6.024,0.769c1.941,0.513 3.473,1.184 4.596,2.014l-1.684,4.761c-2.857,-1.538 -5.872,-2.307 -9.046,-2.307c-3.882,-0 -6.952,1.416 -9.21,4.248c-2.258,2.832 -3.387,6.701 -3.387,11.609c-0,4.785 1.116,8.575 3.35,11.371c2.234,2.795 5.329,4.193 9.284,4.193c3.149,-0 6.372,-0.855 9.668,-2.564l0.769,4.871c-2.661,1.928 -6.165,2.893 -10.51,2.893Z" style="fill:#fff;fill-rule:nonzero;"/><path d="M1897.66,1221.36l-0,40.174l-6.152,-0l-0,-40.174l6.152,0Zm-0,-14.612l-0,7.251l-6.152,0l-0,-7.251l6.152,0Z" style="fill:#fff;fill-rule:nonzero;"/><path d="M1920.77,1257.43c2.905,-0 5.463,-0.8 7.672,-2.399c2.209,-1.599 3.632,-3.753 4.266,-6.463l0,-6.775c-0.122,-0 -0.86,0.061 -2.215,0.183c-1.355,0.122 -2.24,0.195 -2.655,0.22c-5.298,0.463 -8.991,1.33 -11.078,2.6c-2.088,1.269 -3.131,3.308 -3.131,6.115c-0,2.149 0.635,3.772 1.904,4.871c1.27,1.099 3.015,1.648 5.237,1.648Zm13.293,4.102c-0.366,-1.563 -0.72,-3.248 -1.062,-5.054c-2.221,2.222 -4.309,3.76 -6.262,4.614c-1.953,0.855 -4.248,1.282 -6.885,1.282c-3.759,-0 -6.781,-0.983 -9.063,-2.948c-2.283,-1.965 -3.424,-4.791 -3.424,-8.478c-0,-4.101 1.556,-7.141 4.669,-9.119c3.113,-1.977 7.599,-3.21 13.458,-3.698c0.806,-0.074 2.02,-0.177 3.644,-0.312c1.623,-0.134 2.838,-0.238 3.644,-0.311l-0,-3.552c-0,-2.832 -0.66,-4.932 -1.978,-6.299c-1.318,-1.367 -3.393,-2.051 -6.226,-2.051c-3.955,0 -7.946,0.977 -11.975,2.93c-0.122,-0.293 -0.439,-1.141 -0.952,-2.545c-0.512,-1.404 -0.781,-2.13 -0.805,-2.179c1.782,-1.001 3.9,-1.801 6.353,-2.399c2.454,-0.598 4.95,-0.897 7.489,-0.897c5.005,-0 8.612,1.092 10.822,3.278c2.209,2.185 3.314,5.902 3.314,11.151l0,26.587l-4.761,-0Z" style="fill:#fff;fill-rule:nonzero;"/><path d="M1560.12,1358.4l0,-35.889l-5.896,-0l0,-4.321l5.896,-0l0,-1.465c0.074,-2.954 0.336,-5.353 0.788,-7.196c0.451,-1.844 1.214,-3.327 2.289,-4.45c1.074,-1.123 2.392,-1.892 3.955,-2.307c1.562,-0.415 3.588,-0.622 6.079,-0.622l2.673,-0l0.732,4.687l-3.442,0c-0.903,0 -1.691,0.061 -2.362,0.183c-0.671,0.122 -1.257,0.281 -1.758,0.476c-0.5,0.196 -0.915,0.501 -1.245,0.916c-0.329,0.415 -0.598,0.848 -0.806,1.3c-0.207,0.451 -0.366,1.068 -0.476,1.849c-0.11,0.781 -0.183,1.55 -0.219,2.307c-0.037,0.757 -0.055,1.734 -0.055,2.93l-0,1.392l22.229,-0l-0,40.21l-6.153,-0l0,-35.889l-16.076,-0l-0,35.889l-6.153,-0Zm22.229,-54.786l6.153,0l-0,7.251l-6.153,0l0,-7.251Z" style="fill:#fff;fill-rule:nonzero;"/><path d="M1598.58,1358.4l-0,-40.174l5.126,0l0.769,5.75c1.587,-1.978 3.571,-3.571 5.951,-4.779c2.381,-1.209 4.95,-1.813 7.709,-1.813c4.639,-0 8.069,1.3 10.291,3.9c2.221,2.6 3.332,6.598 3.332,11.993l0,25.123l-6.116,-0c0,-16.114 -0.012,-24.744 -0.036,-25.892c-0.098,-3.418 -0.787,-5.92 -2.069,-7.507c-1.282,-1.587 -3.424,-2.38 -6.427,-2.38c-3.15,-0 -5.774,0.757 -7.874,2.27c-2.099,1.514 -3.467,3.479 -4.101,5.896c-0.244,1.636 -0.367,3.516 -0.367,5.64l0,21.973l-6.188,-0Z" style="fill:#fff;fill-rule:nonzero;"/><path d="M1653.55,1354.3c2.905,-0 5.462,-0.8 7.672,-2.399c2.209,-1.599 3.631,-3.753 4.266,-6.463l0,-6.775c-0.122,-0 -0.86,0.061 -2.215,0.183c-1.355,0.122 -2.24,0.195 -2.655,0.22c-5.298,0.463 -8.991,1.33 -11.078,2.6c-2.088,1.269 -3.131,3.308 -3.131,6.115c-0,2.149 0.634,3.772 1.904,4.871c1.269,1.099 3.015,1.648 5.237,1.648Zm13.293,4.102c-0.366,-1.563 -0.72,-3.248 -1.062,-5.054c-2.221,2.222 -4.309,3.76 -6.262,4.614c-1.953,0.855 -4.248,1.282 -6.885,1.282c-3.76,-0 -6.781,-0.983 -9.063,-2.948c-2.283,-1.965 -3.425,-4.791 -3.425,-8.478c0,-4.101 1.557,-7.141 4.67,-9.119c3.112,-1.977 7.599,-3.21 13.458,-3.698c0.806,-0.074 2.02,-0.177 3.644,-0.312c1.623,-0.134 2.838,-0.238 3.643,-0.311l0,-3.552c0,-2.832 -0.659,-4.932 -1.977,-6.299c-1.318,-1.367 -3.394,-2.051 -6.226,-2.051c-3.955,0 -7.946,0.977 -11.975,2.93c-0.122,-0.293 -0.439,-1.141 -0.952,-2.545c-0.513,-1.404 -0.781,-2.13 -0.806,-2.179c1.783,-1.001 3.901,-1.801 6.354,-2.399c2.454,-0.598 4.95,-0.897 7.489,-0.897c5.005,-0 8.612,1.092 10.822,3.278c2.209,2.185 3.314,5.902 3.314,11.151l-0,26.587l-4.761,-0Z" style="fill:#fff;fill-rule:nonzero;"/><path d="M1682.15,1358.4l-0,-40.174l5.127,0l0.769,5.75c1.587,-1.978 3.57,-3.571 5.951,-4.779c2.38,-1.209 4.95,-1.813 7.709,-1.813c4.638,-0 8.068,1.3 10.29,3.9c2.222,2.6 3.333,6.598 3.333,11.993l-0,25.123l-6.116,-0c-0,-16.114 -0.012,-24.744 -0.037,-25.892c-0.097,-3.418 -0.787,-5.92 -2.069,-7.507c-1.282,-1.587 -3.424,-2.38 -6.427,-2.38c-3.149,-0 -5.774,0.757 -7.873,2.27c-2.1,1.514 -3.467,3.479 -4.102,5.896c-0.244,1.636 -0.366,3.516 -0.366,5.64l-0,21.973l-6.189,-0Z" style="fill:#fff;fill-rule:nonzero;"/><path d="M1742.5,1359.25c-5.908,-0 -10.528,-1.917 -13.861,-5.75c-3.332,-3.833 -4.998,-8.85 -4.998,-15.051c0.024,-6.25 1.727,-11.322 5.108,-15.216c3.382,-3.894 8.014,-5.841 13.898,-5.841c2.075,-0 4.083,0.256 6.024,0.769c1.941,0.513 3.473,1.184 4.596,2.014l-1.685,4.761c-2.856,-1.538 -5.871,-2.307 -9.045,-2.307c-3.882,-0 -6.952,1.416 -9.21,4.248c-2.258,2.832 -3.388,6.701 -3.388,11.609c0,4.785 1.117,8.575 3.351,11.371c2.234,2.795 5.329,4.193 9.284,4.193c3.149,-0 6.372,-0.855 9.668,-2.564l0.769,4.871c-2.661,1.928 -6.165,2.893 -10.511,2.893Z" style="fill:#fff;fill-rule:nonzero;"/><path d="M1768.17,1318.23l-0,40.174l-6.153,-0l0,-40.174l6.153,0Zm-0,-14.612l-0,7.251l-6.153,0l0,-7.251l6.153,0Z" style="fill:#fff;fill-rule:nonzero;"/><path d="M1802.83,1325.65c-1.795,-2.136 -4.254,-3.204 -7.379,-3.204c-3.125,-0 -5.677,1.104 -7.654,3.314c-1.978,2.209 -3.138,5.231 -3.479,9.064l21.203,-0c0,-3.98 -0.897,-7.038 -2.691,-9.174Zm-6.171,33.6c-5.835,-0 -10.431,-1.856 -13.788,-5.567c-3.357,-3.71 -5.035,-8.789 -5.035,-15.234c-0,-6.226 1.623,-11.273 4.87,-15.143c3.247,-3.869 7.52,-5.841 12.818,-5.914c4.98,-0 8.929,1.703 11.847,5.109c2.917,3.405 4.376,7.952 4.376,13.641c-0,0.293 -0.006,0.83 -0.018,1.611c-0.013,0.782 -0.019,1.343 -0.019,1.685l-27.575,-0c0.073,4.565 1.251,8.124 3.534,10.675c2.282,2.551 5.352,3.827 9.21,3.827c4.248,-0 8.508,-1.123 12.78,-3.369l0.953,4.943c-4.078,2.491 -8.728,3.736 -13.953,3.736Z" style="fill:#fff;fill-rule:nonzero;"/><path d="M1838.26,1317.87c1.098,0 2.099,0.073 3.002,0.22l-0.219,5.639c-1.123,-0.195 -2.1,-0.293 -2.93,-0.293c-3.418,0 -6.195,1.191 -8.331,3.571c-2.136,2.38 -3.205,5.328 -3.205,8.844l0,22.559l-6.115,-0c-0.025,-24.659 -0.037,-38.05 -0.037,-40.174l5.09,0l0.586,7.215c1.392,-2.271 3.162,-4.102 5.31,-5.494c2.149,-1.391 4.432,-2.087 6.849,-2.087Z" style="fill:#fff;fill-rule:nonzero;"/><path d="M1858.48,1354.3c2.906,-0 5.463,-0.8 7.673,-2.399c2.209,-1.599 3.631,-3.753 4.266,-6.463l-0,-6.775c-0.122,-0 -0.861,0.061 -2.216,0.183c-1.355,0.122 -2.24,0.195 -2.655,0.22c-5.298,0.463 -8.99,1.33 -11.078,2.6c-2.087,1.269 -3.131,3.308 -3.131,6.115c0,2.149 0.635,3.772 1.905,4.871c1.269,1.099 3.015,1.648 5.236,1.648Zm13.294,4.102c-0.366,-1.563 -0.72,-3.248 -1.062,-5.054c-2.222,2.222 -4.309,3.76 -6.262,4.614c-1.953,0.855 -4.248,1.282 -6.885,1.282c-3.76,-0 -6.781,-0.983 -9.064,-2.948c-2.283,-1.965 -3.424,-4.791 -3.424,-8.478c0,-4.101 1.556,-7.141 4.669,-9.119c3.113,-1.977 7.599,-3.21 13.459,-3.698c0.805,-0.074 2.02,-0.177 3.643,-0.312c1.624,-0.134 2.838,-0.238 3.644,-0.311l0,-3.552c0,-2.832 -0.659,-4.932 -1.977,-6.299c-1.319,-1.367 -3.394,-2.051 -6.226,-2.051c-3.955,0 -7.947,0.977 -11.975,2.93c-0.122,-0.293 -0.44,-1.141 -0.952,-2.545c-0.513,-1.404 -0.781,-2.13 -0.806,-2.179c1.782,-1.001 3.9,-1.801 6.354,-2.399c2.453,-0.598 4.95,-0.897 7.489,-0.897c5.005,-0 8.612,1.092 10.821,3.278c2.21,2.185 3.315,5.902 3.315,11.151l-0,26.587l-4.761,-0Z" style="fill:#fff;fill-rule:nonzero;"/></g><path d="M1557.89,1162.28l378.746,-0" style="fill:none;stroke:#fff;stroke-width:6.43px;stroke-dasharray:0,19.29,0,0;"/></g></svg>