<svg xmlns="http://www.w3.org/2000/svg" width="26" height="26" viewBox="0 0 26 26"><rect width="26" height="26" rx="6" fill="#021e6b"/><path d="M9.518,10.084h0V4.68C9.522,2.036,8.953,0,5.863,0a3.208,3.208,0,0,0-2.89,1.588H2.93V.247H0v9.836H3.051V5.213c0-1.282.243-2.522,1.831-2.522,1.565,0,1.588,1.464,1.588,2.6v4.789Z" transform="translate(11.278 8.983)" fill="#fff"/><path d="M0,0H3.055V9.836H0Z" transform="translate(6.31 9.23)" fill="#fff"/><path d="M1.769,0A1.778,1.778,0,1,0,3.538,1.769,1.77,1.77,0,0,0,1.769,0Z" transform="translate(6.067 4.333)" fill="#fff"/></svg>