<?xml version="1.0" encoding="UTF-8" standalone="no"?><!DOCTYPE svg PUBLIC "-//W3C//DTD SVG 1.1//EN" "http://www.w3.org/Graphics/SVG/1.1/DTD/svg11.dtd"><svg width="100%" height="100%" viewBox="0 0 73 34" version="1.1" xmlns="http://www.w3.org/2000/svg" xmlns:xlink="http://www.w3.org/1999/xlink" xml:space="preserve" xmlns:serif="http://www.serif.com/" style="fill-rule:evenodd;clip-rule:evenodd;stroke-linejoin:round;stroke-miterlimit:2;"><g><g><path d="M13.012,3.235l-1.711,-0.513l4.244,11.09l1.094,-1.264l-3.627,-9.313Z" style="fill:#fff;"/><path d="M22.279,6.018l-4.962,5.743l-3.19,-8.19l8.152,2.447Z" style="fill:#fff;"/><path d="M11.358,5.436l0.614,1.607c-0.192,0.748 -0.294,1.536 -0.294,2.349c-0,4.845 3.638,8.778 8.12,8.778c3.574,0 6.612,-2.501 7.695,-5.971l0,3.941c-1.783,2.199 -4.507,3.606 -7.557,3.606c-5.368,-0 -9.726,-4.358 -9.726,-9.727c0,-1.657 0.415,-3.218 1.148,-4.583Z" style="fill:#fff;"/><path d="M13.765,2.504c1.679,-1.381 3.829,-2.211 6.171,-2.211c0.902,-0 1.775,0.123 2.603,0.353l0,0.164c-0.716,-0.185 -1.466,-0.283 -2.239,-0.283c-0.493,0 -0.976,0.04 -1.448,0.117l-0,0.029c-1.646,0.207 -3.142,0.946 -4.338,2.056l-0.749,-0.225Z" style="fill:#fff;"/><path d="M36.147,0.745l-0,0.534c-0.212,0.048 -0.369,0.082 -0.472,0.099c-0.803,0.14 -1.267,0.271 -1.395,0.394c-0.126,0.124 -0.189,0.4 -0.189,0.829l-0,0.317l-0.046,3.64l0.027,5.289c0,0.424 0.062,0.692 0.186,0.806c0.124,0.115 0.548,0.215 1.273,0.299c0.138,0.018 0.341,0.055 0.606,0.109l0,0.534c-0.972,-0.066 -1.908,-0.099 -2.807,-0.099c-0.93,0 -1.95,0.033 -3.061,0.099l-0,-0.534c0.175,-0.049 0.307,-0.078 0.398,-0.091c0.858,-0.139 1.348,-0.267 1.471,-0.385c0.125,-0.117 0.187,-0.415 0.187,-0.891l-0.019,-0.453l0.027,-3.324c0,-3.417 -0.008,-5.307 -0.027,-5.669c-0.012,-0.199 -0.077,-0.354 -0.194,-0.462c-0.117,-0.108 -0.572,-0.239 -1.366,-0.389c-0.108,-0.025 -0.267,-0.064 -0.477,-0.118l-0,-0.534c1.312,0.066 2.337,0.098 3.075,0.098c0.822,0 1.756,-0.032 2.803,-0.098Z" style="fill:#fff;fill-rule:nonzero;"/><path d="M43.989,7.754l-0.607,-0.045c-0.024,-0.764 -0.216,-1.329 -0.575,-1.696c-0.359,-0.367 -0.849,-0.551 -1.471,-0.551c-0.448,0 -0.876,0.123 -1.286,0.368c-0.411,0.245 -0.732,0.643 -0.965,1.197c-0.232,0.553 -0.349,1.18 -0.349,1.881c0,1.125 0.273,2.003 0.82,2.635c0.546,0.632 1.179,0.947 1.898,0.947c0.754,0 1.663,-0.298 2.725,-0.897l0.335,0.544c-0.948,0.701 -1.735,1.192 -2.364,1.477c-0.301,0.132 -0.67,0.198 -1.104,0.198c-1.057,0 -1.911,-0.307 -2.563,-0.923c-0.864,-0.815 -1.295,-1.92 -1.295,-3.314c0,-1.444 0.452,-2.63 1.359,-3.56c0.905,-0.93 2.021,-1.395 3.35,-1.395c0.906,0 1.778,0.233 2.617,0.698c-0.042,0.205 -0.102,0.471 -0.18,0.797c-0.104,0.428 -0.218,0.975 -0.345,1.639Z" style="fill:#fff;fill-rule:nonzero;"/><path d="M46.616,7.582l-0.571,-0c0.06,-0.64 0.1,-1.525 0.118,-2.653c1.141,0.066 2.333,0.099 3.577,0.099c1.243,0 2.37,-0.033 3.378,-0.099l-0,0.606c-2.934,3.658 -4.782,6.032 -5.543,7.118l3.505,-0.063c0.326,-0.03 0.56,-0.117 0.702,-0.263c0.142,-0.144 0.294,-0.588 0.457,-1.331c0.013,-0.067 0.037,-0.166 0.073,-0.299l0.633,0l-0.09,1.304l-0.027,1.594c-1.147,-0.066 -2.165,-0.099 -3.052,-0.099c-0.604,0 -2.047,0.033 -4.329,0.099l0,-0.507l1.52,-1.929l4.08,-5.307l-2.279,0.064c-0.658,0.018 -1.07,0.05 -1.239,0.098c-0.169,0.048 -0.304,0.13 -0.407,0.244c-0.103,0.114 -0.241,0.463 -0.416,1.044c-0.018,0.061 -0.048,0.154 -0.09,0.28Z" style="fill:#fff;fill-rule:nonzero;"/><path d="M55.617,7.446l-0.589,-0.064c0.121,-0.627 0.206,-1.252 0.254,-1.874c1.175,-0.531 2.237,-0.797 3.183,-0.797c0.41,0 0.781,0.059 1.113,0.177c0.33,0.117 0.593,0.281 0.786,0.489c0.192,0.208 0.339,0.457 0.438,0.747c0.1,0.29 0.149,0.752 0.149,1.386l-0.081,3.74c-0,0.506 0.057,0.839 0.172,0.996c0.115,0.157 0.263,0.235 0.444,0.235c0.217,0 0.558,-0.162 1.023,-0.489l0.281,0.372c-0.852,0.76 -1.316,1.165 -1.394,1.213c-0.17,0.096 -0.381,0.145 -0.634,0.145c-0.393,0 -0.696,-0.098 -0.911,-0.294c-0.214,-0.197 -0.358,-0.527 -0.43,-0.992c-0.724,0.562 -1.262,0.916 -1.612,1.064c-0.35,0.148 -0.73,0.222 -1.141,0.222c-0.67,0 -1.211,-0.204 -1.621,-0.611c-0.411,-0.408 -0.616,-0.928 -0.616,-1.563c0,-0.386 0.072,-0.734 0.217,-1.045c0.145,-0.311 0.353,-0.584 0.625,-0.82c0.211,-0.175 0.568,-0.386 1.069,-0.634c1.177,-0.573 2.203,-1.036 3.079,-1.386c-0.03,-0.851 -0.172,-1.415 -0.425,-1.693c-0.253,-0.278 -0.641,-0.417 -1.165,-0.417c-0.494,0 -0.917,0.153 -1.27,0.458c-0.352,0.305 -0.666,0.783 -0.944,1.435Zm3.804,1.006c-1.576,0.706 -2.529,1.221 -2.857,1.544c-0.329,0.323 -0.493,0.71 -0.493,1.163c-0,0.453 0.123,0.815 0.37,1.087c0.248,0.272 0.538,0.407 0.87,0.407c0.344,0 0.717,-0.113 1.118,-0.339c0.402,-0.227 0.667,-0.482 0.797,-0.766c0.13,-0.283 0.195,-0.8 0.195,-1.548l0,-1.548Z" style="fill:#fff;fill-rule:nonzero;"/><g><g><path d="M30.491,16.468l0,0.723l0.397,-0c0.161,-0 0.282,-0.03 0.363,-0.09c0.08,-0.059 0.121,-0.152 0.121,-0.278c-0,-0.131 -0.044,-0.223 -0.131,-0.276c-0.087,-0.052 -0.222,-0.079 -0.407,-0.079l-0.343,0Zm0,-0.178l0.408,-0c0.132,-0 0.233,-0.023 0.3,-0.07c0.068,-0.046 0.102,-0.128 0.102,-0.246c-0,-0.119 -0.041,-0.201 -0.121,-0.246c-0.081,-0.045 -0.207,-0.068 -0.378,-0.068l-0.311,0l0,0.63Zm-0.222,-0.818l0.545,0c0.244,0 0.425,0.038 0.543,0.112c0.118,0.075 0.177,0.193 0.177,0.356c-0,0.024 -0.002,0.048 -0.005,0.072c-0.003,0.023 -0.011,0.053 -0.023,0.09c-0.012,0.037 -0.029,0.071 -0.051,0.101c-0.021,0.03 -0.053,0.061 -0.094,0.091c-0.042,0.031 -0.09,0.055 -0.146,0.073c0.128,0.024 0.224,0.078 0.29,0.162c0.066,0.084 0.099,0.185 0.099,0.303c0,0.172 -0.056,0.306 -0.169,0.4c-0.112,0.094 -0.28,0.141 -0.503,0.141l-0.663,0l-0,-1.901Z" style="fill:#fff;fill-rule:nonzero;"/><path d="M32.52,16.903l-0,-0.94l0.216,0l-0,0.942c-0,0.062 0.009,0.114 0.026,0.157c0.018,0.043 0.043,0.076 0.076,0.1c0.033,0.023 0.07,0.04 0.112,0.051c0.041,0.01 0.089,0.015 0.143,0.015c0.112,-0 0.198,-0.024 0.26,-0.073c0.063,-0.049 0.094,-0.132 0.094,-0.25l-0,-0.942l0.216,0l-0,0.94c-0,0.072 -0.011,0.136 -0.031,0.194c-0.021,0.057 -0.049,0.105 -0.083,0.143c-0.035,0.038 -0.077,0.07 -0.126,0.095c-0.048,0.024 -0.1,0.042 -0.154,0.054c-0.055,0.011 -0.113,0.016 -0.176,0.016c-0.062,0 -0.12,-0.005 -0.175,-0.016c-0.054,-0.012 -0.106,-0.03 -0.156,-0.055c-0.049,-0.025 -0.091,-0.057 -0.127,-0.095c-0.036,-0.038 -0.064,-0.086 -0.084,-0.143c-0.021,-0.058 -0.031,-0.122 -0.031,-0.193Z" style="fill:#fff;fill-rule:nonzero;"/><path d="M35.09,17.403c-0.096,-0 -0.185,-0.011 -0.266,-0.031c-0.081,-0.021 -0.146,-0.047 -0.197,-0.08l0.027,-0.181c0.143,0.076 0.284,0.114 0.422,0.114c0.209,0 0.316,-0.073 0.322,-0.221c0,-0.062 -0.022,-0.111 -0.067,-0.147c-0.044,-0.036 -0.132,-0.077 -0.262,-0.121l-0.106,-0.038c-0.124,-0.041 -0.212,-0.092 -0.265,-0.152c-0.052,-0.061 -0.079,-0.137 -0.08,-0.228c0,-0.11 0.044,-0.202 0.133,-0.275c0.089,-0.073 0.21,-0.109 0.364,-0.109c0.16,-0 0.305,0.031 0.436,0.092l-0.063,0.165c-0.133,-0.055 -0.257,-0.082 -0.373,-0.082c-0.09,-0 -0.16,0.017 -0.211,0.053c-0.051,0.035 -0.076,0.085 -0.076,0.15c-0,0.054 0.018,0.096 0.055,0.126c0.037,0.029 0.11,0.062 0.221,0.1c0.028,0.01 0.064,0.022 0.107,0.036c0.142,0.046 0.242,0.101 0.302,0.164c0.059,0.063 0.088,0.148 0.088,0.255c-0.001,0.13 -0.048,0.231 -0.14,0.302c-0.092,0.072 -0.215,0.108 -0.371,0.108Z" style="fill:#fff;fill-rule:nonzero;"/><path d="M36.834,15.963l0,1.41l-0.216,0l0,-1.41l0.216,0Zm0,-0.512l0,0.254l-0.216,0l0,-0.254l0.216,-0Z" style="fill:#fff;fill-rule:nonzero;"/><path d="M37.925,17.373l-0,-1.41l0.18,0l0.027,0.202c0.056,-0.069 0.125,-0.125 0.209,-0.168c0.083,-0.042 0.173,-0.063 0.27,-0.063c0.163,-0 0.283,0.045 0.361,0.137c0.078,0.091 0.117,0.231 0.117,0.421l0,0.881l-0.214,0c-0,-0.565 -0.001,-0.868 -0.002,-0.908c-0.003,-0.12 -0.027,-0.208 -0.072,-0.264c-0.045,-0.056 -0.12,-0.083 -0.226,-0.083c-0.11,-0 -0.202,0.026 -0.276,0.079c-0.074,0.053 -0.122,0.122 -0.144,0.207c-0.009,0.058 -0.013,0.124 -0.013,0.198l0,0.771l-0.217,0Z" style="fill:#fff;fill-rule:nonzero;"/><path d="M40.946,16.224c-0.063,-0.075 -0.149,-0.113 -0.259,-0.113c-0.109,0 -0.199,0.039 -0.268,0.116c-0.07,0.078 -0.11,0.184 -0.122,0.319l0.744,-0c-0,-0.14 -0.032,-0.247 -0.095,-0.322Zm-0.216,1.179c-0.205,-0 -0.366,-0.065 -0.484,-0.196c-0.118,-0.13 -0.177,-0.308 -0.177,-0.534c0,-0.219 0.057,-0.396 0.171,-0.532c0.114,-0.135 0.264,-0.205 0.45,-0.207c0.175,-0 0.313,0.06 0.416,0.179c0.102,0.12 0.153,0.279 0.153,0.479c0,0.01 0,0.029 -0,0.056c-0.001,0.028 -0.001,0.047 -0.001,0.059l-0.968,0c0.003,0.161 0.044,0.286 0.124,0.375c0.08,0.09 0.188,0.134 0.324,0.134c0.149,0 0.298,-0.039 0.448,-0.118l0.034,0.174c-0.144,0.087 -0.307,0.131 -0.49,0.131Z" style="fill:#fff;fill-rule:nonzero;"/><path d="M42.665,17.403c-0.096,-0 -0.185,-0.011 -0.266,-0.031c-0.081,-0.021 -0.146,-0.047 -0.197,-0.08l0.027,-0.181c0.143,0.076 0.284,0.114 0.422,0.114c0.209,0 0.316,-0.073 0.322,-0.221c0,-0.062 -0.022,-0.111 -0.067,-0.147c-0.044,-0.036 -0.132,-0.077 -0.262,-0.121l-0.107,-0.038c-0.123,-0.041 -0.211,-0.092 -0.264,-0.152c-0.052,-0.061 -0.079,-0.137 -0.08,-0.228c0,-0.11 0.044,-0.202 0.133,-0.275c0.089,-0.073 0.21,-0.109 0.364,-0.109c0.16,-0 0.305,0.031 0.436,0.092l-0.063,0.165c-0.133,-0.055 -0.257,-0.082 -0.373,-0.082c-0.09,-0 -0.16,0.017 -0.211,0.053c-0.051,0.035 -0.076,0.085 -0.076,0.15c-0,0.054 0.018,0.096 0.055,0.126c0.037,0.029 0.11,0.062 0.221,0.1c0.028,0.01 0.064,0.022 0.107,0.036c0.142,0.046 0.242,0.101 0.302,0.164c0.059,0.063 0.088,0.148 0.088,0.255c-0.001,0.13 -0.048,0.231 -0.14,0.302c-0.092,0.072 -0.215,0.108 -0.371,0.108Z" style="fill:#fff;fill-rule:nonzero;"/><path d="M44.576,17.403c-0.095,-0 -0.184,-0.011 -0.265,-0.031c-0.081,-0.021 -0.147,-0.047 -0.197,-0.08l0.027,-0.181c0.143,0.076 0.283,0.114 0.421,0.114c0.209,0 0.317,-0.073 0.323,-0.221c-0,-0.062 -0.022,-0.111 -0.067,-0.147c-0.044,-0.036 -0.132,-0.077 -0.262,-0.121l-0.107,-0.038c-0.123,-0.041 -0.211,-0.092 -0.264,-0.152c-0.053,-0.061 -0.079,-0.137 -0.08,-0.228c-0,-0.11 0.044,-0.202 0.133,-0.275c0.089,-0.073 0.21,-0.109 0.364,-0.109c0.16,-0 0.305,0.031 0.436,0.092l-0.063,0.165c-0.133,-0.055 -0.257,-0.082 -0.373,-0.082c-0.09,-0 -0.16,0.017 -0.211,0.053c-0.051,0.035 -0.077,0.085 -0.077,0.15c0,0.054 0.019,0.096 0.056,0.126c0.036,0.029 0.11,0.062 0.221,0.1c0.028,0.01 0.063,0.022 0.106,0.036c0.143,0.046 0.243,0.101 0.302,0.164c0.059,0.063 0.089,0.148 0.089,0.255c-0.002,0.13 -0.048,0.231 -0.14,0.302c-0.092,0.072 -0.216,0.108 -0.372,0.108Z" style="fill:#fff;fill-rule:nonzero;"/><path d="M47.416,17.06c0.197,0.097 0.409,0.146 0.636,0.146c0.278,0 0.417,-0.127 0.417,-0.38c0,-0.083 -0.022,-0.149 -0.066,-0.2c-0.044,-0.051 -0.124,-0.091 -0.241,-0.12l-0.378,-0.095c-0.288,-0.073 -0.433,-0.227 -0.433,-0.463c0,-0.181 0.062,-0.315 0.187,-0.403c0.124,-0.088 0.296,-0.132 0.515,-0.132c0.115,0 0.222,0.013 0.323,0.038c0.1,0.024 0.184,0.058 0.251,0.1l-0.064,0.181c-0.057,-0.032 -0.133,-0.06 -0.228,-0.085c-0.095,-0.025 -0.19,-0.037 -0.287,-0.037c-0.31,-0 -0.465,0.107 -0.465,0.323c-0,0.072 0.023,0.131 0.071,0.175c0.047,0.044 0.119,0.078 0.214,0.101l0.361,0.087c0.154,0.037 0.271,0.096 0.351,0.177c0.08,0.081 0.119,0.196 0.119,0.345c0,0.194 -0.059,0.34 -0.178,0.438c-0.118,0.098 -0.28,0.147 -0.483,0.147c-0.153,-0 -0.289,-0.016 -0.407,-0.047c-0.119,-0.031 -0.213,-0.068 -0.282,-0.111l0.067,-0.185Z" style="fill:#fff;fill-rule:nonzero;"/><path d="M50.125,17.399c-0.138,-0 -0.237,-0.034 -0.295,-0.102c-0.059,-0.067 -0.089,-0.177 -0.093,-0.327l0,-0.847l-0.209,-0l0.009,-0.142l0.199,-0.018l0.073,-0.322l0.142,-0.005l-0,0.327l0.392,0l-0,0.16l-0.392,-0l-0,0.808c-0,0.107 0.016,0.183 0.048,0.226c0.033,0.044 0.089,0.066 0.167,0.066c0.029,-0 0.09,-0.007 0.184,-0.021l0.009,0.17c-0.102,0.018 -0.18,0.027 -0.234,0.027Z" style="fill:#fff;fill-rule:nonzero;"/><path d="M51.907,15.951c0.039,-0 0.074,0.002 0.106,0.007l-0.008,0.198c-0.039,-0.007 -0.074,-0.01 -0.103,-0.01c-0.12,-0 -0.217,0.042 -0.292,0.125c-0.075,0.084 -0.113,0.187 -0.113,0.311l0,0.791l-0.214,0c-0.001,-0.865 -0.002,-1.335 -0.002,-1.41l0.179,0l0.021,0.254c0.048,-0.08 0.111,-0.144 0.186,-0.193c0.075,-0.049 0.155,-0.073 0.24,-0.073Z" style="fill:#fff;fill-rule:nonzero;"/><path d="M53.304,17.229c0.102,0 0.191,-0.028 0.269,-0.084c0.077,-0.056 0.127,-0.132 0.15,-0.227l-0,-0.238c-0.005,0 -0.031,0.003 -0.078,0.007c-0.048,0.004 -0.079,0.007 -0.093,0.008c-0.186,0.016 -0.316,0.046 -0.389,0.091c-0.073,0.044 -0.11,0.116 -0.11,0.214c0,0.076 0.022,0.133 0.067,0.171c0.044,0.039 0.106,0.058 0.184,0.058Zm0.466,0.144c-0.013,-0.055 -0.025,-0.114 -0.037,-0.177c-0.078,0.078 -0.151,0.132 -0.22,0.162c-0.068,0.03 -0.149,0.045 -0.241,0.045c-0.132,-0 -0.238,-0.035 -0.319,-0.104c-0.08,-0.069 -0.12,-0.168 -0.12,-0.297c0,-0.144 0.055,-0.251 0.164,-0.32c0.109,-0.07 0.267,-0.113 0.472,-0.13c0.029,-0.003 0.071,-0.006 0.128,-0.011c0.057,-0.005 0.1,-0.008 0.128,-0.011l0,-0.125c0,-0.099 -0.023,-0.173 -0.069,-0.221c-0.046,-0.048 -0.119,-0.072 -0.219,-0.072c-0.138,0 -0.279,0.035 -0.42,0.103c-0.004,-0.01 -0.015,-0.04 -0.033,-0.089c-0.018,-0.049 -0.028,-0.075 -0.029,-0.077c0.063,-0.035 0.137,-0.063 0.223,-0.084c0.086,-0.021 0.174,-0.031 0.263,-0.031c0.176,-0 0.302,0.038 0.38,0.115c0.077,0.077 0.116,0.207 0.116,0.391l0,0.933l-0.167,0Z" style="fill:#fff;fill-rule:nonzero;"/><path d="M55.444,17.399c-0.139,-0 -0.237,-0.034 -0.295,-0.102c-0.059,-0.067 -0.09,-0.177 -0.093,-0.327l0,-0.847l-0.209,-0l0.009,-0.142l0.199,-0.018l0.073,-0.322l0.141,-0.005l0,0.327l0.392,0l0,0.16l-0.392,-0l0,0.808c0,0.107 0.017,0.183 0.049,0.226c0.033,0.044 0.088,0.066 0.167,0.066c0.029,-0 0.09,-0.007 0.184,-0.021l0.009,0.17c-0.102,0.018 -0.18,0.027 -0.234,0.027Z" style="fill:#fff;fill-rule:nonzero;"/><path d="M57.393,16.224c-0.063,-0.075 -0.15,-0.113 -0.259,-0.113c-0.11,0 -0.2,0.039 -0.269,0.116c-0.069,0.078 -0.11,0.184 -0.122,0.319l0.744,-0c-0,-0.14 -0.031,-0.247 -0.094,-0.322Zm-0.217,1.179c-0.205,-0 -0.366,-0.065 -0.484,-0.196c-0.118,-0.13 -0.177,-0.308 -0.177,-0.534c0,-0.219 0.057,-0.396 0.171,-0.532c0.114,-0.135 0.264,-0.205 0.45,-0.207c0.175,-0 0.314,0.06 0.416,0.179c0.102,0.12 0.153,0.279 0.153,0.479c0,0.01 0,0.029 -0,0.056c-0.001,0.028 -0.001,0.047 -0.001,0.059l-0.968,0c0.003,0.161 0.044,0.286 0.124,0.375c0.081,0.09 0.188,0.134 0.324,0.134c0.149,0 0.298,-0.039 0.448,-0.118l0.034,0.174c-0.143,0.087 -0.307,0.131 -0.49,0.131Z" style="fill:#fff;fill-rule:nonzero;"/><path d="M59.238,17.189c0.073,0 0.137,-0.012 0.192,-0.038c0.054,-0.026 0.097,-0.061 0.128,-0.107c0.031,-0.045 0.054,-0.096 0.069,-0.151c0.015,-0.056 0.022,-0.117 0.022,-0.183l0,-0.104c0,-0.069 -0.007,-0.132 -0.023,-0.19c-0.015,-0.057 -0.039,-0.109 -0.071,-0.155c-0.032,-0.046 -0.075,-0.082 -0.129,-0.107c-0.053,-0.026 -0.116,-0.039 -0.187,-0.039c-0.059,0 -0.113,0.011 -0.161,0.033c-0.048,0.023 -0.088,0.052 -0.119,0.088c-0.032,0.037 -0.058,0.079 -0.08,0.128c-0.022,0.048 -0.038,0.097 -0.047,0.147c-0.009,0.05 -0.014,0.1 -0.014,0.15c-0,0.05 0.005,0.099 0.015,0.148c0.011,0.049 0.027,0.096 0.049,0.143c0.022,0.046 0.049,0.086 0.081,0.121c0.032,0.035 0.071,0.063 0.119,0.084c0.047,0.022 0.1,0.032 0.156,0.032Zm-0.33,0.829l-0.019,-0.194l0.262,0c0.073,0 0.136,-0.005 0.19,-0.015c0.054,-0.01 0.099,-0.027 0.135,-0.051c0.036,-0.023 0.065,-0.05 0.087,-0.078c0.023,-0.029 0.039,-0.066 0.051,-0.112c0.012,-0.046 0.019,-0.091 0.023,-0.136c0.004,-0.045 0.006,-0.1 0.006,-0.165l-0,-0.125c-0.051,0.074 -0.111,0.13 -0.179,0.17c-0.067,0.04 -0.154,0.06 -0.258,0.06c-0.081,-0 -0.155,-0.014 -0.223,-0.042c-0.068,-0.028 -0.126,-0.065 -0.172,-0.111c-0.047,-0.046 -0.087,-0.1 -0.12,-0.161c-0.033,-0.061 -0.057,-0.123 -0.072,-0.189c-0.015,-0.065 -0.022,-0.13 -0.022,-0.196c-0,-0.103 0.012,-0.198 0.038,-0.286c0.025,-0.087 0.062,-0.165 0.112,-0.233c0.05,-0.069 0.115,-0.123 0.196,-0.162c0.081,-0.039 0.174,-0.058 0.278,-0.058c0.093,-0 0.174,0.018 0.243,0.053c0.069,0.036 0.131,0.09 0.185,0.164l0,-0.188l0.21,0l-0,1.309c-0,0.06 -0.002,0.112 -0.005,0.157c-0.003,0.045 -0.01,0.095 -0.022,0.15c-0.011,0.055 -0.027,0.102 -0.046,0.141c-0.02,0.04 -0.048,0.079 -0.083,0.119c-0.036,0.04 -0.078,0.072 -0.128,0.096c-0.049,0.025 -0.11,0.045 -0.183,0.06c-0.073,0.016 -0.155,0.023 -0.246,0.023l-0.238,0Z" style="fill:#fff;fill-rule:nonzero;"/><path d="M60.723,15.963l0.228,0l0.444,1.174l0.396,-1.174l0.228,0c-0.381,1.047 -0.577,1.587 -0.59,1.62c-0.059,0.148 -0.131,0.257 -0.215,0.325c-0.084,0.069 -0.194,0.104 -0.331,0.104c-0.042,-0 -0.085,-0.003 -0.13,-0.01l-0.013,-0.183c0.048,0.004 0.084,0.005 0.108,0.005c0.097,0 0.17,-0.017 0.22,-0.053c0.05,-0.036 0.095,-0.102 0.135,-0.2c0.035,-0.09 0.061,-0.159 0.078,-0.208l-0.558,-1.4Z" style="fill:#fff;fill-rule:nonzero;"/></g></g></g></g><g><g><path d="M15.676,31.992c-0.305,0 -0.584,-0.057 -0.838,-0.171c-0.254,-0.114 -0.476,-0.273 -0.666,-0.475c-0.19,-0.202 -0.337,-0.433 -0.441,-0.694c-0.104,-0.26 -0.157,-0.537 -0.157,-0.829c0,-0.394 0.089,-0.753 0.265,-1.077c0.177,-0.325 0.423,-0.583 0.738,-0.774c0.316,-0.191 0.679,-0.287 1.091,-0.287c0.39,-0 0.735,0.089 1.035,0.269c0.299,0.179 0.521,0.421 0.666,0.725l-0.53,0.169c-0.117,-0.214 -0.282,-0.381 -0.493,-0.501c-0.211,-0.121 -0.445,-0.181 -0.702,-0.181c-0.278,0 -0.532,0.072 -0.762,0.215c-0.23,0.143 -0.413,0.34 -0.55,0.589c-0.136,0.25 -0.204,0.534 -0.204,0.853c-0,0.313 0.069,0.597 0.208,0.852c0.139,0.255 0.324,0.458 0.554,0.609c0.23,0.151 0.484,0.227 0.762,0.227c0.182,0 0.357,-0.032 0.525,-0.096c0.169,-0.064 0.316,-0.151 0.442,-0.261c0.125,-0.109 0.209,-0.228 0.252,-0.357l0.538,0.161c-0.075,0.197 -0.2,0.375 -0.373,0.533c-0.174,0.158 -0.377,0.281 -0.61,0.369c-0.233,0.088 -0.483,0.132 -0.75,0.132Z" style="fill:#fff;fill-rule:nonzero;"/><path d="M19.534,30.717c0,-0.26 0.075,-0.485 0.225,-0.674c0.15,-0.188 0.357,-0.334 0.622,-0.438c0.264,-0.104 0.571,-0.155 0.918,-0.155c0.203,-0 0.415,0.016 0.634,0.048c0.219,0.032 0.414,0.08 0.585,0.144l0,-0.352c0,-0.351 -0.104,-0.63 -0.312,-0.837c-0.209,-0.207 -0.498,-0.311 -0.867,-0.311c-0.224,0 -0.445,0.041 -0.662,0.124c-0.216,0.083 -0.442,0.205 -0.677,0.365l-0.209,-0.385c0.273,-0.187 0.54,-0.327 0.802,-0.421c0.262,-0.093 0.53,-0.14 0.802,-0.14c0.514,-0 0.92,0.146 1.22,0.438c0.299,0.293 0.449,0.696 0.449,1.212l-0,1.921c-0,0.074 0.016,0.129 0.048,0.163c0.032,0.035 0.083,0.055 0.152,0.06l0,0.433c-0.058,0.006 -0.109,0.011 -0.152,0.016c-0.043,0.006 -0.075,0.006 -0.096,0c-0.134,-0.005 -0.236,-0.048 -0.305,-0.128c-0.07,-0.08 -0.107,-0.166 -0.112,-0.257l-0.008,-0.305c-0.188,0.241 -0.431,0.427 -0.73,0.558c-0.3,0.131 -0.605,0.196 -0.915,0.196c-0.267,0 -0.509,-0.057 -0.726,-0.171c-0.216,-0.114 -0.385,-0.268 -0.505,-0.462c-0.12,-0.194 -0.181,-0.408 -0.181,-0.642Zm2.8,0.318c0.059,-0.075 0.104,-0.146 0.136,-0.215c0.032,-0.069 0.048,-0.13 0.048,-0.183l0,-0.604c-0.181,-0.069 -0.37,-0.122 -0.565,-0.159c-0.195,-0.037 -0.392,-0.055 -0.59,-0.055c-0.39,-0 -0.706,0.076 -0.946,0.23c-0.241,0.154 -0.361,0.363 -0.361,0.628c-0,0.154 0.04,0.298 0.12,0.433c0.08,0.135 0.198,0.247 0.353,0.334c0.155,0.088 0.337,0.131 0.546,0.131c0.262,0 0.506,-0.05 0.734,-0.151c0.227,-0.1 0.402,-0.23 0.525,-0.389Z" style="fill:#fff;fill-rule:nonzero;"/><path d="M27.933,28.214c-0.364,0.011 -0.683,0.113 -0.959,0.305c-0.275,0.193 -0.469,0.457 -0.581,0.794l-0,2.599l-0.546,0l0,-4.163l0.514,-0l-0,0.987c0.144,-0.294 0.335,-0.532 0.573,-0.714c0.238,-0.182 0.491,-0.284 0.758,-0.305c0.054,-0.005 0.101,-0.008 0.141,-0.008c0.04,-0 0.073,0.003 0.1,0.008l-0,0.497Z" style="fill:#fff;fill-rule:nonzero;"/><path d="M31.831,31.992c-0.283,0 -0.545,-0.058 -0.786,-0.176c-0.24,-0.118 -0.448,-0.277 -0.621,-0.477c-0.174,-0.201 -0.309,-0.43 -0.405,-0.686c-0.097,-0.257 -0.145,-0.522 -0.145,-0.794c0,-0.294 0.047,-0.571 0.141,-0.831c0.093,-0.259 0.227,-0.49 0.401,-0.693c0.173,-0.204 0.378,-0.363 0.613,-0.478c0.236,-0.115 0.498,-0.172 0.786,-0.172c0.359,-0 0.67,0.089 0.935,0.269c0.265,0.179 0.488,0.402 0.67,0.669l-0,-0.874l0.489,-0l0,4.184c0,0.384 -0.092,0.708 -0.277,0.972c-0.184,0.264 -0.433,0.463 -0.746,0.596c-0.313,0.133 -0.653,0.2 -1.022,0.2c-0.476,-0 -0.861,-0.086 -1.156,-0.257c-0.294,-0.171 -0.534,-0.401 -0.722,-0.69l0.337,-0.264c0.166,0.262 0.387,0.457 0.662,0.585c0.276,0.129 0.568,0.193 0.879,0.193c0.272,-0 0.522,-0.049 0.75,-0.146c0.227,-0.097 0.409,-0.243 0.545,-0.437c0.136,-0.194 0.205,-0.438 0.205,-0.733l-0,-0.826c-0.161,0.262 -0.38,0.472 -0.658,0.63c-0.278,0.158 -0.57,0.236 -0.875,0.236Zm0.153,-0.457c0.166,0 0.325,-0.029 0.477,-0.088c0.153,-0.059 0.293,-0.138 0.421,-0.237c0.129,-0.099 0.236,-0.21 0.321,-0.333c0.086,-0.123 0.139,-0.248 0.161,-0.377l-0,-1.291c-0.081,-0.203 -0.196,-0.384 -0.345,-0.542c-0.15,-0.157 -0.32,-0.28 -0.51,-0.369c-0.19,-0.088 -0.386,-0.132 -0.589,-0.132c-0.236,0 -0.446,0.05 -0.63,0.149c-0.184,0.098 -0.34,0.229 -0.465,0.393c-0.126,0.163 -0.224,0.346 -0.293,0.549c-0.07,0.203 -0.104,0.406 -0.104,0.61c-0,0.224 0.04,0.437 0.12,0.637c0.08,0.201 0.191,0.38 0.333,0.538c0.142,0.158 0.307,0.279 0.497,0.365c0.19,0.085 0.392,0.128 0.606,0.128Z" style="fill:#fff;fill-rule:nonzero;"/><path d="M36.38,30.717c-0,-0.26 0.075,-0.485 0.224,-0.674c0.15,-0.188 0.357,-0.334 0.622,-0.438c0.265,-0.104 0.571,-0.155 0.918,-0.155c0.204,-0 0.415,0.016 0.634,0.048c0.219,0.032 0.415,0.08 0.586,0.144l-0,-0.352c-0,-0.351 -0.105,-0.63 -0.313,-0.837c-0.209,-0.207 -0.497,-0.311 -0.866,-0.311c-0.225,0 -0.446,0.041 -0.662,0.124c-0.217,0.083 -0.443,0.205 -0.678,0.365l-0.209,-0.385c0.273,-0.187 0.54,-0.327 0.803,-0.421c0.262,-0.093 0.529,-0.14 0.802,-0.14c0.513,-0 0.919,0.146 1.219,0.438c0.299,0.293 0.449,0.696 0.449,1.212l0,1.921c0,0.074 0.016,0.129 0.048,0.163c0.032,0.035 0.083,0.055 0.153,0.06l-0,0.433c-0.059,0.006 -0.11,0.011 -0.153,0.016c-0.042,0.006 -0.075,0.006 -0.096,0c-0.134,-0.005 -0.235,-0.048 -0.305,-0.128c-0.069,-0.08 -0.107,-0.166 -0.112,-0.257l-0.008,-0.305c-0.187,0.241 -0.431,0.427 -0.73,0.558c-0.3,0.131 -0.604,0.196 -0.915,0.196c-0.267,0 -0.509,-0.057 -0.725,-0.171c-0.217,-0.114 -0.386,-0.268 -0.506,-0.462c-0.12,-0.194 -0.18,-0.408 -0.18,-0.642Zm2.799,0.318c0.059,-0.075 0.104,-0.146 0.137,-0.215c0.032,-0.069 0.048,-0.13 0.048,-0.183l-0,-0.604c-0.182,-0.069 -0.371,-0.122 -0.566,-0.159c-0.195,-0.037 -0.392,-0.055 -0.589,-0.055c-0.391,-0 -0.706,0.076 -0.947,0.23c-0.241,0.154 -0.361,0.363 -0.361,0.628c0,0.154 0.04,0.298 0.12,0.433c0.081,0.135 0.198,0.247 0.353,0.334c0.155,0.088 0.337,0.131 0.546,0.131c0.262,0 0.507,-0.05 0.734,-0.151c0.227,-0.1 0.402,-0.23 0.525,-0.389Z" style="fill:#fff;fill-rule:nonzero;"/><path d="M46.206,31.912l-0.545,0l-0,-2.319c-0,-0.489 -0.073,-0.846 -0.217,-1.072c-0.144,-0.226 -0.372,-0.339 -0.682,-0.339c-0.214,0 -0.425,0.052 -0.634,0.155c-0.208,0.104 -0.391,0.244 -0.549,0.422c-0.158,0.178 -0.271,0.381 -0.341,0.609l0,2.544l-0.545,0l-0,-4.163l0.497,-0l-0,0.949c0.112,-0.202 0.259,-0.379 0.441,-0.531c0.182,-0.151 0.388,-0.27 0.618,-0.355c0.23,-0.085 0.468,-0.127 0.714,-0.127c0.23,-0 0.425,0.042 0.585,0.127c0.161,0.085 0.289,0.206 0.385,0.363c0.097,0.157 0.166,0.346 0.209,0.567c0.043,0.22 0.064,0.466 0.064,0.737l0,2.433Z" style="fill:#fff;fill-rule:nonzero;"/><path d="M48.693,29.847c-0,-0.394 0.081,-0.754 0.244,-1.081c0.164,-0.327 0.389,-0.589 0.678,-0.786c0.289,-0.197 0.618,-0.295 0.987,-0.295c0.347,-0 0.659,0.092 0.934,0.277c0.276,0.184 0.491,0.407 0.646,0.669l0,-2.575l0.546,0l-0,5.198c-0,0.075 0.016,0.13 0.048,0.165c0.032,0.035 0.08,0.055 0.144,0.06l0,0.433c-0.107,0.016 -0.19,0.022 -0.249,0.016c-0.112,-0.005 -0.211,-0.051 -0.296,-0.136c-0.086,-0.086 -0.129,-0.179 -0.129,-0.281l0,-0.409c-0.165,0.273 -0.39,0.489 -0.674,0.65c-0.283,0.16 -0.577,0.24 -0.882,0.24c-0.289,0 -0.555,-0.058 -0.798,-0.175c-0.243,-0.117 -0.455,-0.277 -0.634,-0.479c-0.179,-0.202 -0.318,-0.432 -0.417,-0.69c-0.099,-0.258 -0.148,-0.525 -0.148,-0.801Zm3.489,0.637l0,-1.282c-0.069,-0.192 -0.182,-0.366 -0.337,-0.522c-0.155,-0.157 -0.33,-0.282 -0.525,-0.375c-0.195,-0.092 -0.389,-0.139 -0.582,-0.139c-0.224,0 -0.428,0.047 -0.609,0.139c-0.182,0.093 -0.339,0.22 -0.47,0.379c-0.131,0.159 -0.231,0.34 -0.3,0.541c-0.07,0.202 -0.105,0.409 -0.105,0.622c0,0.223 0.039,0.435 0.117,0.637c0.077,0.202 0.188,0.381 0.332,0.537c0.145,0.157 0.311,0.278 0.498,0.363c0.187,0.085 0.39,0.127 0.609,0.127c0.139,0 0.284,-0.026 0.434,-0.08c0.149,-0.053 0.292,-0.126 0.429,-0.219c0.136,-0.092 0.25,-0.203 0.341,-0.33c0.091,-0.128 0.147,-0.26 0.168,-0.398Z" style="fill:#fff;fill-rule:nonzero;"/><path d="M57.348,31.992c-0.299,0 -0.576,-0.057 -0.83,-0.171c-0.254,-0.114 -0.473,-0.271 -0.658,-0.471c-0.184,-0.199 -0.328,-0.428 -0.429,-0.686c-0.102,-0.258 -0.153,-0.53 -0.153,-0.817c0,-0.298 0.051,-0.576 0.153,-0.834c0.101,-0.258 0.246,-0.487 0.433,-0.686c0.187,-0.199 0.408,-0.356 0.662,-0.471c0.254,-0.114 0.531,-0.171 0.83,-0.171c0.3,-0 0.575,0.057 0.826,0.171c0.252,0.115 0.471,0.272 0.658,0.471c0.187,0.199 0.332,0.428 0.433,0.686c0.102,0.258 0.153,0.536 0.153,0.834c-0,0.287 -0.051,0.559 -0.153,0.817c-0.101,0.258 -0.244,0.487 -0.429,0.686c-0.184,0.2 -0.404,0.357 -0.658,0.471c-0.254,0.114 -0.533,0.171 -0.838,0.171Zm-1.516,-2.137c-0,0.308 0.068,0.588 0.204,0.84c0.137,0.252 0.32,0.451 0.55,0.597c0.23,0.146 0.484,0.219 0.762,0.219c0.278,0 0.532,-0.074 0.762,-0.223c0.23,-0.149 0.415,-0.352 0.554,-0.609c0.139,-0.258 0.208,-0.538 0.208,-0.84c0,-0.308 -0.069,-0.59 -0.208,-0.845c-0.139,-0.254 -0.324,-0.456 -0.554,-0.605c-0.23,-0.149 -0.484,-0.223 -0.762,-0.223c-0.278,0 -0.531,0.077 -0.758,0.231c-0.227,0.154 -0.41,0.357 -0.549,0.609c-0.14,0.253 -0.209,0.535 -0.209,0.849Z" style="fill:#fff;fill-rule:nonzero;"/></g></g></svg>