<?xml version="1.0" encoding="UTF-8" standalone="no"?><!DOCTYPE svg PUBLIC "-//W3C//DTD SVG 1.1//EN" "http://www.w3.org/Graphics/SVG/1.1/DTD/svg11.dtd"><svg width="100%" height="100%" viewBox="0 0 154 53" version="1.1" xmlns="http://www.w3.org/2000/svg" xmlns:xlink="http://www.w3.org/1999/xlink" xml:space="preserve" xmlns:serif="http://www.serif.com/" style="fill-rule:evenodd;clip-rule:evenodd;stroke-linejoin:round;stroke-miterlimit:2;"><path d="M7.635,8.018l-4.662,-1.4l11.563,30.217l2.978,-3.447l-9.879,-25.37Z" style="fill:#589cf8;"/><path d="M32.882,15.599l-13.518,15.648l-8.691,-22.317l22.209,6.669Z" style="fill:#001e6b;"/><path d="M3.126,14.012l1.675,4.379c-0.523,2.039 -0.802,4.185 -0.802,6.401c-0,13.2 9.913,23.917 22.123,23.917c9.738,0 18.015,-6.816 20.968,-16.272l-0,10.739c-4.86,5.992 -12.281,9.824 -20.59,9.824c-14.626,0 -26.5,-11.874 -26.5,-26.5c-0,-4.515 1.132,-8.768 3.126,-12.488Z" style="fill:#001e6b;"/><path d="M9.685,6.023c4.576,-3.763 10.434,-6.023 16.815,-6.023c2.456,0 4.834,0.335 7.092,0.961l-0,0.447c-1.951,-0.502 -3.995,-0.769 -6.101,-0.769c-1.343,-0 -2.661,0.109 -3.946,0.318l-0,0.079c-4.484,0.564 -8.561,2.579 -11.818,5.601l-2.042,-0.614Z" style="fill:#001e6b;"/><g><path d="M70.665,1.23l-0,1.456c-0.576,0.131 -1.003,0.222 -1.283,0.271c-2.188,0.379 -3.455,0.736 -3.8,1.074c-0.345,0.337 -0.518,1.089 -0.518,2.257l-0,0.864l-0.124,9.919l0.075,14.41c-0,1.152 0.168,1.884 0.505,2.196c0.338,0.313 1.493,0.584 3.467,0.814c0.378,0.05 0.93,0.148 1.653,0.296l0,1.456c-2.648,-0.181 -5.198,-0.271 -7.649,-0.271c-2.533,-0 -5.313,0.09 -8.34,0.271l0,-1.456c0.477,-0.131 0.839,-0.213 1.086,-0.246c2.336,-0.379 3.672,-0.728 4.009,-1.049c0.338,-0.321 0.506,-1.131 0.506,-2.43l-0.049,-1.234l0.074,-9.056c-0,-9.31 -0.025,-14.459 -0.074,-15.446c-0.033,-0.543 -0.209,-0.962 -0.528,-1.258c-0.319,-0.296 -1.56,-0.65 -3.722,-1.061c-0.295,-0.066 -0.729,-0.173 -1.302,-0.321l0,-1.456c3.575,0.181 6.368,0.271 8.378,0.271c2.24,0 4.786,-0.09 7.636,-0.271Z" style="fill:#001e6b;fill-rule:nonzero;"/><path d="M92.033,20.328l-1.653,-0.123c-0.066,-2.081 -0.588,-3.622 -1.567,-4.621c-0.979,-0.999 -2.315,-1.499 -4.01,-1.499c-1.217,0 -2.385,0.334 -3.503,1.001c-1.119,0.667 -1.995,1.754 -2.628,3.261c-0.633,1.507 -0.95,3.216 -0.95,5.127c-0,3.064 0.744,5.456 2.233,7.177c1.489,1.721 3.212,2.582 5.169,2.582c2.056,-0 4.532,-0.814 7.427,-2.443l0.913,1.481c-2.582,1.908 -4.729,3.248 -6.44,4.022c-0.822,0.361 -1.826,0.542 -3.01,0.542c-2.879,0 -5.206,-0.839 -6.983,-2.516c-2.352,-2.221 -3.528,-5.231 -3.528,-9.031c-0,-3.932 1.233,-7.164 3.701,-9.697c2.467,-2.534 5.51,-3.8 9.129,-3.8c2.468,-0 4.845,0.633 7.131,1.9c-0.115,0.559 -0.279,1.283 -0.493,2.171c-0.28,1.168 -0.592,2.657 -0.938,4.466Z" style="fill:#001e6b;fill-rule:nonzero;"/><path d="M99.189,19.859l-1.555,0c0.165,-1.743 0.272,-4.153 0.321,-7.229c3.109,0.181 6.358,0.271 9.746,0.271c3.389,0 6.457,-0.09 9.204,-0.271l0,1.653c-7.994,9.968 -13.028,16.433 -15.101,19.394l9.549,-0.173c0.889,-0.082 1.526,-0.32 1.913,-0.715c0.386,-0.395 0.802,-1.604 1.246,-3.627c0.033,-0.181 0.098,-0.453 0.197,-0.815l1.727,0l-0.246,3.553l-0.074,4.343c-3.126,-0.181 -5.898,-0.271 -8.316,-0.271c-1.645,-0 -5.576,0.09 -11.794,0.271l-0,-1.382l4.141,-5.255l11.116,-14.46l-6.209,0.173c-1.791,0.049 -2.916,0.139 -3.376,0.27c-0.46,0.131 -0.83,0.352 -1.109,0.663c-0.279,0.311 -0.657,1.26 -1.134,2.847c-0.049,0.163 -0.131,0.417 -0.246,0.76Z" style="fill:#001e6b;fill-rule:nonzero;"/><path d="M123.715,19.489l-1.604,-0.173c0.329,-1.71 0.56,-3.413 0.691,-5.107c3.203,-1.448 6.093,-2.172 8.672,-2.172c1.117,0 2.127,0.161 3.03,0.482c0.903,0.32 1.618,0.765 2.143,1.332c0.526,0.568 0.924,1.246 1.195,2.036c0.271,0.789 0.407,2.048 0.407,3.775l-0.222,10.191c-0,1.381 0.156,2.286 0.468,2.714c0.313,0.427 0.716,0.641 1.209,0.641c0.593,0 1.522,-0.444 2.789,-1.332l0.765,1.011c-2.32,2.073 -3.587,3.175 -3.8,3.307c-0.461,0.263 -1.037,0.395 -1.728,0.395c-1.069,-0 -1.895,-0.268 -2.479,-0.802c-0.584,-0.535 -0.975,-1.435 -1.172,-2.702c-1.974,1.53 -3.438,2.496 -4.392,2.899c-0.955,0.403 -1.991,0.605 -3.109,0.605c-1.826,-0 -3.299,-0.556 -4.417,-1.666c-1.119,-1.11 -1.678,-2.529 -1.678,-4.256c-0,-1.053 0.197,-2.003 0.592,-2.85c0.395,-0.847 0.962,-1.592 1.703,-2.233c0.575,-0.477 1.546,-1.053 2.911,-1.727c3.208,-1.563 6.004,-2.822 8.39,-3.776c-0.082,-2.319 -0.468,-3.857 -1.157,-4.614c-0.689,-0.756 -1.748,-1.135 -3.176,-1.135c-1.346,0 -2.498,0.416 -3.458,1.246c-0.96,0.831 -1.818,2.135 -2.573,3.911Zm10.364,2.739c-4.294,1.925 -6.889,3.327 -7.785,4.207c-0.897,0.88 -1.345,1.937 -1.345,3.171c-0,1.233 0.337,2.22 1.012,2.961c0.674,0.74 1.464,1.11 2.368,1.11c0.938,0 1.954,-0.308 3.048,-0.925c1.094,-0.617 1.817,-1.312 2.171,-2.085c0.354,-0.773 0.531,-2.18 0.531,-4.22l-0,-4.219Z" style="fill:#001e6b;fill-rule:nonzero;"/></g><text x="54.042px" y="46.536px" style="font-family:'Oxygen-Regular', 'Oxygen';font-size:7.172px;fill:#589cf8;">B<tspan x="60.697px 66.701px 72.19px 76.131px 82.429px 88.461px 93.95px 99.439px 103.38px 109.829px 114.467px 119.165px 125.162px 129.761px 135.793px 142.102px " y="46.536px 46.536px 46.536px 46.536px 46.536px 46.536px 46.536px 46.536px 46.536px 46.536px 46.536px 46.536px 46.536px 46.536px 46.536px 46.536px ">usiness Strategy</tspan></text></svg>