<svg xmlns="http://www.w3.org/2000/svg" width="470.288" height="251.207" viewBox="0 0 470.288 251.207"><g transform="translate(0 308.654)"><path d="M294.943-252.238A21.944,21.944,0,0,1,316.877-230.3a21.945,21.945,0,0,1-21.934,21.934A21.944,21.944,0,0,1,273.01-230.3,21.943,21.943,0,0,1,294.943-252.238Z" transform="translate(-50.978 -10.534)" fill="#011d6a" fill-rule="evenodd"/><path d="M294.978-56.324A21.944,21.944,0,0,1,316.911-34.39a21.944,21.944,0,0,1-21.933,21.934A21.944,21.944,0,0,1,273.044-34.39,21.944,21.944,0,0,1,294.978-56.324Z" transform="translate(-50.984 -47.117)" fill="#011d6a" fill-rule="evenodd"/><path d="M217.734-174.7A11.874,11.874,0,0,1,229.6-162.829a11.874,11.874,0,0,1-11.868,11.868,11.874,11.874,0,0,1-11.868-11.868A11.874,11.874,0,0,1,217.734-174.7Z" transform="translate(-38.441 -25.013)" fill="#011d6a" fill-rule="evenodd"/><path d="M242.552-212.892a11.874,11.874,0,0,1,11.868,11.868,11.874,11.874,0,0,1-11.868,11.868,11.874,11.874,0,0,1-11.868-11.868A11.874,11.874,0,0,1,242.552-212.892Z" transform="translate(-43.075 -17.881)" fill="#011d6a" fill-rule="evenodd"/><path d="M302.613-154.042a11.874,11.874,0,0,1,11.868,11.868,11.874,11.874,0,0,1-11.868,11.868,11.874,11.874,0,0,1-11.868-11.868A11.874,11.874,0,0,1,302.613-154.042Z" transform="translate(-54.29 -28.87)" fill="#011d6a" fill-rule="evenodd"/><path d="M391.463-36.821a11.874,11.874,0,0,1,11.868,11.868,11.874,11.874,0,0,1-11.868,11.868A11.874,11.874,0,0,1,379.6-24.953,11.874,11.874,0,0,1,391.463-36.821Z" transform="translate(-70.88 -50.758)" fill="#011d6a" fill-rule="evenodd"/><path d="M226.54-70.916a11.874,11.874,0,0,1,11.868,11.868A11.874,11.874,0,0,1,226.54-47.18a11.874,11.874,0,0,1-11.868-11.868A11.874,11.874,0,0,1,226.54-70.916Z" transform="translate(-40.085 -44.392)" fill="#011d6a" fill-rule="evenodd"/><path d="M255.726-127.072A11.874,11.874,0,0,1,267.594-115.2a11.874,11.874,0,0,1-11.868,11.868A11.874,11.874,0,0,1,243.858-115.2,11.874,11.874,0,0,1,255.726-127.072Z" transform="translate(-45.535 -33.906)" fill="#011d6a" fill-rule="evenodd"/><path d="M320.63-93.836A11.874,11.874,0,0,1,332.5-81.968,11.874,11.874,0,0,1,320.63-70.1a11.874,11.874,0,0,1-11.868-11.868A11.874,11.874,0,0,1,320.63-93.836Z" transform="translate(-57.654 -40.112)" fill="#011d6a" fill-rule="evenodd"/><path d="M346.454-294.061a11.874,11.874,0,0,1,11.869,11.868,11.874,11.874,0,0,1-11.869,11.868,11.874,11.874,0,0,1-11.868-11.868A11.874,11.874,0,0,1,346.454-294.061Z" transform="translate(-62.476 -2.725)" fill="#011d6a" fill-rule="evenodd"/><path d="M374.506-93.836a11.874,11.874,0,0,1,11.868,11.868A11.874,11.874,0,0,1,374.506-70.1a11.874,11.874,0,0,1-11.868-11.868A11.874,11.874,0,0,1,374.506-93.836Z" transform="translate(-67.714 -40.112)" fill="#011d6a" fill-rule="evenodd"/><path d="M406.367-308.654a11.874,11.874,0,0,1,11.868,11.868,11.874,11.874,0,0,1-11.868,11.868A11.874,11.874,0,0,1,394.5-296.786,11.874,11.874,0,0,1,406.367-308.654Z" transform="translate(-73.663)" fill="#011d6a" fill-rule="evenodd"/><path d="M374.506-247.576a11.874,11.874,0,0,1,11.868,11.868,11.874,11.874,0,0,1-11.868,11.868,11.874,11.874,0,0,1-11.868-11.868A11.874,11.874,0,0,1,374.506-247.576Z" transform="translate(-67.714 -11.405)" fill="#011d6a" fill-rule="evenodd"/><path d="M453.506-31.018A11.874,11.874,0,0,1,465.374-19.15,11.874,11.874,0,0,1,453.506-7.282,11.874,11.874,0,0,1,441.638-19.15,11.874,11.874,0,0,1,453.506-31.018Z" transform="translate(-82.465 -51.842)" fill="#011d6a" fill-rule="evenodd"/><path d="M428.382-93.836A11.874,11.874,0,0,1,440.25-81.968,11.874,11.874,0,0,1,428.382-70.1a11.874,11.874,0,0,1-11.868-11.868A11.874,11.874,0,0,1,428.382-93.836Z" transform="translate(-77.774 -40.112)" fill="#011d6a" fill-rule="evenodd"/><path d="M435.09-239.862a11.874,11.874,0,0,1,11.868,11.868,11.874,11.874,0,0,1-11.868,11.868,11.874,11.874,0,0,1-11.868-11.868A11.874,11.874,0,0,1,435.09-239.862Z" transform="translate(-79.027 -12.845)" fill="#011d6a" fill-rule="evenodd"/><path d="M482.553-93.836a11.873,11.873,0,0,1,11.868,11.868A11.873,11.873,0,0,1,482.553-70.1a11.874,11.874,0,0,1-11.868-11.868A11.874,11.874,0,0,1,482.553-93.836Z" transform="translate(-87.889 -40.112)" fill="#011d6a" fill-rule="evenodd"/><path d="M449.683-139.449a11.874,11.874,0,0,1,11.868,11.868,11.873,11.873,0,0,1-11.868,11.868,11.873,11.873,0,0,1-11.868-11.868A11.874,11.874,0,0,1,449.683-139.449Z" transform="translate(-81.751 -31.595)" fill="#011d6a" fill-rule="evenodd"/><path d="M491.032-218.264A11.874,11.874,0,0,1,502.9-206.4a11.874,11.874,0,0,1-11.868,11.868A11.874,11.874,0,0,1,479.164-206.4,11.874,11.874,0,0,1,491.032-218.264Z" transform="translate(-89.472 -16.878)" fill="#011d6a" fill-rule="evenodd"/><path d="M477.885-174.7a11.874,11.874,0,0,1,11.868,11.869,11.874,11.874,0,0,1-11.868,11.868,11.874,11.874,0,0,1-11.868-11.868A11.874,11.874,0,0,1,477.885-174.7Z" transform="translate(-87.018 -25.013)" fill="#011d6a" fill-rule="evenodd"/><path d="M530.9-174.7a11.874,11.874,0,0,1,11.868,11.869A11.874,11.874,0,0,1,530.9-150.961a11.874,11.874,0,0,1-11.868-11.868A11.874,11.874,0,0,1,530.9-174.7Z" transform="translate(-96.917 -25.013)" fill="#011d6a" fill-rule="evenodd"/><path d="M367.67-211.657a38.536,38.536,0,0,1,38.517,38.517,38.536,38.536,0,0,1-38.517,38.517,38.536,38.536,0,0,1-38.517-38.517A38.536,38.536,0,0,1,367.67-211.657Z" transform="translate(-61.461 -18.112)" fill="#011d6a" fill-rule="evenodd"/><path d="M476.344-299.394a21.944,21.944,0,0,1,21.934,21.933,21.945,21.945,0,0,1-21.934,21.934,21.944,21.944,0,0,1-21.933-21.934A21.944,21.944,0,0,1,476.344-299.394Z" transform="translate(-84.85 -1.729)" fill="#011d6a" fill-rule="evenodd"/><path d="M546.26-124.856a21.944,21.944,0,0,1,21.933,21.934A21.944,21.944,0,0,1,546.26-80.988a21.944,21.944,0,0,1-21.934-21.934A21.945,21.945,0,0,1,546.26-124.856Z" transform="translate(-97.905 -34.32)" fill="#011d6a" fill-rule="evenodd"/><path d="M27.287-269.937V-283.9H35.55l-.1,2.049h-5.6v3.965h5.328v2.031H29.851v5.918Z" transform="translate(-5.095 -4.622)" fill="#011d6a"/><path d="M39.99-269.976V-280.45h2.5v10.474Zm0-12v-2.135H42.5v2.135Z" transform="translate(-7.467 -4.583)" fill="#011d6a"/><path d="M46.26-269.195v-10.474h2.011l.276,1.325a4.955,4.955,0,0,1,3.555-1.582,3.424,3.424,0,0,1,2.74,1.053,4.542,4.542,0,0,1,.91,3.054v6.624H53.246v-6.319a3.64,3.64,0,0,0-.41-1.9,1.573,1.573,0,0,0-1.439-.629,2.766,2.766,0,0,0-1.482.415,2.513,2.513,0,0,0-.977,1.043,10.518,10.518,0,0,0-.181,2.287v5.1Z" transform="translate(-8.638 -5.364)" fill="#011d6a"/><path d="M63.605-268.995a3.406,3.406,0,0,1-2.359-.805,2.952,2.952,0,0,1-.9-2.321,2.8,2.8,0,0,1,1.067-2.415,6.522,6.522,0,0,1,3.221-1c.2-.025.41-.051.639-.076s.486-.05.772-.076.511-.047.677-.067v-.552a1.884,1.884,0,0,0-.438-1.387,1.826,1.826,0,0,0-1.334-.434,9.217,9.217,0,0,0-3.155.715q-.01-.028-.315-.867t-.314-.858a10.074,10.074,0,0,1,4-.79,4.347,4.347,0,0,1,3.078.919,3.972,3.972,0,0,1,.963,2.979v6.833H67.36q-.01-.038-.21-.638t-.2-.638a5.861,5.861,0,0,1-1.53,1.12A4.185,4.185,0,0,1,63.605-268.995Zm.677-1.773a2.732,2.732,0,0,0,1.511-.414,2.425,2.425,0,0,0,.92-1.006v-2.02c-.019,0-.186.012-.5.038s-.484.038-.51.038a5.214,5.214,0,0,0-2.221.572,1.534,1.534,0,0,0-.705,1.41,1.318,1.318,0,0,0,.391,1.025A1.594,1.594,0,0,0,64.282-270.768Z" transform="translate(-11.268 -5.364)" fill="#011d6a"/><path d="M74.338-269.195v-10.474h2.011l.276,1.325a4.955,4.955,0,0,1,3.555-1.582,3.424,3.424,0,0,1,2.74,1.053,4.542,4.542,0,0,1,.91,3.054v6.624H81.324v-6.319a3.639,3.639,0,0,0-.41-1.9,1.573,1.573,0,0,0-1.439-.629,2.766,2.766,0,0,0-1.482.415,2.513,2.513,0,0,0-.977,1.043,10.512,10.512,0,0,0-.181,2.287v5.1Z" transform="translate(-13.881 -5.364)" fill="#011d6a"/><path d="M93.5-268.995a4.875,4.875,0,0,1-3.741-1.43,5.758,5.758,0,0,1-1.339-4.088,5.43,5.43,0,0,1,1.406-3.993,4.979,4.979,0,0,1,3.7-1.42,5.762,5.762,0,0,1,3.107.79l-.591,1.783a5.251,5.251,0,0,0-2.411-.677,2.425,2.425,0,0,0-2,.905,4.129,4.129,0,0,0-.729,2.64,4.245,4.245,0,0,0,.72,2.668,2.439,2.439,0,0,0,2.035.915,4.833,4.833,0,0,0,2.64-.81l.238,1.9a4.632,4.632,0,0,1-1.363.629A6.5,6.5,0,0,1,93.5-268.995Z" transform="translate(-16.511 -5.364)" fill="#011d6a"/><path d="M100.916-269.976V-280.45h2.5v10.474Zm0-12v-2.135h2.507v2.135Z" transform="translate(-18.844 -4.583)" fill="#011d6a"/><path d="M111.914-268.995a5.214,5.214,0,0,1-3.931-1.453,5.534,5.534,0,0,1-1.406-4.018,5.731,5.731,0,0,1,1.325-3.974,4.631,4.631,0,0,1,3.612-1.487,4.246,4.246,0,0,1,3.36,1.353,5.225,5.225,0,0,1,1.2,3.593q0,.161,0,.524t0,.534h-6.967a3.293,3.293,0,0,0,.805,2.273,2.775,2.775,0,0,0,2.111.806,6.607,6.607,0,0,0,3.3-.9l.352,1.773A6.98,6.98,0,0,1,111.914-268.995Zm-2.773-6.5h4.575a2.957,2.957,0,0,0-.581-1.963,2,2,0,0,0-1.611-.686,2.2,2.2,0,0,0-1.625.667A3.03,3.03,0,0,0,109.14-275.494Z" transform="translate(-19.901 -5.364)" fill="#011d6a"/><path d="M120.756-269.147v-10.474h2.1l.324,1.6a3.31,3.31,0,0,1,2.983-1.649,4.759,4.759,0,0,1,.668.038l-.038,2.088A5.319,5.319,0,0,0,126-277.6a2.683,2.683,0,0,0-2.063.734,2.88,2.88,0,0,0-.682,2.04v5.68Z" transform="translate(-22.548 -5.412)" fill="#011d6a"/><path d="M132.664-268.995a3.405,3.405,0,0,1-2.359-.805,2.95,2.95,0,0,1-.9-2.321,2.8,2.8,0,0,1,1.068-2.415,6.521,6.521,0,0,1,3.221-1c.2-.025.41-.051.638-.076s.486-.05.772-.076.512-.047.677-.067v-.552a1.885,1.885,0,0,0-.438-1.387,1.825,1.825,0,0,0-1.335-.434,9.217,9.217,0,0,0-3.154.715q-.01-.028-.315-.867t-.315-.858a10.075,10.075,0,0,1,4-.79,4.348,4.348,0,0,1,3.078.919,3.972,3.972,0,0,1,.963,2.979v6.833h-1.849c-.007-.025-.076-.238-.21-.638s-.2-.613-.2-.638a5.855,5.855,0,0,1-1.529,1.12A4.189,4.189,0,0,1,132.664-268.995Zm.677-1.773a2.735,2.735,0,0,0,1.511-.414,2.422,2.422,0,0,0,.919-1.006v-2.02c-.019,0-.185.012-.5.038s-.485.038-.51.038a5.212,5.212,0,0,0-2.22.572,1.535,1.535,0,0,0-.705,1.41,1.319,1.319,0,0,0,.39,1.025A1.593,1.593,0,0,0,133.34-270.768Z" transform="translate(-24.163 -5.364)" fill="#011d6a"/><path d="M60.737-194.7a6.306,6.306,0,0,1-4.851-1.925,7.5,7.5,0,0,1-1.792-5.318,7.148,7.148,0,0,1,1.873-5.17,6.49,6.49,0,0,1,4.9-1.949,7.289,7.289,0,0,1,4.146,1.135l-.81,1.953a6.215,6.215,0,0,0-3.278-1,3.7,3.7,0,0,0-3.045,1.387,5.751,5.751,0,0,0-1.12,3.722,5.775,5.775,0,0,0,1.082,3.745,3.753,3.753,0,0,0,3.083,1.325,7.606,7.606,0,0,0,3.479-.877l.343,2.021A7.737,7.737,0,0,1,60.737-194.7Z" transform="translate(-10.101 -18.597)" fill="#011d6a"/><path d="M73.4-194.831a5.4,5.4,0,0,1-1.787-.252,2.323,2.323,0,0,1-1.12-.806,3.343,3.343,0,0,1-.572-1.315,9.325,9.325,0,0,1-.162-1.9v-10.207l2.5-.162v10.322a3.761,3.761,0,0,0,.334,1.91,1.453,1.453,0,0,0,1.3.5,8.868,8.868,0,0,0,1.21-.1l.067,1.783c-.006,0-.084.015-.234.047s-.292.059-.429.081-.31.045-.519.067A5.62,5.62,0,0,1,73.4-194.831Z" transform="translate(-13.026 -18.52)" fill="#011d6a"/><path d="M78-194.891v-10.474h2.5v10.474Zm0-12v-2.135h2.507v2.135Z" transform="translate(-14.565 -18.603)" fill="#011d6a"/><path d="M89-193.91a5.212,5.212,0,0,1-3.931-1.453,5.535,5.535,0,0,1-1.406-4.017,5.732,5.732,0,0,1,1.325-3.974,4.635,4.635,0,0,1,3.612-1.487,4.249,4.249,0,0,1,3.359,1.353,5.226,5.226,0,0,1,1.2,3.593q0,.162,0,.525t0,.534H86.176a3.3,3.3,0,0,0,.805,2.273,2.777,2.777,0,0,0,2.111.805,6.6,6.6,0,0,0,3.3-.9l.353,1.773A6.98,6.98,0,0,1,89-193.91Zm-2.773-6.5H90.8a2.956,2.956,0,0,0-.581-1.963,2,2,0,0,0-1.611-.686,2.2,2.2,0,0,0-1.625.668A3.029,3.029,0,0,0,86.224-200.409Z" transform="translate(-15.622 -19.385)" fill="#011d6a"/><path d="M97.828-194.11v-10.474h2.011l.277,1.325a4.954,4.954,0,0,1,3.555-1.582,3.426,3.426,0,0,1,2.74,1.053,4.543,4.543,0,0,1,.91,3.055v6.623h-2.507v-6.318a3.64,3.64,0,0,0-.41-1.9,1.571,1.571,0,0,0-1.439-.629,2.767,2.767,0,0,0-1.483.415,2.516,2.516,0,0,0-.977,1.043,10.543,10.543,0,0,0-.181,2.288v5.1Z" transform="translate(-18.267 -19.385)" fill="#011d6a"/><path d="M116.443-194.562a5.366,5.366,0,0,1-1.778-.252,2.29,2.29,0,0,1-1.11-.8,3.4,3.4,0,0,1-.567-1.282,8.439,8.439,0,0,1-.167-1.825v-4.946h-1.716l.1-1.353,1.792-.163.8-2.84,1.525-.009v2.849h2.6v1.516h-2.6v4.993a3.138,3.138,0,0,0,.343,1.7,1.426,1.426,0,0,0,1.268.505,7.668,7.668,0,0,0,1.162-.1l.067,1.792c-.012,0-.09.015-.233.043s-.28.054-.41.076-.3.043-.5.062S116.621-194.562,116.443-194.562Z" transform="translate(-20.746 -18.789)" fill="#011d6a"/><path d="M126.556-193.91a5.214,5.214,0,0,1-3.931-1.453,5.536,5.536,0,0,1-1.405-4.017,5.732,5.732,0,0,1,1.325-3.974,4.634,4.634,0,0,1,3.612-1.487,4.249,4.249,0,0,1,3.36,1.353,5.229,5.229,0,0,1,1.2,3.593q0,.162,0,.525t0,.534h-6.967a3.3,3.3,0,0,0,.806,2.273,2.777,2.777,0,0,0,2.11.805,6.6,6.6,0,0,0,3.3-.9l.353,1.773A6.98,6.98,0,0,1,126.556-193.91Zm-2.773-6.5h4.575a2.954,2.954,0,0,0-.581-1.963,2,2,0,0,0-1.61-.686,2.2,2.2,0,0,0-1.625.668A3.028,3.028,0,0,0,123.782-200.409Z" transform="translate(-22.635 -19.385)" fill="#011d6a"/><path d="M34.7-120.384v-14H39.35a8.313,8.313,0,0,1,2.821.424,3.808,3.808,0,0,1,1.854,1.377,4.012,4.012,0,0,1,.681,2.393,5.642,5.642,0,0,1-.257,1.777A3.814,3.814,0,0,1,43.6-127a3.808,3.808,0,0,1-1.663.977,8.559,8.559,0,0,1-2.588.343q-1.3,0-2.106-.076v5.375Zm4.375-7.167a5.509,5.509,0,0,0,1.377-.153,2.749,2.749,0,0,0,.915-.39,1.8,1.8,0,0,0,.524-.591,2.288,2.288,0,0,0,.257-.681,4.017,4.017,0,0,0,.062-.739,2.121,2.121,0,0,0-.743-1.753,3.258,3.258,0,0,0-2.1-.6H37.244v4.889Q37.358-127.551,39.074-127.551Z" transform="translate(-6.479 -32.541)" fill="#011d6a"/><path d="M49.09-119.586v-10.473h2.1l.324,1.6a3.31,3.31,0,0,1,2.983-1.648,4.747,4.747,0,0,1,.667.038l-.038,2.087a5.315,5.315,0,0,0-.791-.057,2.685,2.685,0,0,0-2.063.734,2.884,2.884,0,0,0-.681,2.04v5.68Z" transform="translate(-9.166 -33.339)" fill="#011d6a"/><path d="M62.764-121.33a2.164,2.164,0,0,0,1.906-.925,4.637,4.637,0,0,0,.639-2.65,4.629,4.629,0,0,0-.639-2.659,2.191,2.191,0,0,0-1.925-.915,2.18,2.18,0,0,0-1.911.92,4.628,4.628,0,0,0-.643,2.664,4.564,4.564,0,0,0,.648,2.64A2.2,2.2,0,0,0,62.764-121.33Zm-.067,1.9a4.64,4.64,0,0,1-3.66-1.506A5.756,5.756,0,0,1,57.7-124.9a5.709,5.709,0,0,1,1.334-4,4.838,4.838,0,0,1,3.765-1.463,4.667,4.667,0,0,1,3.674,1.492,5.745,5.745,0,0,1,1.33,3.97,5.712,5.712,0,0,1-1.344,3.988A4.823,4.823,0,0,1,62.7-119.433Z" transform="translate(-10.775 -33.291)" fill="#011d6a"/><path d="M77.1-119.433a4.875,4.875,0,0,1-3.741-1.43,5.76,5.76,0,0,1-1.339-4.089,5.431,5.431,0,0,1,1.406-3.993,4.978,4.978,0,0,1,3.7-1.42,5.755,5.755,0,0,1,3.107.791l-.591,1.782a5.26,5.26,0,0,0-2.411-.677,2.425,2.425,0,0,0-2,.905,4.133,4.133,0,0,0-.729,2.641,4.247,4.247,0,0,0,.72,2.668,2.439,2.439,0,0,0,2.035.915,4.833,4.833,0,0,0,2.64-.81l.238,1.9a4.628,4.628,0,0,1-1.363.629A6.492,6.492,0,0,1,77.1-119.433Z" transform="translate(-13.449 -33.291)" fill="#011d6a"/><path d="M89.079-119.433a5.213,5.213,0,0,1-3.931-1.454,5.534,5.534,0,0,1-1.406-4.017,5.732,5.732,0,0,1,1.325-3.974,4.635,4.635,0,0,1,3.612-1.487,4.249,4.249,0,0,1,3.36,1.353,5.228,5.228,0,0,1,1.2,3.593q0,.162,0,.525c0,.242,0,.419,0,.534H86.258a3.3,3.3,0,0,0,.805,2.273,2.777,2.777,0,0,0,2.111.805,6.6,6.6,0,0,0,3.3-.9l.353,1.772A6.981,6.981,0,0,1,89.079-119.433Zm-2.773-6.5h4.575A2.955,2.955,0,0,0,90.3-127.9a2,2,0,0,0-1.611-.686,2.2,2.2,0,0,0-1.625.667A3.028,3.028,0,0,0,86.306-125.933Z" transform="translate(-15.637 -33.291)" fill="#011d6a"/><path d="M101.172-119.443a7.481,7.481,0,0,1-3.707-.791l.257-1.877a7.7,7.7,0,0,0,1.6.614,6.627,6.627,0,0,0,1.773.272,2.311,2.311,0,0,0,1.291-.309,1.05,1.05,0,0,0,.472-.911,1,1,0,0,0-.434-.857,8.076,8.076,0,0,0-1.653-.782q-.418-.152-.543-.2a5.6,5.6,0,0,1-2.087-1.253,2.652,2.652,0,0,1-.639-1.873,2.557,2.557,0,0,1,1.034-2.192,4.778,4.778,0,0,1,2.883-.763,7.808,7.808,0,0,1,3.517.753l-.619,1.725a6.77,6.77,0,0,0-2.85-.7,2.309,2.309,0,0,0-1.178.252.835.835,0,0,0-.424.767.86.86,0,0,0,.41.758,8.844,8.844,0,0,0,1.6.71c.025.007.107.035.247.086s.248.092.324.124a5.355,5.355,0,0,1,2.115,1.253,2.683,2.683,0,0,1,.677,1.9,2.973,2.973,0,0,1-1.067,2.43A4.656,4.656,0,0,1,101.172-119.443Z" transform="translate(-18.199 -33.291)" fill="#011d6a"/><path d="M113.9-121.33a2.164,2.164,0,0,0,1.906-.925,4.634,4.634,0,0,0,.638-2.65,4.626,4.626,0,0,0-.638-2.659,2.19,2.19,0,0,0-1.925-.915,2.181,2.181,0,0,0-1.911.92,4.63,4.63,0,0,0-.643,2.664,4.566,4.566,0,0,0,.648,2.64A2.2,2.2,0,0,0,113.9-121.33Zm-.067,1.9a4.64,4.64,0,0,1-3.66-1.506,5.759,5.759,0,0,1-1.334-3.965,5.711,5.711,0,0,1,1.334-4,4.838,4.838,0,0,1,3.765-1.463,4.668,4.668,0,0,1,3.674,1.492,5.745,5.745,0,0,1,1.33,3.97,5.71,5.71,0,0,1-1.344,3.988A4.822,4.822,0,0,1,113.838-119.433Z" transform="translate(-20.324 -33.291)" fill="#011d6a"/><path d="M127.036-119.443a7.482,7.482,0,0,1-3.708-.791l.258-1.877a7.683,7.683,0,0,0,1.6.614,6.631,6.631,0,0,0,1.773.272,2.309,2.309,0,0,0,1.291-.309,1.048,1.048,0,0,0,.472-.911,1,1,0,0,0-.433-.857,8.1,8.1,0,0,0-1.653-.782q-.42-.152-.543-.2A5.6,5.6,0,0,1,124-125.537a2.654,2.654,0,0,1-.638-1.873A2.558,2.558,0,0,1,124.4-129.6a4.779,4.779,0,0,1,2.883-.763,7.814,7.814,0,0,1,3.517.753l-.62,1.725a6.77,6.77,0,0,0-2.85-.7,2.3,2.3,0,0,0-1.177.252.834.834,0,0,0-.425.767.86.86,0,0,0,.41.758,8.843,8.843,0,0,0,1.6.71c.025.007.108.035.248.086s.247.092.324.124a5.359,5.359,0,0,1,2.116,1.253,2.687,2.687,0,0,1,.677,1.9,2.976,2.976,0,0,1-1.068,2.43A4.655,4.655,0,0,1,127.036-119.443Z" transform="translate(-23.029 -33.291)" fill="#011d6a"/><path d="M0-45.292,5.137-59.264H7.948l5.061,13.972H10.36L8.978-49.238H4.089L2.7-45.292Zm4.737-5.871H8.32q-1.716-5.5-1.763-5.68Z" transform="translate(0 -46.568)" fill="#011d6a"/><path d="M17.52-40.195v-14.83h2.144l.267,1.468A3.535,3.535,0,0,1,21.3-54.838a3.992,3.992,0,0,1,1.9-.453,3.731,3.731,0,0,1,2.264.715,4.428,4.428,0,0,1,1.482,1.949,7.3,7.3,0,0,1,.505,2.788,6.311,6.311,0,0,1-1.177,3.96,3.81,3.81,0,0,1-3.188,1.53,4.021,4.021,0,0,1-1.8-.4,3.921,3.921,0,0,1-1.349-1.072q.076,1.372.076,1.544v3.955Zm5.032-6.061a2.025,2.025,0,0,0,1.758-.934,4.677,4.677,0,0,0,.643-2.669,4.476,4.476,0,0,0-.648-2.649,2.106,2.106,0,0,0-1.8-.886q-2.478,0-2.507,3.374a5.009,5.009,0,0,0,.643,2.854A2.188,2.188,0,0,0,22.552-46.256Z" transform="translate(-3.271 -47.309)" fill="#011d6a"/><path d="M32.25-44.5V-54.974h2.1l.324,1.6a3.309,3.309,0,0,1,2.983-1.649,4.713,4.713,0,0,1,.667.038L38.283-52.9a5.325,5.325,0,0,0-.791-.057,2.684,2.684,0,0,0-2.063.734,2.882,2.882,0,0,0-.681,2.04v5.68Z" transform="translate(-6.022 -47.36)" fill="#011d6a"/><path d="M46.2-44.348A5.214,5.214,0,0,1,42.269-45.8a5.536,5.536,0,0,1-1.406-4.017,5.732,5.732,0,0,1,1.325-3.974A4.634,4.634,0,0,1,45.8-55.279a4.248,4.248,0,0,1,3.36,1.353,5.228,5.228,0,0,1,1.2,3.593q0,.162,0,.524t0,.534H43.379A3.3,3.3,0,0,0,44.185-47,2.776,2.776,0,0,0,46.3-46.2a6.6,6.6,0,0,0,3.3-.9l.353,1.773A6.982,6.982,0,0,1,46.2-44.348Zm-2.773-6.5H48a2.955,2.955,0,0,0-.581-1.963A2,2,0,0,0,45.81-53.5a2.2,2.2,0,0,0-1.625.667A3.029,3.029,0,0,0,43.427-50.848Z" transform="translate(-7.63 -47.312)" fill="#011d6a"/><path d="M55.031-44.548V-55.022h2.011l.276,1.325a4.956,4.956,0,0,1,3.555-1.582,3.426,3.426,0,0,1,2.74,1.053,4.543,4.543,0,0,1,.91,3.055v6.624H62.017v-6.319a3.639,3.639,0,0,0-.41-1.9,1.572,1.572,0,0,0-1.439-.629,2.767,2.767,0,0,0-1.482.415,2.514,2.514,0,0,0-.977,1.044,10.521,10.521,0,0,0-.181,2.287v5.1Z" transform="translate(-10.276 -47.312)" fill="#011d6a"/><path d="M73.511-45.212a3.858,3.858,0,0,1-3.221-1.506,6.373,6.373,0,0,1-1.172-4.022,6.159,6.159,0,0,1,1.167-3.922A3.869,3.869,0,0,1,73.5-56.144a3.353,3.353,0,0,1,3.155,1.582,17.76,17.76,0,0,1-.1-1.8v-3.383l2.5-.162v14.5H76.894l-.276-1.43q-.162.257-.3.443a3.179,3.179,0,0,1-.405.429,2.368,2.368,0,0,1-.577.391,3.874,3.874,0,0,1-.782.257A4.613,4.613,0,0,1,73.511-45.212Zm.591-1.9q2.516,0,2.554-3.422a4.837,4.837,0,0,0-.648-2.821,2.242,2.242,0,0,0-1.935-.886,2.129,2.129,0,0,0-1.8.9,4.4,4.4,0,0,0-.672,2.654,4.451,4.451,0,0,0,.672,2.659A2.145,2.145,0,0,0,74.1-47.109Z" transform="translate(-12.906 -46.447)" fill="#011d6a"/><path d="M84.551-45.329V-55.8h2.5v10.474Zm0-12v-2.135h2.507v2.135Z" transform="translate(-15.788 -46.53)" fill="#011d6a"/><path d="M90.023-44.489V-46l5.185-7.224H90.271v-1.735h7.7v1.706l-4.908,6.948h5.08v1.82Z" transform="translate(-16.81 -47.371)" fill="#011d6a"/><path d="M104.92-44.348a3.4,3.4,0,0,1-2.358-.805,2.949,2.949,0,0,1-.9-2.321,2.8,2.8,0,0,1,1.068-2.416,6.525,6.525,0,0,1,3.221-1q.3-.038.638-.076t.772-.076q.429-.038.677-.067v-.553a1.887,1.887,0,0,0-.438-1.387,1.827,1.827,0,0,0-1.335-.434,9.219,9.219,0,0,0-3.155.715q-.009-.029-.314-.867t-.315-.858a10.069,10.069,0,0,1,4-.791,4.344,4.344,0,0,1,3.078.92,3.971,3.971,0,0,1,.963,2.978v6.833h-1.849q-.01-.038-.21-.639t-.2-.638a5.842,5.842,0,0,1-1.53,1.12A4.183,4.183,0,0,1,104.92-44.348Zm.677-1.773a2.725,2.725,0,0,0,1.51-.415,2.42,2.42,0,0,0,.92-1.005v-2.021q-.028,0-.5.038t-.51.038a5.223,5.223,0,0,0-2.22.572,1.536,1.536,0,0,0-.706,1.411,1.319,1.319,0,0,0,.391,1.024A1.593,1.593,0,0,0,105.6-46.121Z" transform="translate(-18.983 -47.312)" fill="#011d6a"/><path d="M113.468-41.26l-.277-1.849h.553a3.518,3.518,0,0,0,.782-.071,1.612,1.612,0,0,0,.505-.2.75.75,0,0,0,.3-.4,2.5,2.5,0,0,0,.129-.577,8.143,8.143,0,0,0,.033-.824V-55.8h2.5v10.226a12.457,12.457,0,0,1-.062,1.344,5.534,5.534,0,0,1-.224,1.072,2.419,2.419,0,0,1-.443.843,2.667,2.667,0,0,1-.719.586,3.242,3.242,0,0,1-1.058.362,8.409,8.409,0,0,1-1.448.11Zm2.021-16.069v-2.135h2.5v2.135Z" transform="translate(-21.136 -46.53)" fill="#011d6a"/><path d="M126.556-44.348a5.216,5.216,0,0,1-3.931-1.453,5.537,5.537,0,0,1-1.405-4.017,5.731,5.731,0,0,1,1.325-3.974,4.634,4.634,0,0,1,3.612-1.487,4.249,4.249,0,0,1,3.36,1.353,5.229,5.229,0,0,1,1.2,3.593q0,.162,0,.524t0,.534h-6.967A3.294,3.294,0,0,0,124.54-47a2.776,2.776,0,0,0,2.11.805,6.6,6.6,0,0,0,3.3-.9l.353,1.773A6.982,6.982,0,0,1,126.556-44.348Zm-2.773-6.5h4.575a2.953,2.953,0,0,0-.581-1.963,2,2,0,0,0-1.61-.686,2.2,2.2,0,0,0-1.625.667A3.029,3.029,0,0,0,123.782-50.848Z" transform="translate(-22.635 -47.312)" fill="#011d6a"/><path d="M424.68-277.568l-53.048-17.6c-22.3-9.249-38.631-5.068-49.292,11.868-9.551,18.545,1.684,30.89,25.3,39.542L343.288-189.2l-56.3,21.384c11.668-24.168,12.554-47.913-5.455-70.917-16.577-.681-30.774,6.572-42.115,23.348,18.734,14.436,20.763,37.715,9.819,67.862-20.919-.51-31.6-13.674-32.731-38.622-14.308,35.976-8.75,62.362,10.692,82.046,49.69,48.961,72.62,34.006,75.41-16.3C276.028-109.5,265.058-97.334,281.536-77.7c27.981,7.1,50.347-6.661,66.107-44.951l14.848-45.169c20.747,1.373,26.675,20.952,27.045,47.359L359.764-73.771c15.358,21.715,31.622,22.29,48.725,3.273l26.01-49.961c11.716-14.709,29.671-19.122,53.025-14.628-20.746-16.7-47.116-24.967-80.664-22.467l23.712-28.593c18.651,12.509,32.628,11.93,42.55,0,6.577-18.686-8.242-28.087-32.513-33.386l-45.617-19.2c-1.061,21.993-12.819,34.959-32.5,41.241" transform="translate(-38.928 -1.622)" fill="none" stroke="#011d6a" stroke-linecap="round" stroke-linejoin="round" stroke-width="2"/><path d="M441.665-257.547l.667,37.321L431.64-183.531l-85.288,13.055-41.9,57.993h44.088l42.837-.054q24.531-4.582,14.848-37.1c10.28-32.665,11.528-61.555-9.393-81.181l-50.484-6.219c-23.753-7.728-44.67-6.379-61.441,8.238-5.385,41.533-31.371,52.806-66.557,50.569" transform="translate(-40.772 -9.543)" fill="none" stroke="#011d6a" stroke-linecap="round" stroke-linejoin="round" stroke-width="2"/><path d="M456.231-64.227c45.661,2.045,74.176-18.253,81.433-66.25,20.948-79.186-22.215-107.758-58.261-141.948" transform="translate(-85.19 -6.765)" fill="none" stroke="#011d6a" stroke-linecap="round" stroke-linejoin="round" stroke-width="2"/></g></svg>