<?xml version="1.0" encoding="UTF-8" standalone="no"?><!DOCTYPE svg PUBLIC "-//W3C//DTD SVG 1.1//EN" "http://www.w3.org/Graphics/SVG/1.1/DTD/svg11.dtd"><svg width="100%" height="100%" viewBox="0 0 2135 1246" version="1.1" xmlns="http://www.w3.org/2000/svg" xmlns:xlink="http://www.w3.org/1999/xlink" xml:space="preserve" xmlns:serif="http://www.serif.com/" style="fill-rule:evenodd;clip-rule:evenodd;stroke-linecap:round;stroke-linejoin:round;stroke-miterlimit:1.5;"><path d="M1623.94,1004.76l-94.374,-178.814" style="fill:none;stroke:#021e6b;stroke-width:4.63px;"/><path d="M1799.65,1003.52c29.596,-74.525 16.764,-133.263 -24.836,-181.298" style="fill:none;stroke:#021e6b;stroke-width:4.63px;"/><path d="M1730.11,533.514l-234.694,266.359l-218.55,-237.177" style="fill:none;stroke:#021e6b;stroke-width:4.63px;"/><path d="M1402.29,990.484l-122.314,-188.128l175.089,-258.908" style="fill:none;stroke:#021e6b;stroke-width:4.63px;"/><path d="M1246.45,287.024l21.731,278.776l-16.143,244.628l-78.231,195.578c84.267,32.773 158.912,35.937 221.655,2.483c80.756,-30.145 122.067,-93.616 106.792,-204.891c63.454,-108.43 31.561,-199.324 -49.05,-281.26c-18.255,-95.42 -71.358,-171.145 -165.775,-223.517l238.419,-17.385c136.6,-6.51 185.025,52.647 207.374,246.49c61.712,94.349 71.161,163.317 3.726,262.633c-83.809,32.549 -131.639,99.077 -126.04,216.068c67.83,35.817 140.58,32.274 216.688,1.862" style="fill:none;stroke:#021e6b;stroke-width:4.63px;"/><path d="M1162.63,1010.97c-73.842,-41.01 -107.662,-115.246 -93.753,-229.106c41.355,-122.767 105.587,-201.54 189.99,-241.523" style="fill:none;stroke:#021e6b;stroke-width:4.63px;"/><path d="M951.527,1015.32c64.101,-73.138 87.602,-149.966 78.852,-229.727c-19.792,-87.028 -18.502,-170.638 22.973,-247.732c65.595,-50.326 162.477,-67.648 204.891,-8.692c79.798,52.36 149.515,46.981 211.1,-4.967c139.515,9.912 228.048,101.018 278.156,253.32" style="fill:none;stroke:#021e6b;stroke-width:4.63px;"/><circle cx="945.384" cy="1011.53" r="47.952" style="fill:#021e6b;"/><circle cx="1401.69" cy="1011.53" r="47.952" style="fill:#021e6b;"/><circle cx="1605.85" cy="1011.53" r="47.952" style="fill:#021e6b;"/><circle cx="1810.01" cy="1011.53" r="47.952" style="fill:#021e6b;"/><circle cx="1245.56" cy="279.052" r="117.425" style="fill:#021e6b;"/><ellipse cx="1528.56" cy="283.66" rx="93.172" ry="96.567" style="fill:#021e6b;"/><circle cx="1036.89" cy="531.906" r="88.62" style="fill:#021e6b;"/><circle cx="1258.24" cy="531.906" r="71.946" style="fill:#021e6b;"/><circle cx="1024.19" cy="785.352" r="71.946" style="fill:#021e6b;"/><circle cx="1255.61" cy="785.352" r="71.946" style="fill:#021e6b;"/><circle cx="1173.54" cy="1012.12" r="71.946" style="fill:#021e6b;"/><circle cx="1746.94" cy="785.352" r="71.946" style="fill:#021e6b;"/><circle cx="1462.88" cy="527.358" r="86.194" style="fill:#021e6b;"/><circle cx="1501.28" cy="792.931" r="86.194" style="fill:#021e6b;"/><circle cx="1726.02" cy="527.358" r="86.194" style="fill:#021e6b;"/><g><path d="M366.673,303.953l0,-56.412l33.386,-0l-0.385,8.279l-22.642,-0l-0,16.018l21.525,0l0,8.202l-21.525,0l-0,23.913l-10.359,0Z" style="fill:#021e6b;fill-rule:nonzero;"/><path d="M408.415,303.953l-0,-42.319l10.089,0l-0,42.319l-10.089,0Zm-0,-48.48l-0,-8.625l10.127,-0l0,8.625l-10.127,0Z" style="fill:#021e6b;fill-rule:nonzero;"/><path d="M429.016,303.953l-0,-42.319l8.125,0l1.117,5.353c4.312,-4.262 9.1,-6.393 14.363,-6.393c4.929,0 8.619,1.419 11.07,4.255c2.452,2.837 3.678,6.951 3.678,12.342l-0,26.762l-10.128,0l0,-25.53c-0.025,-3.414 -0.577,-5.968 -1.655,-7.663c-1.078,-1.694 -3.017,-2.541 -5.815,-2.541c-2.182,-0 -4.178,0.558 -5.988,1.675c-1.809,1.117 -3.125,2.522 -3.947,4.216c-0.487,2.003 -0.731,5.083 -0.731,9.242l-0,20.601l-10.089,0Z" style="fill:#021e6b;fill-rule:nonzero;"/><path d="M488.471,304.762c-3.928,-0 -7.105,-1.085 -9.531,-3.254c-2.426,-2.169 -3.639,-5.295 -3.639,-9.376c0,-4.39 1.438,-7.644 4.313,-9.762c2.875,-2.118 7.214,-3.459 13.015,-4.024c0.796,-0.103 1.656,-0.205 2.58,-0.308c0.924,-0.103 1.964,-0.205 3.119,-0.308c1.156,-0.103 2.067,-0.193 2.734,-0.27l0,-2.233c0,-2.567 -0.59,-4.435 -1.771,-5.603c-1.181,-1.168 -2.978,-1.752 -5.391,-1.752c-3.44,0 -7.689,0.963 -12.746,2.888c-0.025,-0.077 -0.449,-1.245 -1.27,-3.504c-0.822,-2.259 -1.246,-3.414 -1.271,-3.465c4.98,-2.131 10.371,-3.197 16.173,-3.197c5.699,0 9.845,1.239 12.437,3.716c2.593,2.478 3.89,6.489 3.89,12.034l-0,27.609l-7.471,0c-0.025,-0.103 -0.308,-0.962 -0.847,-2.58c-0.539,-1.617 -0.809,-2.477 -0.809,-2.58c-2.105,2.054 -4.165,3.562 -6.18,4.525c-2.015,0.962 -4.46,1.444 -7.335,1.444Zm2.734,-7.162c2.336,-0 4.37,-0.559 6.103,-1.676c1.733,-1.116 2.971,-2.47 3.716,-4.062l-0,-8.163c-0.077,-0 -0.751,0.051 -2.022,0.154c-1.271,0.102 -1.957,0.154 -2.06,0.154c-4.082,0.359 -7.072,1.129 -8.972,2.31c-1.9,1.181 -2.85,3.081 -2.85,5.699c0,1.797 0.527,3.177 1.579,4.14c1.053,0.962 2.555,1.444 4.506,1.444Z" style="fill:#021e6b;fill-rule:nonzero;"/><path d="M521.278,303.953l0,-42.319l8.125,0l1.117,5.353c4.313,-4.262 9.101,-6.393 14.363,-6.393c4.929,0 8.619,1.419 11.071,4.255c2.451,2.837 3.677,6.951 3.677,12.342l0,26.762l-10.127,0l-0,-25.53c-0.026,-3.414 -0.578,-5.968 -1.656,-7.663c-1.078,-1.694 -3.016,-2.541 -5.814,-2.541c-2.182,-0 -4.178,0.558 -5.988,1.675c-1.81,1.117 -3.126,2.522 -3.947,4.216c-0.488,2.003 -0.732,5.083 -0.732,9.242l0,20.601l-10.089,0Z" style="fill:#021e6b;fill-rule:nonzero;"/><path d="M588.088,304.762c-6.469,-0 -11.507,-1.926 -15.114,-5.776c-3.607,-3.851 -5.41,-9.357 -5.41,-16.52c-0,-6.931 1.893,-12.309 5.679,-16.134c3.787,-3.825 8.774,-5.738 14.96,-5.738c4.955,0 9.139,1.066 12.554,3.197l-2.388,7.2c-3.491,-1.822 -6.739,-2.734 -9.742,-2.734c-3.414,0 -6.103,1.22 -8.067,3.658c-1.964,2.439 -2.946,5.995 -2.946,10.667c-0,4.723 0.969,8.317 2.907,10.782c1.938,2.464 4.679,3.696 8.221,3.696c3.697,0 7.253,-1.091 10.667,-3.273l0.962,7.663c-1.771,1.181 -3.606,2.028 -5.506,2.542c-1.9,0.513 -4.159,0.77 -6.777,0.77Z" style="fill:#021e6b;fill-rule:nonzero;"/><path d="M608.612,303.953l-0,-42.319l10.089,0l-0,42.319l-10.089,0Zm-0,-48.48l-0,-8.625l10.127,-0l0,8.625l-10.127,0Z" style="fill:#021e6b;fill-rule:nonzero;"/><path d="M648.775,304.762c-6.803,-0 -12.098,-1.958 -15.884,-5.872c-3.787,-3.915 -5.68,-9.326 -5.68,-16.231c-0,-6.726 1.784,-12.078 5.352,-16.057c3.569,-3.98 8.433,-5.982 14.594,-6.008c5.828,0 10.352,1.823 13.574,5.468c3.222,3.646 4.833,8.485 4.833,14.518c-0,0.436 -0.007,1.142 -0.02,2.117c-0.012,0.976 -0.019,1.695 -0.019,2.157l-28.148,-0c0.102,3.953 1.187,7.014 3.253,9.184c2.067,2.169 4.91,3.253 8.53,3.253c4.621,0 9.062,-1.206 13.323,-3.619l1.425,7.162c-4.236,2.619 -9.28,3.928 -15.133,3.928Zm-11.206,-26.262l18.483,0c0,-3.44 -0.783,-6.084 -2.349,-7.932c-1.565,-1.849 -3.735,-2.773 -6.507,-2.773c-2.593,0 -4.781,0.899 -6.566,2.696c-1.784,1.797 -2.804,4.467 -3.061,8.009Z" style="fill:#021e6b;fill-rule:nonzero;"/><path d="M673.804,303.953l0,-42.319l8.472,0l1.309,6.469c2.772,-4.441 6.79,-6.661 12.052,-6.661c1.104,-0 2.003,0.051 2.696,0.154l-0.154,8.433c-1.027,-0.154 -2.092,-0.231 -3.196,-0.231c-3.722,-0 -6.501,0.988 -8.337,2.965c-1.835,1.976 -2.753,4.723 -2.753,8.24l-0,22.95l-10.089,0Z" style="fill:#021e6b;fill-rule:nonzero;"/><path d="M715.391,304.762c-3.927,-0 -7.104,-1.085 -9.53,-3.254c-2.426,-2.169 -3.639,-5.295 -3.639,-9.376c0,-4.39 1.438,-7.644 4.313,-9.762c2.875,-2.118 7.214,-3.459 13.015,-4.024c0.796,-0.103 1.656,-0.205 2.58,-0.308c0.924,-0.103 1.964,-0.205 3.119,-0.308c1.155,-0.103 2.067,-0.193 2.734,-0.27l0,-2.233c0,-2.567 -0.59,-4.435 -1.771,-5.603c-1.181,-1.168 -2.978,-1.752 -5.391,-1.752c-3.44,0 -7.689,0.963 -12.746,2.888c-0.025,-0.077 -0.449,-1.245 -1.271,-3.504c-0.821,-2.259 -1.245,-3.414 -1.27,-3.465c4.98,-2.131 10.371,-3.197 16.173,-3.197c5.699,0 9.845,1.239 12.437,3.716c2.593,2.478 3.89,6.489 3.89,12.034l-0,27.609l-7.471,0c-0.025,-0.103 -0.308,-0.962 -0.847,-2.58c-0.539,-1.617 -0.809,-2.477 -0.809,-2.58c-2.105,2.054 -4.165,3.562 -6.18,4.525c-2.015,0.962 -4.46,1.444 -7.336,1.444Zm2.734,-7.162c2.337,-0 4.371,-0.559 6.104,-1.676c1.733,-1.116 2.971,-2.47 3.716,-4.062l-0,-8.163c-0.077,-0 -0.751,0.051 -2.022,0.154c-1.271,0.102 -1.957,0.154 -2.06,0.154c-4.082,0.359 -7.072,1.129 -8.972,2.31c-1.9,1.181 -2.85,3.081 -2.85,5.699c0,1.797 0.527,3.177 1.579,4.14c1.053,0.962 2.554,1.444 4.505,1.444Z" style="fill:#021e6b;fill-rule:nonzero;"/></g><g><path d="M481.597,551.486c-8.24,0 -14.774,-2.592 -19.6,-7.778c-4.826,-5.185 -7.239,-12.348 -7.239,-21.487c-0,-8.677 2.522,-15.64 7.566,-20.89c5.045,-5.249 11.649,-7.874 19.812,-7.874c6.598,-0 12.181,1.527 16.751,4.582l-3.273,7.894c-4.39,-2.696 -8.806,-4.043 -13.247,-4.043c-5.185,-0 -9.286,1.867 -12.303,5.602c-3.016,3.736 -4.524,8.748 -4.524,15.037c-0,6.521 1.457,11.565 4.37,15.134c2.914,3.568 7.066,5.352 12.457,5.352c4.724,-0 9.409,-1.181 14.055,-3.543l1.386,8.164c-4.312,2.567 -9.716,3.85 -16.211,3.85Z" style="fill:#021e6b;fill-rule:nonzero;"/><path d="M520.951,551.255c-2.901,0 -5.307,-0.34 -7.22,-1.02c-1.912,-0.68 -3.421,-1.765 -4.524,-3.254c-1.104,-1.489 -1.874,-3.26 -2.311,-5.314c-0.436,-2.053 -0.655,-4.608 -0.655,-7.663l0,-41.24l10.089,-0.655l0,41.703c0,3.799 0.45,6.373 1.348,7.72c0.899,1.348 2.644,2.022 5.237,2.022c1.284,0 2.914,-0.141 4.89,-0.424l0.27,7.201c-0.026,0 -0.34,0.064 -0.944,0.193c-0.603,0.128 -1.18,0.237 -1.732,0.327c-0.552,0.09 -1.252,0.18 -2.099,0.27c-0.847,0.09 -1.63,0.134 -2.349,0.134Z" style="fill:#021e6b;fill-rule:nonzero;"/><path d="M533.312,550.678l-0,-42.319l10.089,-0l-0,42.319l-10.089,-0Zm-0,-48.48l-0,-8.626l10.127,0l0,8.626l-10.127,-0Z" style="fill:#021e6b;fill-rule:nonzero;"/><path d="M573.474,551.486c-6.802,0 -12.097,-1.957 -15.884,-5.872c-3.786,-3.915 -5.679,-9.325 -5.679,-16.23c-0,-6.726 1.784,-12.079 5.352,-16.058c3.568,-3.979 8.433,-5.981 14.594,-6.007c5.828,0 10.352,1.823 13.574,5.468c3.222,3.645 4.832,8.484 4.832,14.517c0,0.437 -0.006,1.143 -0.019,2.118c-0.013,0.976 -0.019,1.694 -0.019,2.156l-28.149,0c0.103,3.954 1.188,7.015 3.254,9.184c2.067,2.17 4.91,3.254 8.53,3.254c4.62,0 9.061,-1.206 13.323,-3.619l1.425,7.162c-4.236,2.618 -9.281,3.927 -15.134,3.927Zm-11.205,-26.261l18.483,-0c0,-3.44 -0.783,-6.084 -2.349,-7.933c-1.566,-1.848 -3.735,-2.772 -6.507,-2.772c-2.593,-0 -4.782,0.898 -6.566,2.695c-1.784,1.797 -2.804,4.467 -3.061,8.01Z" style="fill:#021e6b;fill-rule:nonzero;"/><path d="M598.465,550.678l0,-42.319l8.125,-0l1.117,5.352c4.313,-4.261 9.101,-6.392 14.363,-6.392c4.929,0 8.619,1.418 11.071,4.255c2.451,2.837 3.677,6.951 3.677,12.342l0,26.762l-10.127,-0l-0,-25.53c-0.026,-3.414 -0.578,-5.969 -1.656,-7.663c-1.078,-1.694 -3.016,-2.542 -5.814,-2.542c-2.182,0 -4.178,0.559 -5.988,1.676c-1.81,1.116 -3.126,2.522 -3.947,4.216c-0.488,2.002 -0.732,5.083 -0.732,9.242l0,20.601l-10.089,-0Z" style="fill:#021e6b;fill-rule:nonzero;"/><path d="M663.658,551.255c-2.876,0 -5.27,-0.34 -7.182,-1.02c-1.913,-0.68 -3.408,-1.752 -4.486,-3.215c-1.078,-1.464 -1.842,-3.19 -2.291,-5.179c-0.449,-1.99 -0.674,-4.448 -0.674,-7.375l-0,-19.985l-6.931,0l0.385,-5.468l7.239,-0.654l3.235,-11.475l6.161,-0.039l-0,11.514l10.512,-0l0,6.122l-10.512,0l-0,20.178c-0,3.209 0.462,5.494 1.386,6.854c0.924,1.361 2.631,2.041 5.121,2.041c1.464,0 3.03,-0.128 4.698,-0.385l0.27,7.239c-0.052,0 -0.366,0.058 -0.944,0.174c-0.577,0.115 -1.129,0.218 -1.655,0.308c-0.527,0.089 -1.201,0.173 -2.022,0.25c-0.822,0.077 -1.592,0.115 -2.31,0.115Z" style="fill:#021e6b;fill-rule:nonzero;"/><path d="M696.889,551.486c-6.803,0 -12.098,-1.957 -15.884,-5.872c-3.787,-3.915 -5.68,-9.325 -5.68,-16.23c0,-6.726 1.784,-12.079 5.353,-16.058c3.568,-3.979 8.433,-5.981 14.594,-6.007c5.827,0 10.352,1.823 13.573,5.468c3.222,3.645 4.833,8.484 4.833,14.517c-0,0.437 -0.006,1.143 -0.019,2.118c-0.013,0.976 -0.02,1.694 -0.02,2.156l-28.148,0c0.103,3.954 1.187,7.015 3.254,9.184c2.066,2.17 4.909,3.254 8.529,3.254c4.621,0 9.062,-1.206 13.323,-3.619l1.425,7.162c-4.236,2.618 -9.28,3.927 -15.133,3.927Zm-11.206,-26.261l18.484,-0c-0,-3.44 -0.783,-6.084 -2.349,-7.933c-1.566,-1.848 -3.735,-2.772 -6.508,-2.772c-2.593,-0 -4.781,0.898 -6.565,2.695c-1.784,1.797 -2.805,4.467 -3.062,8.01Z" style="fill:#021e6b;fill-rule:nonzero;"/></g><g><path d="M391.029,795.4l-0,-56.566l18.791,-0c4.441,-0 8.241,0.571 11.398,1.713c3.158,1.142 5.654,2.997 7.49,5.564c1.835,2.567 2.753,5.789 2.753,9.666c0,2.695 -0.346,5.089 -1.04,7.181c-0.693,2.092 -1.835,3.992 -3.427,5.699c-1.591,1.707 -3.831,3.023 -6.719,3.947c-2.888,0.924 -6.373,1.386 -10.455,1.386c-3.491,0 -6.328,-0.102 -8.51,-0.308l0,21.718l-10.281,0Zm17.675,-28.957c2.13,-0 3.985,-0.205 5.564,-0.616c1.579,-0.411 2.811,-0.937 3.696,-1.579c0.886,-0.642 1.592,-1.437 2.118,-2.387c0.527,-0.95 0.873,-1.868 1.04,-2.754c0.167,-0.885 0.25,-1.88 0.25,-2.984c0,-3.106 -1.001,-5.468 -3.003,-7.085c-2.003,-1.617 -4.826,-2.426 -8.472,-2.426l-8.587,-0l0,19.754c0.308,0.051 2.773,0.077 7.394,0.077Z" style="fill:#021e6b;fill-rule:nonzero;"/><path d="M438.315,795.4l0,-42.319l8.472,0l1.309,6.469c2.773,-4.441 6.79,-6.661 12.053,-6.661c1.104,-0 2.002,0.051 2.695,0.154l-0.154,8.433c-1.027,-0.154 -2.092,-0.231 -3.196,-0.231c-3.722,-0 -6.501,0.988 -8.337,2.965c-1.835,1.976 -2.753,4.723 -2.753,8.24l0,22.95l-10.089,0Z" style="fill:#021e6b;fill-rule:nonzero;"/><path d="M487.065,788.546c3.414,-0 5.981,-1.245 7.701,-3.735c1.72,-2.49 2.58,-6.059 2.58,-10.705c0,-4.698 -0.86,-8.279 -2.58,-10.744c-1.72,-2.464 -4.312,-3.696 -7.778,-3.696c-3.414,-0 -5.988,1.238 -7.721,3.716c-1.732,2.477 -2.599,6.065 -2.599,10.762c0,4.621 0.873,8.177 2.619,10.667c1.745,2.49 4.338,3.735 7.778,3.735Zm-0.269,7.663c-6.264,-0 -11.193,-2.028 -14.787,-6.084c-3.594,-4.056 -5.391,-9.396 -5.391,-16.019c-0,-6.829 1.797,-12.213 5.391,-16.154c3.594,-3.94 8.664,-5.911 15.21,-5.911c6.315,0 11.263,2.009 14.844,6.027c3.582,4.017 5.372,9.363 5.372,16.038c0,6.751 -1.81,12.123 -5.429,16.115c-3.62,3.992 -8.69,5.988 -15.21,5.988Z" style="fill:#021e6b;fill-rule:nonzero;"/><path d="M534.197,796.209c-6.469,-0 -11.507,-1.926 -15.113,-5.776c-3.607,-3.851 -5.411,-9.357 -5.411,-16.52c0,-6.931 1.894,-12.309 5.68,-16.134c3.787,-3.825 8.773,-5.738 14.96,-5.738c4.955,0 9.139,1.066 12.553,3.196l-2.387,7.201c-3.492,-1.822 -6.739,-2.734 -9.742,-2.734c-3.415,0 -6.104,1.22 -8.068,3.658c-1.963,2.439 -2.945,5.995 -2.945,10.667c-0,4.723 0.969,8.317 2.907,10.782c1.938,2.464 4.678,3.696 8.221,3.696c3.697,0 7.252,-1.091 10.666,-3.273l0.963,7.663c-1.771,1.181 -3.607,2.028 -5.506,2.542c-1.9,0.513 -4.159,0.77 -6.778,0.77Z" style="fill:#021e6b;fill-rule:nonzero;"/><path d="M573.744,796.209c-6.803,-0 -12.098,-1.958 -15.884,-5.873c-3.787,-3.914 -5.68,-9.325 -5.68,-16.23c0,-6.726 1.784,-12.078 5.353,-16.058c3.568,-3.979 8.433,-5.981 14.594,-6.007c5.827,0 10.352,1.823 13.573,5.468c3.222,3.646 4.833,8.485 4.833,14.517c-0,0.437 -0.006,1.143 -0.019,2.118c-0.013,0.976 -0.02,1.695 -0.02,2.157l-28.148,-0c0.103,3.953 1.187,7.014 3.254,9.184c2.066,2.169 4.909,3.253 8.529,3.253c4.621,0 9.062,-1.206 13.323,-3.619l1.425,7.162c-4.236,2.619 -9.28,3.928 -15.133,3.928Zm-11.205,-26.262l18.483,0c-0,-3.44 -0.783,-6.084 -2.349,-7.932c-1.566,-1.849 -3.735,-2.773 -6.508,-2.773c-2.593,0 -4.781,0.899 -6.565,2.696c-1.784,1.797 -2.805,4.466 -3.061,8.009Z" style="fill:#021e6b;fill-rule:nonzero;"/><path d="M612.251,796.17c-6.238,0 -11.231,-1.065 -14.979,-3.196l1.039,-7.586c1.695,0.925 3.851,1.752 6.47,2.484c2.618,0.732 5.005,1.098 7.162,1.098c2.233,-0 3.972,-0.418 5.217,-1.252c1.246,-0.834 1.881,-2.06 1.907,-3.677c-0,-1.464 -0.584,-2.619 -1.752,-3.466c-1.169,-0.847 -3.396,-1.9 -6.681,-3.158c-1.13,-0.41 -1.862,-0.68 -2.195,-0.808c-3.902,-1.515 -6.713,-3.203 -8.433,-5.064c-1.72,-1.861 -2.58,-4.383 -2.58,-7.566c-0,-3.851 1.392,-6.803 4.178,-8.857c2.785,-2.054 6.668,-3.081 11.648,-3.081c5.391,0 10.127,1.014 14.209,3.042l-2.503,6.97c-4.03,-1.874 -7.868,-2.811 -11.513,-2.811c-2.028,0 -3.614,0.34 -4.756,1.021c-1.142,0.68 -1.714,1.713 -1.714,3.099c0,1.31 0.552,2.33 1.656,3.062c1.104,0.731 3.26,1.688 6.469,2.869c0.103,0.025 0.437,0.141 1.002,0.346c0.564,0.205 1.001,0.372 1.309,0.501c3.876,1.412 6.726,3.099 8.548,5.063c1.823,1.964 2.734,4.525 2.734,7.682c-0.025,4.236 -1.463,7.509 -4.312,9.82c-2.85,2.31 -6.893,3.465 -12.13,3.465Z" style="fill:#021e6b;fill-rule:nonzero;"/><path d="M655.109,788.546c3.414,-0 5.981,-1.245 7.701,-3.735c1.72,-2.49 2.58,-6.059 2.58,-10.705c0,-4.698 -0.86,-8.279 -2.58,-10.744c-1.72,-2.464 -4.312,-3.696 -7.778,-3.696c-3.414,-0 -5.988,1.238 -7.721,3.716c-1.732,2.477 -2.599,6.065 -2.599,10.762c0,4.621 0.873,8.177 2.619,10.667c1.745,2.49 4.338,3.735 7.778,3.735Zm-0.27,7.663c-6.263,-0 -11.192,-2.028 -14.786,-6.084c-3.594,-4.056 -5.391,-9.396 -5.391,-16.019c-0,-6.829 1.797,-12.213 5.391,-16.154c3.594,-3.94 8.664,-5.911 15.21,-5.911c6.315,0 11.263,2.009 14.844,6.027c3.582,4.017 5.372,9.363 5.372,16.038c0,6.751 -1.81,12.123 -5.429,16.115c-3.62,3.992 -8.69,5.988 -15.211,5.988Z" style="fill:#021e6b;fill-rule:nonzero;"/><path d="M697.235,796.17c-6.238,0 -11.231,-1.065 -14.979,-3.196l1.04,-7.586c1.694,0.925 3.851,1.752 6.469,2.484c2.619,0.732 5.006,1.098 7.162,1.098c2.234,-0 3.973,-0.418 5.218,-1.252c1.245,-0.834 1.881,-2.06 1.906,-3.677c0,-1.464 -0.584,-2.619 -1.752,-3.466c-1.168,-0.847 -3.395,-1.9 -6.681,-3.158c-1.129,-0.41 -1.861,-0.68 -2.195,-0.808c-3.902,-1.515 -6.713,-3.203 -8.433,-5.064c-1.72,-1.861 -2.58,-4.383 -2.58,-7.566c0,-3.851 1.393,-6.803 4.178,-8.857c2.786,-2.054 6.668,-3.081 11.649,-3.081c5.391,0 10.127,1.014 14.209,3.042l-2.503,6.97c-4.031,-1.874 -7.868,-2.811 -11.514,-2.811c-2.028,0 -3.613,0.34 -4.755,1.021c-1.143,0.68 -1.714,1.713 -1.714,3.099c0,1.31 0.552,2.33 1.656,3.062c1.104,0.731 3.26,1.688 6.469,2.869c0.103,0.025 0.436,0.141 1.001,0.346c0.565,0.205 1.001,0.372 1.309,0.501c3.877,1.412 6.726,3.099 8.549,5.063c1.823,1.964 2.734,4.525 2.734,7.682c-0.026,4.236 -1.463,7.509 -4.313,9.82c-2.849,2.31 -6.893,3.465 -12.13,3.465Z" style="fill:#021e6b;fill-rule:nonzero;"/></g><g><path d="M277.01,1042.12l20.755,-56.451l11.36,-0l20.447,56.451l-10.705,-0l-5.583,-15.942l-19.754,-0l-5.622,15.942l-10.898,-0Zm19.138,-23.72l14.479,-0c-4.621,-14.813 -6.996,-22.463 -7.124,-22.95l-7.355,22.95Z" style="fill:#021e6b;fill-rule:nonzero;"/><path d="M334.578,1059.72l-0,-59.916l8.664,-0l1.078,5.93c1.386,-2.234 3.228,-3.96 5.526,-5.179c2.297,-1.22 4.858,-1.829 7.682,-1.829c3.466,-0 6.514,0.962 9.145,2.888c2.632,1.925 4.628,4.55 5.988,7.874c1.361,3.325 2.041,7.079 2.041,11.264c0,6.546 -1.585,11.879 -4.756,15.999c-3.17,4.12 -7.463,6.18 -12.88,6.18c-2.67,0 -5.089,-0.532 -7.259,-1.598c-2.169,-1.065 -3.985,-2.509 -5.448,-4.332c0.205,3.697 0.308,5.776 0.308,6.239l-0,15.98l-10.089,0.5Zm20.332,-24.49c3.003,0 5.371,-1.258 7.104,-3.774c1.733,-2.515 2.599,-6.109 2.599,-10.782c0,-4.749 -0.873,-8.317 -2.618,-10.704c-1.746,-2.388 -4.172,-3.582 -7.278,-3.582c-6.675,0 -10.05,4.544 -10.127,13.632c-0,5.237 0.866,9.081 2.599,11.533c1.733,2.451 4.306,3.677 7.721,3.677Z" style="fill:#021e6b;fill-rule:nonzero;"/><path d="M382.981,1042.12l0,-42.319l8.472,-0l1.309,6.469c2.772,-4.441 6.79,-6.662 12.052,-6.662c1.104,0 2.003,0.052 2.696,0.154l-0.154,8.433c-1.027,-0.154 -2.092,-0.231 -3.196,-0.231c-3.723,0 -6.501,0.989 -8.337,2.965c-1.835,1.977 -2.753,4.724 -2.753,8.241l-0,22.95l-10.089,-0Z" style="fill:#021e6b;fill-rule:nonzero;"/><path d="M432.847,1042.93c-6.802,0 -12.097,-1.957 -15.884,-5.872c-3.786,-3.915 -5.679,-9.325 -5.679,-16.23c-0,-6.726 1.784,-12.079 5.352,-16.058c3.568,-3.979 8.433,-5.981 14.594,-6.007c5.827,0 10.352,1.823 13.574,5.468c3.222,3.645 4.832,8.484 4.832,14.517c0,0.437 -0.006,1.143 -0.019,2.118c-0.013,0.976 -0.019,1.694 -0.019,2.156l-28.149,0c0.103,3.954 1.188,7.015 3.254,9.184c2.067,2.17 4.91,3.254 8.529,3.254c4.621,0 9.062,-1.206 13.324,-3.62l1.425,7.163c-4.236,2.618 -9.281,3.927 -15.134,3.927Zm-11.205,-26.261l18.483,-0c0,-3.44 -0.783,-6.084 -2.349,-7.933c-1.566,-1.848 -3.735,-2.772 -6.507,-2.772c-2.593,-0 -4.782,0.898 -6.566,2.695c-1.784,1.797 -2.804,4.467 -3.061,8.01Z" style="fill:#021e6b;fill-rule:nonzero;"/><path d="M457.838,1042.12l0,-42.319l8.125,-0l1.117,5.352c4.313,-4.261 9.1,-6.392 14.363,-6.392c4.929,0 8.619,1.418 11.071,4.255c2.451,2.837 3.677,6.951 3.677,12.342l0,26.762l-10.127,-0l-0,-25.53c-0.026,-3.415 -0.578,-5.969 -1.656,-7.663c-1.078,-1.694 -3.016,-2.542 -5.814,-2.542c-2.183,0 -4.178,0.559 -5.988,1.676c-1.81,1.116 -3.126,2.522 -3.947,4.216c-0.488,2.002 -0.732,5.083 -0.732,9.242l0,20.601l-10.089,-0Z" style="fill:#021e6b;fill-rule:nonzero;"/><path d="M521.875,1042.93c-5.519,0 -9.857,-2.028 -13.015,-6.084c-3.158,-4.056 -4.736,-9.472 -4.736,-16.25c-0,-6.571 1.572,-11.853 4.717,-15.845c3.144,-3.992 7.476,-5.988 12.996,-5.988c6.007,0 10.255,2.131 12.746,6.392c-0.257,-2.516 -0.386,-4.941 -0.386,-7.278l0,-13.669l10.089,-0.655l0,58.569l-8.741,-0l-1.117,-5.776c-0.436,0.693 -0.84,1.29 -1.212,1.79c-0.373,0.501 -0.918,1.079 -1.637,1.733c-0.719,0.655 -1.495,1.181 -2.33,1.579c-0.834,0.398 -1.887,0.744 -3.157,1.04c-1.271,0.295 -2.676,0.442 -4.217,0.442Zm2.388,-7.662c6.777,-0 10.217,-4.608 10.32,-13.824c-0,-5.212 -0.873,-9.011 -2.619,-11.398c-1.746,-2.388 -4.351,-3.582 -7.817,-3.582c-3.029,0 -5.449,1.213 -7.258,3.639c-1.81,2.426 -2.715,6.001 -2.715,10.725c-0,4.697 0.905,8.278 2.715,10.743c1.809,2.464 4.267,3.697 7.374,3.697Z" style="fill:#021e6b;fill-rule:nonzero;"/><path d="M554.837,1042.12l0,-42.319l10.089,-0l-0,42.319l-10.089,-0Zm0,-48.48l0,-8.626l10.127,0l0,8.626l-10.127,-0Z" style="fill:#021e6b;fill-rule:nonzero;"/><path d="M572.82,1042.12l-0,-6.123l20.948,-29.188l-19.947,0l0,-7.008l31.114,-0l-0,6.893l-19.831,28.071l20.524,0l-0,7.355l-32.808,-0Z" style="fill:#021e6b;fill-rule:nonzero;"/><path d="M624.226,1042.93c-3.927,0 -7.104,-1.084 -9.53,-3.253c-2.426,-2.17 -3.639,-5.295 -3.639,-9.377c0,-4.39 1.438,-7.643 4.313,-9.761c2.875,-2.118 7.214,-3.459 13.015,-4.024c0.796,-0.103 1.656,-0.206 2.58,-0.308c0.924,-0.103 1.964,-0.206 3.119,-0.308c1.155,-0.103 2.067,-0.193 2.734,-0.27l0,-2.233c0,-2.567 -0.59,-4.435 -1.771,-5.603c-1.181,-1.168 -2.978,-1.752 -5.391,-1.752c-3.44,-0 -7.689,0.963 -12.746,2.888c-0.025,-0.077 -0.449,-1.245 -1.271,-3.504c-0.821,-2.259 -1.245,-3.414 -1.27,-3.466c4.98,-2.131 10.371,-3.196 16.173,-3.196c5.699,0 9.845,1.239 12.437,3.716c2.593,2.477 3.89,6.488 3.89,12.033l-0,27.61l-7.471,-0c-0.025,-0.103 -0.308,-0.963 -0.847,-2.58c-0.539,-1.617 -0.809,-2.477 -0.809,-2.58c-2.105,2.054 -4.165,3.562 -6.18,4.524c-2.015,0.963 -4.46,1.444 -7.336,1.444Zm2.734,-7.162c2.337,0 4.371,-0.558 6.104,-1.675c1.733,-1.117 2.971,-2.471 3.716,-4.062l-0,-8.164c-0.077,0 -0.751,0.052 -2.022,0.154c-1.271,0.103 -1.957,0.154 -2.06,0.154c-4.082,0.36 -7.072,1.13 -8.972,2.311c-1.9,1.181 -2.85,3.08 -2.85,5.699c0,1.797 0.527,3.177 1.579,4.139c1.053,0.963 2.554,1.444 4.505,1.444Z" style="fill:#021e6b;fill-rule:nonzero;"/><path d="M650.065,1058.57l-1.117,-7.47l2.233,-0c1.284,-0 2.336,-0.096 3.158,-0.289c0.821,-0.192 1.502,-0.462 2.041,-0.809c0.539,-0.346 0.937,-0.879 1.193,-1.598c0.257,-0.718 0.43,-1.495 0.52,-2.329c0.09,-0.835 0.135,-1.945 0.135,-3.331l0,-42.935l10.089,-0l-0,41.318c-0,2.105 -0.084,3.915 -0.25,5.429c-0.167,1.515 -0.469,2.959 -0.905,4.332c-0.437,1.374 -1.034,2.509 -1.791,3.408c-0.757,0.898 -1.726,1.688 -2.907,2.368c-1.181,0.68 -2.606,1.168 -4.274,1.463c-1.669,0.296 -3.62,0.443 -5.854,0.443l-2.271,0Zm8.163,-64.922l0,-8.626l10.089,0l-0,8.626l-10.089,-0Z" style="fill:#021e6b;fill-rule:nonzero;"/><path d="M696.889,1042.93c-6.803,0 -12.098,-1.957 -15.884,-5.872c-3.787,-3.915 -5.68,-9.325 -5.68,-16.23c0,-6.726 1.784,-12.079 5.353,-16.058c3.568,-3.979 8.433,-5.981 14.594,-6.007c5.827,0 10.352,1.823 13.573,5.468c3.222,3.645 4.833,8.484 4.833,14.517c-0,0.437 -0.006,1.143 -0.019,2.118c-0.013,0.976 -0.02,1.694 -0.02,2.156l-28.148,0c0.103,3.954 1.187,7.015 3.254,9.184c2.066,2.17 4.909,3.254 8.529,3.254c4.621,0 9.062,-1.206 13.323,-3.62l1.425,7.163c-4.236,2.618 -9.28,3.927 -15.133,3.927Zm-11.206,-26.261l18.484,-0c-0,-3.44 -0.783,-6.084 -2.349,-7.933c-1.566,-1.848 -3.735,-2.772 -6.508,-2.772c-2.593,-0 -4.781,0.898 -6.565,2.695c-1.784,1.797 -2.805,4.467 -3.062,8.01Z" style="fill:#021e6b;fill-rule:nonzero;"/></g></svg>