<svg xmlns="http://www.w3.org/2000/svg" width="284.971" height="287.638" viewBox="0 0 284.971 287.638"><g transform="translate(0 730.791)"><path d="M170.305-389.325A53.5,53.5,0,0,1,223.78-335.85a53.5,53.5,0,0,1-53.475,53.475A53.5,53.5,0,0,1,116.83-335.85,53.5,53.5,0,0,1,170.305-389.325Z" transform="translate(-70.797 -206.923)" fill="#d6dee7" fill-rule="evenodd"/><g transform="translate(69.614 -558.574)"><text transform="translate(0 15)" fill="#011d6a" font-size="15" font-family="Oxygen-Bold, Oxygen" font-weight="700"><tspan x="0" y="0">Postpone</tspan></text></g><g transform="translate(74.074 -542.814)"><g transform="translate(0 0)"><text transform="translate(0 14)" fill="#011d6a" font-size="14" font-family="Oxygen-Bold, Oxygen" font-weight="700"><tspan x="0" y="0">or</tspan></text><text transform="translate(17.603 15)" fill="#011d6a" font-size="15" font-family="Oxygen-Bold, Oxygen" font-weight="700"><tspan x="0" y="0">cancel</tspan></text></g></g><path d="M248.562-294.5h39.274" transform="translate(-150.624 -264.383)" fill="none" stroke="#011d6a" stroke-linecap="round" stroke-linejoin="round" stroke-width="2.058" stroke-dasharray="0 6.173 0 0"/><g transform="translate(2.642 -554.456) rotate(-90)"><g transform="translate(0 0)"><text transform="translate(0 15)" fill="#011d6a" font-size="15" font-family="Oxygen-Bold, Oxygen" font-weight="700"><tspan x="0" y="0">Impacto</tspan></text></g></g><g transform="translate(115.527 -477.914)"><g transform="translate(0 0)"><text transform="translate(0 15)" fill="#011d6a" font-size="15" font-family="Oxygen-Bold, Oxygen" font-weight="700"><tspan x="0" y="0">Facilidad</tspan></text><text transform="translate(67.355 15)" fill="#011d6a" font-size="15" font-family="Oxygen-Bold, Oxygen" font-weight="700"><tspan x="0" y="0">de</tspan></text></g></g><g transform="translate(84.037 -462.153)"><text transform="translate(0 15)" fill="#011d6a" font-size="15" font-family="Oxygen-Bold, Oxygen" font-weight="700"><tspan x="0" y="0">implementación</tspan></text></g><path d="M120.137-716.257A14.541,14.541,0,0,0,105.6-730.791a14.541,14.541,0,0,0-14.534,14.534A14.541,14.541,0,0,0,105.6-701.722,14.541,14.541,0,0,0,120.137-716.257Zm-9.69,0a4.847,4.847,0,0,1-4.845,4.845,4.847,4.847,0,0,1-4.845-4.845A4.847,4.847,0,0,1,105.6-721.1,4.847,4.847,0,0,1,110.448-716.257Z" transform="translate(-55.186)" fill="#011d6a" fill-rule="evenodd"/><path d="M664.006-164.2a14.541,14.541,0,0,0-14.534,14.534,14.541,14.541,0,0,0,14.534,14.534,14.541,14.541,0,0,0,14.534-14.534A14.541,14.541,0,0,0,664.006-164.2Zm0,9.69a4.847,4.847,0,0,1,4.845,4.845,4.847,4.847,0,0,1-4.845,4.845,4.847,4.847,0,0,1-4.845-4.845A4.847,4.847,0,0,1,664.006-154.511Z" transform="translate(-393.569 -343.344)" fill="#011d6a" fill-rule="evenodd"/><path d="M115.66-676.763v213.557a4.845,4.845,0,0,0,4.845,4.845h210.33a4.847,4.847,0,0,0,4.845-4.845,4.847,4.847,0,0,0-4.845-4.845H125.35V-676.763a4.847,4.847,0,0,0-4.845-4.845A4.847,4.847,0,0,0,115.66-676.763Z" transform="translate(-70.088 -29.804)" fill="#011d6a" fill-rule="evenodd"/><path d="M0-44.271H26.074v-6.152H0Z" transform="translate(0 -412.292)" fill="#011d6a" fill-rule="evenodd"/><path d="M16.113-720.83v-9.961H9.961v9.961H0v6.152H9.961v9.961h6.152v-9.961h9.961v-6.152Z" fill="#011d6a" fill-rule="evenodd"/><path d="M673.185-65.2v-9.961h-6.152V-65.2h-9.961v6.152h9.961v9.961h6.152v-9.961h9.961V-65.2Z" transform="translate(-398.175 -397.301)" fill="#011d6a" fill-rule="evenodd"/><path d="M269.648-720.124a53.5,53.5,0,0,1,53.475,53.475,53.5,53.5,0,0,1-53.475,53.475,53.5,53.5,0,0,1-53.475-53.475A53.5,53.5,0,0,1,269.648-720.124Z" transform="translate(-130.997 -6.464)" fill="#011d6a" fill-rule="evenodd"/><path d="M499.794-720.124a53.5,53.5,0,0,1,53.475,53.475,53.5,53.5,0,0,1-53.475,53.475,53.5,53.5,0,0,1-53.475-53.475A53.5,53.5,0,0,1,499.794-720.124Z" transform="translate(-270.462 -6.464)" fill="#011d6a" fill-rule="evenodd"/><path d="M386.335-534.745A53.5,53.5,0,0,1,439.81-481.27,53.5,53.5,0,0,1,386.335-427.8,53.5,53.5,0,0,1,332.86-481.27,53.5,53.5,0,0,1,386.335-534.745Z" transform="translate(-201.708 -118.801)" fill="#011d6a" fill-rule="evenodd"/><g transform="translate(125.372 -685.915)"><text transform="translate(0 15)" fill="#fff" font-size="15" font-family="Oxygen-Bold, Oxygen" font-weight="700"><tspan x="0" y="0">Game</tspan></text></g><g transform="translate(110.053 -670.154)"><text transform="translate(0 15)" fill="#fff" font-size="15" font-family="Oxygen-Bold, Oxygen" font-weight="700"><tspan x="0" y="0">changer</tspan></text></g><path d="M324.8-625.3h39.274" transform="translate(-196.82 -63.925)" fill="none" stroke="#fff" stroke-linecap="round" stroke-linejoin="round" stroke-width="2.058" stroke-dasharray="0 6.173 0 0"/><g transform="translate(208.843 -685.915)"><text transform="translate(0 15)" fill="#fff" font-size="15" font-family="Oxygen-Bold, Oxygen" font-weight="700"><tspan x="0" y="0">Quick</tspan></text></g><g transform="translate(216.534 -670.154)"><text transform="translate(0 15)" fill="#fff" font-size="15" font-family="Oxygen-Bold, Oxygen" font-weight="700"><tspan x="0" y="0">wins</tspan></text></g><path d="M534.361-625.3h39.274" transform="translate(-323.814 -63.925)" fill="none" stroke="#fff" stroke-linecap="round" stroke-linejoin="round" stroke-width="2.058" stroke-dasharray="0 6.173 0 0"/><g transform="translate(157.842 -610.915)"><g transform="translate(0 0)"><text transform="translate(0 18)" fill="#fff" font-size="15" font-family="Oxygen-Bold, Oxygen" font-weight="700"><tspan x="0" y="0">Must</tspan></text><text transform="translate(38.581 18)" fill="#fff" font-size="14" font-family="Oxygen-Bold, Oxygen" font-weight="700"><tspan x="0" y="0">do</tspan></text></g></g><path d="M436.882-439.924h39.274" transform="translate(-264.743 -171.303)" fill="none" stroke="#fff" stroke-linecap="round" stroke-linejoin="round" stroke-width="2.058" stroke-dasharray="0 6.173 0 0"/></g></svg>