<?xml version="1.0" encoding="UTF-8" standalone="no"?>
<!DOCTYPE svg PUBLIC "-//W3C//DTD SVG 1.1//EN" "http://www.w3.org/Graphics/SVG/1.1/DTD/svg11.dtd">
<svg width="100%" height="100%" viewBox="0 0 327 264" version="1.1" xmlns="http://www.w3.org/2000/svg" xmlns:xlink="http://www.w3.org/1999/xlink" xml:space="preserve" xmlns:serif="http://www.serif.com/" style="fill-rule:evenodd;clip-rule:evenodd;stroke-linecap:round;stroke-linejoin:round;">
    <g transform="matrix(1,0,0,1,0,481.3)">
        <path d="M323.046,-247.288C326.829,-241.364 327.083,-233.822 323.706,-227.658C320.328,-221.493 313.835,-217.648 306.806,-217.648L170,-217.648L170,-350.683L257.009,-350.683L323.046,-247.288ZM156.071,-350.683L156.071,-217.649L19.269,-217.649C12.24,-217.649 5.747,-221.494 2.369,-227.659C-1.008,-233.823 -0.755,-241.365 3.028,-247.289L69.062,-350.683L156.071,-350.683ZM248.115,-364.616L77.96,-364.616L146.8,-472.4C150.336,-477.938 156.469,-481.299 163.04,-481.3C169.61,-481.299 175.743,-477.938 179.279,-472.4L248.115,-364.616Z" style="fill:rgb(214,222,231);"/>
        <g transform="matrix(1,0,0,1,188.933,-264.42)">
            <g>
                <g>
                    <path d="M10.615,-5.264L13.418,-4.375C12.988,-2.813 12.274,-1.652 11.274,-0.894C10.275,-0.135 9.007,0.244 7.471,0.244C5.57,0.244 4.007,-0.405 2.783,-1.704C1.559,-3.003 0.947,-4.779 0.947,-7.031C0.947,-9.414 1.563,-11.265 2.793,-12.583C4.023,-13.901 5.641,-14.561 7.646,-14.561C9.398,-14.561 10.82,-14.043 11.914,-13.008C12.565,-12.396 13.053,-11.517 13.379,-10.371L10.518,-9.688C10.348,-10.43 9.995,-11.016 9.458,-11.445C8.921,-11.875 8.268,-12.09 7.5,-12.09C6.439,-12.09 5.578,-11.709 4.917,-10.947C4.256,-10.186 3.926,-8.952 3.926,-7.246C3.926,-5.436 4.251,-4.147 4.902,-3.379C5.553,-2.611 6.4,-2.227 7.441,-2.227C8.21,-2.227 8.87,-2.471 9.424,-2.959C9.977,-3.447 10.374,-4.215 10.615,-5.264Z" style="fill:rgb(1,29,106);fill-rule:nonzero;"/>
                    <path d="M15.244,-5.332C15.244,-6.243 15.469,-7.126 15.918,-7.979C16.367,-8.831 17.004,-9.482 17.827,-9.932C18.651,-10.381 19.57,-10.605 20.586,-10.605C22.155,-10.605 23.441,-10.096 24.443,-9.077C25.446,-8.058 25.947,-6.771 25.947,-5.215C25.947,-3.646 25.441,-2.345 24.429,-1.313C23.416,-0.282 22.142,0.234 20.605,0.234C19.655,0.234 18.748,0.02 17.886,-0.41C17.023,-0.84 16.367,-1.47 15.918,-2.3C15.469,-3.13 15.244,-4.141 15.244,-5.332ZM18.057,-5.186C18.057,-4.157 18.301,-3.369 18.789,-2.822C19.277,-2.275 19.88,-2.002 20.596,-2.002C21.312,-2.002 21.912,-2.275 22.397,-2.822C22.882,-3.369 23.125,-4.163 23.125,-5.205C23.125,-6.221 22.882,-7.002 22.397,-7.549C21.912,-8.096 21.312,-8.369 20.596,-8.369C19.88,-8.369 19.277,-8.096 18.789,-7.549C18.301,-7.002 18.057,-6.214 18.057,-5.186ZM19.209,-11.641L20.557,-14.561L23.633,-14.561L20.947,-11.641L19.209,-11.641Z" style="fill:rgb(1,29,106);fill-rule:nonzero;"/>
                    <path d="M27.891,-10.371L30.42,-10.371L30.42,-8.955C31.325,-10.055 32.402,-10.605 33.652,-10.605C34.316,-10.605 34.893,-10.469 35.381,-10.195C35.869,-9.922 36.27,-9.508 36.582,-8.955C37.038,-9.508 37.529,-9.922 38.057,-10.195C38.584,-10.469 39.147,-10.605 39.746,-10.605C40.508,-10.605 41.152,-10.451 41.68,-10.142C42.207,-9.832 42.601,-9.378 42.861,-8.779C43.05,-8.337 43.145,-7.62 43.145,-6.631L43.145,0L40.4,0L40.4,-5.928C40.4,-6.956 40.306,-7.62 40.117,-7.92C39.863,-8.311 39.473,-8.506 38.945,-8.506C38.561,-8.506 38.2,-8.389 37.861,-8.154C37.523,-7.92 37.279,-7.576 37.129,-7.124C36.979,-6.672 36.904,-5.957 36.904,-4.98L36.904,0L34.16,0L34.16,-5.684C34.16,-6.693 34.111,-7.344 34.014,-7.637C33.916,-7.93 33.765,-8.148 33.56,-8.291C33.354,-8.434 33.076,-8.506 32.725,-8.506C32.301,-8.506 31.921,-8.392 31.582,-8.164C31.243,-7.936 31.001,-7.607 30.854,-7.178C30.708,-6.748 30.635,-6.035 30.635,-5.039L30.635,0L27.891,0L27.891,-10.371Z" style="fill:rgb(1,29,106);fill-rule:nonzero;"/>
                    <path d="M45.244,-5.332C45.244,-6.243 45.469,-7.126 45.918,-7.979C46.367,-8.831 47.004,-9.482 47.827,-9.932C48.651,-10.381 49.57,-10.605 50.586,-10.605C52.155,-10.605 53.441,-10.096 54.443,-9.077C55.446,-8.058 55.947,-6.771 55.947,-5.215C55.947,-3.646 55.441,-2.345 54.429,-1.313C53.416,-0.282 52.142,0.234 50.605,0.234C49.655,0.234 48.748,0.02 47.886,-0.41C47.023,-0.84 46.367,-1.47 45.918,-2.3C45.469,-3.13 45.244,-4.141 45.244,-5.332ZM48.057,-5.186C48.057,-4.157 48.301,-3.369 48.789,-2.822C49.277,-2.275 49.88,-2.002 50.596,-2.002C51.312,-2.002 51.912,-2.275 52.397,-2.822C52.882,-3.369 53.125,-4.163 53.125,-5.205C53.125,-6.221 52.882,-7.002 52.397,-7.549C51.912,-8.096 51.312,-8.369 50.596,-8.369C49.88,-8.369 49.277,-8.096 48.789,-7.549C48.301,-7.002 48.057,-6.214 48.057,-5.186Z" style="fill:rgb(1,29,106);fill-rule:nonzero;"/>
                </g>
            </g>
        </g>
        <g transform="matrix(1,0,0,1,188.933,-241.509)">
            <g>
                <g>
                    <path d="M1.241,0.718L4.532,1.118C4.587,1.5 4.713,1.764 4.912,1.907C5.185,2.112 5.616,2.215 6.204,2.215C6.956,2.215 7.52,2.102 7.896,1.876C8.148,1.726 8.34,1.483 8.47,1.148C8.559,0.909 8.603,0.468 8.603,-0.174L8.603,-1.764C7.742,-0.588 6.655,0 5.342,0C3.879,0 2.721,-0.619 1.866,-1.856C1.196,-2.833 0.861,-4.05 0.861,-5.506C0.861,-7.332 1.301,-8.726 2.179,-9.69C3.057,-10.654 4.149,-11.136 5.455,-11.136C6.802,-11.136 7.913,-10.544 8.788,-9.362L8.788,-10.89L11.484,-10.89L11.484,-1.118C11.484,0.167 11.378,1.128 11.167,1.764C10.955,2.399 10.657,2.898 10.274,3.261C9.892,3.623 9.381,3.907 8.741,4.112C8.102,4.317 7.294,4.419 6.316,4.419C4.471,4.419 3.162,4.103 2.389,3.471C1.617,2.839 1.23,2.037 1.23,1.066C1.23,0.971 1.234,0.854 1.241,0.718ZM3.814,-5.67C3.814,-4.515 4.038,-3.669 4.486,-3.133C4.934,-2.596 5.486,-2.328 6.142,-2.328C6.846,-2.328 7.441,-2.603 7.926,-3.153C8.412,-3.703 8.654,-4.519 8.654,-5.599C8.654,-6.727 8.422,-7.564 7.957,-8.111C7.492,-8.658 6.904,-8.931 6.193,-8.931C5.503,-8.931 4.934,-8.663 4.486,-8.126C4.038,-7.59 3.814,-6.771 3.814,-5.67Z" style="fill:rgb(1,29,106);fill-rule:nonzero;"/>
                    <path d="M16.488,-7.567L13.874,-8.039C14.167,-9.092 14.673,-9.871 15.391,-10.377C16.109,-10.883 17.175,-11.136 18.59,-11.136C19.875,-11.136 20.833,-10.984 21.461,-10.679C22.09,-10.375 22.533,-9.989 22.789,-9.521C23.046,-9.052 23.174,-8.193 23.174,-6.942L23.143,-3.579C23.143,-2.622 23.189,-1.916 23.281,-1.461C23.374,-1.007 23.546,-0.52 23.799,0L20.949,0C20.874,-0.191 20.781,-0.475 20.672,-0.851C20.624,-1.022 20.59,-1.135 20.569,-1.189C20.077,-0.711 19.551,-0.352 18.99,-0.113C18.43,0.126 17.832,0.246 17.196,0.246C16.075,0.246 15.191,-0.058 14.545,-0.667C13.899,-1.275 13.576,-2.044 13.576,-2.974C13.576,-3.589 13.723,-4.137 14.017,-4.619C14.311,-5.101 14.723,-5.47 15.253,-5.727C15.782,-5.983 16.546,-6.207 17.544,-6.398C18.891,-6.651 19.824,-6.887 20.344,-7.106L20.344,-7.393C20.344,-7.947 20.207,-8.342 19.934,-8.577C19.66,-8.813 19.144,-8.931 18.385,-8.931C17.873,-8.931 17.473,-8.83 17.186,-8.629C16.898,-8.427 16.666,-8.073 16.488,-7.567ZM20.344,-5.229C19.975,-5.106 19.39,-4.959 18.59,-4.789C17.791,-4.618 17.268,-4.45 17.021,-4.286C16.646,-4.02 16.458,-3.681 16.458,-3.271C16.458,-2.868 16.608,-2.519 16.909,-2.225C17.209,-1.931 17.592,-1.784 18.057,-1.784C18.577,-1.784 19.072,-1.955 19.544,-2.297C19.893,-2.557 20.122,-2.875 20.231,-3.25C20.306,-3.497 20.344,-3.965 20.344,-4.655L20.344,-5.229Z" style="fill:rgb(1,29,106);fill-rule:nonzero;"/>
                    <path d="M35.919,0L33.038,0L33.038,-5.558C33.038,-6.733 32.977,-7.494 32.854,-7.839C32.73,-8.184 32.531,-8.453 32.254,-8.644C31.977,-8.835 31.644,-8.931 31.254,-8.931C30.755,-8.931 30.307,-8.794 29.911,-8.521C29.514,-8.248 29.242,-7.885 29.095,-7.434C28.948,-6.983 28.875,-6.149 28.875,-4.932L28.875,0L25.994,0L25.994,-10.89L28.67,-10.89L28.67,-9.29C29.62,-10.521 30.816,-11.136 32.259,-11.136C32.895,-11.136 33.476,-11.021 34.002,-10.792C34.528,-10.563 34.927,-10.271 35.197,-9.916C35.467,-9.56 35.655,-9.157 35.76,-8.706C35.866,-8.254 35.919,-7.608 35.919,-6.768L35.919,0Z" style="fill:rgb(1,29,106);fill-rule:nonzero;"/>
                    <path d="M40.995,-7.567L38.38,-8.039C38.674,-9.092 39.18,-9.871 39.898,-10.377C40.616,-10.883 41.682,-11.136 43.097,-11.136C44.382,-11.136 45.339,-10.984 45.968,-10.679C46.597,-10.375 47.04,-9.989 47.296,-9.521C47.552,-9.052 47.681,-8.193 47.681,-6.942L47.65,-3.579C47.65,-2.622 47.696,-1.916 47.788,-1.461C47.881,-1.007 48.053,-0.52 48.306,0L45.456,0C45.38,-0.191 45.288,-0.475 45.179,-0.851C45.131,-1.022 45.097,-1.135 45.076,-1.189C44.584,-0.711 44.058,-0.352 43.497,-0.113C42.937,0.126 42.338,0.246 41.703,0.246C40.582,0.246 39.698,-0.058 39.052,-0.667C38.406,-1.275 38.083,-2.044 38.083,-2.974C38.083,-3.589 38.23,-4.137 38.524,-4.619C38.818,-5.101 39.23,-5.47 39.76,-5.727C40.289,-5.983 41.053,-6.207 42.051,-6.398C43.398,-6.651 44.331,-6.887 44.851,-7.106L44.851,-7.393C44.851,-7.947 44.714,-8.342 44.44,-8.577C44.167,-8.813 43.651,-8.931 42.892,-8.931C42.379,-8.931 41.979,-8.83 41.692,-8.629C41.405,-8.427 41.173,-8.073 40.995,-7.567ZM44.851,-5.229C44.481,-5.106 43.897,-4.959 43.097,-4.789C42.297,-4.618 41.774,-4.45 41.528,-4.286C41.152,-4.02 40.964,-3.681 40.964,-3.271C40.964,-2.868 41.115,-2.519 41.416,-2.225C41.716,-1.931 42.099,-1.784 42.564,-1.784C43.083,-1.784 43.579,-1.955 44.051,-2.297C44.399,-2.557 44.628,-2.875 44.738,-3.25C44.813,-3.497 44.851,-3.965 44.851,-4.655L44.851,-5.229Z" style="fill:rgb(1,29,106);fill-rule:nonzero;"/>
                    <path d="M53.279,0L50.398,0L50.398,-10.89L53.074,-10.89L53.074,-9.341C53.532,-10.073 53.944,-10.555 54.31,-10.787C54.676,-11.02 55.091,-11.136 55.556,-11.136C56.212,-11.136 56.844,-10.955 57.453,-10.592L56.561,-8.08C56.075,-8.395 55.624,-8.552 55.207,-8.552C54.804,-8.552 54.462,-8.441 54.182,-8.219C53.901,-7.996 53.681,-7.595 53.52,-7.014C53.36,-6.433 53.279,-5.216 53.279,-3.363L53.279,0Z" style="fill:rgb(1,29,106);fill-rule:nonzero;"/>
                </g>
            </g>
        </g>
        <g transform="matrix(1,0,0,1,45.39,-285.42)">
            <g transform="matrix(1,0,0,1,0,21)">
                <g>
                    <path d="M1.455,0L1.455,-14.316L12.07,-14.316L12.07,-11.895L4.346,-11.895L4.346,-8.721L11.533,-8.721L11.533,-6.309L4.346,-6.309L4.346,-2.412L12.344,-2.412L12.344,0L1.455,0Z" style="fill:rgb(1,29,106);fill-rule:nonzero;"/>
                    <path d="M24.209,0L21.465,0L21.465,-5.293C21.465,-6.413 21.406,-7.137 21.289,-7.466C21.172,-7.795 20.981,-8.05 20.718,-8.232C20.454,-8.415 20.137,-8.506 19.766,-8.506C19.29,-8.506 18.864,-8.376 18.486,-8.115C18.109,-7.855 17.85,-7.51 17.71,-7.08C17.57,-6.65 17.5,-5.856 17.5,-4.697L17.5,0L14.756,0L14.756,-10.371L17.305,-10.371L17.305,-8.848C18.21,-10.02 19.349,-10.605 20.723,-10.605C21.328,-10.605 21.882,-10.496 22.383,-10.278C22.884,-10.06 23.263,-9.782 23.521,-9.443C23.778,-9.105 23.957,-8.721 24.058,-8.291C24.159,-7.861 24.209,-7.246 24.209,-6.445L24.209,0Z" style="fill:rgb(1,29,106);fill-rule:nonzero;"/>
                </g>
            </g>
            <g transform="matrix(1,0,0,1,29.627,21)">
                <g>
                    <path d="M10.947,0L8.398,0L8.398,-1.523C7.975,-0.931 7.476,-0.49 6.899,-0.2C6.323,0.09 5.742,0.234 5.156,0.234C3.965,0.234 2.944,-0.246 2.095,-1.206C1.245,-2.166 0.82,-3.506 0.82,-5.225C0.82,-6.982 1.234,-8.319 2.061,-9.233C2.887,-10.148 3.932,-10.605 5.195,-10.605C6.354,-10.605 7.357,-10.124 8.203,-9.16L8.203,-14.316L10.947,-14.316L10.947,0ZM3.623,-5.41C3.623,-4.303 3.776,-3.503 4.082,-3.008C4.525,-2.292 5.143,-1.934 5.938,-1.934C6.569,-1.934 7.106,-2.202 7.549,-2.739C7.992,-3.276 8.213,-4.079 8.213,-5.146C8.213,-6.338 7.998,-7.196 7.568,-7.72C7.139,-8.244 6.589,-8.506 5.918,-8.506C5.267,-8.506 4.722,-8.247 4.282,-7.729C3.843,-7.212 3.623,-6.439 3.623,-5.41Z" style="fill:rgb(1,29,106);fill-rule:nonzero;"/>
                    <path d="M13.018,-5.332C13.018,-6.243 13.242,-7.126 13.691,-7.979C14.141,-8.831 14.777,-9.482 15.601,-9.932C16.424,-10.381 17.344,-10.605 18.359,-10.605C19.928,-10.605 21.214,-10.096 22.217,-9.077C23.219,-8.058 23.721,-6.771 23.721,-5.215C23.721,-3.646 23.215,-2.345 22.202,-1.313C21.19,-0.282 19.915,0.234 18.379,0.234C17.428,0.234 16.522,0.02 15.659,-0.41C14.797,-0.84 14.141,-1.47 13.691,-2.3C13.242,-3.13 13.018,-4.141 13.018,-5.332ZM15.83,-5.186C15.83,-4.157 16.074,-3.369 16.563,-2.822C17.051,-2.275 17.653,-2.002 18.369,-2.002C19.085,-2.002 19.686,-2.275 20.171,-2.822C20.656,-3.369 20.898,-4.163 20.898,-5.205C20.898,-6.221 20.656,-7.002 20.171,-7.549C19.686,-8.096 19.085,-8.369 18.369,-8.369C17.653,-8.369 17.051,-8.096 16.563,-7.549C16.074,-7.002 15.83,-6.214 15.83,-5.186ZM16.982,-11.641L18.33,-14.561L21.406,-14.561L18.721,-11.641L16.982,-11.641Z" style="fill:rgb(1,29,106);fill-rule:nonzero;"/>
                    <path d="M35.303,0L32.559,0L32.559,-5.293C32.559,-6.413 32.5,-7.137 32.383,-7.466C32.266,-7.795 32.075,-8.05 31.812,-8.232C31.548,-8.415 31.23,-8.506 30.859,-8.506C30.384,-8.506 29.958,-8.376 29.58,-8.115C29.202,-7.855 28.944,-7.51 28.804,-7.08C28.664,-6.65 28.594,-5.856 28.594,-4.697L28.594,0L25.85,0L25.85,-10.371L28.398,-10.371L28.398,-8.848C29.303,-10.02 30.443,-10.605 31.816,-10.605C32.422,-10.605 32.975,-10.496 33.477,-10.278C33.978,-10.06 34.357,-9.782 34.614,-9.443C34.871,-9.105 35.05,-8.721 35.151,-8.291C35.252,-7.861 35.303,-7.246 35.303,-6.445L35.303,0Z" style="fill:rgb(1,29,106);fill-rule:nonzero;"/>
                    <path d="M47.598,0L45.049,0L45.049,-1.523C44.626,-0.931 44.126,-0.49 43.55,-0.2C42.974,0.09 42.393,0.234 41.807,0.234C40.615,0.234 39.595,-0.246 38.745,-1.206C37.896,-2.166 37.471,-3.506 37.471,-5.225C37.471,-6.982 37.884,-8.319 38.711,-9.233C39.538,-10.148 40.583,-10.605 41.846,-10.605C43.005,-10.605 44.007,-10.124 44.854,-9.16L44.854,-14.316L47.598,-14.316L47.598,0ZM40.273,-5.41C40.273,-4.303 40.426,-3.503 40.732,-3.008C41.175,-2.292 41.794,-1.934 42.588,-1.934C43.219,-1.934 43.757,-2.202 44.199,-2.739C44.642,-3.276 44.863,-4.079 44.863,-5.146C44.863,-6.338 44.648,-7.196 44.219,-7.72C43.789,-8.244 43.239,-8.506 42.568,-8.506C41.917,-8.506 41.372,-8.247 40.933,-7.729C40.493,-7.212 40.273,-6.439 40.273,-5.41Z" style="fill:rgb(1,29,106);fill-rule:nonzero;"/>
                    <path d="M56.309,-3.301L59.043,-2.842C58.691,-1.839 58.136,-1.076 57.378,-0.552C56.619,-0.028 55.671,0.234 54.531,0.234C52.728,0.234 51.393,-0.355 50.527,-1.533C49.844,-2.477 49.502,-3.669 49.502,-5.107C49.502,-6.826 49.951,-8.172 50.85,-9.146C51.748,-10.119 52.884,-10.605 54.258,-10.605C55.801,-10.605 57.018,-10.096 57.91,-9.077C58.802,-8.058 59.229,-6.497 59.189,-4.395L52.314,-4.395C52.334,-3.581 52.555,-2.948 52.979,-2.495C53.402,-2.043 53.929,-1.816 54.561,-1.816C54.99,-1.816 55.352,-1.934 55.645,-2.168C55.938,-2.402 56.159,-2.78 56.309,-3.301ZM56.465,-6.074C56.445,-6.868 56.24,-7.472 55.85,-7.886C55.459,-8.299 54.984,-8.506 54.424,-8.506C53.825,-8.506 53.33,-8.288 52.939,-7.852C52.549,-7.415 52.357,-6.823 52.363,-6.074L56.465,-6.074Z" style="fill:rgb(1,29,106);fill-rule:nonzero;"/>
                </g>
            </g>
        </g>
        <g transform="matrix(1,0,0,1,81.157,-241.509)">
            <g>
                <text x="0px" y="0px" style="font-family:'Arial-BoldMT', 'Arial', sans-serif;font-weight:700;font-size:21px;fill:rgb(1,29,106);">jugar</text>
            </g>
        </g>
        <g transform="matrix(1,0,0,1,116.339,-384.417)">
            <g>
                <g>
                    <path d="M14.365,0L11.221,0L9.971,-3.252L4.248,-3.252L3.066,0L0,0L5.576,-14.316L8.633,-14.316L14.365,0ZM9.043,-5.664L7.07,-10.977L5.137,-5.664L9.043,-5.664Z" style="fill:rgb(1,29,106);fill-rule:nonzero;"/>
                    <path d="M15.674,-10.371L18.203,-10.371L18.203,-8.955C19.108,-10.055 20.186,-10.605 21.436,-10.605C22.1,-10.605 22.676,-10.469 23.164,-10.195C23.652,-9.922 24.053,-9.508 24.365,-8.955C24.821,-9.508 25.313,-9.922 25.84,-10.195C26.367,-10.469 26.93,-10.605 27.529,-10.605C28.291,-10.605 28.936,-10.451 29.463,-10.142C29.99,-9.832 30.384,-9.378 30.645,-8.779C30.833,-8.337 30.928,-7.62 30.928,-6.631L30.928,0L28.184,0L28.184,-5.928C28.184,-6.956 28.089,-7.62 27.9,-7.92C27.646,-8.311 27.256,-8.506 26.729,-8.506C26.344,-8.506 25.983,-8.389 25.645,-8.154C25.306,-7.92 25.062,-7.576 24.912,-7.124C24.762,-6.672 24.688,-5.957 24.688,-4.98L24.688,0L21.943,0L21.943,-5.684C21.943,-6.693 21.895,-7.344 21.797,-7.637C21.699,-7.93 21.548,-8.148 21.343,-8.291C21.138,-8.434 20.859,-8.506 20.508,-8.506C20.085,-8.506 19.704,-8.392 19.365,-8.164C19.027,-7.936 18.784,-7.607 18.638,-7.178C18.491,-6.748 18.418,-6.035 18.418,-5.039L18.418,0L15.674,0L15.674,-10.371Z" style="fill:rgb(1,29,106);fill-rule:nonzero;"/>
                    <path d="M33.545,0L33.545,-14.316L36.289,-14.316L36.289,-9.16C37.135,-10.124 38.138,-10.605 39.297,-10.605C40.56,-10.605 41.605,-10.148 42.432,-9.233C43.258,-8.319 43.672,-7.005 43.672,-5.293C43.672,-3.522 43.25,-2.158 42.407,-1.201C41.564,-0.244 40.54,0.234 39.336,0.234C38.743,0.234 38.159,0.086 37.583,-0.21C37.007,-0.506 36.51,-0.944 36.094,-1.523L36.094,0L33.545,0ZM36.27,-5.41C36.27,-4.336 36.439,-3.542 36.777,-3.027C37.253,-2.298 37.884,-1.934 38.672,-1.934C39.277,-1.934 39.793,-2.192 40.22,-2.71C40.646,-3.228 40.859,-4.043 40.859,-5.156C40.859,-6.341 40.645,-7.196 40.215,-7.72C39.785,-8.244 39.235,-8.506 38.564,-8.506C37.907,-8.506 37.36,-8.25 36.924,-7.739C36.488,-7.228 36.27,-6.452 36.27,-5.41Z" style="fill:rgb(1,29,106);fill-rule:nonzero;"/>
                    <path d="M45.879,-11.777L45.879,-14.316L48.623,-14.316L48.623,-11.777L45.879,-11.777ZM45.879,0L45.879,-10.371L48.623,-10.371L48.623,0L45.879,0Z" style="fill:rgb(1,29,106);fill-rule:nonzero;"/>
                    <path d="M60.479,-7.305L57.773,-6.816C57.682,-7.357 57.476,-7.764 57.153,-8.037C56.831,-8.311 56.413,-8.447 55.898,-8.447C55.215,-8.447 54.67,-8.211 54.263,-7.739C53.856,-7.267 53.652,-6.478 53.652,-5.371C53.652,-4.141 53.859,-3.271 54.272,-2.764C54.686,-2.256 55.241,-2.002 55.938,-2.002C56.458,-2.002 56.885,-2.15 57.217,-2.446C57.549,-2.743 57.783,-3.252 57.92,-3.975L60.615,-3.516C60.335,-2.279 59.798,-1.344 59.004,-0.713C58.21,-0.081 57.145,0.234 55.811,0.234C54.294,0.234 53.084,-0.244 52.183,-1.201C51.281,-2.158 50.83,-3.483 50.83,-5.176C50.83,-6.888 51.283,-8.221 52.188,-9.175C53.092,-10.129 54.316,-10.605 55.859,-10.605C57.122,-10.605 58.127,-10.334 58.872,-9.79C59.618,-9.246 60.153,-8.418 60.479,-7.305Z" style="fill:rgb(1,29,106);fill-rule:nonzero;"/>
                    <path d="M62.559,-11.777L62.559,-14.316L65.303,-14.316L65.303,-11.777L62.559,-11.777ZM62.559,0L62.559,-10.371L65.303,-10.371L65.303,0L62.559,0Z" style="fill:rgb(1,29,106);fill-rule:nonzero;"/>
                    <path d="M67.48,-5.332C67.48,-6.243 67.705,-7.126 68.154,-7.979C68.604,-8.831 69.24,-9.482 70.063,-9.932C70.887,-10.381 71.807,-10.605 72.822,-10.605C74.391,-10.605 75.677,-10.096 76.68,-9.077C77.682,-8.058 78.184,-6.771 78.184,-5.215C78.184,-3.646 77.677,-2.345 76.665,-1.313C75.653,-0.282 74.378,0.234 72.842,0.234C71.891,0.234 70.985,0.02 70.122,-0.41C69.259,-0.84 68.604,-1.47 68.154,-2.3C67.705,-3.13 67.48,-4.141 67.48,-5.332ZM70.293,-5.186C70.293,-4.157 70.537,-3.369 71.025,-2.822C71.514,-2.275 72.116,-2.002 72.832,-2.002C73.548,-2.002 74.149,-2.275 74.634,-2.822C75.119,-3.369 75.361,-4.163 75.361,-5.205C75.361,-6.221 75.119,-7.002 74.634,-7.549C74.149,-8.096 73.548,-8.369 72.832,-8.369C72.116,-8.369 71.514,-8.096 71.025,-7.549C70.537,-7.002 70.293,-6.214 70.293,-5.186ZM71.445,-11.641L72.793,-14.561L75.869,-14.561L73.184,-11.641L71.445,-11.641Z" style="fill:rgb(1,29,106);fill-rule:nonzero;"/>
                    <path d="M89.766,0L87.021,0L87.021,-5.293C87.021,-6.413 86.963,-7.137 86.846,-7.466C86.729,-7.795 86.538,-8.05 86.274,-8.232C86.011,-8.415 85.693,-8.506 85.322,-8.506C84.847,-8.506 84.421,-8.376 84.043,-8.115C83.665,-7.855 83.407,-7.51 83.267,-7.08C83.127,-6.65 83.057,-5.856 83.057,-4.697L83.057,0L80.313,0L80.313,-10.371L82.861,-10.371L82.861,-8.848C83.766,-10.02 84.906,-10.605 86.279,-10.605C86.885,-10.605 87.438,-10.496 87.939,-10.278C88.441,-10.06 88.82,-9.782 89.077,-9.443C89.334,-9.105 89.513,-8.721 89.614,-8.291C89.715,-7.861 89.766,-7.246 89.766,-6.445L89.766,0Z" style="fill:rgb(1,29,106);fill-rule:nonzero;"/>
                </g>
            </g>
        </g>
        <g transform="matrix(1,0,0,1,-100.939,-62.307)">
            <path d="M223.213,-343.517L277.813,-343.517" style="fill:none;fill-rule:nonzero;stroke:rgb(1,29,106);stroke-width:2.06px;stroke-dasharray:0,6.17,0,0;"/>
        </g>
        <g transform="matrix(1,0,0,1,-69.47,-161.343)">
            <path d="M153.624,-124.511L208.224,-124.511" style="fill:none;fill-rule:nonzero;stroke:rgb(1,29,106);stroke-width:2.06px;stroke-dasharray:0,6.17,0,0;"/>
        </g>
        <g transform="matrix(1,0,0,1,-156.1,-161.343)">
            <path d="M345.2,-124.511L399.8,-124.511" style="fill:none;fill-rule:nonzero;stroke:rgb(1,29,106);stroke-width:2.06px;stroke-dasharray:0,6.17,0,0;"/>
        </g>
    </g>
</svg>
