<svg xmlns="http://www.w3.org/2000/svg" width="326.075" height="263.652" viewBox="0 0 326.075 263.652"><g transform="translate(0 481.3)"><path d="M323.046-247.288a19.269,19.269,0,0,1,.66,19.63,19.269,19.269,0,0,1-16.9,10.01H170V-350.683h87.009ZM156.071-350.683v133.034H19.269a19.269,19.269,0,0,1-16.9-10.01,19.269,19.269,0,0,1,.659-19.63L69.062-350.683Zm92.044-13.933H77.96L146.8-472.4a19.271,19.271,0,0,1,16.24-8.9,19.269,19.269,0,0,1,16.239,8.9Z" transform="translate(0 0)" fill="#d6dee7" fill-rule="evenodd"/><g transform="translate(188.933 -285.42)"><text transform="translate(0 21)" fill="#011d6a" font-size="20" font-family="Oxygen-Bold, Oxygen" font-weight="700"><tspan x="0" y="0">Como</tspan></text></g><g transform="translate(188.933 -263.509)"><text transform="translate(0 22)" fill="#011d6a" font-size="21" font-family="Oxygen-Bold, Oxygen" font-weight="700"><tspan x="0" y="0">ganar</tspan></text></g><g transform="translate(45.39 -285.42)"><text transform="translate(0 21)" fill="#011d6a" font-size="20" font-family="Oxygen-Bold, Oxygen" font-weight="700"><tspan x="0" y="0">En</tspan></text><text transform="translate(29.627 21)" fill="#011d6a" font-size="20" font-family="Oxygen-Bold, Oxygen" font-weight="700"><tspan x="0" y="0">donde</tspan></text></g><g transform="translate(87.46 -263.509)"><text transform="translate(1 22)" fill="#011d6a" font-size="21" font-family="Oxygen-Bold, Oxygen" font-weight="700"><tspan x="0" y="0">jugar</tspan></text></g><g transform="translate(116.339 -405.417)"><text transform="translate(0 21)" fill="#011d6a" font-size="20" font-family="Oxygen-Bold, Oxygen" font-weight="700"><tspan x="0" y="0">Ambición</tspan></text></g><path d="M223.213-343.517h54.6" transform="translate(-100.939 -62.307)" fill="none" stroke="#011d6a" stroke-linecap="round" stroke-linejoin="round" stroke-width="2.058" stroke-dasharray="0 6.173 0 0"/><path d="M153.624-124.511h54.6" transform="translate(-69.47 -161.343)" fill="none" stroke="#011d6a" stroke-linecap="round" stroke-linejoin="round" stroke-width="2.058" stroke-dasharray="0 6.173 0 0"/><path d="M345.2-124.511h54.6" transform="translate(-156.1 -161.343)" fill="none" stroke="#011d6a" stroke-linecap="round" stroke-linejoin="round" stroke-width="2.058" stroke-dasharray="0 6.173 0 0"/></g></svg>