<svg xmlns="http://www.w3.org/2000/svg" width="26" height="26" viewBox="0 0 26 26"><circle cx="13" cy="13" r="13" fill="#021e6b"/><g transform="translate(5.785 7.41)"><path d="M4.791,12.415A8.858,8.858,0,0,0,13.708,3.5c0-.136,0-.273-.007-.4a6.421,6.421,0,0,0,1.567-1.625,6.362,6.362,0,0,1-1.8.494A3.133,3.133,0,0,0,14.846.228a6.347,6.347,0,0,1-1.989.76A3.136,3.136,0,0,0,7.436,3.133a2.872,2.872,0,0,0,.085.715A8.892,8.892,0,0,1,1.059.572a3.133,3.133,0,0,0,.975,4.18,3.079,3.079,0,0,1-1.417-.39V4.4A3.138,3.138,0,0,0,3.133,7.475a3.125,3.125,0,0,1-.826.11,2.992,2.992,0,0,1-.591-.058A3.13,3.13,0,0,0,4.641,9.7,6.3,6.3,0,0,1,.748,11.043,5.7,5.7,0,0,1,0,11a8.733,8.733,0,0,0,4.791,1.417" transform="translate(0.045 0.032)" fill="#fff"/></g></svg>