<svg xmlns="http://www.w3.org/2000/svg" xmlns:xlink="http://www.w3.org/1999/xlink" width="26" height="18" viewBox="0 0 26 18"><defs><clipPath id="a"><path d="M0,0H26V18H0Z" transform="translate(0)" fill="none"/></clipPath></defs><path d="M0,0H26V18H0Z" transform="translate(0)" fill="none"/><g clip-path="url(#a)"><path d="M25.457,2.811a3.238,3.238,0,0,0-2.3-2.273C21.13,0,13,0,13,0S4.87,0,2.842.537a3.238,3.238,0,0,0-2.3,2.273A33.11,33.11,0,0,0,0,9a33.113,33.113,0,0,0,.543,6.189,3.239,3.239,0,0,0,2.3,2.273C4.87,18,13,18,13,18s8.13,0,10.158-.537a3.239,3.239,0,0,0,2.3-2.273A33.1,33.1,0,0,0,26,9a33.1,33.1,0,0,0-.543-6.189" transform="translate(0 0)" fill="#021e6b"/></g><path d="M0,7.6,6.8,3.8,0,0Z" transform="translate(10.341 5.201)" fill="#fff"/></svg>